<svg width="76" height="76" viewBox="0 0 76 76" fill="none" xmlns="http://www.w3.org/2000/svg">
<path d="M37.995 75.99C58.9791 75.99 75.99 59.2232 75.99 38.5404C75.99 17.8576 58.9791 1.09079 37.995 1.09079C17.011 1.09079 6.10352e-05 17.8576 6.10352e-05 38.5404C6.10352e-05 59.2232 17.011 75.99 37.995 75.99Z" fill="#FFFCEF"/>
<path d="M40.0987 72.4778C36.8997 71.5793 33.733 70.4431 30.8353 68.8597C29.0902 67.9061 27.499 66.6846 26.0332 65.3659C23.9089 63.4547 21.8372 61.4094 20.3165 59.0245C19.0169 56.9864 18.1252 54.6958 17.5092 52.3796C16.9171 50.1533 16.7786 47.8275 16.6874 45.5313C16.6319 44.1276 16.677 42.7144 16.8563 41.3204C16.9444 40.6397 17.0913 39.963 17.3004 39.3072C17.5549 38.5093 17.816 37.5185 18.1711 36.5727C18.615 35.3903 18.9819 34.6932 19.5277 33.8261C19.5679 33.7623 19.6151 33.7018 19.6678 33.6471C19.7318 33.5803 19.7958 33.5085 19.8787 33.4651C19.928 33.4418 19.9993 33.386 20.0416 33.4217C20.0591 33.4351 20.0555 33.6321 19.937 33.8506C19.8178 34.069 19.6916 34.423 19.6916 34.423C18.5745 37.6158 18.95 42.35 20.8054 45.6643C21.9679 47.741 23.6585 49.1554 26.5352 50.1027C28.4982 50.7491 30.8695 50.0246 34.218 50.5909C34.4417 50.6286 34.5616 50.6553 34.8761 50.7595C35.4378 50.9458 34.5709 52.4482 34.5709 52.4482C34.5709 52.4482 35.027 53.1276 34.2647 54.0261L34.9566 56.1873L35.0387 57.3757C35.1083 58.3811 35.522 60.3103 36.2619 61.759L37.6073 64.3929L40.0826 66.7577L43.986 65.8528L45.2836 68.2048C46.6546 70.69 48.4719 68.7702 51.5033 68.6156L61.6371 68.0987C61.6371 68.0987 58.6882 70.304 57.0919 71.2313C56.2484 71.7214 55.3838 72.2055 54.4484 72.5071C52.8369 73.0268 51.1259 73.257 49.4313 73.3957C48.3683 73.4829 47.296 73.4191 46.231 73.358C45.3233 73.3069 44.4181 73.2084 43.5183 73.0828C42.3714 72.9232 41.2111 72.7903 40.0987 72.4778Z" fill="#E4ABAC"/>
<path d="M32.8182 51.9491C33.072 49.3781 33.4842 49.5622 40.6499 54.2593C43.4073 56.0667 46.2384 57.8506 46.9413 58.2235C46.9413 58.2235 47.7613 58.753 48.2191 58.9014C48.7722 59.0807 49.3642 59.1432 49.9449 59.1422C52.7921 59.1352 55.0123 56.6947 55.158 56.5309C55.8436 55.8617 56.465 55.2063 56.8459 53.9039C57.3949 52.2367 56.8391 50.6718 56.2917 49.0993C55.3332 46.6204 53.0677 41.8113 53.0677 41.8113L49.6343 34.5063L51.9962 32.2832C56.2058 28.3208 63.1047 22.1473 64.6348 20.9733C65.4552 20.3437 66.005 19.6108 66.1264 19.4112C66.1264 19.4112 66.2143 19.2546 66.2091 19.1691C66.2063 19.1042 66.1884 19.0072 66.1264 18.9934C66.062 18.9795 65.6211 19.1562 65.6211 19.1562C65.3431 19.2458 61.0963 21.072 56.1838 23.2145C45.6625 27.8031 47.0855 27.5264 45.9588 25.2027C45.9588 25.2027 45.3984 23.8998 45.0341 23.2954C44.6194 22.6073 44.1669 21.9298 43.609 21.3555C42.8729 20.5979 42.0175 19.9519 41.1143 19.4119C40.727 19.1802 39.8775 18.8664 39.8775 18.8664C38.9998 18.4584 38.2818 18.0935 38.2818 18.0556C38.2818 18.0177 38.6572 16.8587 39.1161 15.4803L39.9504 12.9741H37.8876C20.3873 12.9741 5.91066 27.6318 5.12145 46.1501L4.96787 49.7561L5.43008 52.938C5.68429 54.6881 6.13888 57.023 6.44028 58.1267C6.55464 58.5449 6.64488 58.8978 6.71033 59.1883C6.73788 59.3109 6.76132 59.4224 6.77992 59.5231C6.84295 59.8618 7.18953 60.7478 7.1164 60.6409C7.04304 60.5343 6.83018 60.2353 6.69088 60.0299C6.47973 59.7187 6.27563 59.4029 6.06899 59.0888C5.43968 58.1321 4.73862 57.2197 4.18694 56.2148C3.63967 55.218 3.19117 54.1654 2.78044 53.1031C2.1504 51.4733 1.57785 49.8132 1.16392 48.1136C0.661495 46.0506 0.281148 43.9457 0.119977 41.8268C-0.0694731 39.3375 -0.0322085 36.8212 0.21511 34.3371C0.415238 32.3277 0.82383 30.3377 1.33411 28.3855C1.74339 26.8198 2.23331 25.2664 2.88609 23.7883C4.1232 20.987 5.46686 18.1757 7.33652 15.763C10.2655 11.9831 13.7659 8.55554 17.7309 5.92417C21.0027 3.75291 24.7125 2.19899 28.4968 1.20621C32.2693 0.216558 36.2369 -0.129561 40.1295 0.0421723C43.3853 0.185978 46.6677 0.762484 49.7389 1.86895C54.0807 3.43317 58.2628 5.67232 61.8887 8.55791C64.9294 10.9778 67.5113 14.0221 69.6873 17.2633C71.488 19.9456 72.8382 22.9457 73.9327 25.9957C74.7276 28.2109 75.2584 30.532 75.5903 32.8654C75.9588 35.456 76.0543 38.094 75.9506 40.7094C75.8776 42.553 75.6214 44.3918 75.2598 46.1999C74.8847 48.0767 74.4398 49.9565 73.7323 51.7317C72.584 54.613 71.0746 57.3564 69.3642 59.9342C68.1376 61.7829 66.7088 63.5001 65.1718 65.0917C63.6886 66.6275 62.0472 68.0077 60.3509 69.2961C59.3166 70.0817 58.2967 70.9437 57.0984 71.4353C54.7597 72.3947 52.7402 72.299 49.5602 72.1097C47.5993 71.9933 44.5579 71.1231 42.3442 69.9212C40.4274 68.8805 38.7299 67.3796 37.3228 65.6975C35.873 63.9646 34.669 61.9562 33.9307 59.8096C33.0711 57.3105 32.6017 54.1411 32.8182 51.9491Z" fill="#4C6373"/>
<path d="M27.9187 14.8315C27.9187 14.8315 25.9614 15.5642 25.0139 16.0015C24.0106 16.4644 23.0303 16.9792 22.0773 17.5368C21.2186 18.0391 20.3857 18.5863 19.5768 19.1644C18.8084 19.7135 18.6184 19.8774 17.3461 20.9097C16.0739 21.9421 13.7742 24.4107 12.2189 26.3582C11.4523 27.3181 10.7969 28.3629 10.1615 29.4129C9.6343 30.2839 9.15018 31.1819 8.70907 32.0988C8.1977 33.1618 7.73932 34.2511 7.32793 35.356C7.01436 36.1984 6.7366 37.0551 6.50081 37.9221C6.16766 39.1473 5.8908 40.3889 5.67283 41.6393C5.51342 42.5546 5.38265 43.4773 5.32269 44.4043C5.17832 46.6356 5.34115 52.8661 5.34115 52.8661C5.34115 52.8661 3.82836 46.4472 3.82954 40.6933C3.8272 40.5552 3.82686 40.417 3.82836 40.2789C3.84235 38.8436 4.06018 37.4091 4.33149 35.9991C4.56676 34.7759 4.95734 33.5856 5.34115 32.4C5.66277 31.4067 6.02224 30.4245 6.42304 29.4601C7.15978 27.6872 7.88265 25.8953 8.85107 24.2358C9.81571 22.5826 10.9612 21.0295 12.1954 19.5635C13.324 18.223 14.5442 16.9458 15.8879 15.8173C17.4358 14.5173 19.0356 13.2033 20.8804 12.3675C22.6615 11.5605 24.6194 10.8257 26.5743 10.9349C28.9775 11.0693 30.9991 10.5577 33.3303 13.3561L27.9187 14.8315Z" fill="#E4ABAC"/>
<path d="M38.3741 35.4112C37.6286 35.0507 36.2529 35.3669 35.9311 34.9727C35.7744 34.7808 36.623 33.9449 36.623 33.9449C36.623 33.9449 37.0936 33.4714 37.3736 33.2959C37.9932 32.9074 38.4385 32.9264 38.6214 32.9086C40.5323 32.7225 41.9834 35.0687 41.4631 36.7189C41.3446 37.0951 41.2578 37.7172 40.8845 37.6245C40.8845 37.6245 39.3772 35.8962 38.3741 35.4112Z" fill="#4C6373"/>
<path d="M38.2016 18.1153C38.2016 18.1153 38.6537 18.3285 38.857 18.472C39.5233 18.9423 40.1109 19.5205 40.6801 20.1056C41.2365 20.6775 41.7319 21.3071 42.2286 21.9321C43.014 23.2727 43.9323 24.3595 45.5539 24.4739C45.9907 24.4134 46.4241 24.0733 46.6078 23.6704C47.0051 22.7993 46.8121 21.679 46.4301 20.8011C46.1184 20.0852 45.4254 19.5947 44.8181 19.1068C44.2243 18.6296 43.5414 18.2713 42.8631 17.9263C42.2804 17.6299 41.6651 17.4022 41.0555 17.1668C40.3018 16.8755 38.7701 16.3602 38.7701 16.3602L38.2016 18.1153Z" fill="#E4ABAC"/>
</svg>
