<svg width="1886" height="853" viewBox="0 0 1886 853" fill="none" xmlns="http://www.w3.org/2000/svg">
<path d="M1188.39 581.802C1081.76 660.328 927.218 702.225 794.158 702.225C607.587 702.225 439.625 633.275 312.555 518.598C302.571 509.58 311.516 497.291 323.497 504.313C460.63 584.036 630.189 631.998 805.34 631.998C923.464 631.998 1053.41 607.578 1172.89 556.903C1190.94 549.242 1206.04 568.714 1188.39 581.802Z" fill="#FF9900"/>
<path d="M1232.71 531.127C1219.14 513.73 1142.62 522.907 1108.28 526.977C1097.82 528.254 1096.22 519.157 1105.64 512.613C1166.58 469.758 1266.58 482.128 1278.24 496.492C1289.9 510.937 1275.2 611.09 1217.94 658.891C1209.15 666.233 1200.77 662.323 1204.68 652.587C1217.54 620.506 1246.37 548.604 1232.71 531.127Z" fill="#FF9900"/>
<path d="M1110.67 210.08V168.423C1110.67 162.118 1115.47 157.889 1121.22 157.889H1307.87C1313.86 157.889 1318.65 162.198 1318.65 168.423V204.095C1318.57 210.08 1313.54 217.9 1304.59 230.27L1207.87 368.249C1243.81 367.371 1281.75 372.718 1314.34 391.073C1321.69 395.223 1323.68 401.288 1324.24 407.273V451.723C1324.24 457.788 1317.53 464.89 1310.5 461.22C1253.08 431.134 1176.8 427.862 1113.31 461.539C1106.84 465.05 1100.05 458.027 1100.05 451.962V409.747C1100.05 402.963 1100.13 391.392 1106.92 381.097L1218.98 220.534H1121.46C1115.47 220.534 1110.67 216.304 1110.67 210.08Z" fill="#221F1F"/>
<path d="M429.8 469.998H373.014C367.583 469.599 363.27 465.529 362.871 460.342V169.141C362.871 163.315 367.743 158.687 373.813 158.687H426.765C432.276 158.926 436.669 163.156 437.068 168.423V206.489H438.107C451.924 169.7 477.881 152.542 512.863 152.542C548.404 152.542 570.607 169.7 586.581 206.489C600.318 169.7 631.547 152.542 665.011 152.542C688.812 152.542 714.849 162.358 730.743 184.383C748.713 208.883 745.039 244.475 745.039 275.678L744.959 459.464C744.959 465.29 740.087 469.998 734.017 469.998H677.311C671.64 469.599 667.088 465.05 667.088 459.464V305.125C667.088 292.836 668.206 262.191 665.491 250.54C661.258 230.988 648.559 225.482 632.106 225.482C618.369 225.482 603.992 234.659 598.162 249.343C592.332 264.027 592.891 288.606 592.891 305.125V459.464C592.891 465.29 588.019 469.998 581.949 469.998H525.243C519.492 469.599 515.019 465.05 515.019 459.464L514.94 305.125C514.94 272.645 520.291 224.843 479.957 224.843C439.145 224.843 440.742 271.448 440.742 305.125V459.464C440.742 465.29 435.87 469.998 429.8 469.998Z" fill="#221F1F"/>
<path d="M1479.35 152.542C1563.61 152.542 1609.21 224.843 1609.21 316.776C1609.21 405.597 1558.81 476.063 1479.35 476.063C1396.6 476.063 1351.56 403.762 1351.56 313.664C1351.56 223.008 1397.16 152.542 1479.35 152.542ZM1479.82 211.995C1437.97 211.995 1435.34 268.974 1435.34 304.487C1435.34 340.079 1434.78 416.051 1479.35 416.051C1523.35 416.051 1525.43 354.763 1525.43 317.415C1525.43 292.836 1524.39 263.468 1516.96 240.166C1510.57 219.896 1497.87 211.995 1479.82 211.995Z" fill="#221F1F"/>
<path d="M1718.47 469.998H1661.92C1656.25 469.599 1651.7 465.05 1651.7 459.464L1651.62 168.183C1652.1 162.837 1656.81 158.687 1662.56 158.687H1715.19C1720.15 158.926 1724.22 162.278 1725.34 166.827V211.357H1726.38C1742.27 171.535 1764.55 152.542 1803.77 152.542C1829.25 152.542 1854.09 161.719 1870.06 186.857C1884.91 210.16 1884.91 249.343 1884.91 277.513V460.821C1884.28 465.928 1879.56 469.998 1873.97 469.998H1817.03C1811.83 469.599 1807.52 465.768 1806.96 460.821V302.651C1806.96 270.81 1810.64 224.205 1771.42 224.205C1757.6 224.205 1744.91 233.462 1738.6 247.507C1730.61 265.304 1729.57 283.02 1729.57 302.651V459.464C1729.49 465.29 1724.54 469.998 1718.47 469.998Z" fill="#221F1F"/>
<path d="M961.881 330.902V318.612C920.829 318.612 877.46 327.39 877.46 375.751C877.46 400.25 890.159 416.849 911.963 416.849C927.937 416.849 942.233 407.034 951.258 391.073C962.44 371.442 961.881 353.007 961.881 330.902ZM1019.15 469.2C1015.39 472.552 1009.96 472.791 1005.73 470.557C986.88 454.915 983.525 447.653 973.142 432.73C941.994 464.492 919.95 473.988 879.537 473.988C831.776 473.988 794.558 444.541 794.558 385.567C794.558 339.52 819.556 308.158 855.097 292.836C885.926 279.269 928.975 276.875 961.881 273.124V265.782C961.881 252.296 962.919 236.335 955.012 224.684C948.064 214.23 934.806 209.92 923.145 209.92C901.501 209.92 882.173 221.013 877.46 243.996C876.502 249.104 872.748 254.131 867.637 254.371L812.528 248.465C807.896 247.428 802.784 243.677 804.062 236.575C816.761 169.859 877.061 149.749 931.052 149.749C958.686 149.749 994.786 157.091 1016.59 177.999C1044.22 203.776 1041.59 238.171 1041.59 275.598V364.02C1041.59 390.594 1052.61 402.245 1062.99 416.61C1066.67 421.717 1067.47 427.862 1062.83 431.693C1051.25 441.349 1030.65 459.305 1019.31 469.36L1019.15 469.2Z" fill="#221F1F"/>
<path d="M217.432 330.902V318.612C176.38 318.612 133.011 327.39 133.011 375.751C133.011 400.25 145.71 416.849 167.514 416.849C183.488 416.849 197.784 407.034 206.809 391.073C217.991 371.442 217.432 353.007 217.432 330.902ZM274.697 469.2C270.943 472.552 265.512 472.791 261.279 470.557C242.43 454.915 239.076 447.653 228.693 432.73C197.544 464.492 175.501 473.988 135.088 473.988C87.3268 473.988 50.1084 444.541 50.1084 385.567C50.1084 339.52 75.107 308.158 110.648 292.836C141.477 279.269 184.526 276.875 217.432 273.124V265.782C217.432 252.296 218.47 236.335 210.563 224.684C203.614 214.23 190.356 209.92 178.696 209.92C157.052 209.92 137.723 221.013 133.011 243.996C132.053 249.104 128.299 254.131 123.188 254.371L68.0787 248.465C63.4463 247.428 58.3348 243.677 59.6127 236.575C72.3117 169.859 132.612 149.749 186.603 149.749C214.237 149.749 250.337 157.091 272.141 177.999C299.775 203.776 297.14 238.171 297.14 275.598V364.02C297.14 390.594 308.162 402.245 318.544 416.61C322.218 421.717 323.017 427.862 318.385 431.693C306.804 441.349 286.198 459.305 274.857 469.36L274.697 469.2Z" fill="#221F1F"/>
</svg>
