<svg width="3171" height="1150" viewBox="0 0 3171 1150" fill="none" xmlns="http://www.w3.org/2000/svg">
<mask id="mask0_1568_48" style="mask-type:luminance" maskUnits="userSpaceOnUse" x="30" y="-1" width="2828" height="1151">
<path d="M30 -0.000244141H2858V1150H30V-0.000244141Z" fill="white"/>
</mask>
<g mask="url(#mask0_1568_48)">
<path d="M2369.05 715.892C2369.05 685.616 2393.64 661.049 2423.89 661.049C2454.19 661.049 2478.74 685.616 2478.74 715.892C2478.74 746.175 2454.19 770.727 2423.89 770.727C2393.64 770.727 2369.05 746.175 2369.05 715.892Z" fill="#86BC25"/>
</g>
<mask id="mask1_1568_48" style="mask-type:luminance" maskUnits="userSpaceOnUse" x="30" y="-1" width="2828" height="1151">
<path d="M30 -0.000244141H2858V1150H30V-0.000244141Z" fill="white"/>
</mask>
<g mask="url(#mask1_1568_48)">
<path d="M619.784 570.631C619.784 535.887 613.075 510.116 599.642 493.324C586.209 476.555 565.84 468.166 538.456 468.166H509.334V680.623H531.622C562.029 680.623 584.318 671.599 598.503 653.515C612.681 635.453 619.784 607.813 619.784 570.631ZM723.65 567.017C723.65 630.299 706.625 679.075 672.597 713.308C638.569 747.562 590.735 764.682 529.089 764.682H409.264V385.413H537.448C596.897 385.413 642.796 400.993 675.145 432.108C707.472 463.245 723.65 508.196 723.65 567.017Z" fill="black"/>
</g>
<mask id="mask2_1568_48" style="mask-type:luminance" maskUnits="userSpaceOnUse" x="30" y="-1" width="2828" height="1151">
<path d="M30 -0.000244141H2858V1150H30V-0.000244141Z" fill="white"/>
</mask>
<g mask="url(#mask2_1568_48)">
<path d="M1055.52 764.685H1150.86V383.824H1055.52V764.685Z" fill="black"/>
</g>
<mask id="mask3_1568_48" style="mask-type:luminance" maskUnits="userSpaceOnUse" x="30" y="-1" width="2828" height="1151">
<path d="M30 -0.000244141H2858V1150H30V-0.000244141Z" fill="white"/>
</mask>
<g mask="url(#mask3_1568_48)">
<path d="M1284.79 622.62C1284.79 646.909 1287.95 665.431 1294.29 678.156C1300.64 690.896 1311.27 697.262 1326.22 697.262C1341.02 697.262 1351.47 690.896 1357.57 678.156C1363.66 665.431 1366.7 646.909 1366.7 622.62C1366.7 598.462 1363.62 580.247 1357.44 567.945C1351.26 555.614 1340.7 549.445 1325.73 549.445C1311.1 549.445 1300.64 555.578 1294.29 567.806C1287.95 580.042 1284.79 598.309 1284.79 622.62ZM1463.74 622.62C1463.74 668.877 1451.61 704.971 1427.29 730.845C1403 756.733 1368.98 769.677 1325.26 769.677C1283.32 769.677 1249.95 756.441 1225.18 729.969C1200.37 703.504 1187.98 667.731 1187.98 622.62C1187.98 576.502 1200.12 540.655 1224.43 515.103C1248.74 489.558 1282.84 476.782 1326.73 476.782C1353.86 476.782 1377.85 482.695 1398.65 494.522C1419.45 506.342 1435.51 523.28 1446.8 545.342C1458.09 567.376 1463.74 593.147 1463.74 622.62Z" fill="black"/>
</g>
<mask id="mask4_1568_48" style="mask-type:luminance" maskUnits="userSpaceOnUse" x="30" y="-1" width="2828" height="1151">
<path d="M30 -0.000244141H2858V1150H30V-0.000244141Z" fill="white"/>
</mask>
<g mask="url(#mask4_1568_48)">
<path d="M1501.59 764.685H1596.94V481.785H1501.59V764.685Z" fill="black"/>
</g>
<mask id="mask5_1568_48" style="mask-type:luminance" maskUnits="userSpaceOnUse" x="30" y="-1" width="2828" height="1151">
<path d="M30 -0.000244141H2858V1150H30V-0.000244141Z" fill="white"/>
</mask>
<g mask="url(#mask5_1568_48)">
<path d="M1501.59 447.567H1596.94V383.817H1501.59V447.567Z" fill="black"/>
</g>
<mask id="mask6_1568_48" style="mask-type:luminance" maskUnits="userSpaceOnUse" x="30" y="-1" width="2828" height="1151">
<path d="M30 -0.000244141H2858V1150H30V-0.000244141Z" fill="white"/>
</mask>
<g mask="url(#mask6_1568_48)">
<path d="M1790.12 692.525C1802.99 692.525 1818.33 689.262 1836.22 682.771V753.953C1823.36 759.589 1811.14 763.641 1799.52 766.043C1787.9 768.467 1774.27 769.671 1758.67 769.671C1726.66 769.671 1703.58 761.633 1689.41 745.572C1675.29 729.51 1668.23 704.841 1668.23 671.558V554.937H1634.83V481.799H1668.23V409.566L1764.29 392.848V481.799H1825.13V554.937H1764.29V665.053C1764.29 683.363 1772.92 692.525 1790.12 692.525Z" fill="black"/>
</g>
<mask id="mask7_1568_48" style="mask-type:luminance" maskUnits="userSpaceOnUse" x="30" y="-1" width="2828" height="1151">
<path d="M30 -0.000244141H2858V1150H30V-0.000244141Z" fill="white"/>
</mask>
<g mask="url(#mask7_1568_48)">
<path d="M2010.8 692.525C2023.67 692.525 2039 689.262 2056.89 682.771V753.953C2044.06 759.589 2031.81 763.641 2020.2 766.043C2008.56 768.467 1994.98 769.671 1979.35 769.671C1947.34 769.671 1924.26 761.633 1910.11 745.572C1895.97 729.51 1888.91 704.841 1888.91 671.558V554.937H1855.48V481.799H1888.91V408.471L1984.97 392.848V481.799H2045.83V554.937H1984.97V665.053C1984.97 683.363 1993.59 692.525 2010.8 692.525Z" fill="black"/>
</g>
<mask id="mask8_1568_48" style="mask-type:luminance" maskUnits="userSpaceOnUse" x="30" y="-1" width="2828" height="1151">
<path d="M30 -0.000244141H2858V1150H30V-0.000244141Z" fill="white"/>
</mask>
<g mask="url(#mask8_1568_48)">
<path d="M2177.21 588.155C2178.51 572.671 2182.93 561.318 2190.49 554.061C2198.07 546.826 2207.44 543.205 2218.65 543.205C2230.86 543.205 2240.57 547.279 2247.78 555.456C2255.04 563.603 2258.81 574.503 2259.11 588.155H2177.21ZM2311.66 510.126C2289.01 487.91 2256.85 476.791 2215.25 476.791C2171.53 476.791 2137.88 489.56 2114.29 515.12C2090.73 540.665 2078.94 577.328 2078.94 625.104C2078.94 671.368 2091.67 707.047 2117.1 732.095C2142.55 757.136 2178.27 769.672 2224.27 769.672C2246.38 769.672 2265.39 768.16 2281.32 765.167C2297.15 762.196 2312.49 756.837 2327.36 749.084L2312.72 685.342C2301.9 689.751 2291.61 693.146 2281.91 695.387C2267.87 698.636 2252.47 700.272 2235.73 700.272C2217.34 700.272 2202.84 695.774 2192.2 686.787C2181.57 677.793 2175.9 665.382 2175.26 649.568H2345.68V606.144C2345.68 564.355 2334.34 532.342 2311.66 510.126Z" fill="black"/>
</g>
<mask id="mask9_1568_48" style="mask-type:luminance" maskUnits="userSpaceOnUse" x="30" y="-1" width="2828" height="1151">
<path d="M30 -0.000244141H2858V1150H30V-0.000244141Z" fill="white"/>
</mask>
<g mask="url(#mask9_1568_48)">
<path d="M850.182 588.155C851.481 572.671 855.913 561.318 863.469 554.061C871.032 546.826 880.414 543.205 891.642 543.205C903.819 543.205 913.536 547.279 920.764 555.456C928.006 563.603 931.781 574.503 932.102 588.155H850.182ZM984.652 510.126C961.983 487.91 929.831 476.791 888.218 476.791C844.487 476.791 810.846 489.56 787.28 515.12C763.713 540.665 751.916 577.328 751.916 625.104C751.916 671.368 764.64 707.047 790.09 732.095C815.518 757.136 851.248 769.672 897.249 769.672C919.348 769.672 938.366 768.16 954.296 765.167C970.131 762.196 985.469 756.837 1000.35 749.084L985.696 685.342C974.883 689.751 964.597 693.146 954.902 695.387C940.841 698.636 925.451 700.272 908.703 700.272C890.342 700.272 875.814 695.774 865.177 686.787C854.533 677.793 848.882 665.382 848.232 649.568H1018.66V606.144C1018.66 564.355 1007.33 532.342 984.652 510.126Z" fill="black"/>
</g>
</svg>
