<svg width="2573" height="422" viewBox="0 0 2573 422" fill="none" xmlns="http://www.w3.org/2000/svg">
<g clip-path="url(#clip0_1635_76)">
<mask id="mask0_1635_76" style="mask-type:luminance" maskUnits="userSpaceOnUse" x="0" y="0" width="2573" height="422">
<path d="M2573 0H0V422H2573V0Z" fill="white"/>
</mask>
<g mask="url(#mask0_1635_76)">
<path d="M215.671 57.4011C305.107 34.1218 386.688 18.9234 445.71 4.72971C448.567 4.0598 447.937 -0.168983 444.996 -0.00150616C368.163 4.10167 138.375 16.3275 138.375 16.3275C6.25762 26.8785 -17.9393 78.7544 10.7526 118.865L62.6753 191.467C64.1877 193.602 67.5483 192.513 67.5904 189.917C68.0524 134.398 101.701 87.1282 215.713 57.4011H215.671Z" fill="#66CC00"/>
<path d="M174.29 348.604C176.264 351.534 180.214 350.529 179.752 346.636C173.786 309.079 183.868 210.436 234.237 161.825C308.803 89.8521 403.993 61.5067 493.094 14.069C495.489 12.771 494.102 9.12838 491.455 9.79828C429.409 25.3318 267.087 68.2895 212.35 90.6476C148.749 116.648 63.5554 196.325 142.154 306.274L174.29 348.646V348.604Z" fill="#66CC00"/>
<path d="M1647.95 144.768C1659.37 144.768 1668.94 153.791 1668.94 165.591C1668.94 177.391 1659.37 186.646 1647.95 186.646C1636.53 186.646 1626.81 177.623 1626.81 165.591C1626.81 153.56 1636.45 144.768 1647.95 144.768ZM1647.95 183.562C1657.67 183.562 1665.17 175.85 1665.17 165.591C1665.17 155.334 1657.67 147.853 1647.95 147.853C1638.24 147.853 1630.66 155.565 1630.66 165.591C1630.66 175.618 1638.16 183.562 1647.95 183.562ZM1639.78 153.406H1649.27C1655.06 153.406 1657.83 155.719 1657.83 160.424C1657.83 164.82 1655.06 166.671 1651.35 167.058L1658.37 177.854H1654.28L1647.64 167.365H1643.63V177.854H1639.85V153.406H1639.78ZM1643.55 164.28H1647.57C1650.89 164.28 1654.06 164.126 1654.06 160.27C1654.06 157.031 1651.27 156.49 1648.65 156.49H1643.63L1643.55 164.28Z" fill="#4B286D"/>
<path d="M1792.1 144.768H1864.03C1927.15 144.768 1963.96 183.253 1963.96 245.494C1963.96 307.735 1927.15 346.22 1864.03 346.22H1792.1V144.768ZM1863.72 319.69C1908.16 319.69 1932.24 292.541 1932.24 245.494C1932.24 198.448 1908.16 171.376 1863.72 171.376H1822.36V319.69H1863.72Z" fill="#4B286D"/>
<path d="M1985.8 163.742C1985.8 154.409 1993.44 146.465 2003.09 146.465C2012.73 146.465 2020.37 154.101 2020.37 163.742C2020.37 173.382 2012.73 181.018 2003.09 181.018C1993.44 181.018 1985.8 173.382 1985.8 163.742ZM1988.89 200.223H2017.21V346.299H1988.89V200.223Z" fill="#4B286D"/>
<path d="M2050.39 356.479H2078.71C2080.95 373.756 2093.76 382.239 2115.22 382.239C2141.83 382.239 2156.27 368.357 2156.27 341.516V325.397C2145.76 339.82 2129.96 348.073 2109.27 348.073C2068.76 348.073 2042.13 318.07 2042.13 272.489C2042.13 226.908 2068.44 196.906 2108.96 196.906C2130.5 196.906 2146.92 205.929 2157.43 220.969V200.299H2184.58V340.977C2184.58 379.155 2161.66 405.223 2114.9 405.223C2075.24 405.223 2053.16 385.71 2050.31 356.557L2050.39 356.479ZM2157.11 272.413C2157.11 239.865 2140.37 221.2 2114.36 221.2C2088.35 221.2 2071.61 241.022 2071.61 272.413C2071.61 303.803 2088.35 323.624 2114.36 323.624C2140.37 323.624 2157.11 304.959 2157.11 272.413Z" fill="#4B286D"/>
<path d="M2213.53 163.742C2213.53 154.409 2221.17 146.465 2230.82 146.465C2240.46 146.465 2248.1 154.101 2248.1 163.742C2248.1 173.382 2240.46 181.018 2230.82 181.018C2221.17 181.018 2213.53 173.382 2213.53 163.742ZM2216.62 200.223H2244.94V346.299H2216.62V200.223Z" fill="#4B286D"/>
<path d="M2288.3 313.75V223.436H2264.77V200.221H2288.3V158.342H2316.62V200.221H2346.1V223.436H2316.62V311.205C2316.62 319.689 2320.86 323.7 2333.37 323.7H2346.1V346.375C2339.85 346.914 2333.91 347.223 2328.82 347.223C2302.51 347.223 2288.3 338.2 2288.3 313.75Z" fill="#4B286D"/>
<path d="M2459.08 326.478C2449.21 341.749 2432.76 349.693 2411.47 349.693C2380.05 349.693 2359.38 334.422 2359.38 306.348C2359.38 282.824 2373.49 265.008 2414.32 261.074L2435.85 258.838C2449.97 257.142 2457.69 252.36 2457.69 240.482C2457.69 226.908 2450.59 219.503 2427.67 219.503C2404.75 219.503 2395.11 225.982 2393.72 245.804H2365.71C2367.4 216.342 2383.84 196.829 2427.75 196.829C2471.66 196.829 2485.54 214.414 2485.54 239.865V317.145C2485.54 321.696 2487.79 324.472 2493.5 324.472H2501.44V346.298C2497.2 346.839 2492.1 347.148 2487.55 347.148C2469.42 347.148 2461.24 340.669 2459.23 326.478H2459.08ZM2415.78 327.634C2436.47 327.634 2457.69 316.066 2457.69 288.608V273.337C2453.44 276.732 2447.5 278.428 2439.56 279.277L2419.19 281.513C2395.65 284.367 2388.63 292.542 2388.63 305.577C2388.63 318.611 2397.42 327.634 2415.78 327.634Z" fill="#4B286D"/>
<path d="M2518.81 313.75V144.768H2547.12V311.205C2547.12 319.69 2550.83 323.7 2561.26 323.7H2571.75V346.375C2566.11 346.914 2560.4 347.223 2555.93 347.223C2531.84 347.223 2518.81 338.2 2518.81 313.75Z" fill="#4B286D"/>
<path d="M843.547 183.87V144.69H703.794V346.22H843.547V305.343H760.436V260.688H829.579V221.508H760.436V183.87H843.547Z" fill="#4B286D"/>
<path d="M1090.18 306.423H1002.82V144.69H945.489V346.22H1090.18V306.423Z" fill="#4B286D"/>
<path d="M1551.65 221.508C1512.99 212.793 1499.48 211.79 1499.48 196.442C1499.48 182.175 1518.63 177.7 1529.66 177.7C1547.56 177.7 1568.55 181.866 1589.93 192.895L1605.51 155.797C1583.6 143.765 1555.35 138.829 1528.19 138.829C1474.87 138.829 1439.06 160.424 1437.6 202.613C1436.05 241.021 1467.3 255.443 1496.09 261.383C1523.78 267.09 1551.88 272.026 1552.5 288.454C1553.04 303.647 1539.38 310.126 1513.6 310.126C1489.75 310.126 1467.53 302.491 1444.85 293.004L1431.64 333.264C1457.65 344.37 1484.12 350.463 1511.45 350.463C1549.33 350.463 1576.96 344.601 1597.33 325.474C1611.45 312.363 1616.08 296.551 1616.08 281.436C1616 249.505 1596.17 231.534 1551.65 221.508Z" fill="#4B286D"/>
<path d="M622.536 184.41V144.69H446.668V184.41H506.087V346.22H563.039V184.41H622.536Z" fill="#4B286D"/>
<path d="M1285.65 144.69V272.72C1285.65 282.746 1285.65 285.522 1285.03 289.456C1283.25 301.641 1271.37 308.738 1252.46 308.968C1238.5 308.738 1228.23 304.65 1223.45 297.323C1221.06 293.543 1219.9 286.833 1219.9 276.035V144.69H1160.48V283.594C1160.48 302.876 1163.03 311.514 1171.75 322.466C1186.1 340.436 1214.03 349.846 1252.62 349.846C1253 349.846 1253.47 349.846 1253.85 349.846C1254.08 349.846 1254.39 349.846 1254.7 349.846C1306.25 349.846 1332.88 329.715 1340.59 310.896C1344.45 301.796 1344.76 297.477 1344.76 279.043V144.69H1285.65Z" fill="#4B286D"/>
</g>
</g>
<defs>
<clipPath id="clip0_1635_76">
<rect width="2573" height="422" fill="white"/>
</clipPath>
</defs>
</svg>
