<svg width="1520" height="2190" viewBox="0 0 1520 2190" fill="none" xmlns="http://www.w3.org/2000/svg">
<mask id="mask0_466_608" style="mask-type:alpha" maskUnits="userSpaceOnUse" x="4" y="0" width="1512" height="2182">
<rect x="4" width="1512" height="2182" fill="#D9D9D9"/>
</mask>
<g mask="url(#mask0_466_608)">
<path d="M-34 411.473V176.559L138.976 200.861L323.414 291.316L467.734 263.639L641.752 86.1037L755.332 169.252L864.223 291.316L958.005 200.861L1132.54 86.1037L1316.98 176.559L1426.92 107.03L1491 24H1553V655.838V857H-34V411.473Z" fill="#377291"/>
<path d="M-60 617.175V374.194L65.2778 223.225L273.532 320.094L362.474 428.667L534.934 532.934L656.415 337.735L840.265 204.568L1007.3 337.735L1140.71 292.085L1235.08 337.735L1306.67 320.094L1391.81 204.568L1542.58 139L1580 204.568V869.93V1078H-60V617.175Z" fill="#6D9BB3"/>
<g filter="url(#filter0_d_466_608)">
<path d="M-66.9992 2200.5L-67 483.535V417.638H-24.7227V476.546V483.535H-2.40939V508.496H44.5655V408.652H10.5087V399.666L44.5655 366.718H55.1347V508.496H113.853V472.552H138.515V423.629V417.638H178.444V476.546H197.234V508.496H291.184V399.666H311.148V387.685H319.369V371.71V366.718H324.066V354.737H335.81V343.754H339.333V334.768L345.205 331.773V323.785L351.077 320.79V312.803L361.646 306.812V249.901H393.355V297.826L399.226 306.812V312.803L406.273 323.785L414.493 331.773H419.191V202.975H433.283V187H468.514V198.981L477.909 202.975V210.962H494.351V219.948L500.223 222.944V301.82H516.664V616.327H549.546V598.355V592.364H608.265V544.439H647.018V532.458H698.691V544.439H739.795V670.242H791.467V578.386H811.431V526.468H895.986V508.496H989.936V544.439H1009.9V469.557H1068.62V431.616H1101.5V424.627H1115.59V410.649H1164.92V424.627H1175.49V431.616H1204.85V526.468H1222.46V592.364H1263.57V469.557H1277.66V299.823H1308.19V259.886H1361.04V207.967H1373.96V200.978H1413.89V188.997H1435.02V198.981L1470.25 200.978H1506.66V259.886H1560.68V304.815H1586.52V2200.5H-66.9992Z" fill="#593154" shape-rendering="crispEdges"/>
<path d="M-66.9992 2200.5L-67 483.535V417.638H-24.7227V476.546V483.535H-2.40939V508.496H44.5655V408.652H10.5087V399.666L44.5655 366.718H55.1347V508.496H113.853V472.552H138.515V423.629V417.638H178.444V476.546H197.234V508.496H291.184V399.666H311.148V387.685H319.369V371.71V366.718H324.066V354.737H335.81V343.754H339.333V334.768L345.205 331.773V323.785L351.077 320.79V312.803L361.646 306.812V249.901H393.355V297.826L399.226 306.812V312.803L406.273 323.785L414.493 331.773H419.191V202.975H433.283V187H468.514V198.981L477.909 202.975V210.962H494.351V219.948L500.223 222.944V301.82H516.664V616.327H549.546V598.355V592.364H608.265V544.439H647.018V532.458H698.691V544.439H739.795V670.242H791.467V578.386H811.431V526.468H895.986V508.496H989.936V544.439H1009.9V469.557H1068.62V431.616H1101.5V424.627H1115.59V410.649H1164.92V424.627H1175.49V431.616H1204.85V526.468H1222.46V592.364H1263.57V469.557H1277.66V299.823H1308.19V259.886H1361.04V207.967H1373.96V200.978H1413.89V188.997H1435.02V198.981L1470.25 200.978H1506.66V259.886H1560.68V304.815H1586.52V2200.5H-66.9992Z" stroke="#9A348E" stroke-opacity="0.466667" stroke-width="1.90418" shape-rendering="crispEdges"/>
</g>
</g>
<defs>
<filter id="filter0_d_466_608" x="-75.5689" y="186.048" width="1670.66" height="2030.64" filterUnits="userSpaceOnUse" color-interpolation-filters="sRGB">
<feFlood flood-opacity="0" result="BackgroundImageFix"/>
<feColorMatrix in="SourceAlpha" type="matrix" values="0 0 0 0 0 0 0 0 0 0 0 0 0 0 0 0 0 0 127 0" result="hardAlpha"/>
<feOffset dy="7.61671"/>
<feGaussianBlur stdDeviation="3.80836"/>
<feComposite in2="hardAlpha" operator="out"/>
<feColorMatrix type="matrix" values="0 0 0 0 0 0 0 0 0 0 0 0 0 0 0 0 0 0 0.25 0"/>
<feBlend mode="normal" in2="BackgroundImageFix" result="effect1_dropShadow_466_608"/>
<feBlend mode="normal" in="SourceGraphic" in2="effect1_dropShadow_466_608" result="shape"/>
</filter>
</defs>
</svg>
