<svg width="1508" height="1347" viewBox="0 0 1508 1347" fill="none" xmlns="http://www.w3.org/2000/svg">
<mask id="mask0_637_1289" style="mask-type:alpha" maskUnits="userSpaceOnUse" x="-4" y="0" width="1512" height="1347">
<rect x="-4" width="1512" height="1347" fill="#D9D9D9"/>
</mask>
<g mask="url(#mask0_637_1289)">
<path d="M-76 0H1625V1157H-76V0Z" fill="#C6FFFF"/>
<path d="M719.272 557.958C683.955 557.99 649.797 568.595 622.883 587.884C613.758 582.309 603.083 579.337 592.171 579.333C568.657 579.391 547.683 593.115 539.649 613.699H533.754C520.818 606.605 504.243 602.697 487.088 602.697C477.396 602.711 467.81 603.972 458.921 606.404C439.759 589.116 413.237 579.335 385.508 579.333C342.093 579.418 303.54 603.293 289.564 638.748C270.575 631.853 249.859 628.273 228.883 628.262C188.417 628.348 149.89 641.691 122.838 664.987C114.183 642.602 95.3916 628.262 74.7106 628.262C49.259 628.328 27.4416 649.95 22.7438 679.763C12.7317 669.919 -0.150688 664.486 -13.4921 664.479C-43.7912 664.48 -68.353 691.901 -68.3521 725.725V1007.48L1636.61 1111.87L1639 725.725H1631.53C1636.45 716.365 1638.98 706.362 1639 696.261C1639 652.823 1593.44 617.609 1537.24 617.61C1499.73 617.663 1465.3 633.66 1447.64 659.237C1425.44 632.948 1391.59 617.612 1355.78 617.61C1340.93 617.696 1326.24 620.421 1312.49 625.641C1296.94 583.655 1268.92 557.962 1238.68 557.958C1205.74 558.083 1175.73 588.644 1161.4 636.667C1147.04 631.139 1131.41 628.271 1115.59 628.262C1083.92 628.335 1053.86 639.835 1033.21 659.773C1003.13 639.633 961.859 628.269 918.75 628.262C897.672 628.265 876.803 630.988 857.346 636.272C834.47 588.922 779.889 557.964 719.272 557.958Z" fill="#E5FFFF"/>
<path d="M147.578 402.491C114.352 407.56 82.1707 487.671 82.1707 487.671L-95.9702 717.757L-134 1032.87V1348.43L259 1312.41L654 1348.43L860 1312.41H1591.37V517.618L1534.72 455.714L1455.26 551.584L1381.2 704.975L1309.14 732.67L1219.07 850.896L1082.96 820.176L974.878 732.67L882.805 632.711L764.711 534.54L687.075 600.584L610.589 711.366L456.467 786.16L380.407 681.74L272.321 606.975L194.26 517.618C194.26 517.618 161.952 403.833 154.228 402.524C152.013 402.149 149.793 402.153 147.578 402.491Z" fill="#A9DAF4"/>
<path d="M154.228 402.525L167.596 507.72L153.443 528.81L119.475 569.484L55.7852 610.158L82.6761 610.911L142.12 577.77L180.334 558.939L215.01 580.783L242.609 616.937L219.256 659.871L245.44 675.688L278.7 680.961L330.36 728.414L316.206 793.944L261.008 932.536L256.762 983.259H365.743L455.616 846.669L474.723 793.944L520.353 755.155L601.396 732.67L658.009 676.442L740.392 628.989L773.359 659.871L744.345 760.049L735.853 810.515L812.988 801.476L890.124 770.594L897.908 821.06L876.679 866.253L950.276 894.875L1007.6 872.279L1078.36 852.695L1119.41 857.968L1176.73 912.953L1253.16 863.24L1295.37 750.752L1323.22 754.776L1381.2 704.975L1449.89 598.107L1501.55 528.81L1544.73 485.877L1534.72 455.714L1455.26 551.584L1381.2 704.975L1309.14 732.67L1219.07 850.895L1082.96 820.177L974.877 732.67L882.804 632.712L764.711 534.54L687.075 600.584L610.589 711.366L456.467 786.158L380.406 681.74L272.321 606.975L194.26 517.619L154.228 402.525Z" fill="#C3EFFF"/>
</g>
</svg>
