<svg width="1513" height="1592" viewBox="0 0 1513 1592" fill="none" xmlns="http://www.w3.org/2000/svg">
<path d="M1087.76 0.123558C1078.29 -0.307468 1068.87 0.380094 1059.7 2.32978C1014.9 11.8618 971.351 45.8036 943.661 89.7381C896.889 163.95 848.41 274.25 820.017 361.169C806.566 402.347 784.811 467.843 757.156 488.136C738.967 501.483 717.88 489.247 699.463 477.301C682.797 466.491 669.321 440.876 653.961 423.732C615.363 380.652 585.047 330.6 536.773 299.929C509.606 282.668 478.658 275.66 448.68 267.92C424.919 261.785 400.658 254.911 376.408 256.603C349.319 258.493 322.678 268.417 297.39 280.39C277.65 289.736 258.527 301.922 241.609 317.436C212.546 344.087 190.809 380.877 164.911 411.992C146.55 434.051 127.552 455.312 109.134 477.301C93.4892 495.979 81.3366 519.958 62.6503 533.891C36.9524 553.051 29.7975 541.53 0.000244141 547V1591.5H1513C1513 1591.5 1513 1244.03 1513 1192.5L1513 730L1513 290C1482.18 277.095 1453.48 266.191 1421.11 270.75C1392.91 274.721 1367.79 299.904 1339.41 299.929C1320.57 299.946 1299.12 296.039 1285.14 280.649C1251.44 243.535 1257.29 174.325 1234.08 126.768C1216.62 91.0097 1198.15 51.9783 1168.94 30.4077C1145.07 12.7878 1116.18 1.41781 1087.76 0.123558Z" fill="#B0D471"/>
<path d="M1342.75 878.457H1376.17L1403.41 1404.36H1315.08L1342.75 878.457Z" fill="#93642D"/>
<path d="M1342.51 878.457H1375.71L1390.15 1161.51H1328.07L1342.51 878.457Z" fill="#714D22"/>
<path d="M1459.64 1113.47C1492.97 1120.26 1470.89 1039.27 1454.78 967.247C1438.68 895.226 1403.83 759.743 1350.34 759.743C1306.51 759.743 1223.45 1077.64 1242.9 1107.55C1258.46 1131.48 1294.99 1112.7 1319.3 1075.04C1326.6 1108.27 1337.61 1123.83 1355.11 1126.48C1372.62 1129.14 1382.83 1104.95 1396.61 1075.04C1401.47 1086.12 1430.57 1107.55 1459.64 1113.47Z" fill="#66A865"/>
<path fill-rule="evenodd" clip-rule="evenodd" d="M1453.36 959.188C1433.28 879.289 1398.56 773.404 1349.27 773.404C1323.92 773.404 1286.49 871.287 1260.21 967.739C1278.09 964.082 1299.32 946.691 1315.55 921.559C1323.47 957.666 1336.48 995.21 1355.5 998.099C1374.52 1000.99 1388.71 963.317 1399.54 921.559C1404 931.72 1427.23 949.899 1453.36 959.188Z" fill="#458244"/>
<path d="M1459.64 930.468C1491.53 951.14 1470.89 856.264 1454.78 784.243C1438.68 712.222 1403.83 576.739 1350.34 576.739C1306.51 576.739 1223.45 894.636 1242.9 924.545C1258.46 948.473 1294.99 889.827 1319.3 852.162C1326.6 885.395 1337.61 940.822 1355.11 943.48C1372.62 946.139 1382.83 882.072 1396.61 852.162C1401.47 863.24 1430.58 911.623 1459.64 930.468Z" fill="#83C082"/>
<path fill-rule="evenodd" clip-rule="evenodd" d="M1438.33 710.219C1446.04 743.438 1451.69 767.752 1450.79 767.568C1426.08 762.552 1397.44 740.508 1393.31 731.126C1384.83 763.677 1371.82 784.411 1356.94 782.159C1342.07 779.907 1328.49 754.862 1322.29 726.715C1301.63 758.615 1263.29 770.486 1265.99 761.732C1270.59 746.759 1274.9 730.215 1278.99 712.823C1303.63 633.058 1333.64 563.302 1355.04 563.302C1380.9 563.302 1402.75 592.445 1420.58 631.69C1421.5 636.368 1422.42 640.826 1423.36 645.008C1428.45 667.709 1433.75 690.528 1438.33 710.219Z" fill="#458244"/>
<path d="M1449.34 715.042C1472.44 731.09 1455.21 648.305 1442.13 589.564C1429.04 530.822 1396.04 438.198 1352.71 431.972C1312.19 426.15 1245.86 681.893 1261.66 706.288C1274.29 725.803 1307.76 687.329 1327.5 656.61C1333.43 683.715 1342.37 728.922 1356.59 731.09C1370.8 733.258 1379.09 681.005 1390.28 656.61C1394.23 665.645 1428.75 700.732 1449.34 715.042Z" fill="#66A865"/>
<path fill-rule="evenodd" clip-rule="evenodd" d="M1430.71 545.313C1435.41 562.079 1438.29 572.342 1437.79 572.056C1436.72 571.437 1435.4 570.69 1433.89 569.836C1421.15 562.639 1394.87 547.797 1390.15 537.039C1387.26 544.353 1384.66 551.151 1382.27 557.375C1371.7 584.94 1365.45 601.237 1358.39 601.237C1349.52 601.237 1344.24 585.826 1337.53 566.217C1334.38 557.028 1330.92 546.917 1326.63 537.039C1300.21 577.96 1281.87 574.974 1281.87 574.974C1281.87 574.974 1291.63 501.915 1308.71 435.839C1324.27 400.256 1339.68 376.543 1352.16 376.543C1367.5 376.543 1381.43 386.803 1393.95 403.345C1394.12 404.13 1394.3 404.923 1394.48 405.724C1405.98 457.147 1421.7 513.176 1430.71 545.313Z" fill="#458244"/>
<path d="M1427.58 530.972C1447.13 553.705 1435.12 480.212 1424.33 430.945C1413.53 381.678 1390.19 289 1354.35 289C1324.98 289 1269.34 506.46 1282.37 526.921C1292.79 543.289 1317.27 503.171 1333.56 477.406C1338.44 500.14 1345.82 538.055 1357.55 539.873C1369.28 541.692 1376.12 497.866 1385.35 477.406C1388.61 484.984 1411.95 512.785 1427.58 530.972Z" fill="#83C082"/>
<path d="M1068.26 1175.48H1110.96L1145.77 1487.43H1032.91L1068.26 1175.48Z" fill="#93642D"/>
<path d="M1067.95 1175.48H1110.38L1128.82 1343.38H1049.51L1067.95 1175.48Z" fill="#714D22"/>
<path fill-rule="evenodd" clip-rule="evenodd" d="M900.501 984.052C900.501 961.961 918.408 944.054 940.498 944.054H1039.96C1062.05 944.054 1079.96 961.961 1079.96 984.051V1040.28H1104.05C1126.14 1040.28 1144.05 1058.19 1144.05 1080.28V1174.7C1144.05 1196.79 1126.14 1214.7 1104.05 1214.7H1004.59C998.29 1214.7 992.329 1213.24 987.027 1210.65C981.725 1213.24 975.763 1214.7 969.461 1214.7H869.998C847.908 1214.7 830 1196.79 830 1174.7V1080.28C830 1058.19 847.908 1040.28 869.998 1040.28H900.501V984.052Z" fill="#66A865"/>
<path fill-rule="evenodd" clip-rule="evenodd" d="M1073.7 1317.33C1059.05 1333.86 1033.06 1336.25 1015.64 1322.66L946.236 1268.51C928.819 1254.92 926.576 1230.51 941.225 1213.97L977.64 1172.87L961.863 1160.56C944.446 1146.97 942.203 1122.56 956.852 1106.02L1017.88 1037.14C1032.53 1020.61 1058.52 1018.22 1075.94 1031.81L1145.35 1085.96C1150.77 1090.19 1154.72 1095.46 1157.15 1101.23C1163.63 1102.41 1169.88 1105.1 1175.3 1109.33L1244.7 1163.48C1262.12 1177.06 1264.36 1201.48 1249.71 1218.02L1188.69 1286.9C1174.04 1303.43 1148.04 1305.82 1130.63 1292.23L1110.12 1276.23L1073.7 1317.33Z" fill="#66A865"/>
<path fill-rule="evenodd" clip-rule="evenodd" d="M1080.74 955.983C1080.74 933.893 1098.65 915.985 1120.74 915.985H1222.2C1244.29 915.985 1262.2 933.893 1262.2 955.983V1013.29H1287C1309.09 1013.29 1327 1031.19 1327 1053.28V1149.64C1327 1171.73 1309.09 1189.64 1287 1189.64H1185.55C1179.34 1189.64 1173.47 1188.23 1168.23 1185.71C1162.99 1188.23 1157.12 1189.64 1150.91 1189.64H1049.46C1027.37 1189.64 1009.46 1171.73 1009.46 1149.64V1053.28C1009.46 1031.19 1027.37 1013.29 1049.46 1013.29H1080.74V955.983Z" fill="#66A865"/>
<path fill-rule="evenodd" clip-rule="evenodd" d="M1047.7 836.319C1047.7 814.229 1065.61 796.321 1087.7 796.321H1189.16C1211.25 796.321 1229.15 814.229 1229.15 836.319V893.62H1253.96C1276.05 893.62 1293.96 911.528 1293.96 933.618V1029.98C1293.96 1052.07 1276.05 1069.97 1253.96 1069.97H1152.5C1146.3 1069.97 1140.43 1068.56 1135.19 1066.04C1129.95 1068.56 1124.07 1069.97 1117.87 1069.97H1016.41C994.323 1069.97 976.415 1052.07 976.415 1029.98V933.618C976.415 911.528 994.323 893.62 1016.41 893.62H1047.7V836.319Z" fill="#66A865"/>
<path fill-rule="evenodd" clip-rule="evenodd" d="M918.003 886.594C918.003 864.503 935.911 846.596 958.001 846.596H1026.89C1048.98 846.596 1066.89 864.503 1066.89 886.593V926.432H1080.06C1102.15 926.432 1120.06 944.339 1120.06 966.429V1031.14C1120.06 1053.23 1102.15 1071.13 1080.06 1071.13H1011.17C1003.31 1071.13 995.973 1068.86 989.787 1064.94C983.601 1068.86 976.265 1071.13 968.399 1071.13H899.51C877.42 1071.13 859.513 1053.23 859.513 1031.14V966.429C859.513 944.339 877.42 926.432 899.51 926.432H918.003V886.594Z" fill="#66A865"/>
<path fill-rule="evenodd" clip-rule="evenodd" d="M1179.93 871.713C1195.6 887.279 1194.91 911.779 1178.38 926.434L1130.02 969.316C1113.49 983.972 1087.39 983.234 1071.71 967.669L1041.66 937.826L1032.94 945.558C1016.41 960.214 990.309 959.477 974.635 943.911L925.49 895.105C909.815 879.539 910.508 855.04 927.036 840.384L975.396 797.502C981.451 792.133 988.792 788.83 996.433 787.565C998.212 780.477 1002.14 773.787 1008.2 768.418L1056.56 725.537C1073.09 710.881 1099.19 711.618 1114.86 727.184L1164.01 775.99C1179.68 791.556 1178.99 816.055 1162.46 830.711L1149.88 841.871L1179.93 871.713Z" fill="#83C082"/>
<path fill-rule="evenodd" clip-rule="evenodd" d="M921.693 847.725C921.53 847.941 921.369 848.159 921.211 848.378H921.693V847.725ZM837.378 1058.7C832.732 1065.23 830 1073.22 830 1081.85V1176.27C830 1198.36 847.908 1216.27 869.998 1216.27H940.596C926.645 1232.79 929.074 1256.69 946.236 1270.08L1015.64 1324.24C1033.06 1337.82 1059.05 1335.44 1073.7 1318.9L1110.12 1277.8L1130.63 1293.8C1148.04 1307.39 1174.04 1305 1188.69 1288.47L1249.72 1219.59C1257.04 1211.32 1260.14 1201.08 1259.23 1191.21H1287C1309.09 1191.21 1327 1173.31 1327 1151.22V1085.35C1319.75 1095.55 1307.84 1102.2 1294.38 1102.2H1272.85C1272.37 1102.8 1271.87 1103.4 1271.35 1103.99L1210.33 1172.87C1195.68 1189.4 1169.68 1191.79 1152.27 1178.2L1131.76 1162.2L1095.34 1203.3C1080.69 1219.83 1054.7 1222.22 1037.28 1208.63L967.875 1154.48C958.856 1147.45 953.905 1137.5 953.263 1127.26H877.376C855.286 1127.26 837.378 1109.35 837.378 1087.26V1058.7Z" fill="#458244"/>
<path fill-rule="evenodd" clip-rule="evenodd" d="M900.501 984.052C900.501 961.961 918.408 944.054 940.498 944.054H1039.96C1062.05 944.054 1079.96 961.961 1079.96 984.051V1040.28H1104.05C1126.14 1040.28 1144.05 1058.19 1144.05 1080.28V1174.7C1144.05 1196.79 1126.14 1214.7 1104.05 1214.7H1004.59C998.29 1214.7 992.329 1213.24 987.027 1210.65C981.725 1213.24 975.763 1214.7 969.461 1214.7H869.998C847.908 1214.7 830 1196.79 830 1174.7V1080.28C830 1058.19 847.908 1040.28 869.998 1040.28H900.501V984.052Z" fill="#66A865"/>
<path fill-rule="evenodd" clip-rule="evenodd" d="M1073.7 1317.33C1059.05 1333.86 1033.06 1336.25 1015.64 1322.66L946.236 1268.51C928.819 1254.92 926.576 1230.51 941.225 1213.97L977.64 1172.87L961.863 1160.56C944.446 1146.97 942.203 1122.56 956.852 1106.02L1017.88 1037.14C1032.53 1020.61 1058.52 1018.22 1075.94 1031.81L1145.35 1085.96C1150.77 1090.19 1154.72 1095.46 1157.15 1101.23C1163.63 1102.41 1169.88 1105.1 1175.3 1109.33L1244.7 1163.48C1262.12 1177.06 1264.36 1201.48 1249.71 1218.02L1188.69 1286.9C1174.04 1303.43 1148.04 1305.82 1130.63 1292.23L1110.12 1276.23L1073.7 1317.33Z" fill="#66A865"/>
<path fill-rule="evenodd" clip-rule="evenodd" d="M1080.74 955.983C1080.74 933.893 1098.65 915.985 1120.74 915.985H1222.2C1244.29 915.985 1262.2 933.893 1262.2 955.983V1013.29H1287C1309.09 1013.29 1327 1031.19 1327 1053.28V1149.64C1327 1171.73 1309.09 1189.64 1287 1189.64H1185.55C1179.34 1189.64 1173.47 1188.23 1168.23 1185.71C1162.99 1188.23 1157.12 1189.64 1150.91 1189.64H1049.46C1027.37 1189.64 1009.46 1171.73 1009.46 1149.64V1053.28C1009.46 1031.19 1027.37 1013.29 1049.46 1013.29H1080.74V955.983Z" fill="#66A865"/>
<path fill-rule="evenodd" clip-rule="evenodd" d="M1047.7 836.319C1047.7 814.229 1065.61 796.321 1087.7 796.321H1189.16C1211.25 796.321 1229.15 814.229 1229.15 836.319V893.62H1253.96C1276.05 893.62 1293.96 911.528 1293.96 933.618V1029.98C1293.96 1052.07 1276.05 1069.97 1253.96 1069.97H1152.5C1146.3 1069.97 1140.43 1068.56 1135.19 1066.04C1129.95 1068.56 1124.07 1069.97 1117.87 1069.97H1016.41C994.323 1069.97 976.415 1052.07 976.415 1029.98V933.618C976.415 911.528 994.323 893.62 1016.41 893.62H1047.7V836.319Z" fill="#66A865"/>
<path fill-rule="evenodd" clip-rule="evenodd" d="M918.003 886.594C918.003 864.503 935.911 846.596 958.001 846.596H1026.89C1048.98 846.596 1066.89 864.503 1066.89 886.593V926.432H1080.06C1102.15 926.432 1120.06 944.339 1120.06 966.429V1031.14C1120.06 1053.23 1102.15 1071.13 1080.06 1071.13H1011.17C1003.31 1071.13 995.973 1068.86 989.787 1064.94C983.601 1068.86 976.265 1071.13 968.399 1071.13H899.51C877.42 1071.13 859.513 1053.23 859.513 1031.14V966.429C859.513 944.339 877.42 926.432 899.51 926.432H918.003V886.594Z" fill="#66A865"/>
<path fill-rule="evenodd" clip-rule="evenodd" d="M1179.93 871.713C1195.6 887.279 1194.91 911.779 1178.38 926.434L1130.02 969.316C1113.49 983.972 1087.39 983.234 1071.71 967.669L1041.66 937.826L1032.94 945.558C1016.41 960.214 990.309 959.477 974.635 943.911L925.49 895.105C909.815 879.539 910.508 855.04 927.036 840.384L975.396 797.502C981.451 792.133 988.792 788.83 996.433 787.565C998.212 780.477 1002.14 773.787 1008.2 768.418L1056.56 725.537C1073.09 710.881 1099.19 711.618 1114.86 727.184L1164.01 775.99C1179.68 791.556 1178.99 816.055 1162.46 830.711L1149.88 841.871L1179.93 871.713Z" fill="#83C082"/>
<path fill-rule="evenodd" clip-rule="evenodd" d="M921.693 847.725C921.53 847.941 921.369 848.159 921.211 848.378H921.693V847.725ZM837.378 1058.7C832.732 1065.23 830 1073.22 830 1081.85V1176.27C830 1198.36 847.908 1216.27 869.998 1216.27H940.596C926.645 1232.79 929.074 1256.69 946.236 1270.08L1015.64 1324.24C1033.06 1337.82 1059.05 1335.44 1073.7 1318.9L1110.12 1277.8L1130.63 1293.8C1148.04 1307.39 1174.04 1305 1188.69 1288.47L1249.72 1219.59C1257.04 1211.32 1260.14 1201.08 1259.23 1191.21H1287C1309.09 1191.21 1327 1173.31 1327 1151.22V1085.35C1319.75 1095.55 1307.84 1102.2 1294.38 1102.2H1272.85C1272.37 1102.8 1271.87 1103.4 1271.35 1103.99L1210.33 1172.87C1195.68 1189.4 1169.68 1191.79 1152.27 1178.2L1131.76 1162.2L1095.34 1203.3C1080.69 1219.83 1054.7 1222.22 1037.28 1208.63L967.875 1154.48C958.856 1147.45 953.905 1137.5 953.263 1127.26H877.376C855.286 1127.26 837.378 1109.35 837.378 1087.26V1058.7Z" fill="#458244"/>
<path d="M730.746 1041.46H764.17L791.412 1567.36H703.075L730.746 1041.46Z" fill="#93642D"/>
<path d="M730.506 1041.46H763.712L778.15 1324.51H716.068L730.506 1041.46Z" fill="#714D22"/>
<path d="M847.645 1276.47C880.966 1283.26 858.889 1202.27 842.782 1130.25C826.675 1058.23 791.828 922.743 738.339 922.743C694.508 922.743 611.452 1240.64 630.903 1270.55C646.463 1294.48 682.989 1275.7 707.302 1238.04C714.596 1271.27 725.609 1286.83 743.114 1289.48C760.619 1292.14 770.829 1267.95 784.606 1238.04C789.469 1249.12 818.575 1270.55 847.645 1276.47Z" fill="#66A865"/>
<path fill-rule="evenodd" clip-rule="evenodd" d="M841.361 1122.19C821.275 1042.29 786.556 936.404 737.267 936.404C711.915 936.404 674.487 1034.29 648.212 1130.74C666.094 1127.08 687.323 1109.69 703.546 1084.56C711.47 1120.67 724.48 1158.21 743.499 1161.1C762.518 1163.99 776.705 1126.32 787.535 1084.56C791.995 1094.72 815.227 1112.9 841.361 1122.19Z" fill="#458244"/>
<path d="M847.645 1093.47C879.535 1114.14 858.889 1019.26 842.782 947.243C826.675 875.222 791.828 739.739 738.339 739.739C694.508 739.739 611.452 1057.64 630.903 1087.55C646.463 1111.47 682.989 1052.83 707.302 1015.16C714.596 1048.4 725.609 1103.82 743.114 1106.48C760.619 1109.14 770.829 1045.07 784.606 1015.16C789.469 1026.24 818.575 1074.62 847.645 1093.47Z" fill="#83C082"/>
<path fill-rule="evenodd" clip-rule="evenodd" d="M826.327 873.219C834.045 906.438 839.694 930.752 838.787 930.568C814.082 925.552 785.438 903.508 781.305 894.126C772.834 926.677 759.82 947.411 744.943 945.159C730.066 942.907 716.492 917.862 710.293 889.715C689.631 921.615 651.295 933.486 653.987 924.732C658.592 909.759 662.896 893.215 666.993 875.823C691.632 796.058 721.64 726.302 743.041 726.302C768.9 726.302 790.748 755.445 808.577 794.69C809.495 799.368 810.418 803.826 811.356 808.008C816.45 830.709 821.752 853.528 826.327 873.219Z" fill="#458244"/>
<path d="M837.344 878.042C860.444 894.09 843.206 811.305 830.125 752.564C817.045 693.822 784.036 601.198 740.707 594.972C700.188 589.15 633.861 844.893 649.657 869.288C662.293 888.803 695.757 850.329 715.502 819.61C721.425 846.715 730.369 891.922 744.585 894.09C758.801 896.258 767.093 844.005 778.281 819.61C782.23 828.645 816.746 863.732 837.344 878.042Z" fill="#66A865"/>
<path fill-rule="evenodd" clip-rule="evenodd" d="M818.709 708.313C823.411 725.078 826.289 735.341 825.794 735.055C824.722 734.436 823.401 733.69 821.889 732.836C809.148 725.639 782.873 710.797 778.15 700.038C775.265 707.353 772.658 714.151 770.272 720.374C759.703 747.94 753.455 764.236 746.388 764.236C737.515 764.236 732.24 748.825 725.527 729.217C722.382 720.028 718.92 709.917 714.625 700.038C688.21 740.959 669.869 737.973 669.869 737.973C669.869 737.973 679.625 664.915 696.714 598.839C712.274 563.256 727.677 539.543 740.155 539.543C755.498 539.543 769.429 549.803 781.946 566.345C782.124 567.129 782.302 567.922 782.482 568.724C793.982 620.146 809.696 676.176 818.709 708.313Z" fill="#458244"/>
<path d="M815.584 693.972C835.131 716.705 823.117 643.212 812.326 593.945C801.535 544.678 778.187 452 742.35 452C712.984 452 657.338 669.46 670.37 689.921C680.795 706.289 705.267 666.171 721.556 640.406C726.443 663.14 733.821 701.055 745.55 702.873C757.278 704.692 764.118 660.866 773.349 640.406C776.607 647.984 799.946 675.785 815.584 693.972Z" fill="#83C082"/>
<path d="M117.752 919.492H151.504L179.012 1487.35H89.8105L117.752 919.492Z" fill="#93642D"/>
<path d="M117.511 919.492H151.042L165.621 1225.13H102.932L117.511 919.492Z" fill="#714D22"/>
<path d="M235.797 1173.26C269.444 1180.59 247.151 1093.13 230.886 1015.37C214.622 937.599 179.433 791.306 125.42 791.306C81.1597 791.306 -2.70971 1134.57 16.9313 1166.87C32.644 1192.7 69.5276 1172.43 94.0788 1131.76C101.444 1167.64 112.565 1184.44 130.242 1187.31C147.919 1190.18 158.228 1164.06 172.141 1131.76C177.051 1143.72 206.442 1166.87 235.797 1173.26Z" fill="#66A865"/>
<path fill-rule="evenodd" clip-rule="evenodd" d="M229.45 1006.67C209.168 920.39 174.108 806.057 124.337 806.057C98.7368 806.057 60.9412 911.75 34.4092 1015.9C52.4669 1011.95 73.9029 993.171 90.2851 966.033C98.2874 1005.02 111.425 1045.56 130.63 1048.68C149.835 1051.8 164.162 1011.12 175.097 966.033C179.601 977.005 203.061 996.635 229.45 1006.67Z" fill="#458244"/>
<path d="M235.797 975.654C267.999 997.976 247.151 895.528 230.886 817.76C214.622 739.992 179.433 593.699 125.42 593.699C81.1597 593.699 -2.70971 936.962 16.9313 969.259C32.644 995.096 69.5276 931.769 94.0788 891.1C101.444 926.985 112.565 986.834 130.242 989.705C147.919 992.575 158.228 923.396 172.141 891.1C177.051 903.062 206.442 955.306 235.797 975.654Z" fill="#83C082"/>
<path fill-rule="evenodd" clip-rule="evenodd" d="M214.27 737.831C222.064 773.7 227.768 799.954 226.853 799.756C201.906 794.339 172.981 770.536 168.808 760.405C160.253 795.554 147.112 817.942 132.089 815.51C117.067 813.079 103.359 786.035 97.0999 755.642C76.2349 790.087 37.5236 802.907 40.2424 793.454C44.8924 777.287 49.2381 759.423 53.3749 740.644C78.2553 654.514 108.558 579.189 130.169 579.189C156.281 579.189 178.343 610.658 196.347 653.033C197.274 658.085 198.205 662.9 199.153 667.416C204.297 691.928 209.651 716.569 214.27 737.831Z" fill="#458244"/>
<path d="M225.395 743.038C248.721 760.366 231.314 670.975 218.105 607.547C204.896 544.118 171.565 444.103 127.811 437.38C86.8948 431.094 19.9179 707.244 35.8684 733.585C48.6289 754.658 82.4207 713.114 102.359 679.943C108.34 709.211 117.371 758.025 131.727 760.366C146.082 762.708 154.455 706.285 165.753 679.943C169.741 689.699 204.595 727.586 225.395 743.038Z" fill="#66A865"/>
<path fill-rule="evenodd" clip-rule="evenodd" d="M206.577 559.766C211.325 577.869 214.232 588.951 213.732 588.642C212.649 587.973 211.315 587.167 209.788 586.245C196.923 578.474 170.39 562.448 165.621 550.831C162.707 558.729 160.075 566.069 157.666 572.789C146.993 602.554 140.684 620.151 133.547 620.151C124.588 620.151 119.261 603.511 112.483 582.338C109.306 572.415 105.811 561.497 101.474 550.831C74.7997 595.017 56.2793 591.793 56.2793 591.793C56.2793 591.793 66.1307 512.906 83.3871 441.558C99.0991 403.134 114.654 377.529 127.254 377.529C142.747 377.529 156.814 388.607 169.454 406.469C169.634 407.316 169.814 408.172 169.995 409.038C181.608 464.564 197.476 525.064 206.577 559.766Z" fill="#458244"/>
<path d="M203.422 544.28C223.161 568.827 211.029 489.469 200.132 436.271C189.235 383.073 165.659 283 129.471 283C99.8173 283 43.626 517.813 56.7852 539.905C67.3125 557.58 92.024 514.261 108.473 486.44C113.408 510.988 120.858 551.928 132.702 553.892C144.545 555.856 151.452 508.533 160.773 486.44C164.063 494.623 187.631 524.642 203.422 544.28Z" fill="#83C082"/>
<path d="M417.74 1000.14H471.332L515.009 1388.36H373.373L417.74 1000.14Z" fill="#93642D"/>
<path d="M417.355 1000.14H470.597L493.746 1209.09H394.206L417.355 1000.14Z" fill="#714D22"/>
<path d="M605.173 1173.63C658.599 1178.64 623.202 1118.85 597.377 1065.68C571.551 1012.52 515.677 912.503 429.915 912.503C359.637 912.503 226.468 1147.17 257.654 1169.25C282.603 1186.92 341.168 1173.06 380.151 1145.25C391.846 1169.79 409.503 1181.27 437.571 1183.23C465.639 1185.19 482.009 1167.33 504.099 1145.25C511.896 1153.43 558.563 1169.25 605.173 1173.63Z" fill="#66A865"/>
<path fill-rule="evenodd" clip-rule="evenodd" d="M595.097 1059.73C562.893 1000.75 507.224 922.588 428.196 922.588C387.548 922.588 327.535 994.845 285.407 1066.05C314.08 1063.35 348.116 1050.51 374.128 1031.96C386.834 1058.61 407.694 1086.32 438.189 1088.46C468.683 1090.59 491.431 1062.78 508.795 1031.96C515.946 1039.46 553.196 1052.88 595.097 1059.73Z" fill="#458244"/>
<path d="M605.173 1038.53C656.305 1053.79 623.202 983.754 597.377 930.588C571.551 877.422 515.677 777.409 429.915 777.409C359.637 777.409 226.468 1012.08 257.654 1034.16C282.603 1051.82 341.168 1008.53 380.151 980.727C391.846 1005.26 409.503 1046.17 437.571 1048.14C465.639 1050.1 482.009 1002.81 504.099 980.727C511.896 988.904 558.563 1024.62 605.173 1038.53Z" fill="#83C082"/>
<path fill-rule="evenodd" clip-rule="evenodd" d="M570.993 875.945C583.368 900.468 592.425 918.416 590.972 918.28C551.36 914.577 505.432 898.304 498.807 891.378C485.224 915.408 464.358 930.713 440.505 929.051C416.651 927.389 394.887 908.9 384.948 888.122C351.818 911.67 290.351 920.434 294.668 913.972C302.052 902.918 308.953 890.705 315.521 877.866C355.027 818.984 403.141 767.49 437.456 767.49C478.916 767.49 513.947 789.004 542.533 817.974C544.006 821.427 545.485 824.719 546.989 827.806C555.157 844.564 563.658 861.41 570.993 875.945Z" fill="#458244"/>
<path d="M588.656 879.504C625.694 891.351 598.055 830.239 577.082 786.876C556.109 743.513 503.184 675.138 433.711 670.542C368.743 666.244 262.396 855.034 287.723 873.042C307.984 887.448 361.639 859.047 393.297 836.37C402.795 856.379 417.135 889.75 439.929 891.351C462.722 892.952 476.017 854.378 493.956 836.37C500.288 843.04 555.63 868.941 588.656 879.504Z" fill="#66A865"/>
<path fill-rule="evenodd" clip-rule="evenodd" d="M558.778 754.21C566.317 766.586 570.932 774.162 570.138 773.951C568.419 773.494 566.3 772.943 563.876 772.313C543.448 767 501.319 756.044 493.747 748.102C489.12 753.501 484.941 758.519 481.115 763.114C464.169 783.462 454.151 795.493 442.82 795.493C428.594 795.493 420.135 784.116 409.373 769.641C404.329 762.858 398.779 755.394 391.893 748.102C349.539 778.31 320.132 776.105 320.132 776.105C320.132 776.105 335.774 722.174 363.175 673.397C388.122 647.129 412.82 629.624 432.827 629.624C457.427 629.624 479.763 637.198 499.833 649.409C500.118 649.988 500.404 650.574 500.692 651.165C519.131 689.125 544.326 730.486 558.778 754.21Z" fill="#458244"/>
<path d="M553.768 743.624C585.109 760.405 565.847 706.152 548.544 669.784C531.241 633.415 493.807 565 436.347 565C389.262 565 300.04 725.529 320.935 740.633C337.65 752.716 376.888 723.101 403.006 704.081C410.841 720.863 422.671 748.852 441.476 750.195C460.281 751.537 471.249 719.185 486.049 704.081C491.273 709.675 528.694 730.198 553.768 743.624Z" fill="#83C082"/>
</svg>
