<svg width="1512" height="1780" viewBox="0 0 1512 1780" fill="none" xmlns="http://www.w3.org/2000/svg">
<path d="M-101 -330H1600V827H-101V-330Z" fill="#C6FFFF"/>
<path d="M658.272 476.743C622.955 476.777 588.798 487.815 561.883 507.891C552.758 502.089 542.084 498.996 531.171 498.991C507.658 499.052 486.684 513.336 478.65 534.76H472.754C459.818 527.377 443.243 523.31 426.089 523.309C416.396 523.324 406.81 524.637 397.921 527.168C378.759 509.173 352.237 498.994 324.508 498.991C281.094 499.08 242.541 523.929 228.565 560.832C209.575 553.656 188.859 549.93 167.884 549.919C127.418 550.008 88.8902 563.895 61.8389 588.143C53.1834 564.843 34.3921 549.919 13.7111 549.919C-11.7406 549.987 -33.5579 572.492 -38.2557 603.522C-48.2678 593.277 -61.1502 587.621 -74.4916 587.615C-104.791 587.616 -129.353 616.156 -129.352 651.362V944.621L1575.61 1053.27L1578 651.362H1570.53C1575.45 641.62 1577.98 631.208 1578 620.694C1578 575.482 1532.44 538.831 1476.24 538.831C1438.73 538.887 1404.3 555.536 1386.64 582.158C1364.44 554.796 1330.59 538.834 1294.78 538.831C1279.93 538.921 1265.24 541.758 1251.49 547.19C1235.94 503.49 1207.92 476.747 1177.68 476.743C1144.74 476.874 1114.73 508.682 1100.4 558.667C1086.04 552.912 1070.41 549.927 1054.59 549.919C1022.92 549.995 992.862 561.964 972.208 582.717C942.135 561.753 900.859 549.926 857.75 549.919C836.673 549.922 815.804 552.755 796.346 558.256C773.47 508.972 718.89 476.75 658.272 476.743Z" fill="#E5FFFF"/>
<path d="M86.578 314.928C53.3519 320.203 21.1707 403.586 21.1707 403.586L-156.97 643.068L-195 971.048V1782.5H184.5H685H1004.5H1530.37V434.756L1473.72 370.325L1394.26 470.109L1320.2 629.764L1248.14 658.59L1158.07 781.645L1021.96 749.67L913.878 658.59L821.805 554.549L703.711 452.37L626.075 521.11L549.589 636.416L395.467 714.264L319.407 605.58L211.321 527.762L133.26 434.756C133.26 434.756 100.952 316.324 93.2279 314.963C91.0128 314.572 88.7932 314.576 86.578 314.928Z" fill="#95CBE3"/>
<path d="M93.2277 314.964L106.596 424.454L92.4427 446.406L58.4748 488.74L-5.21484 531.075L21.6761 531.859L81.1201 497.364L119.334 477.765L154.01 500.5L181.609 538.131L158.256 582.818L184.44 599.282L217.7 604.769L269.36 654.16L255.206 722.366L200.008 866.618L195.762 919.412H304.743L394.616 777.245L413.723 722.366L459.353 681.994L540.396 658.59L597.009 600.066L679.392 550.675L712.359 582.818L683.345 687.087L674.853 739.614L751.988 730.206L829.124 698.063L836.908 750.59L815.679 797.628L889.276 827.419L946.597 803.9L1017.36 783.517L1058.41 789.005L1115.73 846.235L1192.16 794.492L1234.37 677.411L1262.22 681.599L1320.2 629.764L1388.89 518.532L1440.55 446.406L1483.73 401.719L1473.72 370.325L1394.26 470.109L1320.2 629.764L1248.14 658.59L1158.07 781.643L1021.96 749.67L913.877 658.59L821.804 554.55L703.711 452.37L626.075 521.11L549.589 636.416L395.467 714.263L319.406 605.581L211.321 527.762L133.26 434.757L93.2277 314.964Z" fill="#C3EFFF"/>
</svg>
