<svg width="1513" height="1583" viewBox="0 0 1513 1583" fill="none" xmlns="http://www.w3.org/2000/svg">
<path d="M1087.76 0.122898C1078.29 -0.305826 1068.87 0.378064 1059.7 2.31733C1014.9 11.7985 971.351 45.559 943.661 89.2588C896.889 163.074 848.41 272.786 820.017 359.24C806.566 400.198 784.811 465.345 757.156 485.529C738.967 498.805 717.88 486.634 699.463 474.752C682.797 464 669.321 438.521 653.961 421.469C615.363 378.619 585.047 328.834 536.773 298.327C509.606 281.158 478.658 274.188 448.68 266.489C424.919 260.387 400.658 253.55 376.408 255.232C349.319 257.112 322.678 266.983 297.39 278.892C277.65 288.189 258.527 300.31 241.609 315.74C212.546 342.249 190.809 378.843 164.911 409.792C146.55 431.733 127.552 452.881 109.134 474.752C93.4892 493.33 81.3366 517.181 62.6503 531.039C36.9524 550.097 29.7975 538.637 0.000244141 544.079V1583H1513C1513 1583 1513 1237.39 1513 1186.13L1513 726.101L1513 288.451C1482.18 275.615 1453.48 264.769 1421.11 269.304C1392.91 273.254 1367.79 298.302 1339.41 298.327C1320.57 298.344 1299.12 294.458 1285.14 279.151C1251.44 242.234 1257.29 173.394 1234.08 126.091C1216.62 90.5236 1198.15 51.7007 1168.94 30.2453C1145.07 12.7195 1116.18 1.41024 1087.76 0.122898Z" fill="#B0D471"/>
<path d="M1342.75 873.765H1376.17L1403.41 1396.85H1315.08L1342.75 873.765Z" fill="#93642D"/>
<path d="M1342.51 873.765H1375.71L1390.15 1155.31H1328.07L1342.51 873.765Z" fill="#714D22"/>
<path d="M1459.64 1107.52C1492.97 1114.28 1470.89 1033.72 1454.78 962.08C1438.68 890.444 1403.83 755.685 1350.34 755.685C1306.51 755.685 1223.45 1071.88 1242.9 1101.63C1258.46 1125.43 1294.99 1106.76 1319.3 1069.3C1326.6 1102.35 1337.61 1117.82 1355.11 1120.47C1372.62 1123.11 1382.83 1099.05 1396.61 1069.3C1401.47 1080.31 1430.57 1101.63 1459.64 1107.52Z" fill="#66A865"/>
<path fill-rule="evenodd" clip-rule="evenodd" d="M1453.36 954.066C1433.28 874.593 1398.56 769.274 1349.27 769.274C1323.92 769.274 1286.49 866.634 1260.21 962.571C1278.09 958.933 1299.32 941.635 1315.55 916.637C1323.47 952.551 1336.48 989.895 1355.5 992.768C1374.52 995.641 1388.71 958.172 1399.54 916.637C1404 926.744 1427.23 944.826 1453.36 954.066Z" fill="#458244"/>
<path d="M1459.64 925.499C1491.53 946.06 1470.89 851.691 1454.78 780.054C1438.68 708.418 1403.83 573.659 1350.34 573.659C1306.51 573.659 1223.45 889.858 1242.9 919.608C1258.46 943.408 1294.99 885.074 1319.3 847.611C1326.6 880.667 1337.61 935.797 1355.11 938.442C1372.62 941.086 1382.83 877.361 1396.61 847.611C1401.47 858.63 1430.58 906.755 1459.64 925.499Z" fill="#83C082"/>
<path fill-rule="evenodd" clip-rule="evenodd" d="M1438.33 706.426C1446.04 739.468 1451.69 763.652 1450.79 763.469C1426.08 758.48 1397.44 736.553 1393.31 727.221C1384.83 759.599 1371.82 780.221 1356.94 777.982C1342.07 775.742 1328.49 750.83 1322.29 722.834C1301.63 754.563 1263.29 766.372 1265.99 757.664C1270.59 742.772 1274.9 726.316 1278.99 709.018C1303.63 629.679 1333.64 560.293 1355.04 560.293C1380.9 560.293 1402.75 589.28 1420.58 628.315C1421.5 632.969 1422.42 637.404 1423.36 641.564C1428.45 664.143 1433.75 686.841 1438.33 706.426Z" fill="#458244"/>
<path d="M1449.34 711.223C1472.44 727.185 1455.21 644.842 1442.13 586.415C1429.04 527.987 1396.04 435.857 1352.71 429.665C1312.19 423.874 1245.86 678.251 1261.66 702.515C1274.29 721.927 1307.76 683.658 1327.5 653.103C1333.43 680.064 1342.37 725.029 1356.59 727.185C1370.8 729.342 1379.09 677.368 1390.28 653.103C1394.23 662.09 1428.75 696.99 1449.34 711.223Z" fill="#66A865"/>
<path fill-rule="evenodd" clip-rule="evenodd" d="M1430.71 542.401C1435.41 559.077 1438.29 569.285 1437.79 569C1436.72 568.385 1435.4 567.642 1433.89 566.793C1421.15 559.634 1394.87 544.872 1390.15 534.17C1387.26 541.446 1384.66 548.207 1382.27 554.398C1371.7 581.816 1365.45 598.026 1358.39 598.026C1349.52 598.026 1344.24 582.697 1337.53 563.193C1334.38 554.053 1330.92 543.996 1326.63 534.17C1300.21 574.873 1281.87 571.903 1281.87 571.903C1281.87 571.903 1291.63 499.233 1308.71 433.51C1324.27 398.118 1339.68 374.532 1352.15 374.532C1367.5 374.532 1381.43 384.737 1393.95 401.191C1394.12 401.971 1394.3 402.76 1394.48 403.557C1405.98 454.705 1421.7 510.435 1430.71 542.401Z" fill="#458244"/>
<path d="M1427.58 528.136C1447.13 550.748 1435.12 477.647 1424.33 428.643C1413.53 379.64 1390.19 287.457 1354.35 287.457C1324.98 287.457 1269.34 503.756 1282.37 524.106C1292.79 540.387 1317.27 500.483 1333.56 474.856C1338.44 497.468 1345.82 535.181 1357.55 536.99C1369.28 538.799 1376.12 495.207 1385.35 474.856C1388.61 482.394 1411.95 510.046 1427.58 528.136Z" fill="#83C082"/>
<path d="M1068.26 1169.2H1110.96L1145.77 1479.48H1032.91L1068.26 1169.2Z" fill="#93642D"/>
<path d="M1067.95 1169.2H1110.38L1128.82 1336.2H1049.51L1067.95 1169.2Z" fill="#714D22"/>
<path fill-rule="evenodd" clip-rule="evenodd" d="M900.501 979.009C900.501 956.919 918.409 939.011 940.499 939.011H1039.96C1062.05 939.011 1079.96 956.919 1079.96 979.009V1034.73H1104.05C1126.14 1034.73 1144.05 1052.63 1144.05 1074.72V1168.21C1144.05 1190.3 1126.14 1208.21 1104.05 1208.21H1004.59C998.29 1208.21 992.329 1206.75 987.027 1204.16C981.725 1206.75 975.763 1208.21 969.461 1208.21H869.998C847.908 1208.21 830 1190.3 830 1168.21V1074.72C830 1052.63 847.908 1034.73 869.998 1034.73H900.501V979.009Z" fill="#66A865"/>
<path fill-rule="evenodd" clip-rule="evenodd" d="M1073.78 1310.2C1059.09 1326.7 1033.03 1329.09 1015.58 1315.55L946.3 1261.79C928.848 1248.24 926.612 1223.89 941.305 1207.4L977.64 1166.61L961.927 1154.41C944.475 1140.87 942.239 1116.52 956.932 1100.03L1017.8 1031.69C1032.49 1015.2 1058.55 1012.8 1076 1026.35L1145.28 1080.11C1150.73 1084.33 1154.69 1089.61 1157.12 1095.37C1163.63 1096.55 1169.92 1099.23 1175.36 1103.45L1244.64 1157.21C1262.09 1170.76 1264.33 1195.11 1249.64 1211.6L1188.77 1279.93C1174.07 1296.43 1148.01 1298.82 1130.56 1285.28L1110.12 1269.41L1073.78 1310.2Z" fill="#66A865"/>
<path fill-rule="evenodd" clip-rule="evenodd" d="M1080.74 951.091C1080.74 929 1098.65 911.093 1120.74 911.093H1222.2C1244.29 911.093 1262.2 929 1262.2 951.091V1007.87H1287C1309.09 1007.87 1327 1025.78 1327 1047.87V1143.29C1327 1165.38 1309.09 1183.29 1287 1183.29H1185.54C1179.34 1183.29 1173.47 1181.87 1168.23 1179.35C1162.99 1181.87 1157.12 1183.29 1150.91 1183.29H1049.46C1027.37 1183.29 1009.46 1165.38 1009.46 1143.29V1047.87C1009.46 1025.78 1027.37 1007.87 1049.46 1007.87H1080.74V951.091Z" fill="#66A865"/>
<path fill-rule="evenodd" clip-rule="evenodd" d="M1047.7 832.066C1047.7 809.976 1065.61 792.068 1087.7 792.068H1189.16C1211.25 792.068 1229.15 809.975 1229.15 832.066V888.847H1253.96C1276.05 888.847 1293.96 906.755 1293.96 928.845V1024.26C1293.96 1046.35 1276.05 1064.26 1253.96 1064.26H1152.5C1146.3 1064.26 1140.43 1062.85 1135.19 1060.33C1129.95 1062.85 1124.07 1064.26 1117.87 1064.26H1016.41C994.323 1064.26 976.415 1046.35 976.415 1024.26V928.845C976.415 906.755 994.323 888.847 1016.41 888.847H1047.7V832.066Z" fill="#66A865"/>
<path fill-rule="evenodd" clip-rule="evenodd" d="M918.003 882.072C918.003 859.981 935.911 842.074 958.001 842.074H1026.89C1048.98 842.074 1066.89 859.981 1066.89 882.072V921.483H1080.06C1102.15 921.483 1120.06 939.391 1120.06 961.481V1025.41C1120.06 1047.5 1102.15 1065.41 1080.06 1065.41H1011.17C1003.31 1065.41 995.973 1063.14 989.787 1059.22C983.601 1063.14 976.265 1065.41 968.399 1065.41H899.51C877.42 1065.41 859.513 1047.5 859.513 1025.41V961.481C859.513 939.391 877.42 921.483 899.51 921.483H918.003V882.072Z" fill="#66A865"/>
<path fill-rule="evenodd" clip-rule="evenodd" d="M1179.85 866.984C1195.57 882.508 1194.88 906.938 1178.31 921.549L1130.09 964.078C1113.53 978.69 1087.35 977.951 1071.64 962.427L1041.66 932.818L1033.01 940.447C1016.45 955.059 990.276 954.32 974.56 938.796L925.565 890.4C909.849 874.876 910.539 850.446 927.106 835.835L975.326 793.306C981.409 787.941 988.786 784.646 996.465 783.391C998.241 776.306 1002.18 769.618 1008.27 764.253L1056.49 721.724C1073.05 707.113 1099.22 707.852 1114.94 723.376L1163.93 771.772C1179.65 787.295 1178.96 811.725 1162.39 826.337L1149.88 837.375L1179.85 866.984Z" fill="#83C082"/>
<path fill-rule="evenodd" clip-rule="evenodd" d="M921.693 843.225C921.538 843.431 921.385 843.638 921.235 843.846H921.693V843.225ZM837.378 1053.14C832.732 1059.67 830 1067.66 830 1076.29V1169.78C830 1191.87 847.908 1209.77 869.998 1209.77H940.6C926.689 1226.25 929.133 1250.03 946.3 1263.35L1015.58 1317.11C1033.03 1330.66 1059.09 1328.26 1073.78 1311.77L1110.12 1270.98L1130.56 1286.84C1148.01 1300.39 1174.07 1297.99 1188.77 1281.5L1249.64 1213.16C1256.98 1204.91 1260.1 1194.7 1259.19 1184.85H1287C1309.09 1184.85 1327 1166.94 1327 1144.85V1079.47C1319.75 1089.66 1307.84 1096.31 1294.38 1096.31H1272.84C1272.34 1096.94 1271.82 1097.57 1271.27 1098.18L1210.41 1166.51C1195.71 1183.01 1169.65 1185.4 1152.2 1171.86L1131.76 1155.99L1095.42 1196.78C1080.73 1213.28 1054.67 1215.67 1037.22 1202.13L967.938 1148.37C958.905 1141.36 953.948 1131.45 953.306 1121.24H877.376C855.286 1121.24 837.378 1103.33 837.378 1081.24V1053.14Z" fill="#458244"/>
<path fill-rule="evenodd" clip-rule="evenodd" d="M900.501 979.009C900.501 956.919 918.409 939.011 940.499 939.011H1039.96C1062.05 939.011 1079.96 956.919 1079.96 979.009V1034.73H1104.05C1126.14 1034.73 1144.05 1052.63 1144.05 1074.72V1168.21C1144.05 1190.3 1126.14 1208.21 1104.05 1208.21H1004.59C998.29 1208.21 992.329 1206.75 987.027 1204.16C981.725 1206.75 975.763 1208.21 969.461 1208.21H869.998C847.908 1208.21 830 1190.3 830 1168.21V1074.72C830 1052.63 847.908 1034.73 869.998 1034.73H900.501V979.009Z" fill="#66A865"/>
<path fill-rule="evenodd" clip-rule="evenodd" d="M1073.78 1310.2C1059.09 1326.7 1033.03 1329.09 1015.58 1315.55L946.3 1261.79C928.848 1248.24 926.612 1223.89 941.305 1207.4L977.64 1166.61L961.927 1154.41C944.475 1140.87 942.239 1116.52 956.932 1100.03L1017.8 1031.69C1032.49 1015.2 1058.55 1012.8 1076 1026.35L1145.28 1080.11C1150.73 1084.33 1154.69 1089.61 1157.12 1095.37C1163.63 1096.55 1169.92 1099.23 1175.36 1103.45L1244.64 1157.21C1262.09 1170.76 1264.33 1195.11 1249.64 1211.6L1188.77 1279.93C1174.07 1296.43 1148.01 1298.82 1130.56 1285.28L1110.12 1269.41L1073.78 1310.2Z" fill="#66A865"/>
<path fill-rule="evenodd" clip-rule="evenodd" d="M1080.74 951.091C1080.74 929 1098.65 911.093 1120.74 911.093H1222.2C1244.29 911.093 1262.2 929 1262.2 951.091V1007.87H1287C1309.09 1007.87 1327 1025.78 1327 1047.87V1143.29C1327 1165.38 1309.09 1183.29 1287 1183.29H1185.54C1179.34 1183.29 1173.47 1181.87 1168.23 1179.35C1162.99 1181.87 1157.12 1183.29 1150.91 1183.29H1049.46C1027.37 1183.29 1009.46 1165.38 1009.46 1143.29V1047.87C1009.46 1025.78 1027.37 1007.87 1049.46 1007.87H1080.74V951.091Z" fill="#66A865"/>
<path fill-rule="evenodd" clip-rule="evenodd" d="M1047.7 832.066C1047.7 809.976 1065.61 792.068 1087.7 792.068H1189.16C1211.25 792.068 1229.15 809.975 1229.15 832.066V888.847H1253.96C1276.05 888.847 1293.96 906.755 1293.96 928.845V1024.26C1293.96 1046.35 1276.05 1064.26 1253.96 1064.26H1152.5C1146.3 1064.26 1140.43 1062.85 1135.19 1060.33C1129.95 1062.85 1124.07 1064.26 1117.87 1064.26H1016.41C994.323 1064.26 976.415 1046.35 976.415 1024.26V928.845C976.415 906.755 994.323 888.847 1016.41 888.847H1047.7V832.066Z" fill="#66A865"/>
<path fill-rule="evenodd" clip-rule="evenodd" d="M918.003 882.072C918.003 859.981 935.911 842.074 958.001 842.074H1026.89C1048.98 842.074 1066.89 859.981 1066.89 882.072V921.483H1080.06C1102.15 921.483 1120.06 939.391 1120.06 961.481V1025.41C1120.06 1047.5 1102.15 1065.41 1080.06 1065.41H1011.17C1003.31 1065.41 995.973 1063.14 989.787 1059.22C983.601 1063.14 976.265 1065.41 968.399 1065.41H899.51C877.42 1065.41 859.513 1047.5 859.513 1025.41V961.481C859.513 939.391 877.42 921.483 899.51 921.483H918.003V882.072Z" fill="#66A865"/>
<path fill-rule="evenodd" clip-rule="evenodd" d="M1179.85 866.984C1195.57 882.508 1194.88 906.938 1178.31 921.549L1130.09 964.078C1113.53 978.69 1087.35 977.951 1071.64 962.427L1041.66 932.818L1033.01 940.447C1016.45 955.059 990.276 954.32 974.56 938.796L925.565 890.4C909.849 874.876 910.539 850.446 927.106 835.835L975.326 793.306C981.409 787.941 988.786 784.646 996.465 783.391C998.241 776.306 1002.18 769.618 1008.27 764.253L1056.49 721.724C1073.05 707.113 1099.22 707.852 1114.94 723.376L1163.93 771.772C1179.65 787.295 1178.96 811.725 1162.39 826.337L1149.88 837.375L1179.85 866.984Z" fill="#83C082"/>
<path fill-rule="evenodd" clip-rule="evenodd" d="M921.693 843.225C921.538 843.431 921.385 843.638 921.235 843.846H921.693V843.225ZM837.378 1053.14C832.732 1059.67 830 1067.66 830 1076.29V1169.78C830 1191.87 847.908 1209.77 869.998 1209.77H940.6C926.689 1226.25 929.133 1250.03 946.3 1263.35L1015.58 1317.11C1033.03 1330.66 1059.09 1328.26 1073.78 1311.77L1110.12 1270.98L1130.56 1286.84C1148.01 1300.39 1174.07 1297.99 1188.77 1281.5L1249.64 1213.16C1256.98 1204.91 1260.1 1194.7 1259.19 1184.85H1287C1309.09 1184.85 1327 1166.94 1327 1144.85V1079.47C1319.75 1089.66 1307.84 1096.31 1294.38 1096.31H1272.84C1272.34 1096.94 1271.82 1097.57 1271.27 1098.18L1210.41 1166.51C1195.71 1183.01 1169.65 1185.4 1152.2 1171.86L1131.76 1155.99L1095.42 1196.78C1080.73 1213.28 1054.67 1215.67 1037.22 1202.13L967.938 1148.37C958.905 1141.36 953.948 1131.45 953.306 1121.24H877.376C855.286 1121.24 837.378 1103.33 837.378 1081.24V1053.14Z" fill="#458244"/>
<path d="M730.746 1035.89H764.17L791.412 1558.98H703.075L730.746 1035.89Z" fill="#93642D"/>
<path d="M730.506 1035.89H763.712L778.15 1317.44H716.068L730.506 1035.89Z" fill="#714D22"/>
<path d="M847.645 1269.65C880.966 1276.41 858.889 1195.85 842.782 1124.21C826.675 1052.57 791.828 917.814 738.339 917.814C694.508 917.814 611.452 1234.01 630.903 1263.76C646.463 1287.56 682.989 1268.89 707.302 1231.42C714.596 1264.48 725.609 1279.95 743.114 1282.6C760.619 1285.24 770.829 1261.17 784.606 1231.42C789.469 1242.44 818.575 1263.76 847.645 1269.65Z" fill="#66A865"/>
<path fill-rule="evenodd" clip-rule="evenodd" d="M841.361 1116.19C821.275 1036.72 786.556 931.403 737.267 931.403C711.915 931.403 674.487 1028.76 648.212 1124.7C666.094 1121.06 687.323 1103.76 703.546 1078.77C711.47 1114.68 724.48 1152.02 743.499 1154.9C762.518 1157.77 776.705 1120.3 787.535 1078.77C791.995 1088.87 815.227 1106.96 841.361 1116.19Z" fill="#458244"/>
<path d="M847.645 1087.63C879.535 1108.19 858.889 1013.82 842.782 942.184C826.675 870.547 791.828 735.789 738.339 735.789C694.508 735.789 611.452 1051.99 630.903 1081.74C646.463 1105.54 682.989 1047.2 707.302 1009.74C714.596 1042.8 725.609 1097.93 743.114 1100.57C760.619 1103.22 770.829 1039.49 784.606 1009.74C789.469 1020.76 818.575 1068.88 847.645 1087.63Z" fill="#83C082"/>
<path fill-rule="evenodd" clip-rule="evenodd" d="M826.327 868.556C834.045 901.597 839.694 925.782 838.787 925.599C814.082 920.609 785.438 898.683 781.305 889.35C772.834 921.728 759.82 942.351 744.943 940.111C730.066 937.871 716.492 912.96 710.293 884.963C689.631 916.693 651.295 928.501 653.987 919.794C658.592 904.901 662.896 888.446 666.992 871.148C691.631 791.808 721.64 722.423 743.042 722.423C768.9 722.423 790.748 751.41 808.577 790.445C809.495 795.098 810.418 799.533 811.356 803.693C816.45 826.273 821.752 848.97 826.327 868.556Z" fill="#458244"/>
<path d="M837.344 873.352C860.444 889.315 843.206 806.972 830.125 748.544C817.045 690.117 784.036 597.987 740.707 591.794C700.188 586.003 633.861 840.38 649.657 864.645C662.293 884.056 695.757 845.788 715.502 815.233C721.425 842.193 730.369 887.158 744.585 889.315C758.801 891.472 767.093 839.497 778.281 815.233C782.23 824.219 816.746 859.119 837.344 873.352Z" fill="#66A865"/>
<path fill-rule="evenodd" clip-rule="evenodd" d="M818.709 704.53C823.411 721.206 826.289 731.414 825.794 731.13C824.722 730.514 823.401 729.772 821.889 728.922C809.148 721.764 782.873 707.001 778.15 696.3C775.265 703.575 772.658 710.337 770.272 716.527C759.703 743.945 753.455 760.155 746.388 760.155C737.515 760.155 732.24 744.826 725.527 725.323C722.382 716.182 718.92 706.125 714.625 696.3C688.21 737.002 669.869 734.032 669.869 734.032C669.869 734.032 679.625 661.363 696.715 595.639C712.274 560.247 727.677 536.662 740.155 536.662C755.498 536.662 769.429 546.867 781.946 563.32C782.124 564.101 782.302 564.889 782.482 565.686C793.982 616.834 809.696 672.565 818.709 704.53Z" fill="#458244"/>
<path d="M815.584 690.265C835.131 712.877 823.117 639.776 812.326 590.773C801.535 541.769 778.187 449.586 742.35 449.586C712.984 449.586 657.338 665.885 670.37 686.236C680.795 702.516 705.267 662.613 721.556 636.986C726.443 659.598 733.821 697.31 745.55 699.119C757.278 700.928 764.118 657.337 773.349 636.986C776.607 644.523 799.946 672.176 815.584 690.265Z" fill="#83C082"/>
<path d="M117.752 914.582H151.504L179.012 1479.41H89.8105L117.752 914.582Z" fill="#93642D"/>
<path d="M117.511 914.582H151.042L165.621 1218.59H102.932L117.511 914.582Z" fill="#714D22"/>
<path d="M235.797 1166.99C269.444 1174.28 247.151 1087.3 230.886 1009.94C214.622 932.591 179.433 787.08 125.42 787.08C81.1597 787.08 -2.70971 1128.51 16.9313 1160.63C32.644 1186.33 69.5276 1166.17 94.0788 1125.71C101.444 1161.41 112.565 1178.11 130.242 1180.97C147.919 1183.83 158.228 1157.84 172.141 1125.71C177.051 1137.61 206.442 1160.63 235.797 1166.99Z" fill="#66A865"/>
<path fill-rule="evenodd" clip-rule="evenodd" d="M229.45 1001.29C209.168 915.476 174.108 801.752 124.336 801.752C98.7368 801.752 60.9412 906.881 34.4092 1010.47C52.4669 1006.55 73.9029 987.867 90.2851 960.875C98.2874 999.654 111.425 1039.98 130.63 1043.08C149.835 1046.18 164.162 1005.72 175.097 960.875C179.601 971.787 203.061 991.313 229.45 1001.29Z" fill="#458244"/>
<path d="M235.797 970.443C267.999 992.646 247.151 890.746 230.886 813.393C214.622 736.041 179.433 590.529 125.42 590.529C81.1597 590.529 -2.70971 931.958 16.9313 964.082C32.644 989.781 69.5276 926.793 94.0788 886.341C101.444 922.034 112.565 981.564 130.242 984.419C147.919 987.275 158.228 918.465 172.141 886.341C177.051 898.239 206.442 950.204 235.797 970.443Z" fill="#83C082"/>
<path fill-rule="evenodd" clip-rule="evenodd" d="M214.27 733.89C222.064 769.569 227.768 795.682 226.853 795.485C201.906 790.097 172.981 766.421 168.808 756.344C160.253 791.306 147.112 813.574 132.089 811.155C117.067 808.737 103.359 781.838 97.0999 751.607C76.2349 785.868 37.5236 798.619 40.2424 789.217C44.8925 773.135 49.2383 755.367 53.3752 736.687C78.2556 651.018 108.558 576.097 130.169 576.097C156.281 576.097 178.343 607.397 196.347 649.547C197.274 654.571 198.205 659.36 199.153 663.852C204.297 688.233 209.651 712.742 214.27 733.89Z" fill="#458244"/>
<path d="M225.395 739.07C248.721 756.306 231.314 667.393 218.105 604.303C204.896 541.213 171.565 441.732 127.811 435.045C86.8948 428.792 19.9179 703.467 35.8684 729.668C48.6289 750.628 82.4207 709.306 102.359 676.313C108.34 705.425 117.371 753.977 131.727 756.306C146.082 758.635 154.455 702.513 165.753 676.313C169.741 686.017 204.595 723.701 225.395 739.07Z" fill="#66A865"/>
<path fill-rule="evenodd" clip-rule="evenodd" d="M206.577 556.776C211.325 574.783 214.232 585.805 213.732 585.498C212.649 584.833 211.315 584.032 209.788 583.114C196.923 575.385 170.39 559.444 165.621 547.889C162.707 555.745 160.075 563.046 157.666 569.73C146.993 599.336 140.684 616.84 133.548 616.84C124.588 616.84 119.261 600.287 112.483 579.228C109.306 569.358 105.811 558.499 101.474 547.889C74.7997 591.839 56.2793 588.632 56.2793 588.632C56.2793 588.632 66.1307 510.167 83.3871 439.2C99.0991 400.982 114.654 375.513 127.254 375.513C142.747 375.513 156.814 386.532 169.454 404.298C169.634 405.141 169.814 405.992 169.995 406.853C181.608 462.083 197.476 522.26 206.577 556.776Z" fill="#458244"/>
<path d="M203.422 541.373C223.161 565.79 211.029 486.855 200.132 433.942C189.235 381.028 165.659 281.489 129.471 281.489C99.8173 281.489 43.626 515.047 56.7852 537.022C67.3125 554.602 92.024 511.514 108.473 483.842C113.408 508.259 120.858 548.98 132.702 550.934C144.545 552.887 151.452 505.817 160.773 483.842C164.063 491.981 187.631 521.84 203.422 541.373Z" fill="#83C082"/>
<path d="M417.74 994.795H471.332L515.009 1380.94H373.373L417.74 994.795Z" fill="#93642D"/>
<path d="M417.355 994.795H470.597L493.746 1202.63H394.206L417.355 994.795Z" fill="#714D22"/>
<path d="M605.173 1167.36C658.599 1172.34 623.202 1112.87 597.377 1059.99C571.551 1007.11 515.677 907.629 429.915 907.629C359.637 907.629 226.468 1141.05 257.654 1163.01C282.603 1180.58 341.168 1166.79 380.151 1139.14C391.846 1163.54 409.503 1174.96 437.571 1176.91C465.639 1178.86 482.009 1161.1 504.099 1139.14C511.896 1147.27 558.563 1163.01 605.173 1167.36Z" fill="#66A865"/>
<path fill-rule="evenodd" clip-rule="evenodd" d="M595.097 1054.07C562.893 995.406 507.224 917.66 428.196 917.66C387.548 917.66 327.535 989.531 285.407 1060.35C314.08 1057.67 348.116 1044.9 374.128 1026.44C386.834 1052.95 407.694 1080.52 438.189 1082.64C468.683 1084.76 491.431 1057.1 508.795 1026.44C515.946 1033.9 553.196 1047.25 595.097 1054.07Z" fill="#458244"/>
<path d="M605.173 1032.99C656.305 1048.16 623.202 978.5 597.377 925.618C571.551 872.736 515.677 773.257 429.915 773.257C359.637 773.257 226.468 1006.68 257.654 1028.64C282.603 1046.21 341.168 1003.14 380.151 975.489C391.846 999.89 409.503 1040.59 437.571 1042.54C465.639 1044.49 482.009 997.45 504.099 975.489C511.896 983.623 558.563 1019.15 605.173 1032.99Z" fill="#83C082"/>
<path fill-rule="evenodd" clip-rule="evenodd" d="M570.993 871.267C583.368 895.658 592.425 913.511 590.972 913.375C551.36 909.692 505.432 893.506 498.807 886.617C485.224 910.518 464.358 925.742 440.505 924.089C416.651 922.435 394.887 904.046 384.948 883.378C351.818 906.801 290.351 915.518 294.668 909.09C302.052 898.096 308.953 885.948 315.521 873.177C355.027 814.61 403.141 763.391 437.456 763.391C478.916 763.391 513.947 784.789 542.533 813.604C544.006 817.039 545.485 820.314 546.989 823.385C555.157 840.053 563.658 856.809 570.993 871.267Z" fill="#458244"/>
<path d="M588.656 874.807C625.694 886.59 598.055 825.805 577.082 782.673C556.109 739.542 503.184 671.532 433.711 666.961C368.743 662.686 262.396 850.467 287.723 868.379C307.984 882.708 361.639 854.459 393.297 831.903C402.795 851.805 417.135 884.998 439.929 886.59C462.722 888.182 476.017 849.815 493.956 831.903C500.288 838.537 555.63 864.3 588.656 874.807Z" fill="#66A865"/>
<path fill-rule="evenodd" clip-rule="evenodd" d="M558.778 750.182C566.317 762.492 570.932 770.028 570.138 769.818C568.419 769.363 566.3 768.815 563.876 768.188C543.448 762.904 501.319 752.006 493.747 744.106C489.12 749.477 484.941 754.469 481.115 759.038C464.169 779.278 454.151 791.244 442.82 791.244C428.594 791.244 420.135 779.929 409.373 765.531C404.329 758.784 398.779 751.36 391.893 744.106C349.539 774.153 320.132 771.961 320.132 771.961C320.132 771.961 335.774 718.317 363.175 669.8C388.122 643.673 412.82 626.262 432.827 626.262C457.427 626.262 479.763 633.795 499.833 645.941C500.118 646.517 500.405 647.099 500.692 647.688C519.131 685.445 544.326 726.585 558.778 750.182Z" fill="#458244"/>
<path d="M553.768 739.652C585.109 756.344 565.847 702.381 548.544 666.207C531.241 630.032 493.807 561.982 436.347 561.982C389.262 561.982 300.04 721.654 320.935 736.677C337.65 748.696 376.888 719.239 403.006 700.321C410.841 717.013 422.671 744.853 441.476 746.188C460.281 747.523 471.249 715.344 486.049 700.321C491.273 705.885 528.694 726.298 553.768 739.652Z" fill="#83C082"/>
<path d="M1462.76 997.662L825.039 997.241L1144.91 799L1462.76 997.662Z" fill="#D2D2D2"/>
<path d="M1462.76 997.24H825.039V1046.6H1462.76V997.24Z" fill="url(#paint0_linear_470_666)"/>
<path d="M1383.11 1046.6H904.151V1343.94H1383.11V1046.6Z" fill="url(#paint1_linear_470_666)"/>
<path d="M1168.29 1209.32H1118.97C1106.9 1209.32 1097.11 1221.97 1097.11 1237.57V1354.82C1097.11 1370.42 1106.9 1383.07 1118.97 1383.07H1168.29C1180.36 1383.07 1190.15 1370.42 1190.15 1354.82V1237.57C1190.15 1221.97 1180.36 1209.32 1168.29 1209.32Z" fill="#AEAEAE" stroke="#C9C9C9" stroke-width="6.97584" stroke-linecap="square" stroke-linejoin="round"/>
<path d="M1462.76 1343.94H825.039V1393.29H1462.76V1343.94Z" fill="url(#paint2_linear_470_666)"/>
<path d="M952.57 1046.6H855.733V1099.65H952.57V1046.6Z" fill="#D2D2D2"/>
<path d="M952.57 1290.88H855.733V1343.94H952.57V1290.88Z" fill="#D2D2D2"/>
<path d="M932.427 1099.88H875.875V1290.88H932.427V1099.88Z" fill="url(#paint3_linear_470_666)"/>
<path d="M1082.61 1046.6H985.77V1099.65H1082.61V1046.6Z" fill="#D2D2D2"/>
<path d="M1082.61 1290.88H985.77V1343.94H1082.61V1290.88Z" fill="#D2D2D2"/>
<path d="M1062.46 1099.88H1005.91V1290.88H1062.46V1099.88Z" fill="url(#paint4_linear_470_666)"/>
<path d="M1301.49 1046.6H1204.65V1099.65H1301.49V1046.6Z" fill="#D2D2D2"/>
<path d="M1301.49 1290.88H1204.65V1343.94H1301.49V1290.88Z" fill="#D2D2D2"/>
<path d="M1281.34 1099.88H1224.79V1290.88H1281.34V1099.88Z" fill="url(#paint5_linear_470_666)"/>
<path d="M1431.52 1046.6H1334.69V1099.65H1431.52V1046.6Z" fill="#D2D2D2"/>
<path d="M1431.52 1290.88H1334.69V1343.94H1431.52V1290.88Z" fill="#D2D2D2"/>
<path d="M1411.38 1099.88H1354.83V1290.88H1411.38V1099.88Z" fill="url(#paint6_linear_470_666)"/>
<path d="M425.47 1025.97H145.623V1389.13H425.47V1025.97Z" fill="#B37841"/>
<path d="M437.08 1025.97H134.013V1058.89H437.08V1025.97Z" fill="url(#paint7_linear_470_666)"/>
<path d="M437.08 1191.09H134.013V1224.01H437.08V1191.09Z" fill="url(#paint8_linear_470_666)"/>
<path d="M234.2 1263.9H176.854V1389.13H234.2V1263.9Z" fill="#C69260"/>
<path d="M318.603 1263.9H261.258V1322.34H318.603V1263.9Z" fill="#C69260"/>
<path d="M396.139 1095.78H338.794V1154.21H396.139V1095.78Z" fill="#C69260"/>
<path d="M289.929 1092.77H232.584V1151.2H289.929V1092.77Z" fill="#C69260"/>
<path d="M775.17 1201.46H495.323V1393.48H775.17V1201.46Z" fill="#456393"/>
<path d="M638.418 1268.25H581.072V1393.48H638.418V1268.25Z" fill="#90B8C9"/>
<path d="M775.17 1147.43H495.323V1198.09H775.17V1147.43Z" fill="#4A9FBE"/>
<path d="M786.78 1195.44H483.713V1228.36H786.78V1195.44Z" fill="url(#paint9_linear_470_666)"/>
<path d="M700.61 1268.25H643.265V1393.48H700.61V1268.25Z" fill="#90B8C9"/>
<path d="M775.17 1201.46H495.323V1393.48H775.17V1201.46Z" fill="#456393"/>
<path d="M638.418 1268.25H581.073V1393.48H638.418V1268.25Z" fill="#90B8C9"/>
<path d="M775.17 1147.43H495.323V1198.09H775.17V1147.43Z" fill="#4A9FBE"/>
<path d="M786.78 1195.44H483.713V1228.36H786.78V1195.44Z" fill="url(#paint10_linear_470_666)"/>
<path d="M700.61 1268.25H643.265V1393.48H700.61V1268.25Z" fill="#90B8C9"/>
<mask id="mask0_470_666" style="mask-type:luminance" maskUnits="userSpaceOnUse" x="1029" y="799" width="480" height="592">
<path d="M1508.22 799.553H1029.81V1390.5H1508.22V799.553Z" fill="white"/>
</mask>
<g mask="url(#mask0_470_666)">
<path d="M1194.97 1393.13L1515.24 1390.47C1515.24 1390.47 1445.21 1337.31 1407.47 1325.23C1393.19 1320.65 1378.19 1319.59 1363.76 1322.85C1358.06 1324.14 1353.08 1332.51 1347.36 1331.39C1336.03 1329.18 1328.56 1310.98 1318.52 1302.45C1312.93 1297.69 1307.46 1289.21 1301.12 1290.11C1292.82 1291.29 1286.52 1303.27 1280.58 1312.41C1277.11 1317.74 1276.56 1328.02 1272.07 1330.92C1266.38 1334.59 1259.95 1327.61 1253.86 1326.18C1245.7 1324.24 1237.3 1317.69 1229.31 1320.96C1220.22 1324.68 1212.53 1335.87 1206.81 1347.53C1200.42 1360.54 1194.97 1393.13 1194.97 1393.13Z" fill="#64CF38"/>
</g>
<path d="M1512 1389H0V1451H1512V1389Z" fill="#4FB947"/>
<mask id="mask1_470_666" style="mask-type:luminance" maskUnits="userSpaceOnUse" x="772" y="818" width="603" height="765">
<path d="M1374.75 818.926H772.781V1583H1374.75V818.926Z" fill="white"/>
</mask>
<g mask="url(#mask1_470_666)">
<path d="M655.162 1406.69C660.138 1400.72 665.416 1387.49 670.445 1377.81C674.406 1370.18 678.536 1362.69 682.173 1354.8C684.098 1350.62 685.481 1346.04 687.504 1341.94C691.007 1334.84 694.748 1327.84 699.232 1321.73C706.989 1311.17 714.081 1296.27 725.177 1293.72C735.212 1291.41 743.802 1308.04 753.965 1307.03C773.046 1305.14 785.445 1268.59 804.433 1271.67C817.243 1273.75 825.512 1291.94 832.865 1305.66C840.007 1318.98 842.902 1335.39 847.082 1350.66C850.921 1364.7 857.033 1393.43 857.033 1393.43C857.033 1393.43 791.145 1392.04 754.607 1392.14C718.069 1392.25 714.16 1395.67 691.414 1398.42C668.668 1401.18 655.162 1406.69 655.162 1406.69Z" fill="#64CF38"/>
</g>
<path d="M1512 1420H0V1583H1512V1420Z" fill="#63A85D"/>
<path d="M1060.29 1355.33C1062.98 1356.37 1066.33 1357.61 1067.51 1360.89C1068.78 1364.4 1066.07 1372.34 1066.07 1372.34C1066.07 1372.34 1070.13 1370.64 1074.27 1376.78C1078.4 1382.93 1073.33 1390.19 1073.33 1390.19C1073.33 1390.19 1082.65 1393.62 1075.83 1403.44C1070.85 1410.62 1065.3 1395.2 1065.3 1395.2C1065.3 1395.2 1062.68 1401.14 1055.36 1395.26C1048.04 1389.37 1054.25 1377.65 1054.25 1377.65C1054.25 1377.65 1050.03 1378.27 1046.74 1366.48C1043.44 1354.69 1049.06 1353.04 1049.06 1353.04L1053.02 1354.91C1053.02 1354.91 1057.96 1354.43 1060.29 1355.33Z" fill="url(#paint11_linear_470_666)"/>
<path d="M1052.77 1358.28C1050.27 1357.77 1046.48 1358.14 1046.48 1358.14L1045.86 1357.85C1045.54 1359.83 1045.65 1362.61 1046.74 1366.48C1050.03 1378.27 1054.25 1377.65 1054.25 1377.65C1054.25 1377.65 1048.04 1389.37 1055.36 1395.26C1062.68 1401.14 1065.3 1395.21 1065.3 1395.21C1065.3 1395.21 1067.66 1401.75 1070.68 1404.32C1074.61 1396.29 1066.79 1393.42 1066.79 1393.42C1066.79 1393.42 1071.87 1386.15 1067.73 1380C1063.59 1373.86 1059.53 1375.56 1059.53 1375.56C1059.53 1375.56 1062.24 1367.62 1060.98 1364.12C1059.8 1360.84 1056.44 1359.6 1053.75 1358.56C1053.46 1358.45 1053.13 1358.35 1052.77 1358.28Z" fill="#9A348E"/>
<path d="M1022.93 1333.92C1022.93 1333.92 1016.53 1334.24 1013.77 1325.87C1011 1317.5 1014.62 1311.12 1014.62 1311.12C1014.62 1311.12 1006.53 1306.96 1007.67 1293.53C1008.81 1280.1 1017.88 1278.43 1017.88 1278.43C1017.88 1278.43 1013.37 1268.69 1017.5 1260.7C1021.64 1252.71 1025.2 1256.83 1025.2 1256.83L1032.75 1287.03L1028.64 1332.76L1022.93 1333.92Z" fill="url(#paint12_linear_470_666)"/>
<path d="M1024.37 1329.44C1026.73 1329.97 1028.2 1328.84 1028.2 1328.84C1029.93 1314.95 1034.23 1297.19 1035.49 1283.22L1025.38 1260.68C1024.03 1260.7 1023.05 1264.74 1022.3 1266.29C1018.31 1274.56 1024.61 1278.79 1024.61 1278.79C1024.61 1278.79 1024.2 1279.44 1023.59 1280.57C1022.06 1283.4 1016.57 1285.74 1015.44 1294.64C1014.3 1303.47 1021.35 1311.49 1021.35 1311.49C1021.35 1311.49 1014.27 1315.75 1016.75 1320.66C1017.77 1322.68 1022.96 1329.13 1024.37 1329.44Z" fill="#9A348E"/>
<path d="M1059.47 1254.11C1059.47 1254.11 1059.3 1255.4 1062.72 1263.35C1066.15 1271.3 1063.06 1278.13 1063.06 1278.13C1063.06 1278.13 1071.45 1281.18 1071.4 1294.69C1071.36 1308.2 1062.46 1311.09 1062.46 1311.09C1062.46 1311.09 1067.74 1320.16 1064.28 1328.66C1060.81 1337.17 1056.94 1333.56 1056.94 1333.56L1046.98 1304.54L1047.37 1258.5L1059.47 1254.11Z" fill="url(#paint13_linear_470_666)"/>
<path d="M1051.89 1261.23C1049.5 1261.02 1048.13 1262.34 1048.13 1262.34C1047.53 1276.39 1044.69 1294.64 1044.57 1308.7L1056.44 1329.75C1057.79 1329.55 1061.65 1323.79 1062.26 1322.16C1065.56 1313.39 1055.74 1311.63 1055.74 1311.63C1055.74 1311.63 1056.1 1310.93 1056.62 1309.73C1057.91 1306.71 1063.98 1304.83 1064.94 1294.48C1065.13 1284.54 1056.34 1278.68 1056.34 1278.68C1056.34 1278.68 1059.32 1280.2 1056.04 1268.03C1055.43 1265.76 1053.32 1261.35 1051.89 1261.23Z" fill="#9A348E"/>
<path d="M1040.78 1240.18C1037.79 1240.16 1035.36 1243.49 1032.52 1244.66C1030.81 1245.36 1028.3 1244.27 1027.27 1246.16C1025.7 1249.05 1027.45 1251.63 1028.33 1256.65L1036.73 1258.29C1038.04 1256.66 1039.04 1255.04 1039.56 1253.31L1045.5 1254.47C1045.73 1255.79 1045.98 1257.05 1046.16 1258.1L1054.57 1259.75C1057.63 1255.92 1058.71 1255.36 1056.34 1250.21C1055.74 1249.01 1054.71 1246.45 1053.34 1245.42C1051.85 1244.31 1049.89 1245 1048.24 1244.37C1045.64 1243.39 1043.49 1240.2 1040.78 1240.18Z" fill="url(#paint14_linear_470_666)"/>
<path d="M1020.78 1356.71L1026.41 1398.85C1026.41 1398.85 1028.65 1400.37 1029.88 1400.45C1031.79 1400.58 1035.44 1398.68 1035.44 1398.68L1037.19 1370.9L1041.44 1371.19L1042.35 1398.54C1042.35 1398.54 1045.61 1400.9 1047.41 1400.93C1048.82 1400.96 1051.44 1399.2 1051.44 1399.2C1052.95 1386.14 1054.97 1369.6 1058.26 1357L1020.78 1356.71Z" fill="url(#paint15_linear_470_666)"/>
<path d="M1026.41 1398.85C1026.41 1398.85 1024.67 1405.2 1025.1 1405.71C1025.52 1406.21 1027.74 1408.18 1030.57 1407.87C1033.41 1407.55 1035.06 1405.92 1035.61 1404.94C1036.15 1403.96 1035.63 1397.68 1035.63 1397.68C1035.63 1397.68 1032.7 1399.89 1031.23 1399.91C1029.76 1399.94 1026.41 1398.85 1026.41 1398.85Z" fill="#E782DB"/>
<path d="M1051.44 1399.2C1051.44 1399.2 1052.96 1405.64 1052.52 1406.12C1052.08 1406.61 1049.8 1408.45 1046.98 1407.98C1044.16 1407.51 1042.56 1405.79 1042.05 1404.78C1041.53 1403.77 1042.26 1397.52 1042.26 1397.52C1042.26 1397.52 1045.12 1399.9 1046.58 1400C1048.05 1400.1 1051.44 1399.2 1051.44 1399.2Z" fill="#E782DB"/>
<path d="M1030.02 1308.4C1028.69 1305.55 1024.33 1306.76 1022.3 1308.97C1015.01 1316.96 1003.5 1339.03 1003.5 1339.03C1003.5 1339.03 1002.84 1343.05 1003.75 1344.4C1004.67 1345.74 1006.77 1347.4 1006.77 1347.4L1015.35 1339.72C1015.35 1339.72 1034.89 1318.85 1030.02 1308.4Z" fill="url(#paint16_linear_470_666)"/>
<path d="M1006.77 1347.4C1006.77 1347.4 1003.41 1351.86 1002.81 1351.59C1002.21 1351.33 1000.62 1350.27 999.58 1348.5C998.539 1346.73 998.225 1344.44 998.41 1343.73C998.596 1343.02 1003.5 1339.03 1003.5 1339.03C1003.5 1339.03 1003.05 1343.53 1003.75 1344.4C1004.45 1345.26 1006.77 1347.4 1006.77 1347.4Z" fill="#E782DB"/>
<path d="M1049.15 1308.37C1050.57 1305.59 1054.89 1307.04 1056.84 1309.36C1063.87 1317.74 1074.64 1340.42 1074.64 1340.42C1074.64 1340.42 1075.17 1344.47 1074.21 1345.77C1073.25 1347.06 1071.1 1348.6 1071.1 1348.6L1062.78 1340.46C1062.78 1340.46 1043.94 1318.54 1049.15 1308.37Z" fill="url(#paint17_linear_470_666)"/>
<path d="M1071.1 1348.6C1071.1 1348.6 1074.3 1353.24 1074.91 1353.01C1075.53 1352.78 1077.14 1351.8 1078.24 1350.09C1079.34 1348.38 1079.73 1346.11 1079.57 1345.4C1079.41 1344.68 1074.64 1340.42 1074.64 1340.42C1074.64 1340.42 1074.94 1344.94 1074.21 1345.77C1073.48 1346.59 1071.1 1348.6 1071.1 1348.6Z" fill="#E782DB"/>
<path d="M1030.84 1301.05C1030.84 1301.05 1018.44 1327.57 1020.78 1356.71C1021.31 1363.32 1028.01 1370.82 1038.3 1371.1C1048.58 1371.38 1057.77 1360.76 1058.26 1357C1061.11 1335 1053.62 1323.09 1049.04 1300.7L1030.84 1301.05Z" fill="#FFEE99"/>
<path d="M1030.15 1299.17L1029.03 1309.25C1029.03 1309.25 1030.21 1313.19 1031.22 1314.14C1033.8 1316.55 1037.08 1316.52 1039.88 1315.08C1043.51 1313.22 1046.45 1309.4 1049.31 1303.3L1048.78 1299.22L1030.15 1299.17Z" fill="url(#paint18_linear_470_666)"/>
<path d="M1040.57 1249.78C1028.78 1249.46 1020.32 1256.85 1020.17 1269.77C1020.09 1276.41 1019.9 1286.2 1023.56 1292.17C1027.23 1298.16 1034.74 1301.48 1039.72 1301.62C1045.39 1301.77 1052.13 1298.87 1055.98 1293.2C1059.89 1287.42 1060.37 1277.25 1060.37 1270.88C1060.38 1258.11 1052.36 1250.1 1040.57 1249.78Z" fill="#FFEE99"/>
<path d="M1039.52 1305.1C1032.54 1304.91 1029.33 1298.1 1028.49 1295.85C1027.22 1292.46 1028.67 1285.35 1031.74 1284.78C1035.64 1284.06 1035.85 1285.27 1037.51 1282.74C1039.18 1280.2 1037.26 1272.84 1040.91 1273.33C1043.74 1273.72 1042 1280.8 1043.58 1283.4C1045.17 1286.01 1045.44 1284.71 1048.8 1285.65C1051.69 1286.47 1052.31 1292.98 1051.22 1296.48C1050.4 1299.08 1046.51 1305.29 1039.52 1305.1Z" fill="url(#paint19_linear_470_666)"/>
<path d="M1036 1295.33C1036 1295.33 1036.98 1297.49 1039.85 1297.62C1042.73 1297.76 1043.74 1295.55 1043.74 1295.55" stroke="#4E1C79" stroke-width="1.06202" stroke-linecap="round" stroke-linejoin="round"/>
<path d="M1054.06 1260.4C1054.06 1260.4 1050.46 1256.31 1052.52 1252.7C1054.57 1249.08 1056.07 1242.96 1058 1243.52C1059.93 1244.07 1061.08 1251.83 1060.53 1253.89C1059.99 1255.95 1058.46 1259.84 1057.31 1260.42C1056.16 1261 1054.06 1260.4 1054.06 1260.4Z" fill="#FFEE99"/>
<path d="M1026.81 1259.66C1026.81 1259.66 1030.54 1255.77 1028.61 1252.04C1026.67 1248.31 1025.38 1242.12 1023.43 1242.57C1021.49 1243.02 1020.08 1250.71 1020.56 1252.79C1021.04 1254.88 1022.44 1258.86 1023.57 1259.5C1024.7 1260.14 1026.81 1259.66 1026.81 1259.66Z" fill="#FFEE99"/>
<path d="M1027.2 1254.19C1027.2 1254.19 1025.72 1252.67 1024.56 1250.66C1023.4 1248.65 1023.75 1244.06 1023.75 1244.06C1023.75 1244.06 1021.7 1248 1021.53 1250.27C1021.44 1251.32 1024.55 1257.8 1024.8 1257.48C1025.05 1257.17 1027.2 1254.19 1027.2 1254.19Z" fill="#4E1C79"/>
<path d="M1054.15 1254.93C1054.15 1254.93 1055.69 1253.49 1056.91 1251.55C1058.14 1249.61 1057.94 1244.99 1057.94 1244.99C1057.94 1244.99 1059.85 1249.04 1059.96 1251.32C1060.01 1252.38 1056.68 1258.68 1056.45 1258.35C1056.21 1258.03 1054.15 1254.93 1054.15 1254.93Z" fill="#4E1C79"/>
<path d="M1053.18 1251.42C1053.61 1252.26 1053.93 1253.18 1054.48 1253.94C1056.59 1256.89 1057.85 1255.78 1058.97 1257.42C1059.12 1257.65 1060.61 1260.02 1056.54 1261.51C1055.59 1261.86 1054.54 1262.02 1053.51 1261.93C1052.4 1261.84 1051.29 1261.45 1050.26 1260.93C1047.25 1259.31 1044.17 1256.01 1044.25 1252.12C1044.31 1249.54 1045.29 1247.82 1047.54 1247.15C1048.82 1246.68 1049.87 1247.14 1050.98 1248.01C1052.08 1248.8 1052.56 1250.21 1053.18 1251.42Z" fill="#E782DB"/>
<path d="M1038.9 1244.55L1040.69 1230.63C1041.02 1228.06 1041.4 1224.11 1043.29 1224.27C1045.65 1224.48 1045.54 1229.75 1045.66 1232.74L1046.16 1244.79L1046.45 1254.79C1046.49 1256.2 1046.1 1257.89 1045.26 1258.89C1044.45 1259.87 1043.14 1260.45 1042.05 1260.14C1040.26 1259.64 1037.6 1260.12 1037.99 1255.48L1038.9 1244.55Z" fill="#A4DCD7"/>
<path d="M1041.41 1226.42C1041.07 1227.59 1040.89 1229.02 1040.74 1230.24C1041.14 1230.67 1042.17 1231.73 1042.89 1231.92C1043.57 1232.1 1044.97 1231.37 1045.6 1231.01C1045.57 1230.09 1045.52 1229.11 1045.41 1228.19C1045.03 1228.43 1044.25 1228.85 1043.56 1228.64C1042.95 1228.46 1042 1227.25 1041.41 1226.42ZM1040.17 1234.64L1039.36 1240.93C1040.11 1241.71 1041.51 1243.05 1042.51 1243.32C1043.37 1243.54 1044.94 1242.85 1046.06 1242.27L1045.87 1237.77C1045.22 1238.09 1044.35 1238.37 1043.57 1238.13C1042.6 1237.84 1041.11 1235.94 1040.17 1234.64ZM1038.86 1245.02L1038.18 1253.12C1039.15 1254.05 1040.43 1255.13 1041.4 1255.39C1042.64 1255.71 1045.05 1254.54 1046.42 1253.78L1046.26 1248.07C1045.46 1248.56 1044.02 1249.26 1042.74 1248.88C1041.65 1248.55 1040.03 1246.6 1038.86 1245.02Z" fill="url(#paint20_linear_470_666)"/>
<path d="M1029.94 1251.49C1029.08 1252.63 1028.37 1253.98 1027.38 1254.93C1023.56 1258.64 1022.11 1256.13 1020.06 1258.23C1019.78 1258.52 1016.99 1261.62 1022.3 1266.29C1023.55 1267.39 1024.98 1268.22 1026.45 1268.64C1028.04 1269.09 1029.71 1269.06 1031.32 1268.77C1036.03 1267.72 1041.31 1263.97 1042.31 1257.5C1042.97 1253.21 1042.08 1249.83 1039.11 1247.51C1037.44 1246.04 1035.82 1246.23 1034.01 1247.05C1032.24 1247.76 1031.16 1249.82 1029.94 1251.49Z" fill="#E782DB"/>
<path d="M1031.78 1282.58C1033.17 1282.62 1034.33 1280.42 1034.37 1277.68C1034.42 1274.93 1033.33 1272.68 1031.94 1272.64C1030.55 1272.6 1029.39 1274.79 1029.35 1277.54C1029.3 1280.29 1030.39 1282.54 1031.78 1282.58Z" fill="#4E1C79"/>
<path d="M1032.84 1276.76C1033.18 1276.77 1033.47 1276.37 1033.48 1275.87C1033.48 1275.37 1033.21 1274.96 1032.87 1274.95C1032.53 1274.94 1032.25 1275.34 1032.24 1275.84C1032.23 1276.34 1032.5 1276.75 1032.84 1276.76Z" fill="white"/>
<path d="M1031.56 1272.68C1031.56 1272.68 1030.17 1273.57 1029.42 1273.68C1028.61 1273.79 1027.09 1273.14 1027 1273.28C1026.91 1273.42 1027.89 1274.77 1028.52 1275.18C1029.17 1275.61 1030.69 1275.66 1030.69 1275.66L1031.56 1272.68Z" fill="#4E1C79"/>
<path d="M1036.7 1289.08C1037.32 1288.26 1037.6 1287.32 1037.33 1286.98C1037.06 1286.64 1036.34 1287.02 1035.72 1287.84C1035.11 1288.66 1034.82 1289.6 1035.09 1289.94C1035.36 1290.28 1036.08 1289.89 1036.7 1289.08Z" fill="#FFDB27"/>
<path d="M1042.99 1289.25C1042.4 1288.39 1042.15 1287.44 1042.43 1287.11C1042.71 1286.79 1043.42 1287.22 1044.01 1288.07C1044.6 1288.92 1044.85 1289.88 1044.57 1290.2C1044.29 1290.53 1043.58 1290.1 1042.99 1289.25Z" fill="#FFDB27"/>
<path d="M1048.43 1283.04C1047.05 1283 1045.96 1280.74 1046 1278C1046.05 1275.25 1047.21 1273.06 1048.6 1273.09C1049.98 1273.13 1051.07 1275.39 1051.03 1278.13C1050.98 1280.88 1049.82 1283.08 1048.43 1283.04Z" fill="#4E1C79"/>
<path d="M1047.56 1277.16C1047.22 1277.15 1046.95 1276.74 1046.96 1276.24C1046.97 1275.74 1047.25 1275.34 1047.59 1275.35C1047.93 1275.36 1048.2 1275.78 1048.2 1276.28C1048.19 1276.78 1047.9 1277.17 1047.56 1277.16Z" fill="white"/>
<path d="M1048.97 1273.16C1048.97 1273.16 1050.33 1274.13 1051.09 1274.27C1051.89 1274.43 1053.42 1273.86 1053.51 1274C1053.6 1274.15 1052.57 1275.45 1051.93 1275.82C1051.27 1276.22 1049.75 1276.18 1049.75 1276.18L1048.97 1273.16Z" fill="#4E1C79"/>
<path d="M1107.42 1354.96C1104.73 1355.95 1101.36 1357.13 1100.14 1360.39C1098.84 1363.87 1101.46 1371.86 1101.46 1371.86C1101.46 1371.86 1097.42 1370.09 1093.22 1376.16C1092.71 1376.9 1092.33 1377.65 1092.07 1378.42C1090.16 1383.91 1094.01 1389.58 1094.01 1389.58C1094.01 1389.58 1084.66 1392.85 1091.37 1402.78C1096.27 1410.05 1101.99 1394.74 1101.99 1394.74C1101.99 1394.74 1104.54 1400.72 1111.93 1394.97C1119.31 1389.21 1113.22 1377.38 1113.22 1377.38C1113.22 1377.38 1117.44 1378.08 1120.85 1366.35C1124.27 1354.62 1118.67 1352.87 1118.67 1352.87L1114.7 1354.67C1114.7 1354.67 1109.76 1354.11 1107.42 1354.96Z" fill="url(#paint21_linear_470_666)"/>
<path d="M1114.9 1358.04C1117.41 1357.58 1121.2 1358.01 1121.2 1358.01L1121.82 1357.73C1122.12 1359.72 1121.98 1362.49 1120.85 1366.35C1117.44 1378.08 1113.22 1377.38 1113.22 1377.38C1113.22 1377.38 1119.31 1389.21 1111.93 1394.97C1104.54 1400.72 1101.99 1394.74 1101.99 1394.74C1101.99 1394.74 1099.56 1401.24 1096.51 1403.76C1092.67 1395.66 1100.51 1392.92 1100.51 1392.92C1100.51 1392.92 1095.52 1385.57 1099.72 1379.5C1103.92 1373.43 1107.96 1375.2 1107.96 1375.2C1107.96 1375.2 1105.34 1367.21 1106.64 1363.73C1107.86 1360.47 1111.23 1359.29 1113.92 1358.3C1114.21 1358.19 1114.55 1358.11 1114.9 1358.04Z" fill="#FFD91B"/>
<path d="M1145 1334.21C1145 1334.21 1151.39 1334.65 1154.25 1326.33C1157.1 1318.01 1153.55 1311.57 1153.55 1311.57C1153.55 1311.57 1161.68 1307.55 1160.69 1294.1C1159.69 1280.65 1150.63 1278.82 1150.63 1278.82C1150.63 1278.82 1155.25 1269.17 1151.2 1261.11C1147.16 1253.05 1143.55 1257.1 1143.55 1257.1L1135.68 1287.16L1139.31 1332.95L1145 1334.21Z" fill="url(#paint22_linear_470_666)"/>
<path d="M1143.61 1329.71C1141.25 1330.2 1139.79 1329.04 1139.79 1329.04C1138.21 1315.13 1134.09 1297.29 1132.98 1283.3L1143.33 1260.95C1144.68 1260.99 1145.62 1265.05 1146.35 1266.61C1150.25 1274.94 1143.91 1279.07 1143.91 1279.07C1143.91 1279.07 1144.31 1279.73 1144.91 1280.86C1146.41 1283.72 1151.87 1286.16 1152.91 1295.08C1153.95 1303.93 1146.82 1311.81 1146.82 1311.81C1146.82 1311.81 1153.85 1316.2 1151.32 1321.07C1150.28 1323.06 1145.02 1329.42 1143.61 1329.71Z" fill="#FFD91B"/>
<path d="M1109.32 1253.77C1109.32 1253.77 1109.48 1255.07 1105.97 1262.95C1102.46 1270.84 1105.47 1277.73 1105.47 1277.73C1105.47 1277.73 1097.05 1280.63 1096.95 1294.13C1096.86 1307.64 1105.72 1310.68 1105.72 1310.68C1105.72 1310.68 1100.34 1319.66 1103.72 1328.23C1107.09 1336.79 1111.01 1333.25 1111.01 1333.25L1121.27 1304.42L1121.36 1258.38L1109.32 1253.77Z" fill="url(#paint23_linear_470_666)"/>
<path d="M1116.83 1261.02C1119.21 1260.86 1120.57 1262.21 1120.57 1262.21C1121.01 1276.26 1123.67 1294.56 1123.64 1308.62L1111.54 1329.45C1110.2 1329.23 1106.4 1323.4 1105.8 1321.76C1102.6 1312.94 1112.43 1311.35 1112.43 1311.35C1112.43 1311.35 1112.08 1310.64 1111.58 1309.43C1110.32 1306.39 1104.27 1304.41 1103.42 1294.04C1103.34 1284.09 1112.18 1278.39 1112.18 1278.39C1112.18 1278.39 1109.2 1279.86 1112.6 1267.75C1113.23 1265.49 1115.39 1261.12 1116.83 1261.02Z" fill="#FFD91B"/>
<path d="M1137.3 1308.56C1138.66 1305.73 1143.01 1307.02 1145.01 1309.27C1152.22 1317.38 1163.5 1339.65 1163.5 1339.65C1163.5 1339.65 1164.11 1343.68 1163.19 1345.01C1162.26 1346.34 1160.14 1347.96 1160.14 1347.96L1151.64 1340.13C1151.64 1340.13 1132.32 1318.92 1137.3 1308.56Z" fill="url(#paint24_linear_470_666)"/>
<path d="M1160.14 1347.96C1160.14 1347.96 1163.44 1352.48 1164.05 1352.22C1164.66 1351.97 1166.25 1350.94 1167.31 1349.18C1168.37 1347.43 1168.71 1345.15 1168.53 1344.44C1168.35 1343.73 1163.5 1339.65 1163.5 1339.65C1163.5 1339.65 1163.89 1344.16 1163.19 1345.01C1162.48 1345.86 1160.14 1347.96 1160.14 1347.96Z" fill="#FFEE99"/>
<path d="M1118.18 1308.18C1116.79 1305.38 1112.46 1306.75 1110.48 1309.04C1103.37 1317.3 1092.35 1339.78 1092.35 1339.78C1092.35 1339.78 1091.78 1343.82 1092.73 1345.13C1093.67 1346.44 1095.81 1348.02 1095.81 1348.02L1104.22 1340.03C1104.22 1340.03 1123.28 1318.45 1118.18 1308.18Z" fill="url(#paint25_linear_470_666)"/>
<path d="M1095.81 1348.02C1095.81 1348.02 1092.55 1352.61 1091.94 1352.36C1091.33 1352.12 1089.73 1351.12 1088.65 1349.39C1087.57 1347.66 1087.2 1345.38 1087.37 1344.67C1087.54 1343.95 1092.35 1339.78 1092.35 1339.78C1092.35 1339.78 1092.01 1344.29 1092.72 1345.13C1093.44 1345.97 1095.81 1348.02 1095.81 1348.02Z" fill="#FFEE99"/>
<path d="M1128.16 1240.18C1131.14 1240.21 1133.53 1243.58 1136.37 1244.8C1138.07 1245.54 1140.59 1244.49 1141.6 1246.4C1143.13 1249.31 1141.36 1251.86 1140.43 1256.86L1132.01 1258.36C1130.72 1256.71 1129.74 1255.06 1129.23 1253.33L1123.28 1254.38C1123.04 1255.7 1122.78 1256.95 1122.58 1258L1114.16 1259.5C1111.14 1255.62 1110.06 1255.04 1112.49 1249.93C1113.11 1248.74 1114.15 1246.2 1115.54 1245.19C1117.04 1244.11 1118.99 1244.83 1120.65 1244.24C1123.26 1243.3 1125.44 1240.15 1128.16 1240.18Z" fill="url(#paint26_linear_470_666)"/>
<path d="M1146.92 1357.04L1140.84 1399.07C1140.84 1399.07 1138.58 1400.55 1137.35 1400.61C1135.44 1400.7 1131.8 1398.74 1131.8 1398.74L1130.35 1370.94L1126.1 1371.15L1124.9 1398.47C1124.9 1398.47 1121.61 1400.78 1119.82 1400.78C1118.4 1400.78 1115.81 1398.98 1115.81 1398.98C1114.44 1385.89 1112.59 1369.32 1109.44 1356.67L1146.92 1357.04Z" fill="url(#paint27_linear_470_666)"/>
<path d="M1140.84 1399.07C1140.84 1399.07 1142.5 1405.45 1142.08 1405.95C1141.65 1406.45 1139.41 1408.38 1136.58 1408.01C1133.75 1407.64 1132.11 1405.98 1131.57 1405C1131.04 1404.01 1131.63 1397.73 1131.63 1397.73C1131.63 1397.73 1134.54 1400 1136 1400.05C1137.47 1400.1 1140.84 1399.07 1140.84 1399.07Z" fill="#FFEE99"/>
<path d="M1115.81 1398.98C1115.81 1398.98 1114.22 1405.39 1114.65 1405.88C1115.08 1406.37 1117.35 1408.26 1120.17 1407.84C1123 1407.41 1124.62 1405.72 1125.14 1404.72C1125.66 1403.73 1125 1397.46 1125 1397.46C1125 1397.46 1122.12 1399.79 1120.65 1399.86C1119.19 1399.94 1115.81 1398.98 1115.81 1398.98Z" fill="#FFEE99"/>
<path d="M1137.45 1301.21C1137.45 1301.21 1149.56 1327.95 1146.92 1357.04C1146.32 1363.63 1139.53 1371.02 1129.25 1371.12C1118.96 1371.22 1109.89 1360.43 1109.44 1356.67C1106.82 1334.62 1114.43 1322.84 1119.25 1300.54L1137.45 1301.21Z" fill="#A4DCD7"/>
<path d="M1138.15 1299.34L1139.17 1309.44C1139.17 1309.44 1137.95 1313.36 1136.92 1314.29C1134.32 1316.66 1131.04 1316.57 1128.25 1315.08C1124.64 1313.16 1121.75 1309.28 1118.95 1303.13L1119.53 1299.07L1138.15 1299.34Z" fill="url(#paint28_linear_470_666)"/>
<path d="M1128.26 1249.78C1140.05 1249.67 1148.43 1257.21 1148.45 1270.13C1148.46 1276.77 1148.54 1286.56 1144.82 1292.46C1141.09 1298.39 1133.54 1301.57 1128.56 1301.62C1122.89 1301.68 1116.18 1298.66 1112.4 1292.92C1108.54 1287.07 1108.18 1276.9 1108.24 1270.52C1108.37 1257.75 1116.47 1249.89 1128.26 1249.78Z" fill="#A4DCD7"/>
<path d="M1128.72 1305.1C1135.71 1305.04 1138.98 1298.29 1139.85 1296.06C1141.15 1292.69 1139.78 1285.55 1136.71 1284.93C1132.82 1284.14 1132.61 1285.35 1130.97 1282.79C1129.33 1280.22 1131.32 1272.89 1127.67 1273.32C1124.84 1273.65 1126.5 1280.77 1124.89 1283.34C1123.28 1285.92 1123.02 1284.61 1119.65 1285.5C1116.75 1286.26 1116.06 1292.77 1117.12 1296.28C1117.9 1298.89 1121.73 1305.17 1128.72 1305.1Z" fill="url(#paint29_linear_470_666)"/>
<path d="M1132.34 1295.4C1132.34 1295.4 1131.34 1297.54 1128.47 1297.63C1125.59 1297.71 1124.61 1295.48 1124.61 1295.48" stroke="#4E1C79" stroke-width="1.0619" stroke-linecap="round" stroke-linejoin="round"/>
<path d="M1114.66 1260.16C1114.66 1260.16 1118.3 1256.14 1116.28 1252.48C1114.27 1248.83 1112.84 1242.69 1110.9 1243.21C1108.97 1243.73 1107.73 1251.46 1108.26 1253.53C1108.78 1255.61 1110.27 1259.52 1111.41 1260.12C1112.56 1260.72 1114.66 1260.16 1114.66 1260.16Z" fill="#A4DCD7"/>
<path d="M1141.91 1259.9C1141.91 1259.9 1138.22 1255.95 1140.2 1252.25C1142.17 1248.56 1143.53 1242.4 1145.47 1242.88C1147.41 1243.36 1148.74 1251.07 1148.24 1253.15C1147.74 1255.23 1146.29 1259.18 1145.16 1259.8C1144.02 1260.42 1141.91 1259.9 1141.91 1259.9Z" fill="#A4DCD7"/>
<path d="M1141.58 1254.43C1141.58 1254.43 1143.08 1252.93 1144.26 1250.95C1145.44 1248.96 1145.14 1244.36 1145.14 1244.36C1145.14 1244.36 1147.14 1248.33 1147.3 1250.6C1147.37 1251.66 1144.19 1258.08 1143.94 1257.76C1143.7 1257.45 1141.58 1254.43 1141.58 1254.43Z" fill="#4E1C79"/>
<path d="M1114.62 1254.69C1114.62 1254.69 1113.1 1253.22 1111.9 1251.26C1110.7 1249.3 1110.94 1244.69 1110.94 1244.69C1110.94 1244.69 1108.99 1248.7 1108.86 1250.98C1108.8 1252.04 1112.05 1258.39 1112.3 1258.07C1112.54 1257.75 1114.62 1254.69 1114.62 1254.69Z" fill="#4E1C79"/>
<path d="M1115.64 1251.2C1115.19 1252.03 1114.86 1252.95 1114.31 1253.7C1112.17 1256.6 1110.92 1255.47 1109.79 1257.1C1109.63 1257.32 1108.11 1259.66 1112.17 1261.22C1113.12 1261.59 1114.16 1261.77 1115.19 1261.7C1116.3 1261.63 1117.42 1261.26 1118.46 1260.76C1121.48 1259.19 1124.59 1255.95 1124.56 1252.05C1124.52 1249.47 1123.56 1247.73 1121.32 1247.03C1120.05 1246.54 1118.99 1246.98 1117.87 1247.82C1116.77 1248.6 1116.27 1250 1115.64 1251.2Z" fill="#FFEE99"/>
<path d="M1129.99 1244.58L1128.34 1230.63C1128.04 1228.06 1127.7 1224.1 1125.81 1224.23C1123.45 1224.39 1123.51 1229.67 1123.35 1232.66L1122.72 1244.69L1122.33 1254.68C1122.28 1256.09 1122.65 1257.79 1123.47 1258.81C1124.28 1259.8 1125.58 1260.4 1126.67 1260.11C1128.46 1259.64 1131.12 1260.17 1130.78 1255.52L1129.99 1244.58Z" fill="#E782DB"/>
<path d="M1127.67 1226.41C1128 1227.59 1128.16 1229.02 1128.3 1230.24C1127.89 1230.67 1126.85 1231.71 1126.13 1231.89C1125.45 1232.05 1124.06 1231.3 1123.43 1230.92C1123.47 1230.01 1123.53 1229.03 1123.65 1228.1C1124.03 1228.36 1124.81 1228.79 1125.49 1228.59C1126.11 1228.42 1127.07 1227.23 1127.67 1226.41ZM1128.82 1234.65L1129.56 1240.95C1128.8 1241.72 1127.4 1243.04 1126.39 1243.28C1125.53 1243.49 1123.96 1242.78 1122.85 1242.18L1123.09 1237.68C1123.73 1238.01 1124.6 1238.31 1125.38 1238.08C1126.36 1237.81 1127.87 1235.94 1128.82 1234.65ZM1130.02 1245.05L1130.61 1253.16C1129.64 1254.07 1128.34 1255.13 1127.37 1255.37C1126.12 1255.68 1123.73 1254.46 1122.37 1253.68L1122.59 1247.97C1123.39 1248.47 1124.82 1249.2 1126.1 1248.84C1127.19 1248.53 1128.83 1246.61 1130.02 1245.05Z" fill="url(#paint30_linear_470_666)"/>
<path d="M1138.87 1251.68C1139.72 1252.83 1140.42 1254.19 1141.39 1255.17C1145.18 1258.94 1146.65 1256.45 1148.68 1258.59C1148.96 1258.88 1151.71 1262.03 1146.35 1266.61C1145.09 1267.69 1143.65 1268.5 1142.17 1268.89C1140.58 1269.31 1138.91 1269.24 1137.3 1268.93C1132.61 1267.8 1127.37 1263.95 1126.44 1257.47C1125.83 1253.17 1126.75 1249.81 1129.75 1247.53C1131.43 1246.1 1133.05 1246.31 1134.84 1247.16C1136.61 1247.91 1137.67 1249.99 1138.87 1251.68Z" fill="#FFEE99"/>
<path d="M1136.7 1282.73C1135.31 1282.74 1134.17 1280.53 1134.16 1277.78C1134.14 1275.04 1135.25 1272.8 1136.64 1272.79C1138.03 1272.77 1139.17 1274.99 1139.19 1277.73C1139.2 1280.48 1138.09 1282.72 1136.7 1282.73Z" fill="#4E1C79"/>
<path d="M1135.7 1276.89C1135.36 1276.9 1135.08 1276.49 1135.08 1275.99C1135.07 1275.49 1135.35 1275.09 1135.69 1275.08C1136.03 1275.08 1136.31 1275.48 1136.31 1275.98C1136.32 1276.48 1136.04 1276.89 1135.7 1276.89Z" fill="white"/>
<path d="M1137.02 1272.84C1137.02 1272.84 1138.4 1273.75 1139.16 1273.87C1139.96 1274 1141.49 1273.37 1141.58 1273.51C1141.66 1273.66 1140.67 1274.99 1140.04 1275.39C1139.38 1275.81 1137.87 1275.83 1137.87 1275.83L1137.02 1272.84Z" fill="#4E1C79"/>
<path d="M1131.71 1289.14C1131.1 1288.31 1130.83 1287.36 1131.1 1287.03C1131.37 1286.69 1132.09 1287.09 1132.7 1287.92C1133.31 1288.75 1133.58 1289.7 1133.31 1290.03C1133.04 1290.37 1132.32 1289.97 1131.71 1289.14Z" fill="#A4DCD7"/>
<path d="M1125.42 1289.2C1126.02 1288.36 1126.28 1287.41 1126.01 1287.07C1125.73 1286.74 1125.02 1287.16 1124.42 1288C1123.82 1288.84 1123.55 1289.79 1123.83 1290.12C1124.11 1290.45 1124.82 1290.04 1125.42 1289.2Z" fill="#A4DCD7"/>
<path d="M1120.05 1282.89C1121.43 1282.88 1122.55 1280.64 1122.53 1277.89C1122.51 1275.15 1121.38 1272.93 1119.99 1272.95C1118.6 1272.96 1117.49 1275.2 1117.5 1277.94C1117.52 1280.69 1118.66 1282.9 1120.05 1282.89Z" fill="#4E1C79"/>
<path d="M1120.98 1277.03C1121.32 1277.03 1121.6 1276.62 1121.59 1276.12C1121.59 1275.62 1121.31 1275.22 1120.97 1275.22C1120.63 1275.23 1120.35 1275.64 1120.35 1276.14C1120.36 1276.63 1120.64 1277.04 1120.98 1277.03Z" fill="white"/>
<path d="M1119.61 1273.01C1119.61 1273.01 1118.24 1273.95 1117.49 1274.08C1116.68 1274.23 1115.15 1273.62 1115.07 1273.77C1114.98 1273.92 1115.98 1275.23 1116.62 1275.62C1117.28 1276.02 1118.8 1276.02 1118.8 1276.02L1119.61 1273.01Z" fill="#4E1C79"/>
<path d="M1195.69 1354.42C1192.98 1355.36 1189.6 1356.48 1188.35 1359.72C1187.01 1363.18 1189.55 1371.21 1189.55 1371.21C1189.55 1371.21 1185.53 1369.37 1181.26 1375.36C1176.99 1381.35 1181.91 1388.8 1181.91 1388.8C1181.91 1388.8 1172.52 1391.89 1179.12 1401.95C1183.94 1409.3 1189.83 1394.1 1189.83 1394.1C1189.83 1394.1 1192.32 1400.13 1199.76 1394.51C1207.21 1388.88 1201.25 1376.95 1201.25 1376.95C1201.25 1376.95 1205.46 1377.72 1209 1366.05C1212.54 1354.38 1206.96 1352.53 1206.96 1352.53L1202.97 1354.26C1202.97 1354.26 1198.03 1353.61 1195.69 1354.42Z" fill="url(#paint31_linear_470_666)"/>
<path d="M1203.14 1357.64C1205.66 1357.22 1209.43 1357.72 1209.43 1357.72L1210.06 1357.45C1210.34 1359.45 1210.16 1362.22 1209 1366.05C1205.46 1377.72 1201.24 1376.94 1201.24 1376.94C1201.24 1376.94 1207.21 1388.88 1199.76 1394.5C1192.32 1400.13 1189.83 1394.1 1189.83 1394.1C1189.83 1394.1 1187.33 1400.55 1184.25 1403.02C1180.5 1394.85 1188.37 1392.25 1188.37 1392.25C1188.37 1392.25 1183.46 1384.81 1187.72 1378.81C1191.99 1372.82 1196.01 1374.67 1196.01 1374.67C1196.01 1374.67 1193.48 1366.63 1194.81 1363.18C1196.07 1359.94 1199.45 1358.82 1202.15 1357.88C1202.45 1357.78 1202.78 1357.7 1203.14 1357.64Z" fill="#4DBBB0"/>
<path d="M1233.49 1334.35C1233.49 1334.35 1239.88 1334.9 1242.83 1326.64C1245.77 1318.37 1242.29 1311.87 1242.29 1311.87C1242.29 1311.87 1250.47 1307.99 1249.62 1294.53C1248.77 1281.06 1239.73 1279.07 1239.73 1279.07C1239.73 1279.07 1244.45 1269.5 1240.49 1261.36C1236.53 1253.23 1232.88 1257.22 1232.88 1257.22L1224.68 1287.13L1227.81 1332.99L1233.49 1334.35Z" fill="url(#paint32_linear_470_666)"/>
<path d="M1232.15 1329.83C1229.78 1330.27 1228.34 1329.09 1228.34 1329.09C1226.91 1315.14 1222.98 1297.23 1222.03 1283.22L1232.62 1261.06C1233.97 1261.13 1234.87 1265.2 1235.58 1266.78C1239.39 1275.18 1233 1279.19 1233 1279.19C1233 1279.19 1233.4 1279.86 1233.98 1281.01C1235.45 1283.89 1240.88 1286.43 1241.82 1295.36C1242.77 1304.23 1235.56 1311.99 1235.56 1311.99C1235.56 1311.99 1242.54 1316.51 1239.96 1321.32C1238.89 1323.3 1233.57 1329.56 1232.15 1329.83Z" fill="#4DBBB0"/>
<path d="M1198.69 1253.27C1198.69 1253.27 1198.83 1254.57 1195.24 1262.39C1191.64 1270.21 1194.58 1277.15 1194.58 1277.15C1194.58 1277.15 1186.13 1279.9 1185.88 1293.41C1185.64 1306.91 1194.47 1310.11 1194.47 1310.11C1194.47 1310.11 1189 1318.99 1192.28 1327.62C1195.56 1336.24 1199.51 1332.77 1199.51 1332.77L1210.09 1304.13L1210.68 1258.1L1198.69 1253.27Z" fill="url(#paint33_linear_470_666)"/>
<path d="M1206.11 1260.66C1208.5 1260.54 1209.85 1261.91 1209.85 1261.91C1210.14 1275.97 1212.59 1294.31 1212.41 1308.37L1200.09 1328.98C1198.75 1328.74 1195.01 1322.85 1194.43 1321.19C1191.32 1312.31 1201.17 1310.9 1201.17 1310.9C1201.17 1310.9 1200.83 1310.19 1200.34 1308.97C1199.12 1305.9 1193.09 1303.81 1192.35 1293.43C1192.37 1283.48 1201.28 1277.94 1201.28 1277.94C1201.28 1277.94 1198.28 1279.35 1201.81 1267.31C1202.47 1265.06 1204.68 1260.73 1206.11 1260.66Z" fill="#4DBBB0"/>
<path d="M1217.67 1240.02C1220.66 1240.1 1223.01 1243.52 1225.83 1244.79C1227.52 1245.55 1230.06 1244.55 1231.04 1246.48C1232.55 1249.42 1230.75 1251.94 1229.76 1256.92L1221.32 1258.27C1220.05 1256.59 1219.09 1254.93 1218.6 1253.18L1212.64 1254.13C1212.38 1255.45 1212.11 1256.69 1211.9 1257.74L1203.47 1259.08C1200.49 1255.15 1199.42 1254.55 1201.9 1249.49C1202.53 1248.3 1203.6 1245.78 1205 1244.8C1206.51 1243.74 1208.46 1244.5 1210.12 1243.94C1212.74 1243.05 1214.96 1239.94 1217.67 1240.02Z" fill="url(#paint34_linear_470_666)"/>
<path d="M1226.67 1309.55C1228.06 1306.74 1232.4 1308.11 1234.37 1310.39C1241.49 1318.64 1252.53 1341.12 1252.53 1341.12C1252.53 1341.12 1253.1 1345.15 1252.16 1346.47C1251.21 1347.78 1249.08 1349.36 1249.08 1349.36L1240.66 1341.38C1240.66 1341.38 1221.58 1319.82 1226.67 1309.55Z" fill="url(#paint35_linear_470_666)"/>
<path d="M1249.08 1349.36C1249.08 1349.36 1252.33 1353.94 1252.94 1353.7C1253.55 1353.45 1255.16 1352.45 1256.24 1350.72C1257.32 1348.98 1257.68 1346.71 1257.51 1345.99C1257.34 1345.28 1252.53 1341.12 1252.53 1341.12C1252.53 1341.12 1252.87 1345.63 1252.16 1346.47C1251.44 1347.31 1249.08 1349.36 1249.08 1349.36Z" fill="#A4DCD7"/>
<path d="M1207.55 1308.83C1206.19 1306 1201.84 1307.29 1199.85 1309.54C1192.64 1317.67 1181.38 1339.96 1181.38 1339.96C1181.38 1339.96 1180.77 1343.98 1181.7 1345.31C1182.63 1346.64 1184.75 1348.26 1184.75 1348.26L1193.24 1340.42C1193.24 1340.42 1212.54 1319.19 1207.55 1308.83Z" fill="url(#paint36_linear_470_666)"/>
<path d="M1184.75 1348.26C1184.75 1348.26 1181.44 1352.78 1180.84 1352.53C1180.23 1352.27 1178.63 1351.24 1177.57 1349.49C1176.51 1347.74 1176.17 1345.46 1176.35 1344.75C1176.53 1344.04 1181.38 1339.96 1181.38 1339.96C1181.38 1339.96 1180.99 1344.46 1181.7 1345.31C1182.41 1346.16 1184.75 1348.26 1184.75 1348.26Z" fill="#A4DCD7"/>
<path d="M1235.16 1357.21L1228.63 1399.14C1228.63 1399.14 1226.35 1400.57 1225.12 1400.61C1223.21 1400.67 1219.6 1398.64 1219.6 1398.64L1218.45 1370.81L1214.19 1370.94L1212.7 1398.25C1212.7 1398.25 1209.38 1400.49 1207.59 1400.46C1206.17 1400.44 1203.6 1398.59 1203.6 1398.59C1202.37 1385.48 1200.7 1368.87 1197.69 1356.16L1235.16 1357.21Z" fill="url(#paint37_linear_470_666)"/>
<path d="M1228.63 1399.14C1228.63 1399.14 1230.22 1405.54 1229.79 1406.04C1229.36 1406.53 1227.09 1408.42 1224.27 1408C1221.44 1407.58 1219.82 1405.89 1219.3 1404.89C1218.78 1403.89 1219.43 1397.63 1219.43 1397.63C1219.43 1397.63 1222.32 1399.95 1223.78 1400.03C1225.25 1400.1 1228.63 1399.14 1228.63 1399.14Z" fill="#A4DCD7"/>
<path d="M1203.6 1398.59C1203.6 1398.59 1201.94 1404.97 1202.37 1405.47C1202.8 1405.97 1205.04 1407.9 1207.87 1407.52C1210.7 1407.15 1212.33 1405.49 1212.87 1404.5C1213.4 1403.51 1212.81 1397.24 1212.81 1397.24C1212.81 1397.24 1209.9 1399.51 1208.43 1399.56C1206.97 1399.61 1203.6 1398.59 1203.6 1398.59Z" fill="#A4DCD7"/>
<path d="M1226.3 1301.22C1226.3 1301.22 1238.12 1328.17 1235.16 1357.21C1234.49 1363.8 1227.62 1371.06 1217.34 1370.97C1207.05 1370.88 1198.09 1359.93 1197.69 1356.16C1195.31 1334.07 1203.05 1322.43 1208.11 1300.21L1226.3 1301.22Z" fill="#E372D6"/>
<path d="M1227.02 1299.36L1227.93 1309.47C1227.93 1309.47 1226.67 1313.37 1225.63 1314.29C1223.01 1316.61 1219.72 1316.45 1216.95 1314.92C1213.36 1312.93 1210.51 1309 1207.78 1302.8L1208.4 1298.75L1227.02 1299.36Z" fill="url(#paint38_linear_470_666)"/>
<path d="M1217.67 1249.62C1229.46 1249.72 1237.76 1257.41 1237.64 1270.34C1237.57 1276.97 1237.55 1286.77 1233.77 1292.6C1229.97 1298.46 1222.39 1301.51 1217.41 1301.47C1211.74 1301.42 1205.06 1298.28 1201.34 1292.47C1197.55 1286.56 1197.29 1276.37 1197.43 1270C1197.69 1257.23 1205.88 1249.52 1217.67 1249.62Z" fill="#E372D6"/>
<path d="M1217.53 1304.95C1224.52 1305.01 1227.87 1298.33 1228.76 1296.11C1230.1 1292.76 1228.8 1285.6 1225.74 1284.92C1221.86 1284.06 1221.63 1285.27 1220.02 1282.67C1218.41 1280.08 1220.48 1272.79 1216.82 1273.15C1213.99 1273.43 1215.58 1280.57 1213.94 1283.12C1212.3 1285.67 1212.06 1284.36 1208.68 1285.18C1205.77 1285.89 1205.01 1292.38 1206.03 1295.92C1206.78 1298.54 1210.54 1304.89 1217.53 1304.95Z" fill="url(#paint39_linear_470_666)"/>
<path d="M1221.26 1295.32C1221.26 1295.32 1220.23 1297.44 1217.36 1297.47C1214.48 1297.5 1213.52 1295.25 1213.52 1295.25" stroke="#4E1C79" stroke-width="1.06197" stroke-linecap="round" stroke-linejoin="round"/>
<path d="M1203.96 1259.75C1203.96 1259.75 1207.64 1255.8 1205.67 1252.11C1203.69 1248.42 1202.33 1242.25 1200.39 1242.74C1198.44 1243.22 1197.13 1250.93 1197.63 1253.01C1198.13 1255.09 1199.57 1259.04 1200.71 1259.66C1201.85 1260.28 1203.96 1259.75 1203.96 1259.75Z" fill="#E372D6"/>
<path d="M1231.21 1259.98C1231.21 1259.98 1227.56 1255.97 1229.58 1252.31C1231.59 1248.65 1233.02 1242.51 1234.95 1243.03C1236.89 1243.55 1238.13 1251.28 1237.61 1253.35C1237.09 1255.42 1235.6 1259.34 1234.46 1259.95C1233.31 1260.55 1231.21 1259.98 1231.21 1259.98Z" fill="#E372D6"/>
<path d="M1230.93 1254.51C1230.93 1254.51 1232.45 1253.04 1233.66 1251.08C1234.86 1249.11 1234.61 1244.5 1234.61 1244.5C1234.61 1244.5 1236.57 1248.52 1236.7 1250.79C1236.76 1251.85 1233.51 1258.21 1233.26 1257.89C1233.02 1257.57 1230.93 1254.51 1230.93 1254.51Z" fill="#4E1C79"/>
<path d="M1203.98 1254.28C1203.98 1254.28 1202.48 1252.79 1201.29 1250.8C1200.11 1248.82 1200.41 1244.21 1200.41 1244.21C1200.41 1244.21 1198.41 1248.19 1198.26 1250.46C1198.19 1251.52 1201.37 1257.93 1201.62 1257.62C1201.86 1257.3 1203.98 1254.28 1203.98 1254.28Z" fill="#4E1C79"/>
<path d="M1205.03 1250.81C1204.58 1251.63 1204.24 1252.54 1203.68 1253.28C1201.5 1256.15 1200.27 1255 1199.12 1256.6C1198.96 1256.82 1197.42 1259.14 1201.45 1260.77C1202.4 1261.15 1203.44 1261.35 1204.48 1261.3C1205.58 1261.25 1206.7 1260.9 1207.75 1260.42C1210.79 1258.9 1213.94 1255.72 1213.94 1251.83C1213.94 1249.24 1213 1247.49 1210.76 1246.74C1209.49 1246.23 1208.43 1246.65 1207.31 1247.47C1206.19 1248.23 1205.68 1249.62 1205.03 1250.81Z" fill="#A4DCD7"/>
<path d="M1219.46 1244.46L1217.96 1230.48C1217.68 1227.89 1217.39 1223.93 1215.5 1224.02C1213.13 1224.15 1213.14 1229.42 1212.95 1232.41L1212.19 1244.43L1211.69 1254.41C1211.62 1255.82 1211.97 1257.53 1212.79 1258.56C1213.58 1259.57 1214.87 1260.19 1215.97 1259.92C1217.76 1259.48 1220.41 1260.06 1220.13 1255.41L1219.46 1244.46Z" fill="#FFEE99"/>
<path d="M1217.33 1226.24C1217.65 1227.42 1217.79 1228.86 1217.92 1230.08C1217.51 1230.5 1216.45 1231.52 1215.74 1231.69C1215.05 1231.84 1213.67 1231.06 1213.04 1230.68C1213.1 1229.76 1213.16 1228.78 1213.29 1227.86C1213.67 1228.12 1214.44 1228.57 1215.13 1228.38C1215.75 1228.22 1216.73 1227.05 1217.33 1226.24ZM1218.39 1234.5L1219.07 1240.81C1218.3 1241.57 1216.88 1242.86 1215.87 1243.09C1215.01 1243.29 1213.45 1242.54 1212.35 1241.92L1212.63 1237.42C1213.27 1237.77 1214.13 1238.08 1214.92 1237.87C1215.9 1237.62 1217.43 1235.77 1218.39 1234.5ZM1219.48 1244.92L1219.98 1253.04C1219 1253.94 1217.7 1254.97 1216.72 1255.19C1215.47 1255.48 1213.09 1254.21 1211.74 1253.41L1212.02 1247.71C1212.81 1248.23 1214.23 1248.98 1215.52 1248.64C1216.61 1248.35 1218.28 1246.46 1219.48 1244.92Z" fill="url(#paint40_linear_470_666)"/>
<path d="M1228.26 1251.71C1229.09 1252.88 1229.78 1254.25 1230.74 1255.24C1234.48 1259.09 1235.99 1256.63 1237.99 1258.8C1238.27 1259.1 1240.98 1262.3 1235.57 1266.78C1234.3 1267.83 1232.86 1268.61 1231.37 1268.98C1229.78 1269.38 1228.11 1269.28 1226.5 1268.93C1221.82 1267.72 1216.63 1263.77 1215.76 1257.27C1215.2 1252.96 1216.15 1249.62 1219.18 1247.4C1220.88 1245.99 1222.49 1246.24 1224.28 1247.12C1226.04 1247.9 1227.08 1250 1228.26 1251.71Z" fill="#A4DCD7"/>
<path d="M1225.75 1282.72C1224.37 1282.71 1223.25 1280.47 1223.27 1277.73C1223.28 1274.98 1224.42 1272.77 1225.8 1272.78C1227.19 1272.79 1228.31 1275.02 1228.29 1277.77C1228.28 1280.52 1227.14 1282.73 1225.75 1282.72Z" fill="#4E1C79"/>
<path d="M1224.82 1276.87C1224.48 1276.86 1224.2 1276.46 1224.2 1275.96C1224.2 1275.46 1224.48 1275.05 1224.83 1275.06C1225.17 1275.06 1225.44 1275.47 1225.44 1275.97C1225.44 1276.47 1225.16 1276.87 1224.82 1276.87Z" fill="white"/>
<path d="M1226.18 1272.84C1226.18 1272.84 1227.55 1273.78 1228.31 1273.91C1229.11 1274.05 1230.64 1273.45 1230.73 1273.6C1230.82 1273.74 1229.81 1275.05 1229.17 1275.44C1228.51 1275.85 1227 1275.85 1227 1275.85L1226.18 1272.84Z" fill="#4E1C79"/>
<path d="M1220.69 1289.04C1220.09 1288.2 1219.83 1287.25 1220.1 1286.92C1220.38 1286.59 1221.09 1287 1221.69 1287.84C1222.29 1288.68 1222.56 1289.63 1222.28 1289.96C1222 1290.29 1221.29 1289.88 1220.69 1289.04Z" fill="#D563C7"/>
<path d="M1214.4 1288.98C1215.01 1288.15 1215.29 1287.21 1215.01 1286.87C1214.74 1286.54 1214.02 1286.94 1213.41 1287.77C1212.8 1288.6 1212.53 1289.55 1212.8 1289.88C1213.08 1290.22 1213.79 1289.82 1214.4 1288.98Z" fill="#D563C7"/>
<path d="M1209.1 1282.58C1210.48 1282.59 1211.62 1280.38 1211.63 1277.63C1211.65 1274.88 1210.53 1272.65 1209.15 1272.64C1207.76 1272.62 1206.62 1274.84 1206.61 1277.59C1206.59 1280.33 1207.71 1282.57 1209.1 1282.58Z" fill="#4E1C79"/>
<path d="M1210.09 1276.74C1210.44 1276.74 1210.71 1276.34 1210.72 1275.84C1210.72 1275.34 1210.44 1274.93 1210.1 1274.93C1209.76 1274.93 1209.48 1275.33 1209.48 1275.83C1209.48 1276.33 1209.75 1276.74 1210.09 1276.74Z" fill="white"/>
<path d="M1208.77 1272.69C1208.77 1272.69 1207.39 1273.61 1206.63 1273.73C1205.83 1273.85 1204.31 1273.23 1204.22 1273.37C1204.13 1273.52 1205.12 1274.85 1205.75 1275.25C1206.41 1275.66 1207.93 1275.68 1207.93 1275.68L1208.77 1272.69Z" fill="#4E1C79"/>
<g filter="url(#filter0_f_470_666)">
<path d="M420.181 1295.13L411.607 1301.64L419.655 1289.78L411.23 1286.19L419.805 1285.51L427.037 1276.27L431.088 1284.73L441.393 1284.63L432.141 1290.55L439.57 1302.42L430.193 1295.22" stroke="#B5FF71" stroke-width="1.46933" stroke-linecap="round" stroke-linejoin="round"/>
</g>
<path d="M444.371 1418.2C447.013 1419.15 450.312 1420.27 451.521 1423.44C452.812 1426.83 450.294 1434.66 450.294 1434.66C450.294 1434.66 454.232 1432.89 458.375 1438.79C462.519 1444.69 457.675 1451.92 457.675 1451.92C457.675 1451.92 466.843 1455.02 460.337 1464.81C455.582 1471.95 449.903 1457.04 449.903 1457.04C449.903 1457.04 447.444 1462.91 440.193 1457.36C432.941 1451.8 438.829 1440.18 438.829 1440.18C438.829 1440.18 434.708 1440.9 431.302 1429.46C427.896 1418.02 433.362 1416.26 433.362 1416.26L437.254 1417.99C437.254 1417.99 442.084 1417.39 444.371 1418.2Z" fill="url(#paint41_linear_470_666)"/>
<path d="M437.072 1421.28C434.616 1420.85 430.918 1421.31 430.918 1421.31L430.312 1421.04C430.024 1422.99 430.182 1425.7 431.302 1429.46C434.708 1440.9 438.83 1440.18 438.83 1440.18C438.83 1440.18 432.941 1451.8 440.193 1457.36C447.445 1462.91 449.903 1457.04 449.903 1457.04C449.903 1457.04 452.318 1463.37 455.316 1465.81C459.02 1457.85 451.339 1455.25 451.339 1455.25C451.339 1455.25 456.182 1448.01 452.038 1442.12C447.895 1436.22 443.957 1437.99 443.957 1437.99C443.957 1437.99 446.476 1430.16 445.185 1426.77C443.976 1423.59 440.676 1422.47 438.035 1421.53C437.749 1421.43 437.423 1421.35 437.072 1421.28Z" fill="#4DBBB0"/>
<path d="M407.512 1398.27C407.512 1398.27 401.264 1398.75 398.427 1390.65C395.589 1382.54 399.027 1376.21 399.027 1376.21C399.027 1376.21 391.049 1372.36 391.946 1359.2C392.843 1346.04 401.691 1344.17 401.691 1344.17C401.691 1344.17 397.12 1334.77 401.033 1326.85C404.946 1318.93 408.493 1322.86 408.493 1322.86L416.362 1352.18L413.073 1396.98L407.512 1398.27Z" fill="url(#paint42_linear_470_666)"/>
<path d="M408.85 1393.86C411.161 1394.31 412.582 1393.17 412.582 1393.17C414.046 1379.54 417.972 1362.07 418.977 1348.38L408.734 1326.62C407.41 1326.67 406.516 1330.65 405.812 1332.18C402.046 1340.37 408.271 1344.34 408.271 1344.34C408.271 1344.34 407.879 1344.99 407.301 1346.11C405.851 1348.91 400.527 1351.35 399.562 1360.08C398.592 1368.74 405.608 1376.39 405.608 1376.39C405.608 1376.39 398.757 1380.74 401.261 1385.48C402.288 1387.42 407.464 1393.59 408.85 1393.86Z" fill="#4DBBB0"/>
<path d="M441.946 1319.28C441.946 1319.28 441.796 1320.55 445.273 1328.23C448.751 1335.91 445.844 1342.67 445.844 1342.67C445.844 1342.67 454.09 1345.42 454.262 1358.63C454.434 1371.84 445.786 1374.89 445.786 1374.89C445.786 1374.89 451.092 1383.62 447.841 1392.03C444.59 1400.43 440.745 1397.01 440.745 1397.01L430.548 1368.91L430.194 1323.9L441.946 1319.28Z" fill="url(#paint43_linear_470_666)"/>
<path d="M434.645 1326.45C432.311 1326.31 430.99 1327.64 430.99 1327.64C430.636 1341.38 428.145 1359.29 428.252 1373.04L440.199 1393.29C441.511 1393.07 445.191 1387.34 445.767 1385.72C448.85 1377.07 439.225 1375.61 439.225 1375.61C439.225 1375.61 439.564 1374.91 440.048 1373.72C441.263 1370.74 447.166 1368.74 447.936 1358.6C447.965 1348.87 439.283 1343.38 439.283 1343.38C439.283 1343.38 442.211 1344.79 438.818 1332.98C438.184 1330.78 436.046 1326.53 434.645 1326.45Z" fill="#4DBBB0"/>
<path d="M423.449 1306.17C420.531 1306.23 418.211 1309.55 415.449 1310.77C413.791 1311.5 411.318 1310.5 410.343 1312.38C408.859 1315.24 410.606 1317.72 411.545 1322.6L419.788 1323.98C421.039 1322.35 421.986 1320.74 422.475 1319.03L428.299 1320.01C428.542 1321.3 428.804 1322.52 429.001 1323.54L437.243 1324.93C440.176 1321.11 441.224 1320.53 438.818 1315.56C438.214 1314.4 437.173 1311.92 435.812 1310.95C434.338 1309.91 432.437 1310.63 430.812 1310.07C428.251 1309.18 426.101 1306.12 423.449 1306.17Z" fill="url(#paint44_linear_470_666)"/>
<path d="M414.306 1374.07C412.961 1371.32 408.715 1372.62 406.773 1374.84C399.769 1382.84 388.871 1404.72 388.871 1404.72C388.871 1404.72 388.292 1408.66 389.208 1409.96C390.123 1411.25 392.205 1412.81 392.205 1412.81L400.471 1405.08C400.471 1405.08 419.235 1384.16 414.306 1374.07Z" fill="url(#paint45_linear_470_666)"/>
<path d="M392.204 1412.81C392.204 1412.81 388.998 1417.26 388.403 1417.02C387.808 1416.77 386.242 1415.78 385.196 1414.08C384.149 1412.37 383.806 1410.14 383.976 1409.45C384.146 1408.75 388.871 1404.72 388.871 1404.72C388.871 1404.72 388.51 1409.13 389.207 1409.96C389.904 1410.78 392.204 1412.81 392.204 1412.81Z" fill="#A4DCD7"/>
<path d="M433 1373.52C434.345 1370.77 438.591 1372.07 440.533 1374.29C447.538 1382.3 458.435 1404.18 458.435 1404.18C458.435 1404.18 459.014 1408.12 458.098 1409.41C457.183 1410.7 455.101 1412.27 455.101 1412.27L446.835 1404.53C446.835 1404.53 428.071 1383.61 433 1373.52Z" fill="url(#paint46_linear_470_666)"/>
<path d="M455.102 1412.27C455.102 1412.27 458.308 1416.72 458.903 1416.47C459.498 1416.23 461.063 1415.23 462.11 1413.53C463.156 1411.83 463.5 1409.6 463.33 1408.9C463.159 1408.21 458.435 1404.18 458.435 1404.18C458.435 1404.18 458.796 1408.58 458.099 1409.41C457.402 1410.24 455.102 1412.27 455.102 1412.27Z" fill="#A4DCD7"/>
<path d="M405.77 1420.6L411.951 1461.64C411.951 1461.64 414.169 1463.07 415.37 1463.11C417.236 1463.19 420.78 1461.24 420.78 1461.24L422.041 1434.04L426.204 1434.2L427.528 1460.91C427.528 1460.91 430.755 1463.13 432.51 1463.11C433.893 1463.1 436.42 1461.32 436.42 1461.32C437.686 1448.51 439.4 1432.29 442.409 1419.89L405.77 1420.6Z" fill="url(#paint47_linear_470_666)"/>
<path d="M411.95 1461.64C411.95 1461.64 410.357 1467.89 410.779 1468.38C411.201 1468.87 413.403 1470.73 416.167 1470.34C418.932 1469.96 420.525 1468.32 421.04 1467.35C421.555 1466.38 420.946 1460.25 420.946 1460.25C420.946 1460.25 418.116 1462.49 416.683 1462.55C415.249 1462.62 411.95 1461.64 411.95 1461.64Z" fill="#A4DCD7"/>
<path d="M436.421 1461.32C436.421 1461.32 438.014 1467.57 437.592 1468.05C437.17 1468.54 434.968 1470.4 432.204 1470.02C429.439 1469.63 427.846 1467.99 427.331 1467.02C426.816 1466.05 427.425 1459.92 427.425 1459.92C427.425 1459.92 430.255 1462.17 431.688 1462.23C433.122 1462.29 436.421 1461.32 436.421 1461.32Z" fill="#A4DCD7"/>
<path d="M414.71 1365.93C414.71 1365.93 403.019 1392.18 405.77 1420.6C406.393 1427.05 413.071 1434.2 423.125 1434.2C433.18 1434.2 441.994 1423.57 442.409 1419.89C444.842 1398.31 437.337 1386.86 432.499 1365.1L414.71 1365.93Z" fill="#E372D6"/>
<path d="M414.013 1364.11L413.076 1373.99C413.076 1373.99 414.29 1377.81 415.3 1378.72C417.853 1381 421.062 1380.88 423.779 1379.4C427.297 1377.49 430.108 1373.68 432.804 1367.63L432.22 1363.66L414.013 1364.11Z" fill="url(#paint48_linear_470_666)"/>
<path d="M423.399 1315.56C411.871 1315.56 403.724 1323.01 403.78 1335.65C403.809 1342.14 403.786 1351.71 407.453 1357.45C411.135 1363.2 418.533 1366.25 423.4 1366.25C428.945 1366.25 435.487 1363.24 439.155 1357.59C442.89 1351.84 443.19 1341.88 443.092 1335.65C442.896 1323.17 434.927 1315.56 423.399 1315.56Z" fill="#E372D6"/>
<path d="M423.266 1369.65C416.433 1369.65 413.192 1363.09 412.333 1360.92C411.037 1357.64 412.343 1350.64 415.335 1350C419.137 1349.2 419.354 1350.38 420.943 1347.85C422.532 1345.33 420.537 1338.19 424.116 1338.57C426.881 1338.87 425.295 1345.84 426.887 1348.34C428.479 1350.84 428.719 1349.57 432.017 1350.4C434.858 1351.12 435.57 1357.47 434.558 1360.92C433.805 1363.48 430.099 1369.65 423.266 1369.65Z" fill="url(#paint49_linear_470_666)"/>
<path d="M436.759 1325.58C436.759 1325.58 433.175 1321.68 435.127 1318.09C437.079 1314.5 438.439 1308.48 440.336 1308.97C442.232 1309.46 443.483 1317.01 442.982 1319.04C442.482 1321.07 441.049 1324.92 439.933 1325.52C438.816 1326.11 436.759 1325.58 436.759 1325.58Z" fill="#E372D6"/>
<path d="M410.115 1325.58C410.115 1325.58 413.698 1321.68 411.746 1318.09C409.794 1314.5 408.434 1308.48 406.538 1308.97C404.641 1309.46 403.391 1317.01 403.891 1319.04C404.391 1321.07 405.825 1324.92 406.941 1325.52C408.057 1326.11 410.115 1325.58 410.115 1325.58Z" fill="#E372D6"/>
<path d="M410.409 1320.23C410.409 1320.23 408.932 1318.78 407.766 1316.85C406.599 1314.92 406.865 1310.42 406.865 1310.42C406.865 1310.42 404.934 1314.32 404.795 1316.54C404.73 1317.58 407.877 1323.82 408.115 1323.51C408.353 1323.2 410.409 1320.23 410.409 1320.23Z" fill="#4E1C79"/>
<path d="M436.764 1320.23C436.764 1320.23 438.241 1318.78 439.407 1316.85C440.574 1314.92 440.308 1310.42 440.308 1310.42C440.308 1310.42 442.239 1314.32 442.378 1316.54C442.443 1317.58 439.296 1323.82 439.058 1323.51C438.82 1323.2 436.764 1320.23 436.764 1320.23Z" fill="#4E1C79"/>
<path d="M435.752 1316.83C436.193 1317.63 436.518 1318.53 437.063 1319.26C439.178 1322.08 440.386 1320.96 441.506 1322.54C441.661 1322.75 443.158 1325.03 439.204 1326.59C438.273 1326.96 437.254 1327.15 436.245 1327.09C435.163 1327.03 434.072 1326.68 433.05 1326.2C430.084 1324.69 427.023 1321.55 427.038 1317.75C427.054 1315.22 427.984 1313.51 430.171 1312.8C431.416 1312.31 432.451 1312.73 433.547 1313.55C434.634 1314.29 435.128 1315.66 435.752 1316.83Z" fill="#A4DCD7"/>
<path d="M421.682 1310.5L423.213 1296.84C423.496 1294.32 423.805 1290.44 425.648 1290.55C427.962 1290.69 427.934 1295.85 428.104 1298.77L428.787 1310.53L429.226 1320.29C429.288 1321.67 428.934 1323.34 428.133 1324.34C427.354 1325.32 426.086 1325.92 425.012 1325.65C423.261 1325.2 420.668 1325.74 420.97 1321.2L421.682 1310.5Z" fill="#FFEE99"/>
<path d="M423.847 1292.71C423.536 1293.86 423.386 1295.26 423.255 1296.46C423.652 1296.87 424.681 1297.88 425.382 1298.04C426.053 1298.2 427.404 1297.45 428.018 1297.08C427.973 1296.18 427.911 1295.23 427.789 1294.32C427.421 1294.57 426.662 1295 425.987 1294.82C425.383 1294.65 424.438 1293.5 423.847 1292.71ZM422.773 1300.77L422.081 1306.94C422.824 1307.68 424.209 1308.96 425.191 1309.19C426.036 1309.39 427.566 1308.67 428.645 1308.08L428.389 1303.68C427.761 1304.01 426.918 1304.31 426.149 1304.1C425.196 1303.84 423.708 1302.02 422.773 1300.77ZM421.653 1310.95L421.124 1318.89C422.082 1319.77 423.351 1320.79 424.307 1321.02C425.524 1321.3 427.856 1320.09 429.182 1319.31L428.933 1313.73C428.159 1314.24 426.766 1314.96 425.512 1314.62C424.441 1314.33 422.823 1312.46 421.653 1310.95Z" fill="url(#paint50_linear_470_666)"/>
<path d="M413.036 1317.51C412.216 1318.65 411.542 1319.99 410.595 1320.95C406.915 1324.68 405.459 1322.26 403.49 1324.36C403.218 1324.66 400.548 1327.76 405.811 1332.18C407.05 1333.23 408.458 1334 409.908 1334.37C411.464 1334.77 413.101 1334.69 414.669 1334.37C419.25 1333.22 424.351 1329.41 425.229 1323.06C425.802 1318.85 424.883 1315.57 421.936 1313.38C420.278 1311.99 418.704 1312.21 416.95 1313.06C415.227 1313.81 414.201 1315.85 413.036 1317.51Z" fill="#A4DCD7"/>
<path d="M415.336 1347.85C416.693 1347.85 417.794 1345.68 417.794 1342.99C417.794 1340.31 416.693 1338.13 415.336 1338.13C413.979 1338.13 412.879 1340.31 412.879 1342.99C412.879 1345.68 413.979 1347.85 415.336 1347.85Z" fill="#4E1C79"/>
<path d="M416.282 1342.14C416.616 1342.14 416.887 1341.74 416.887 1341.25C416.887 1340.76 416.616 1340.37 416.282 1340.37C415.948 1340.37 415.677 1340.76 415.677 1341.25C415.677 1341.74 415.948 1342.14 416.282 1342.14Z" fill="white"/>
<path d="M414.967 1338.19C414.967 1338.19 413.621 1339.09 412.884 1339.22C412.097 1339.35 410.605 1338.75 410.519 1338.89C410.433 1339.03 411.41 1340.32 412.03 1340.71C412.676 1341.11 414.157 1341.12 414.157 1341.12L414.967 1338.19Z" fill="#4E1C79"/>
<path d="M420.254 1354.07C420.846 1353.25 421.107 1352.33 420.838 1352C420.569 1351.68 419.87 1352.08 419.279 1352.89C418.687 1353.71 418.425 1354.64 418.695 1354.96C418.964 1355.29 419.662 1354.89 420.254 1354.07Z" fill="#D563C7"/>
<path d="M426.4 1354.07C425.809 1353.25 425.547 1352.33 425.816 1352C426.086 1351.68 426.784 1352.08 427.376 1352.89C427.967 1353.71 428.229 1354.64 427.96 1354.96C427.69 1355.29 426.992 1354.89 426.4 1354.07Z" fill="#D563C7"/>
<path d="M431.621 1347.85C430.264 1347.85 429.163 1345.68 429.163 1342.99C429.163 1340.31 430.264 1338.13 431.621 1338.13C432.978 1338.13 434.078 1340.31 434.078 1342.99C434.078 1345.68 432.978 1347.85 431.621 1347.85Z" fill="#4E1C79"/>
<path d="M430.675 1342.14C430.341 1342.14 430.07 1341.74 430.07 1341.25C430.07 1340.76 430.341 1340.37 430.675 1340.37C431.009 1340.37 431.28 1340.76 431.28 1341.25C431.28 1341.74 431.009 1342.14 430.675 1342.14Z" fill="white"/>
<path d="M431.99 1338.19C431.99 1338.19 433.336 1339.09 434.073 1339.22C434.86 1339.35 436.352 1338.75 436.438 1338.89C436.524 1339.03 435.547 1340.32 434.927 1340.71C434.281 1341.11 432.8 1341.12 432.8 1341.12L431.99 1338.19Z" fill="#4E1C79"/>
<path d="M423.415 1365.1C425.287 1365.1 426.804 1363.53 426.804 1361.6C426.804 1359.67 425.287 1358.11 423.415 1358.11C421.544 1358.11 420.026 1359.67 420.026 1361.6C420.026 1363.53 421.544 1365.1 423.415 1365.1Z" fill="#4E1C79"/>
<path d="M420.181 1295.13L411.607 1301.64L419.655 1289.78L411.23 1286.19L419.805 1285.51L427.037 1276.27L431.088 1284.73L441.393 1284.63L432.141 1290.55L439.57 1302.42L430.193 1295.22" stroke="white" stroke-width="0.629713" stroke-linecap="round" stroke-linejoin="round"/>
<path d="M1392.24 1193.81H1417.43L1437.95 1417.11H1371.39L1392.24 1193.81Z" fill="#93642D"/>
<path d="M1392.06 1193.81H1417.08L1427.96 1314H1381.18L1392.06 1193.81Z" fill="#714D22"/>
<path d="M1480.32 1293.6C1505.43 1296.48 1488.79 1262.09 1476.66 1231.51C1464.52 1200.93 1438.27 1143.4 1397.96 1143.4C1364.94 1143.4 1302.36 1278.38 1317.02 1291.08C1328.74 1301.24 1356.26 1293.27 1374.58 1277.28C1380.08 1291.39 1388.37 1297.99 1401.56 1299.12C1414.75 1300.25 1422.44 1289.98 1432.82 1277.28C1436.49 1281.98 1458.42 1291.08 1480.32 1293.6Z" fill="#66A865"/>
<path fill-rule="evenodd" clip-rule="evenodd" d="M1475.59 1228.09C1460.45 1194.16 1434.29 1149.2 1397.16 1149.2C1378.06 1149.2 1349.86 1190.76 1330.06 1231.72C1343.53 1230.17 1359.53 1222.78 1371.75 1212.11C1377.72 1227.44 1387.52 1243.38 1401.85 1244.61C1416.18 1245.84 1426.87 1229.84 1435.03 1212.11C1438.39 1216.42 1455.9 1224.14 1475.59 1228.09Z" fill="#458244"/>
<path d="M1480.32 1215.89C1504.35 1224.67 1488.79 1184.39 1476.66 1153.8C1464.52 1123.22 1438.27 1065.7 1397.96 1065.7C1364.94 1065.7 1302.36 1200.68 1317.02 1213.38C1328.74 1223.54 1356.26 1198.64 1374.58 1182.64C1380.08 1196.76 1388.37 1220.29 1401.56 1221.42C1414.75 1222.55 1422.44 1195.34 1432.82 1182.64C1436.49 1187.35 1458.42 1207.89 1480.32 1215.89Z" fill="#83C082"/>
<path fill-rule="evenodd" clip-rule="evenodd" d="M1464.26 1122.37C1470.07 1136.48 1474.33 1146.8 1473.65 1146.72C1455.03 1144.59 1433.45 1135.23 1430.34 1131.25C1423.95 1145.07 1414.15 1153.88 1402.94 1152.92C1391.73 1151.96 1381.5 1141.33 1376.83 1129.38C1361.26 1142.92 1332.38 1147.96 1334.41 1144.25C1337.88 1137.89 1341.12 1130.86 1344.21 1123.48C1362.77 1089.61 1385.38 1059.99 1401.51 1059.99C1420.99 1059.99 1437.45 1072.36 1450.88 1089.03C1451.58 1091.01 1452.27 1092.91 1452.98 1094.68C1456.82 1104.32 1460.81 1114.01 1464.26 1122.37Z" fill="#458244"/>
<path d="M1472.56 1124.42C1489.96 1131.23 1476.98 1096.08 1467.12 1071.14C1457.27 1046.2 1432.39 1006.87 1399.75 1004.23C1369.22 1001.75 1319.24 1110.35 1331.15 1120.7C1340.67 1128.99 1365.88 1112.65 1380.76 1099.61C1385.22 1111.12 1391.96 1130.31 1402.67 1131.23C1413.38 1132.16 1419.63 1109.97 1428.06 1099.61C1431.03 1103.45 1457.04 1118.34 1472.56 1124.42Z" fill="#66A865"/>
<path fill-rule="evenodd" clip-rule="evenodd" d="M1458.52 1052.35C1462.06 1059.47 1464.23 1063.83 1463.86 1063.71C1463.05 1063.44 1462.05 1063.13 1460.91 1062.76C1451.31 1059.71 1431.52 1053.41 1427.96 1048.84C1425.78 1051.94 1423.82 1054.83 1422.02 1057.47C1414.06 1069.18 1409.35 1076.1 1404.03 1076.1C1397.34 1076.1 1393.37 1069.55 1388.31 1061.23C1385.94 1057.33 1383.33 1053.03 1380.1 1048.84C1360.19 1066.21 1346.37 1064.95 1346.37 1064.95C1346.37 1064.95 1353.72 1033.92 1366.6 1005.87C1378.32 990.758 1389.93 980.688 1399.33 980.688C1410.89 980.688 1421.39 985.044 1430.82 992.068C1430.95 992.402 1431.09 992.739 1431.22 993.08C1439.89 1014.91 1451.73 1038.71 1458.52 1052.35Z" fill="#458244"/>
<path d="M1456.16 1046.26C1470.89 1055.91 1461.84 1024.71 1453.71 1003.79C1445.58 982.869 1427.99 943.517 1400.99 943.517C1378.86 943.517 1336.93 1035.85 1346.75 1044.54C1354.61 1051.49 1373.05 1034.46 1385.32 1023.52C1389 1033.17 1394.56 1049.27 1403.4 1050.04C1412.23 1050.81 1417.39 1032.2 1424.34 1023.52C1426.8 1026.73 1444.38 1038.54 1456.16 1046.26Z" fill="#83C082"/>
<rect x="71.8125" y="1185.76" width="39.3762" height="216.602" fill="#93642D"/>
<rect x="71.918" y="1105.68" width="39.3762" height="216.602" fill="#714D22"/>
<path d="M176.689 1193.27C176.689 1249.94 137.319 1295.88 88.7532 1295.88C40.1876 1295.88 0.817383 1249.94 0.817383 1193.27C0.817383 1136.61 40.1876 1022.26 88.7532 1022.26C137.319 1022.26 176.689 1136.61 176.689 1193.27Z" fill="#66A865"/>
<path fill-rule="evenodd" clip-rule="evenodd" d="M174.025 1169.22C165.714 1215.81 130.328 1250.81 87.9358 1250.81C45.5437 1250.81 10.1578 1215.81 1.84654 1169.22C0.636172 1177.94 0 1186.07 0 1193.27C0 1249.94 39.3702 1295.88 87.9358 1295.88C136.501 1295.88 175.872 1249.94 175.872 1193.27C175.872 1186.07 175.235 1177.94 174.025 1169.22Z" fill="#458244"/>
<path d="M162.299 1061.9C162.299 1107.93 129.695 1145.24 89.4752 1145.24C49.2557 1145.24 16.6514 1107.93 16.6514 1061.9C16.6514 1015.87 49.2557 923 89.4752 923C129.695 923 162.299 1015.87 162.299 1061.9Z" fill="#83C082"/>
<defs>
<filter id="filter0_f_470_666" x="407.914" y="1272.95" width="36.7962" height="32.7791" filterUnits="userSpaceOnUse" color-interpolation-filters="sRGB">
<feFlood flood-opacity="0" result="BackgroundImageFix"/>
<feBlend mode="normal" in="SourceGraphic" in2="BackgroundImageFix" result="shape"/>
<feGaussianBlur stdDeviation="1.29109" result="effect1_foregroundBlur_470_666"/>
</filter>
<linearGradient id="paint0_linear_470_666" x1="825.039" y1="1021.92" x2="1462.76" y2="1021.92" gradientUnits="userSpaceOnUse">
<stop stop-color="#E7E7E7"/>
<stop offset="1" stop-color="#AFAFAF"/>
</linearGradient>
<linearGradient id="paint1_linear_470_666" x1="1143.63" y1="1343.94" x2="1149.8" y2="962.508" gradientUnits="userSpaceOnUse">
<stop stop-color="white"/>
<stop offset="1" stop-color="#D9D9D9"/>
</linearGradient>
<linearGradient id="paint2_linear_470_666" x1="825.039" y1="1368.62" x2="1462.76" y2="1368.62" gradientUnits="userSpaceOnUse">
<stop stop-color="#E7E7E7"/>
<stop offset="1" stop-color="#AFAFAF"/>
</linearGradient>
<linearGradient id="paint3_linear_470_666" x1="875.875" y1="1195.38" x2="944.575" y2="1195.53" gradientUnits="userSpaceOnUse">
<stop stop-color="#E7E7E7"/>
<stop offset="1" stop-color="#AFAFAF"/>
</linearGradient>
<linearGradient id="paint4_linear_470_666" x1="985.77" y1="1195.27" x2="1082.61" y2="1195.27" gradientUnits="userSpaceOnUse">
<stop stop-color="#E7E7E7"/>
<stop offset="1" stop-color="#AFAFAF"/>
</linearGradient>
<linearGradient id="paint5_linear_470_666" x1="1204.65" y1="1195.27" x2="1301.49" y2="1195.27" gradientUnits="userSpaceOnUse">
<stop stop-color="#E7E7E7"/>
<stop offset="1" stop-color="#AFAFAF"/>
</linearGradient>
<linearGradient id="paint6_linear_470_666" x1="1334.69" y1="1195.27" x2="1431.52" y2="1195.27" gradientUnits="userSpaceOnUse">
<stop stop-color="#E7E7E7"/>
<stop offset="1" stop-color="#AFAFAF"/>
</linearGradient>
<linearGradient id="paint7_linear_470_666" x1="134.013" y1="1042.43" x2="437.08" y2="1042.43" gradientUnits="userSpaceOnUse">
<stop stop-color="#C59268"/>
<stop offset="1" stop-color="#A26D3B"/>
</linearGradient>
<linearGradient id="paint8_linear_470_666" x1="134.013" y1="1207.55" x2="437.08" y2="1207.55" gradientUnits="userSpaceOnUse">
<stop stop-color="#C59268"/>
<stop offset="1" stop-color="#A26D3B"/>
</linearGradient>
<linearGradient id="paint9_linear_470_666" x1="483.713" y1="1211.9" x2="786.78" y2="1211.9" gradientUnits="userSpaceOnUse">
<stop stop-color="#6DB1CB"/>
<stop offset="1" stop-color="#35809B"/>
</linearGradient>
<linearGradient id="paint10_linear_470_666" x1="483.713" y1="1211.9" x2="786.78" y2="1211.9" gradientUnits="userSpaceOnUse">
<stop stop-color="#6DB1CB"/>
<stop offset="1" stop-color="#35809B"/>
</linearGradient>
<linearGradient id="paint11_linear_470_666" x1="1058.26" y1="1357" x2="1084.25" y2="1398.12" gradientUnits="userSpaceOnUse">
<stop stop-color="#9A348E"/>
<stop offset="1" stop-color="#E782DB"/>
</linearGradient>
<linearGradient id="paint12_linear_470_666" x1="1020.97" y1="1318.45" x2="1019.62" y2="1269.79" gradientUnits="userSpaceOnUse">
<stop stop-color="#9A348E"/>
<stop offset="1" stop-color="#E782DB"/>
</linearGradient>
<linearGradient id="paint13_linear_470_666" x1="1064.28" y1="1328.66" x2="1057.78" y2="1271.17" gradientUnits="userSpaceOnUse">
<stop stop-color="#9A348E"/>
<stop offset="1" stop-color="#E782DB"/>
</linearGradient>
<linearGradient id="paint14_linear_470_666" x1="1026.63" y1="1249.39" x2="1057.86" y2="1249.9" gradientUnits="userSpaceOnUse">
<stop stop-color="#9A348E"/>
<stop offset="1" stop-color="#E782DB"/>
</linearGradient>
<linearGradient id="paint15_linear_470_666" x1="1035.94" y1="1397.68" x2="1038.3" y2="1361.19" gradientUnits="userSpaceOnUse">
<stop stop-color="#FFEE99"/>
<stop offset="1" stop-color="#FFD91B"/>
</linearGradient>
<linearGradient id="paint16_linear_470_666" x1="1006.9" y1="1339.13" x2="1047.11" y2="1309.6" gradientUnits="userSpaceOnUse">
<stop stop-color="#FFEE99"/>
<stop offset="1" stop-color="#FFD91B"/>
</linearGradient>
<linearGradient id="paint17_linear_470_666" x1="1074.21" y1="1345.77" x2="1034.62" y2="1309.62" gradientUnits="userSpaceOnUse">
<stop stop-color="#FFEE99"/>
<stop offset="1" stop-color="#FFD91B"/>
</linearGradient>
<linearGradient id="paint18_linear_470_666" x1="1039.88" y1="1315.08" x2="1032.27" y2="1299.99" gradientUnits="userSpaceOnUse">
<stop stop-color="#FFEE99"/>
<stop offset="1" stop-color="#FFD91B"/>
</linearGradient>
<linearGradient id="paint19_linear_470_666" x1="1042.27" y1="1290.25" x2="1042.46" y2="1263.17" gradientUnits="userSpaceOnUse">
<stop stop-color="#FFF3C7"/>
<stop offset="1" stop-color="#FFE565" stop-opacity="0"/>
</linearGradient>
<linearGradient id="paint20_linear_470_666" x1="1038.39" y1="1240.84" x2="1046.63" y2="1240.98" gradientUnits="userSpaceOnUse">
<stop stop-color="#66C3BC"/>
<stop offset="1" stop-color="#A4DCD7"/>
</linearGradient>
<linearGradient id="paint21_linear_470_666" x1="1095.48" y1="1403.77" x2="1130.36" y2="1366.61" gradientUnits="userSpaceOnUse">
<stop stop-color="#FFEE99"/>
<stop offset="1" stop-color="#FFD91B"/>
</linearGradient>
<linearGradient id="paint22_linear_470_666" x1="1152.95" y1="1286.67" x2="1153.37" y2="1329.73" gradientUnits="userSpaceOnUse">
<stop stop-color="#FFEE99"/>
<stop offset="1" stop-color="#FFD91B"/>
</linearGradient>
<linearGradient id="paint23_linear_470_666" x1="1108.34" y1="1291.8" x2="1107.78" y2="1327.34" gradientUnits="userSpaceOnUse">
<stop stop-color="#FFEE99"/>
<stop offset="1" stop-color="#FFD91B"/>
</linearGradient>
<linearGradient id="paint24_linear_470_666" x1="1163.19" y1="1345.01" x2="1128.56" y2="1316.58" gradientUnits="userSpaceOnUse">
<stop stop-color="#A4DCD7"/>
<stop offset="1" stop-color="#4DBBB0"/>
</linearGradient>
<linearGradient id="paint25_linear_470_666" x1="1119.02" y1="1306.58" x2="1088.87" y2="1331.37" gradientUnits="userSpaceOnUse">
<stop stop-color="#66C3BC"/>
<stop offset="1" stop-color="#A4DCD7"/>
</linearGradient>
<linearGradient id="paint26_linear_470_666" x1="1142.2" y1="1249.63" x2="1110.98" y2="1249.82" gradientUnits="userSpaceOnUse">
<stop stop-color="#FFEE99"/>
<stop offset="1" stop-color="#FFD91B"/>
</linearGradient>
<linearGradient id="paint27_linear_470_666" x1="1130.74" y1="1356.46" x2="1132.52" y2="1398.71" gradientUnits="userSpaceOnUse">
<stop stop-color="#66C3BC"/>
<stop offset="1" stop-color="#A4DCD7"/>
</linearGradient>
<linearGradient id="paint28_linear_470_666" x1="1136.16" y1="1304.1" x2="1127.24" y2="1318.86" gradientUnits="userSpaceOnUse">
<stop stop-color="#66C3BC"/>
<stop offset="1" stop-color="#A4DCD7"/>
</linearGradient>
<linearGradient id="paint29_linear_470_666" x1="1128.46" y1="1296.35" x2="1128.9" y2="1269.3" gradientUnits="userSpaceOnUse">
<stop stop-color="#D6F5EF"/>
<stop offset="1" stop-color="#A4DCD7" stop-opacity="0"/>
</linearGradient>
<linearGradient id="paint30_linear_470_666" x1="1123.04" y1="1238.68" x2="1130.55" y2="1238.06" gradientUnits="userSpaceOnUse">
<stop stop-color="#E782DB"/>
<stop offset="1" stop-color="#D563C7"/>
</linearGradient>
<linearGradient id="paint31_linear_470_666" x1="1176.72" y1="1403.91" x2="1206.82" y2="1362.86" gradientUnits="userSpaceOnUse">
<stop stop-color="#A4DCD7"/>
<stop offset="1" stop-color="#4DBBB0"/>
</linearGradient>
<linearGradient id="paint32_linear_470_666" x1="1241.96" y1="1286.96" x2="1241.6" y2="1330.02" gradientUnits="userSpaceOnUse">
<stop stop-color="#A4DCD7"/>
<stop offset="1" stop-color="#4DBBB0"/>
</linearGradient>
<linearGradient id="paint33_linear_470_666" x1="1197.29" y1="1291.27" x2="1196.09" y2="1326.8" gradientUnits="userSpaceOnUse">
<stop stop-color="#A4DCD7"/>
<stop offset="1" stop-color="#4DBBB0"/>
</linearGradient>
<linearGradient id="paint34_linear_470_666" x1="1231.62" y1="1249.73" x2="1200.39" y2="1249.57" gradientUnits="userSpaceOnUse">
<stop stop-color="#A4DCD7"/>
<stop offset="1" stop-color="#4DBBB0"/>
</linearGradient>
<linearGradient id="paint35_linear_470_666" x1="1240.66" y1="1341.38" x2="1226.88" y2="1316.41" gradientUnits="userSpaceOnUse">
<stop stop-color="#E372D6"/>
<stop offset="1" stop-color="#D563C7"/>
</linearGradient>
<linearGradient id="paint36_linear_470_666" x1="1181.7" y1="1345.31" x2="1209.3" y2="1320.52" gradientUnits="userSpaceOnUse">
<stop stop-color="#E372D6"/>
<stop offset="1" stop-color="#D563C7"/>
</linearGradient>
<linearGradient id="paint37_linear_470_666" x1="1219.12" y1="1397.63" x2="1218.07" y2="1361.05" gradientUnits="userSpaceOnUse">
<stop stop-color="#E372D6"/>
<stop offset="1" stop-color="#D563C7"/>
</linearGradient>
<linearGradient id="paint38_linear_470_666" x1="1224.98" y1="1304.08" x2="1215.85" y2="1318.65" gradientUnits="userSpaceOnUse">
<stop stop-color="#DF5ED0"/>
<stop offset="1" stop-color="#DF5ED0" stop-opacity="0"/>
</linearGradient>
<linearGradient id="paint39_linear_470_666" x1="1217.37" y1="1296.2" x2="1218.3" y2="1269.16" gradientUnits="userSpaceOnUse">
<stop stop-color="#F085E2"/>
<stop offset="1" stop-color="#F17FE3" stop-opacity="0"/>
</linearGradient>
<linearGradient id="paint40_linear_470_666" x1="1220.05" y1="1240.77" x2="1211.8" y2="1240.72" gradientUnits="userSpaceOnUse">
<stop stop-color="#FFE565"/>
<stop offset="1" stop-color="#FFE565" stop-opacity="0"/>
</linearGradient>
<linearGradient id="paint41_linear_470_666" x1="462.669" y1="1466.74" x2="433.49" y2="1426.33" gradientUnits="userSpaceOnUse">
<stop stop-color="#A4DCD7"/>
<stop offset="1" stop-color="#4DBBB0"/>
</linearGradient>
<linearGradient id="paint42_linear_470_666" x1="399.47" y1="1351.86" x2="399.47" y2="1393.96" gradientUnits="userSpaceOnUse">
<stop stop-color="#A4DCD7"/>
<stop offset="1" stop-color="#4DBBB0"/>
</linearGradient>
<linearGradient id="paint43_linear_470_666" x1="443.12" y1="1356.45" x2="444" y2="1391.2" gradientUnits="userSpaceOnUse">
<stop stop-color="#A4DCD7"/>
<stop offset="1" stop-color="#4DBBB0"/>
</linearGradient>
<linearGradient id="paint44_linear_470_666" x1="409.768" y1="1315.55" x2="440.302" y2="1315.55" gradientUnits="userSpaceOnUse">
<stop stop-color="#A4DCD7"/>
<stop offset="1" stop-color="#4DBBB0"/>
</linearGradient>
<linearGradient id="paint45_linear_470_666" x1="400.471" y1="1405.08" x2="414.107" y2="1380.81" gradientUnits="userSpaceOnUse">
<stop stop-color="#E372D6"/>
<stop offset="1" stop-color="#D563C7"/>
</linearGradient>
<linearGradient id="paint46_linear_470_666" x1="458.098" y1="1409.41" x2="431.23" y2="1384.95" gradientUnits="userSpaceOnUse">
<stop stop-color="#E372D6"/>
<stop offset="1" stop-color="#D563C7"/>
</linearGradient>
<linearGradient id="paint47_linear_470_666" x1="421.247" y1="1460.25" x2="422.578" y2="1424.5" gradientUnits="userSpaceOnUse">
<stop stop-color="#E372D6"/>
<stop offset="1" stop-color="#D563C7"/>
</linearGradient>
<linearGradient id="paint48_linear_470_666" x1="415.983" y1="1368.74" x2="424.813" y2="1383.07" gradientUnits="userSpaceOnUse">
<stop stop-color="#DF5ED0"/>
<stop offset="1" stop-color="#DF5ED0" stop-opacity="0"/>
</linearGradient>
<linearGradient id="paint49_linear_470_666" x1="423.47" y1="1361.1" x2="422.784" y2="1334.65" gradientUnits="userSpaceOnUse">
<stop stop-color="#F085E2"/>
<stop offset="1" stop-color="#F17FE3" stop-opacity="0"/>
</linearGradient>
<linearGradient id="paint50_linear_470_666" x1="421.124" y1="1306.88" x2="429.182" y2="1306.88" gradientUnits="userSpaceOnUse">
<stop stop-color="#FFE565"/>
<stop offset="1" stop-color="#FFE565" stop-opacity="0"/>
</linearGradient>
</defs>
</svg>
