<svg width="1512" height="1499" viewBox="0 0 1512 1499" fill="none" xmlns="http://www.w3.org/2000/svg">
<mask id="mask0_343_32" style="mask-type:alpha" maskUnits="userSpaceOnUse" x="0" y="0" width="1512" height="1499">
<rect width="1512" height="1499" fill="#D9D9D9"/>
</mask>
<g mask="url(#mask0_343_32)">
<path d="M-43 187.933L139.919 189.147V79.2409L319.746 76L305.412 216.471L588.479 203.417L583.354 313.696H760.512L752.449 156.749H932.07L938.789 325.767L978.207 324.423L979.999 227.404H1111.41V325.319L1139.02 324.871L1136.33 194.074L1347.3 186.46L1333.42 137.31H1554.04V415.022L-43 383.102V187.933Z" fill="#DAAAD4"/>
<path d="M588.478 203.417L516.836 161.823L339.455 165.407L269.577 212.439L305.412 216.471L588.478 203.417Z" fill="#D59DCE"/>
<path d="M1523.25 362.547H-12.2183V939.325H1523.25V362.547Z" fill="#DAAAD4"/>
<path d="M139.919 79.2409L319.746 76L285.703 481.837L149.531 628.569L139.919 79.2409Z" fill="#D59DCE"/>
<path d="M583.13 318.418H762.304H855.474L851.89 607.068L556.254 614.235L516.836 318.418H583.13Z" fill="#D59DCE"/>
<path d="M979.999 227.404L984.478 614.235H1118.86L1111.41 227.404H979.999Z" fill="#D59DCE"/>
<path d="M1333.42 137.31L1355.81 793.349H1565L1554.03 137.31H1333.42Z" fill="#D59DCE"/>
<path d="M752.45 156.749L800.449 137.635H898.954L932.071 156.749H752.45Z" fill="#D59DCE"/>
<path d="M516.836 318.418L603.122 282.602L798.232 284.502L855.474 318.418H516.836Z" fill="#CF8FC7"/>
<path d="M979.999 227.404L1029.72 211.544L1078.1 209.752L1111.41 227.404H979.999Z" fill="#CF8FC7"/>
<path d="M1136.33 194.075L1208.67 177.501L1316.62 172.125L1355.81 185.787L1136.33 194.075Z" fill="#D59DCE"/>
<path d="M1167.05 403.492H26.6953V909.324H1167.05V403.492Z" fill="#E3BBDD"/>
<path d="M1202.25 635.903L1382.08 639.143V749.051L1565 747.837V943.007L1534.22 943.623V1499.23H-1.25372V1174.14H-42.999L-32.0352 717.53H188.582L186.64 758.88L205.38 752.346L313.332 757.721L385.673 774.295L186.269 766.767L186.256 767.097L385.673 774.295L382.985 884.776L408.707 885.192L410.589 787.308L443.904 769.657L492.281 771.449L542.002 787.308L543.794 884.328L583.212 885.672L589.931 809.426L623.046 790.316H721.553L769.552 809.426L763.008 844.024L918.878 842.506L937.562 850.26L933.523 728.785L1005.16 687.194L1182.55 690.777L1211.39 744.723L1202.25 635.903Z" fill="#E6D2E3"/>
</g>
</svg>
