<svg width="1512" height="1040" viewBox="0 0 1512 1040" fill="none" xmlns="http://www.w3.org/2000/svg">
<mask id="mask0_343_25" style="mask-type:alpha" maskUnits="userSpaceOnUse" x="0" y="0" width="1512" height="1040">
<rect width="1512" height="1040" fill="#D9D9D9"/>
</mask>
<g mask="url(#mask0_343_25)">
<path d="M308.369 44C304.822 44.0088 301.397 47.598 298.729 54.1012C296.061 60.6044 294.332 69.5797 293.863 79.3608C270.843 79.7977 249.445 81.9804 233.858 85.4816C218.27 88.9828 209.614 93.5507 209.583 98.2916C209.637 101.871 214.611 105.375 223.935 108.402V211.065H179.5V172.906C179.5 167.116 174.838 162.454 169.048 162.454H-4.65248C-10.4418 162.454 -15.1043 167.116 -15.1043 172.906V211.065H-42V405.177V702.987V875.829L1529.75 878.488L1521.55 660.443V213.724H1466.08V161.276C1466.08 160.887 1465.76 160.574 1465.37 160.574H1466.08L1446.63 106.048H1396.78L1372.51 160.574H1373.21C1372.82 160.574 1372.51 160.887 1372.51 161.276V213.724H1355.58V161.276C1355.58 160.887 1355.27 160.574 1354.88 160.574H1339.36C1338.97 160.574 1338.66 160.887 1338.66 161.276V213.724H1322.68V171.026C1322.68 165.236 1318.02 160.574 1312.23 160.574H1307.74C1301.95 160.574 1297.3 165.236 1297.3 171.026V213.724H1223.97V116.499C1223.97 110.71 1219.3 106.048 1213.52 106.048H1188.35C1182.56 106.048 1177.9 110.71 1177.9 116.499V126.947H859.151C859.479 125.632 859.673 124.264 859.673 122.845C859.673 113.54 852.181 106.048 842.876 106.048H786.406C777.101 106.048 769.609 113.54 769.609 122.845C769.609 124.264 769.802 125.632 770.131 126.947H723.837V189.248H649.719C642.077 189.248 635.926 195.399 635.926 203.041V205.538C635.926 208.612 636.934 211.435 638.621 213.724H621.974V163.934C621.974 157.034 616.421 151.481 609.521 151.481C602.622 151.481 597.065 157.034 597.065 163.934V213.724H585.766V162.947C585.766 155.305 579.614 149.153 571.972 149.153C564.33 149.153 558.179 155.305 558.179 162.947V213.724H537.702V330.379H435.531V231.729C435.531 225.94 430.868 221.281 425.079 221.281H380.82V108.427C390.196 105.395 395.201 101.882 395.256 98.2916C395.255 93.9728 388.094 89.7824 374.947 86.4084C361.8 83.0345 343.449 80.6775 322.908 79.7244C322.467 69.8616 320.746 60.7867 318.068 54.2073C315.391 47.628 311.941 43.9978 308.369 44Z" fill="#AF82A9"/>
<path d="M1202.63 325.818C1206.18 325.827 1209.6 329.416 1212.27 335.919C1214.94 342.422 1216.67 351.398 1217.14 361.179C1240.16 361.616 1261.56 363.798 1277.14 367.299C1292.73 370.801 1301.39 375.369 1301.42 380.109C1301.36 383.689 1296.39 387.193 1287.07 390.219V492.883H1331.5V454.724C1331.5 448.934 1336.16 444.272 1341.95 444.272H1515.65C1521.44 444.272 1526.1 448.934 1526.1 454.724V492.883H1553V686.994V984.805V1157.65L-18.75 1160.31L-10.5497 942.261V495.542H44.9246V443.093C44.9246 442.705 45.2372 442.392 45.626 442.392H44.9246L64.3696 387.865H114.225L138.495 442.392H137.794C138.182 442.392 138.495 442.705 138.495 443.093V495.542H155.417V443.093C155.417 442.705 155.73 442.392 156.119 442.392H171.638C172.027 442.392 172.339 442.705 172.339 443.093V495.542H188.321V452.843C188.321 447.054 192.983 442.392 198.773 442.392H203.257C209.046 442.392 213.705 447.054 213.705 452.843V495.542H287.033V398.317C287.033 392.527 291.695 387.865 297.485 387.865H322.648C328.437 387.865 333.099 392.527 333.099 398.317V408.765H651.849C651.521 407.45 651.328 406.081 651.328 404.663C651.328 395.358 658.82 387.865 668.125 387.865H724.594C733.899 387.865 741.391 395.358 741.391 404.663C741.391 406.081 741.198 407.45 740.87 408.765H787.163V471.066H861.282C868.923 471.066 875.075 477.217 875.075 484.859V487.356C875.075 490.43 874.066 493.253 872.379 495.542H889.026V445.752C889.026 438.852 894.579 433.299 901.479 433.299C908.379 433.299 913.935 438.852 913.935 445.752V495.542H925.235V444.764C925.235 437.123 931.387 430.971 939.028 430.971C946.67 430.971 952.822 437.123 952.822 444.764V495.542H973.299V612.197H1075.47V513.547C1075.47 507.758 1080.13 503.099 1085.92 503.099H1130.18V390.245C1120.8 387.213 1115.8 383.699 1115.74 380.109C1115.75 375.791 1122.91 371.6 1136.05 368.226C1149.2 364.852 1167.55 362.495 1188.09 361.542C1188.53 351.679 1190.25 342.605 1192.93 336.025C1195.61 329.446 1199.06 325.816 1202.63 325.818Z" fill="#A775A0"/>
<path d="M1401.66 240.1H630.449C594.792 240.1 565.887 269.005 565.887 304.662V914.518C565.887 950.175 594.792 979.08 630.449 979.08H1401.66C1437.31 979.08 1466.22 950.175 1466.22 914.518V304.662C1466.22 269.005 1437.31 240.1 1401.66 240.1Z" fill="#C895C2"/>
</g>
</svg>
