<svg width="1722" height="788" viewBox="0 0 1722 788" fill="none" xmlns="http://www.w3.org/2000/svg">
<g clip-path="url(#clip0_65_2)">
<path d="M-0.816162 -685L226.247 -429.632C226.247 -429.632 520.742 -552.675 602.684 -470.5C717.98 -354.876 2204.76 -204.949 2341.68 -113.359C2604.84 62.6692 1795.95 519.091 2112.52 570.5C2384.95 614.741 2112.52 805.989 2112.52 805.989L2112.02 2195.65L2111.73 2867.87L2125.83 4621.78L6.82724 4610.6L-24.4908 2764.45L-24.02 1537.03L-23.7412 810.008L-9.58192 -113.359L-0.816162 -685Z" fill="#A1D4F2"/>
<g opacity="0.3">
<path d="M1023.17 -258.045C1023.98 -259.982 1024.64 -259.922 1026.46 -259.234C1026.87 -259.075 1027.35 -258.896 1027.93 -258.724C1035.91 -256.34 1045.14 -253.231 1054.07 -250.226C1056.41 -249.44 1058.71 -248.665 1060.94 -247.921C1072.16 -244.176 1104.77 -232.488 1115.47 -228.384C1117.85 -227.468 1119 -227.15 1119.68 -226.959C1120.01 -226.871 1120.25 -226.796 1120.47 -226.712C1121.05 -226.488 1121.4 -226.192 1122.47 -225.288C1123.01 -224.832 1123.76 -224.201 1124.84 -223.32C1126.08 -222.315 1126.41 -220.83 1126.01 -220.028C1125.71 -219.44 1125.28 -219.15 1124.68 -219.142C1123.79 -219.129 1122.83 -219.728 1121.81 -220.361C1121.1 -220.803 1120.37 -221.26 1119.68 -221.486C1112.26 -223.923 1103.04 -227.412 1094.12 -230.788C1087.86 -233.158 1081.95 -235.395 1076.85 -237.203C1062.82 -242.174 1049.35 -247.128 1036.83 -251.925L1036.69 -251.978C1036.47 -252.071 1036.24 -252.157 1036.1 -252.152C1036.01 -252.15 1035.95 -252.123 1035.92 -252.064C1035.82 -251.871 1035.98 -251.409 1036.3 -250.96C1042.05 -243.084 1048.32 -235.141 1054.39 -227.461C1065.37 -213.552 1076.73 -199.171 1085.38 -184.63L1085.45 -184.509L1083.46 -178.722C1083.08 -178.449 1082.54 -178.143 1081.74 -178.217C1080.08 -178.37 1078.44 -181.389 1076.31 -185.639C1075.76 -186.742 1075.29 -187.693 1074.99 -188.129L1074.39 -189.022C1066.11 -201.334 1058.3 -212.963 1048.8 -224.838C1046.62 -227.561 1044.42 -230.279 1042.21 -232.998C1039.75 -236.035 1037.2 -239.178 1034.74 -242.275C1032.23 -245.424 1029.78 -248.587 1027.72 -251.266C1027.34 -251.761 1026.76 -252.354 1026.14 -252.981C1024.46 -254.678 1022.56 -256.603 1023.17 -258.045ZM1265.5 -108.967C1265.82 -108.869 1266.11 -108.784 1266.34 -108.708C1268.49 -108.02 1273.11 -106.98 1276.83 -107.456C1279.37 -107.781 1281.5 -108.426 1283.17 -109.37C1286.78 -111.42 1288.71 -113.367 1290.96 -115.619C1291.79 -116.458 1292.65 -117.323 1293.66 -118.259C1298.07 -122.348 1330.43 -148.764 1336.88 -153.799C1337.33 -154.147 1337.71 -154.438 1338.03 -154.686C1340.03 -156.21 1340.11 -156.27 1341.24 -158.929C1341.43 -159.392 1341.58 -159.95 1341.13 -160.574C1340.78 -161.082 1340.12 -161.53 1339.26 -161.863C1339.1 -161.926 1338.93 -161.984 1338.75 -162.039C1337.26 -162.498 1335.72 -162.507 1335.02 -162.06C1318.06 -151.146 1304.74 -139.858 1291.86 -128.939C1290.1 -127.451 1288.48 -125.822 1286.91 -124.249C1284.05 -121.377 1281.09 -118.412 1277.22 -116.191C1276.8 -115.95 1276.35 -115.645 1275.87 -115.323C1274.32 -114.274 1272.38 -112.967 1270.24 -113.105C1269.4 -113.161 1268.24 -113.387 1267.02 -113.628C1264.34 -114.154 1261.3 -114.752 1259.76 -113.909C1258.81 -113.39 1258.52 -112.794 1258.88 -112.14C1259.67 -110.74 1263.18 -109.673 1265.5 -108.967ZM1138.44 -80.3196C1139.55 -79.2833 1141.02 -78.4804 1142.32 -77.7706C1150.93 -73.0841 1159.84 -68.2374 1169.18 -64.5937C1174.41 -62.5514 1179.82 -60.8814 1185.03 -59.272C1186.34 -58.8674 1187.74 -58.4889 1189.09 -58.1239C1191.82 -57.3885 1194.63 -56.6314 1197.11 -55.5611C1199.94 -54.34 1200.77 -52.7557 1201.83 -50.7484C1202.15 -50.1401 1202.48 -49.5113 1202.89 -48.8522C1206.55 -42.9493 1211.25 -36.6731 1216.85 -30.2018C1220.09 -26.451 1223.59 -22.4945 1227.57 -18.9886C1227.82 -18.7678 1228.19 -18.4192 1228.64 -17.9933C1232.26 -14.5998 1235.96 -11.3044 1237.85 -11.542C1238.59 -11.636 1239.03 -11.9572 1239.14 -12.5011C1239.72 -15.2648 1231.28 -23.4133 1226.75 -27.7903C1225.73 -28.7658 1224.93 -29.5377 1224.65 -29.8563C1217.01 -38.4746 1211.63 -46.123 1208.21 -53.2343C1206.69 -56.4168 1207.6 -57.2522 1209.6 -59.0761C1209.85 -59.3028 1210.11 -59.542 1210.38 -59.8025C1212.8 -62.0953 1215.28 -64.4026 1217.77 -66.6579C1220.49 -69.1371 1223.3 -71.6278 1226.09 -74.0575C1226.3 -74.2391 1226.7 -74.5229 1227.21 -74.8827C1229.9 -76.7636 1232.47 -78.7321 1231.95 -80.2846C1231.83 -80.6497 1231.53 -80.9902 1231.1 -81.2632C1228.9 -82.6368 1227.15 -83.6976 1225.65 -84.2787C1224.89 -84.5699 1224.2 -84.7392 1223.55 -84.7696C1222.02 -84.8388 1220.8 -84.1698 1219.35 -82.4619C1215.53 -77.976 1211.36 -73.6074 1206.94 -69.4807C1204.79 -67.4706 1202.54 -65.4822 1200.27 -63.5715C1197.77 -61.4774 1196.76 -60.8688 1192 -62.0428C1176.11 -65.9672 1160.29 -72.7159 1146.23 -81.5599L1146.04 -81.6822C1144.67 -82.5443 1143.25 -83.4348 1141.66 -83.9729C1140.04 -84.5182 1137.96 -84.6471 1137.23 -83.6383C1136.58 -82.7303 1137.37 -81.3165 1138.44 -80.3196Z" fill="url(#paint0_linear_65_2)"/>
<path d="M1269.98 -148.274L1301.19 -156.641L1280.6 -124.89C1280.51 -124.747 1280.64 -124.524 1280.89 -124.393C1281.15 -124.258 1281.42 -124.272 1281.51 -124.414L1302.66 -157.036L1315.61 -160.507L1316.91 -128.893C1316.92 -128.713 1317.14 -128.506 1317.41 -128.441C1317.67 -128.374 1317.89 -128.464 1317.88 -128.648L1316.55 -160.762L1330.12 -164.399L1325.82 -133.869C1325.8 -133.698 1325.98 -133.49 1326.26 -133.395C1326.53 -133.305 1326.76 -133.374 1326.79 -133.545L1331.06 -163.903L1346.41 -143.597C1346.55 -143.406 1346.85 -143.278 1347.08 -143.315C1347.31 -143.35 1347.37 -143.535 1347.23 -143.724L1331.55 -164.469L1335.68 -163.59C1335.23 -162.603 1334.97 -162.024 1334.95 -161.97C1334.88 -161.816 1335.03 -161.595 1335.29 -161.478C1335.55 -161.367 1335.81 -161.392 1335.88 -161.546C1335.97 -161.75 1336.26 -162.385 1336.71 -163.371L1364.32 -157.492C1364.59 -157.433 1364.78 -157.539 1364.76 -157.724C1364.74 -157.909 1364.5 -158.108 1364.23 -158.164L1336.97 -163.967C1337.23 -164.529 1337.52 -165.179 1337.85 -165.903L1378.38 -173.412C1378.6 -173.453 1378.66 -173.641 1378.51 -173.83C1378.43 -173.928 1378.32 -174.006 1378.19 -174.055C1378.07 -174.101 1377.94 -174.119 1377.84 -174.099L1338.24 -166.762C1338.32 -166.941 1338.4 -167.122 1338.48 -167.307C1345.87 -169.954 1356.61 -173.81 1366.38 -177.343L1382.48 -177.372C1382.73 -177.374 1382.85 -177.531 1382.75 -177.724C1382.68 -177.851 1382.54 -177.963 1382.38 -178.024C1382.29 -178.057 1382.2 -178.077 1382.12 -178.076L1368.33 -178.05C1379.94 -182.256 1389.69 -185.841 1389.96 -186.112C1390.09 -186.237 1390.01 -186.466 1389.77 -186.617C1389.72 -186.647 1389.67 -186.675 1389.62 -186.695C1389.42 -186.769 1389.23 -186.765 1389.13 -186.667C1388.62 -186.335 1378.38 -182.581 1365.84 -178.044L1343.3 -178.004C1343.3 -178.024 1343.31 -178.043 1343.32 -178.062L1357.5 -193.6L1387.98 -205.511C1388.17 -205.585 1388.17 -205.79 1387.98 -205.969C1387.91 -206.041 1387.82 -206.097 1387.72 -206.133C1387.57 -206.191 1387.41 -206.205 1387.3 -206.161L1358.79 -195.023L1375.43 -213.254C1375.54 -213.385 1375.45 -213.606 1375.2 -213.751C1375.16 -213.778 1375.12 -213.801 1375.07 -213.817C1374.87 -213.898 1374.65 -213.885 1374.56 -213.78L1356.7 -194.205L1349.28 -191.303C1354.74 -203.465 1359.81 -214.797 1359.91 -215.157C1359.95 -215.321 1359.78 -215.533 1359.52 -215.636C1359.51 -215.637 1359.51 -215.637 1359.51 -215.637C1359.25 -215.738 1359 -215.687 1358.95 -215.528C1358.83 -215.102 1353.51 -203.228 1347.91 -190.771L1317.3 -178.809L1351.7 -212.916C1351.83 -213.041 1351.73 -213.263 1351.5 -213.412C1351.26 -213.564 1350.97 -213.579 1350.85 -213.455L1316.96 -179.856L1330.37 -209.78C1330.44 -209.934 1330.28 -210.156 1330.03 -210.271C1330.01 -210.279 1329.99 -210.285 1329.98 -210.291C1329.74 -210.385 1329.5 -210.349 1329.43 -210.205L1315.63 -179.415C1314.98 -184.761 1313.2 -199.367 1313.03 -200.131C1313 -200.283 1312.84 -200.434 1312.63 -200.512C1312.58 -200.531 1312.53 -200.545 1312.48 -200.554C1312.21 -200.6 1312.03 -200.482 1312.07 -200.293C1312.25 -199.497 1314.33 -182.421 1314.8 -178.508L1297.47 -192.915C1297.27 -193.085 1296.97 -193.151 1296.79 -193.057C1296.62 -192.966 1296.65 -192.754 1296.86 -192.582L1314.44 -177.969L1281.05 -178.587C1280.8 -178.59 1280.67 -178.438 1280.77 -178.244C1280.86 -178.05 1281.14 -177.888 1281.39 -177.883L1314.35 -177.273L1313.47 -176.396L1314.17 -176.672L1301.84 -157.653L1269.37 -148.945C1269.16 -148.891 1269.13 -148.694 1269.3 -148.507C1269.46 -148.323 1269.77 -148.218 1269.98 -148.274ZM1315.9 -177.254L1341.28 -177.3L1330.65 -165.652L1330.36 -166.047L1330.25 -165.283L1328.9 -165.033L1329.16 -164.977L1316.52 -161.589L1315.88 -177.248L1315.9 -177.246L1315.9 -177.254ZM1341.1 -175.626C1339.78 -172.704 1338.59 -170.06 1337.62 -167.892C1335.76 -167.23 1333.99 -166.592 1332.31 -165.994L1341.1 -175.626ZM1335.95 -164.186L1332.52 -164.917L1336.62 -165.675C1336.37 -165.122 1336.14 -164.628 1335.95 -164.186ZM1337 -166.536L1335.59 -166.272C1336.08 -166.449 1336.6 -166.635 1337.14 -166.828C1337.09 -166.73 1337.05 -166.632 1337 -166.536ZM1363.88 -177.34C1355.71 -174.385 1346.75 -171.166 1338.96 -168.375C1340.1 -170.9 1341.48 -173.961 1342.98 -177.301L1363.88 -177.34ZM1355.4 -192.785L1344.63 -180.978C1345.98 -183.975 1347.39 -187.102 1348.77 -190.196L1355.4 -192.785ZM1342.41 -178.541L1341.92 -178.004L1317.46 -177.958L1347.41 -189.661C1345.71 -185.877 1344 -182.072 1342.41 -178.541ZM1314.97 -176.028L1315.57 -161.334L1303.31 -158.048L1314.97 -176.028ZM931.351 -282.962L973.675 -269.545C952.14 -269.399 929.442 -269.278 928.353 -269.392C928.097 -269.43 927.924 -269.312 927.965 -269.127C928.004 -268.938 928.252 -268.75 928.517 -268.704C929.361 -268.563 955.567 -268.715 975.854 -268.854L988.965 -264.698L934.623 -250.395C934.414 -250.338 934.379 -250.144 934.545 -249.958C934.711 -249.772 935.014 -249.666 935.226 -249.719L990.401 -264.242L999.432 -261.381L989.508 -248.742L940.563 -240.857C940.338 -240.822 940.274 -240.637 940.42 -240.445C940.564 -240.256 940.865 -240.131 941.087 -240.167L988.812 -247.854L967.548 -220.763C967.439 -220.627 967.552 -220.405 967.8 -220.267C968.044 -220.13 968.327 -220.126 968.435 -220.26L990.28 -248.092L1002.87 -250.12C1003.78 -242.844 1004.73 -235.196 1005.57 -228.35C999.626 -218.359 994.333 -209.556 993.799 -208.952C993.685 -208.82 993.787 -208.598 994.029 -208.455C994.275 -208.31 994.56 -208.301 994.674 -208.431C995.204 -209.034 1000.11 -217.187 1005.78 -226.691C1007.17 -215.37 1008.21 -206.609 1008.17 -206.085C1008.14 -205.921 1008.31 -205.713 1008.57 -205.615C1008.83 -205.513 1009.08 -205.565 1009.13 -205.73C1009.22 -206.059 1008.02 -216.086 1006.56 -227.997C1012.04 -237.203 1018.06 -247.388 1021.44 -253.111L1023.84 -253.496L1031.54 -203.401C1031.57 -203.216 1031.81 -203.025 1032.08 -202.968C1032.34 -202.915 1032.54 -203.022 1032.51 -203.209L1024.75 -253.642L1027.32 -254.058C1027.54 -254.092 1027.61 -254.277 1027.46 -254.467C1027.38 -254.569 1027.26 -254.651 1027.13 -254.701C1027.02 -254.746 1026.9 -254.763 1026.79 -254.747L1024.63 -254.4L1024.14 -257.583C1024.26 -257.634 1024.39 -257.689 1024.53 -257.748L1079.76 -215.854C1079.97 -215.69 1080.28 -215.639 1080.43 -215.744C1080.59 -215.846 1080.54 -216.062 1080.32 -216.226L1025.21 -258.036C1028.15 -259.279 1034.4 -261.923 1041.8 -265.061C1067.68 -263.813 1095.99 -262.521 1096.64 -262.807C1096.82 -262.887 1096.84 -263.105 1096.64 -263.281C1096.45 -263.458 1096.17 -263.544 1095.99 -263.463C1094.82 -263.275 1069.3 -264.431 1043.27 -265.68C1061.08 -273.238 1084.51 -283.22 1084.91 -283.624C1085.04 -283.749 1084.96 -283.977 1084.72 -284.125C1084.49 -284.274 1084.2 -284.3 1084.07 -284.175C1083.37 -283.679 1061.07 -274.17 1041.28 -265.776C1036.74 -265.995 1032.2 -266.215 1027.79 -266.432L1032.65 -278.054L1071.19 -294.155C1071.37 -294.232 1071.37 -294.44 1071.17 -294.618C1071.1 -294.686 1071.01 -294.739 1070.92 -294.776C1070.77 -294.834 1070.61 -294.849 1070.49 -294.798L1033.12 -279.186L1045.07 -307.764C1045.13 -307.921 1044.98 -308.141 1044.72 -308.256C1044.7 -308.261 1044.69 -308.266 1044.68 -308.271C1044.43 -308.367 1044.19 -308.329 1044.13 -308.18L1031.77 -278.623L1020.96 -274.107L1032.69 -311.45C1032.74 -311.611 1032.57 -311.831 1032.3 -311.937C1032.3 -311.938 1032.3 -311.94 1032.29 -311.941C1032.03 -312.042 1031.78 -311.995 1031.73 -311.834L1019.73 -273.591L1015.79 -271.946L1006.36 -283.652L1021.09 -314.785C1021.17 -314.939 1021.02 -315.159 1020.76 -315.28C1020.74 -315.286 1020.73 -315.294 1020.71 -315.302C1020.47 -315.395 1020.23 -315.36 1020.16 -315.217L1005.64 -284.543L981.601 -314.391C981.526 -314.488 981.407 -314.566 981.286 -314.612C981.165 -314.659 981.037 -314.677 980.927 -314.656C980.71 -314.614 980.653 -314.426 980.807 -314.236L1005.3 -283.822L999.48 -271.522C999.409 -271.369 999.555 -271.148 999.814 -271.027C1000.07 -270.913 1000.34 -270.938 1000.41 -271.09L1006.02 -282.933L1015.1 -271.658L1003.8 -266.936L1005.68 -266.84C1007.72 -266.738 1010.21 -266.614 1013.03 -266.474L1016.63 -263.741L1016.09 -262.001C1016.03 -261.838 1016.21 -261.62 1016.47 -261.515C1016.48 -261.512 1016.48 -261.511 1016.48 -261.51C1016.74 -261.41 1016.99 -261.457 1017.04 -261.618L1017.5 -263.085L1023.4 -258.606L1023.17 -258.056C1023.09 -257.915 1022.14 -256.309 1020.63 -253.754L1003.69 -251.026C1003.25 -254.54 1002.85 -257.749 1002.51 -260.402L1003.58 -260.065C1003.84 -259.98 1004.08 -260.053 1004.09 -260.227C1004.11 -260.392 1003.93 -260.587 1003.69 -260.681C1003.67 -260.687 1003.66 -260.691 1003.64 -260.697L1002.43 -261.081C1002.33 -261.849 1002.24 -262.564 1002.16 -263.221L1002.83 -264.079C1002.93 -264.215 1002.83 -264.437 1002.58 -264.576C1002.54 -264.597 1002.5 -264.616 1002.47 -264.63C1002.27 -264.704 1002.08 -264.694 1001.98 -264.611C1001.84 -265.751 1001.72 -266.632 1001.65 -267.204L1002.2 -267.348L998.489 -269.019C998.55 -269.02 998.619 -269.021 998.673 -269.021L999.128 -269.025L998.929 -269.384C997.973 -271.101 975.471 -311.443 974.115 -313.095C974.036 -313.189 973.923 -313.264 973.799 -313.312C973.679 -313.358 973.547 -313.378 973.437 -313.357C973.22 -313.312 973.169 -313.122 973.323 -312.934C974.356 -311.675 989.693 -284.332 997.842 -269.721C997.55 -269.718 997.247 -269.716 996.948 -269.714L990.518 -272.608L957.144 -306.548C957.068 -306.625 956.969 -306.686 956.868 -306.725C956.727 -306.779 956.574 -306.796 956.459 -306.757C956.261 -306.691 956.246 -306.489 956.427 -306.307L988.803 -273.379L939.625 -295.507C939.609 -295.514 939.596 -295.521 939.58 -295.527C939.336 -295.621 939.095 -295.584 939.034 -295.436C938.967 -295.281 939.12 -295.062 939.377 -294.945L989.99 -272.171L992.441 -269.68C987.31 -269.64 981.571 -269.598 975.688 -269.559L931.413 -283.594C931.145 -283.68 930.913 -283.607 930.897 -283.43C930.883 -283.256 931.088 -283.041 931.351 -282.962ZM1039.82 -265.157C1034.31 -262.821 1029.04 -260.59 1024.55 -258.694L1024.89 -259.503L1024.92 -259.467C1025.07 -259.278 1025.37 -259.158 1025.59 -259.2C1025.81 -259.243 1025.87 -259.432 1025.71 -259.62L1025.2 -260.255L1027.5 -265.756C1031.43 -265.564 1035.58 -265.362 1039.82 -265.157ZM1024.47 -261.165L1020.5 -266.102C1022.39 -266.009 1024.37 -265.911 1026.41 -265.809L1024.47 -261.165ZM1031.3 -277.49L1026.7 -266.485C1024.39 -266.598 1022.13 -266.708 1019.92 -266.817L1019.02 -267.931L1020.62 -273.032L1031.3 -277.49ZM1018.96 -266.866C1018.87 -266.871 1018.78 -266.875 1018.69 -266.878L1018.76 -267.11L1018.96 -266.866ZM1019.39 -272.516L1018.25 -268.888L1016.35 -271.247L1019.39 -272.516ZM1017.99 -268.067L1017.64 -266.932C1016.13 -267.006 1014.64 -267.079 1013.2 -267.151L1011.08 -268.762C1011.02 -268.807 1010.95 -268.845 1010.88 -268.873C1010.83 -268.892 1010.78 -268.893 1010.74 -268.901L1015.66 -270.959L1017.99 -268.067ZM1007.26 -267.448L1010.32 -268.727C1010.31 -268.621 1010.37 -268.495 1010.51 -268.389L1012.07 -267.208C1010.41 -267.292 1008.8 -267.371 1007.26 -267.448ZM1014.17 -266.416C1015.21 -266.364 1016.3 -266.31 1017.42 -266.253L1016.84 -264.388L1014.17 -266.416ZM1017.7 -263.731L1018.48 -266.202C1018.83 -266.185 1019.18 -266.167 1019.54 -266.15L1024.16 -260.414L1023.66 -259.217L1017.7 -263.731ZM1023.39 -256.412L1023.72 -254.253L1021.95 -253.966C1022.54 -254.964 1023.03 -255.794 1023.39 -256.412ZM1020.13 -252.897C1016.85 -247.35 1011.43 -238.188 1006.36 -229.657C1005.51 -236.514 1004.59 -243.858 1003.79 -250.266L1020.13 -252.897ZM1002.77 -250.878L990.976 -248.978L1000.46 -261.055L1001.53 -260.713C1001.93 -257.608 1002.34 -254.29 1002.77 -250.878ZM1001.45 -261.392L1000.87 -261.578L1001.35 -262.192C1001.38 -261.927 1001.42 -261.661 1001.45 -261.392ZM1001.17 -263.599L999.839 -261.903L991.525 -264.539L996.268 -265.787L998.083 -263.942C998.261 -263.76 998.567 -263.667 998.766 -263.735C998.966 -263.799 998.981 -264.001 998.8 -264.184L997.028 -265.988L1000.74 -266.965C1000.88 -265.888 1001.02 -264.764 1001.17 -263.599ZM1000.09 -267.625L996.378 -266.649L994.08 -268.986C995.231 -268.995 996.22 -269.003 997.021 -269.009L1000.09 -267.625ZM991.705 -271.4L995.479 -269.702C994.797 -269.697 994.097 -269.692 993.39 -269.688L991.705 -271.4ZM993.131 -268.978L995.618 -266.449L990.089 -264.994L977.867 -268.868C983.888 -268.91 989.264 -268.95 993.131 -268.978Z" fill="url(#paint1_linear_65_2)"/>
<path d="M1098.34 -108.043C1099.52 -109.139 1102.36 -109.048 1104.44 -108.406C1104.66 -108.338 1104.9 -108.255 1105.14 -108.164C1106.97 -107.463 1109.12 -106.184 1110.89 -105.13C1111.33 -104.867 1111.74 -104.622 1112.12 -104.4C1113.66 -103.512 1115.06 -102.702 1116.41 -101.923C1120.74 -99.431 1124.49 -97.2788 1129.89 -93.9497C1130.79 -93.3912 1131.74 -92.8515 1132.74 -92.2825C1136.14 -90.3374 1139.67 -88.3246 1141.55 -85.5288C1143.06 -83.281 1142.97 -81.0216 1141.33 -79.9022C1141.11 -79.7523 1140.79 -79.5848 1140.32 -79.614C1139.79 -79.6446 1139.26 -79.9103 1138.91 -80.0845L1138.62 -80.232C1128.95 -85.0644 1123.12 -87.9807 1113.91 -93.4462C1103.12 -99.8448 1097.56 -103.608 1097.37 -104.628C1097.3 -104.983 1097.03 -106.814 1098.34 -108.043ZM1235.09 -11.7533C1237.86 -8.94805 1240.33 -6.58336 1242.72 -4.29603C1245.09 -2.01647 1247.56 0.341691 1250.31 3.1346C1253.85 6.72079 1258.69 11.6336 1264.13 15.245L1265.21 15.7941L1265.24 15.8132C1267.3 16.7367 1270.87 17.2578 1272.39 16.5358C1273.87 15.8327 1274.88 14.0113 1274.04 12.4225C1273.24 10.9218 1269.57 7.46275 1269.15 7.07164C1265.92 4.0464 1263.26 1.62783 1260.68 -0.711617C1257.79 -3.33137 1255.06 -5.80645 1251.84 -8.86514C1251.46 -9.21932 1251.1 -9.57903 1250.74 -9.93749C1249.58 -11.087 1248.39 -12.2749 1246.84 -13.2598C1245.91 -13.8518 1244.9 -14.3539 1243.86 -14.7514C1241.36 -15.7069 1238.7 -16.0647 1236.61 -15.6522C1235.46 -15.4247 1234.81 -14.9958 1234.66 -14.3753C1234.62 -14.2352 1234.58 -14.1016 1234.55 -13.9748C1234.35 -13.3178 1234.16 -12.697 1235.09 -11.7533ZM1139.7 -77.8209C1139.41 -77.9778 1139.07 -78.1602 1138.69 -78.3635C1138 -78.7282 1137.32 -79.1396 1136.67 -79.539C1135.85 -80.0358 1135.01 -80.5512 1134.11 -80.9954C1133.68 -81.2102 1133.1 -81.4741 1132.49 -81.5901C1131.69 -81.7442 1131.02 -81.6088 1130.59 -81.2047C1130.05 -80.6939 1130.01 -79.8543 1130.5 -79.0664C1131.3 -77.7685 1133.01 -76.7068 1134.55 -75.8142C1135.82 -75.0752 1136.74 -74.5323 1137.5 -74.0809C1139.61 -72.8389 1140.57 -72.2723 1144.45 -70.2186L1148.34 -68.2245C1149.82 -67.4699 1150.99 -66.8736 1152.68 -66.1761C1153.86 -65.6907 1155.61 -65.0518 1157.08 -65.1617C1157.9 -65.2219 1158.55 -65.5874 1158.79 -66.1122C1158.99 -66.5427 1158.9 -67.0455 1158.53 -67.5277C1158.03 -68.182 1157.13 -68.6895 1156.48 -69.0569L1149.22 -73.1641C1149.06 -73.2542 1148.87 -73.3571 1148.79 -73.4471C1148.56 -73.6993 1148.91 -74.0215 1149.14 -74.1943C1150.69 -75.3556 1152.07 -76.6541 1153.24 -78.0587C1153.68 -78.5781 1154.05 -79.2134 1153.54 -80.0027C1153.19 -80.5473 1152.52 -80.9743 1151.82 -81.2439C1151.39 -81.4082 1150.94 -81.5141 1150.56 -81.5494C1149.53 -81.6447 1148.72 -81.38 1148.06 -81.1058C1146.78 -80.5746 1145.94 -79.8023 1145.33 -79.2386C1145.19 -79.112 1145.07 -78.9937 1144.95 -78.8882C1144.14 -78.1918 1143.38 -77.6572 1142.91 -77.4661L1142.54 -77.3093C1141.48 -76.8609 1141.48 -76.8629 1139.7 -77.8209Z" fill="url(#paint2_linear_65_2)"/>
<path d="M1120.13 -90.8729C1118.98 -94.3627 1120.72 -96.9833 1124.57 -97.5496C1124.67 -97.5633 1124.79 -97.5471 1124.91 -97.5029C1125.04 -97.4513 1125.16 -97.3661 1125.24 -97.2621C1125.38 -97.0727 1125.31 -96.891 1125.08 -96.8575C1121.6 -96.3447 1120.02 -93.9553 1121.07 -90.7688C1121.13 -90.5773 1120.97 -90.4444 1120.72 -90.4723C1120.46 -90.5001 1120.19 -90.6793 1120.13 -90.8729ZM1115.64 -93.1745C1115.9 -93.1339 1116.08 -93.2551 1116.03 -93.4457C1115.36 -96.1688 1116.59 -99.2421 1120.19 -99.5723C1120.42 -99.5938 1120.51 -99.768 1120.38 -99.9618C1120.31 -100.074 1120.18 -100.167 1120.04 -100.221C1119.93 -100.262 1119.82 -100.281 1119.72 -100.273C1115.73 -99.9047 1114.35 -96.5555 1115.07 -93.5933C1115.12 -93.4007 1115.37 -93.2143 1115.64 -93.1745ZM1111.2 -96.1381C1111.47 -96.111 1111.62 -96.2451 1111.56 -96.4367C1110.63 -99.1951 1112.32 -101.666 1115.49 -102.191C1115.71 -102.229 1115.78 -102.412 1115.63 -102.604C1115.55 -102.703 1115.44 -102.785 1115.31 -102.834C1115.19 -102.88 1115.07 -102.897 1114.96 -102.881C1111.46 -102.303 1109.59 -99.575 1110.62 -96.5354C1110.68 -96.3439 1110.95 -96.168 1111.2 -96.1381ZM1106.57 -99.1176C1106.83 -99.0548 1107.04 -99.1545 1107.02 -99.3399C1106.81 -101.657 1108.11 -104.209 1111.47 -104.682C1111.7 -104.716 1111.77 -104.896 1111.63 -105.088C1111.55 -105.192 1111.43 -105.277 1111.3 -105.329C1111.18 -105.371 1111.07 -105.39 1110.96 -105.376C1107.26 -104.855 1105.83 -102.08 1106.05 -99.5642C1106.07 -99.3801 1106.3 -99.1817 1106.57 -99.1176ZM1101.71 -102.076C1101.73 -101.894 1101.96 -101.694 1102.23 -101.634C1102.5 -101.573 1102.7 -101.673 1102.68 -101.858C1102.44 -104.295 1103.45 -107.212 1107.06 -107.413C1107.31 -107.426 1107.41 -107.595 1107.29 -107.789C1107.22 -107.907 1107.08 -108.007 1106.93 -108.064C1106.84 -108.101 1106.73 -108.121 1106.64 -108.115C1102.59 -107.886 1101.44 -104.845 1101.71 -102.076ZM1248.27 1.49923C1250.31 2.42226 1252.57 2.79422 1254.63 2.5464C1257.12 2.24607 1259.08 1.0823 1259.75 -0.494153C1259.82 -0.648812 1259.66 -0.869528 1259.4 -0.985934C1259.39 -0.990973 1259.38 -0.99601 1259.36 -1.00105C1259.12 -1.0956 1258.88 -1.05979 1258.81 -0.911253C1258.2 0.518715 1256.41 1.57633 1254.14 1.84962C1252.84 2.00641 1250.81 1.97756 1248.52 0.938604C1248.26 0.822197 1248 0.853254 1247.93 1.00791C1247.86 1.16131 1248.02 1.38409 1248.27 1.49923ZM1252.04 4.60066C1251.77 4.51617 1251.54 4.58894 1251.52 4.76125C1251.5 4.93482 1251.7 5.14614 1251.96 5.23142C1256.78 6.78705 1262.43 5.22143 1262.78 2.24128C1262.8 2.07715 1262.62 1.87999 1262.37 1.78545C1262.36 1.77915 1262.35 1.77412 1262.33 1.76986C1262.06 1.68333 1261.83 1.75278 1261.81 1.92839C1261.51 4.55449 1256.3 5.98101 1252.04 4.60066ZM1255.03 7.53984C1254.99 7.52472 1254.96 7.51008 1254.9 7.48865C1254.64 7.3878 1254.39 7.43665 1254.35 7.60091C1254.3 7.76518 1254.47 7.98071 1254.73 8.08486C1254.78 8.10251 1254.83 8.12017 1254.87 8.13781C1260.51 10.3172 1264.76 8.50503 1266.06 5.56434C1266.13 5.40763 1265.98 5.18819 1265.72 5.06973C1265.7 5.06469 1265.69 5.05837 1265.68 5.05334C1265.43 4.9588 1265.19 4.99461 1265.13 5.1411C1263.94 7.82638 1260.1 9.49992 1255.03 7.53984ZM1258.69 10.8935C1258.42 10.8131 1258.2 10.8892 1258.18 11.0653C1258.17 11.2401 1258.37 11.4527 1258.64 11.5311C1263.81 13.1147 1268.21 11.7776 1269.35 8.27971C1269.4 8.1167 1269.23 7.89834 1268.97 7.7901C1268.96 7.78884 1268.96 7.78632 1268.95 7.78379C1268.7 7.68547 1268.45 7.73229 1268.4 7.88994C1267.36 11.0937 1263.36 12.3274 1258.69 10.8935ZM1262.41 14.2916C1262.37 14.4576 1262.54 14.649 1262.82 14.7717C1264.77 15.4997 1267.16 15.6008 1269.05 15.0367C1271.09 14.4321 1272.27 13.1474 1272.31 11.5137C1272.32 11.3527 1272.14 11.1683 1271.91 11.0788C1271.89 11.0687 1271.86 11.0619 1271.84 11.0551C1271.57 10.9788 1271.35 11.0607 1271.35 11.2393C1271.31 12.687 1270.25 13.8283 1268.43 14.3701C1266.74 14.8732 1264.65 14.7954 1262.96 14.1687C1262.69 14.0674 1262.45 14.1236 1262.41 14.2916Z" fill="url(#paint3_linear_65_2)"/>
<path d="M913.739 -269.421C914.211 -271.925 918.537 -271.275 920.759 -270.581C924.393 -269.447 925.009 -266.59 925.465 -264.496C925.572 -263.997 925.675 -263.526 925.805 -263.112C929.569 -251.08 934.394 -240.85 945.717 -230.016C957.198 -219.031 971.527 -210.641 986.06 -206.393C1006.11 -200.532 1026.98 -198.725 1046.4 -201.172C1063.82 -203.365 1077.48 -209.037 1085.89 -217.572L1086.11 -217.793L1086.53 -217.54C1086.66 -217.46 1099.34 -209.707 1097.32 -207.427C1085.76 -194.399 1059.35 -188.217 1026.67 -190.896C997.763 -193.262 969.37 -203.232 946.721 -218.967C937.412 -225.433 929.999 -232.445 925.287 -239.241C921.157 -245.194 919.29 -249.465 917.59 -253.675C916.732 -255.798 916.093 -258.412 915.526 -260.72C915.296 -261.671 915.071 -262.588 914.843 -263.428L914.741 -263.797C914.315 -265.356 913.518 -268.254 913.739 -269.421ZM1250.47 -127.082C1250.64 -126.895 1250.94 -126.784 1251.15 -126.835C1251.37 -126.885 1251.41 -127.079 1251.25 -127.266C1251.12 -127.409 1251.02 -127.558 1250.9 -127.706L1251.36 -134.058C1251.53 -134.008 1251.69 -134.014 1251.79 -134.091L1257.45 -138.712C1258.59 -139.643 1259.77 -140.606 1260.31 -141.931C1260.72 -142.922 1260.73 -144.062 1260.74 -145.161C1260.75 -145.687 1260.76 -146.233 1260.81 -146.749C1261.03 -149.003 1262.1 -150.969 1263.15 -152.871L1273.45 -171.645C1275.78 -175.896 1278.19 -180.293 1282.19 -183.667L1282.45 -183.888L1282.01 -184.17C1279.16 -185.997 1276.18 -187.719 1273.12 -189.287C1272.8 -189.454 1272.45 -189.627 1272.09 -189.767C1271.69 -189.921 1271.28 -190.033 1270.87 -190.049C1269.89 -190.085 1269.42 -189.55 1269.07 -189.046C1263.13 -180.549 1257.79 -171.581 1253.21 -162.395C1251.22 -158.415 1248.59 -152.333 1247.31 -145.957C1245.66 -137.767 1246.73 -131.417 1250.47 -127.082Z" fill="url(#paint4_linear_65_2)"/>
<path d="M1066.93 -136.103C1067.01 -135.939 1066.93 -135.807 1066.75 -135.773C1066.68 -135.628 1066.56 -135.504 1066.41 -135.413C1065.89 -135.106 1064.99 -135.099 1063.94 -135.396C1062.06 -135.921 1060.17 -137.24 1058.99 -138.836C1057.95 -140.239 1057.51 -141.685 1057.13 -142.961C1057 -143.378 1056.62 -144.648 1057.8 -144.862C1057.95 -144.887 1058.15 -145.105 1058.3 -145.261C1058.56 -145.549 1058.81 -145.821 1059.27 -145.797C1059.39 -145.791 1059.52 -145.763 1059.65 -145.715C1059.74 -145.682 1059.82 -145.639 1059.9 -145.59C1063.16 -143.603 1065.21 -139.612 1066.59 -136.787C1066.67 -136.669 1066.73 -136.548 1066.77 -136.424C1066.78 -136.41 1066.79 -136.396 1066.79 -136.381L1066.93 -136.103ZM1049.17 -148.911C1048.73 -149.881 1048.46 -150.33 1047.98 -150.512C1047.97 -150.518 1047.95 -150.524 1047.93 -150.529C1043.59 -151.982 1041.08 -152.535 1036.65 -153.47C1035.81 -153.647 1034.94 -153.51 1034.48 -153.131C1034.11 -152.835 1034.04 -152.43 1034.27 -151.99C1034.51 -151.544 1035.02 -151.174 1035.48 -150.87C1036.61 -150.128 1037.84 -149.497 1039.12 -148.995C1039.12 -148.994 1039.13 -148.992 1039.13 -148.992C1039.38 -148.896 1039.61 -148.94 1039.68 -149.083L1039.95 -148.964C1039.95 -148.948 1039.94 -148.935 1039.93 -148.918C1039.91 -148.747 1040.12 -148.528 1040.38 -148.45C1042.91 -147.624 1045.45 -147.245 1047.75 -147.352C1048.85 -147.402 1049.75 -147.824 1049.29 -148.646C1049.27 -148.697 1049.22 -148.792 1049.17 -148.911ZM1012.34 -254.861C1012.23 -254.874 1012.12 -254.857 1012.04 -254.808C1011.9 -254.702 1011.95 -254.488 1012.17 -254.326C1016.79 -250.975 1023.84 -249.649 1027.56 -251.43C1028.91 -252.081 1029.93 -253.111 1030.59 -254.491C1031.7 -256.852 1030.83 -259.486 1028.13 -261.911C1026.52 -263.358 1024.4 -264.591 1022.15 -265.452C1020.22 -266.19 1018.2 -266.655 1016.32 -266.749C1012.44 -266.942 1009.89 -265.57 1009.14 -262.883C1008.52 -260.625 1009.73 -257.634 1012.34 -254.861ZM930.426 -295.703C935.806 -302.118 943.952 -307.665 955.33 -312.66C977.697 -322.482 1009.44 -323.094 1038.18 -314.253C1040.74 -313.466 1043.29 -312.582 1045.83 -311.614C1057.01 -307.336 1067.78 -301.362 1076.78 -294.4C1091.76 -282.813 1100.42 -272.181 1104.03 -260.944C1108.96 -245.659 1107.29 -231.659 1099.46 -222.528C1077.58 -197.015 1034.29 -197.998 1010.43 -200.856C986.493 -203.721 967.048 -211.411 949.241 -225.056C928.23 -241.152 921.613 -261.477 921.701 -268.799C921.835 -280.221 924.607 -288.768 930.426 -295.703ZM933.165 -267.463C933.418 -257.324 939.861 -241.97 957.196 -229.278C965.043 -223.535 974.121 -218.685 983.716 -215.014C992.462 -211.667 1001.64 -209.301 1010.7 -208.127C1035.1 -204.969 1077.72 -210.81 1088.97 -227.154C1095.4 -236.503 1096.86 -248.782 1092.98 -260.847C1089.82 -270.65 1082.25 -279.937 1069.16 -290.068C1059.52 -297.526 1047.54 -303.688 1035.44 -307.407C1010.24 -315.162 982.375 -314.62 962.73 -305.992C952.716 -301.593 945.547 -296.717 940.819 -291.079C935.435 -284.663 932.93 -276.937 933.165 -267.463ZM1254.94 -138.646C1254.11 -145.89 1256.02 -152.865 1260.95 -160.598C1263.09 -163.939 1271.59 -175.889 1273.56 -178.487C1278.22 -184.631 1295.68 -200.736 1311.1 -208.336C1328.79 -217.058 1348.99 -224.495 1376.82 -219.896C1377.93 -219.711 1381.69 -219.012 1386.06 -217.337C1389.4 -216.058 1393.11 -214.212 1396.29 -211.592C1401.13 -207.604 1403.67 -202.708 1403.82 -197.042C1404.15 -185.388 1399.69 -174.709 1389.8 -163.429C1366.62 -137.014 1337.85 -125.776 1322.76 -121.426C1314.34 -119 1306.99 -117.529 1299.63 -116.799C1290.93 -115.938 1282.68 -117.38 1272.02 -121.632L1271.57 -121.81C1267.11 -123.584 1262.51 -125.421 1259.04 -128.422C1255.68 -131.337 1255.34 -134.676 1255.05 -137.621C1255.01 -137.969 1254.98 -138.31 1254.94 -138.646ZM1262.57 -137.689C1263.16 -135.646 1264.83 -133.521 1267.17 -131.861C1268.53 -130.888 1270.15 -130.091 1271.85 -129.442C1276.74 -127.57 1282.36 -126.898 1285.04 -126.673C1302.33 -125.211 1310.15 -128.33 1325.73 -134.548C1326.98 -135.045 1328.27 -135.559 1329.62 -136.095C1336.63 -138.871 1360.14 -153.617 1365.14 -158.042C1376.26 -167.882 1382.14 -176.296 1386.85 -189.087C1389.79 -197.075 1388.44 -203.157 1382.85 -207.166C1373.99 -213.508 1356.96 -212.891 1352.93 -212.152C1328.42 -207.662 1294.24 -194.392 1270.59 -156.683C1269.81 -155.445 1268.89 -154.204 1267.91 -152.889C1264.64 -148.487 1260.92 -143.496 1262.57 -137.689Z" fill="url(#paint5_linear_65_2)"/>
<path d="M992.897 -270.208C993.132 -268.486 993.93 -266.772 995.209 -265.249C997.093 -263.005 1000.23 -261.066 1003.59 -260.062C1004.32 -259.842 1004.93 -259.677 1005.45 -259.536C1007.83 -258.886 1008.08 -258.82 1010.19 -256.244C1013.44 -252.28 1016.67 -248.315 1019.91 -244.346L1053.74 -202.874C1060.04 -195.153 1066.55 -187.169 1072.61 -179.258C1072.92 -178.866 1073.34 -178.382 1073.79 -177.869C1074.93 -176.556 1076.36 -174.924 1076.44 -174.04C1076.51 -173.274 1075.3 -172.232 1074.41 -171.473C1074 -171.115 1073.64 -170.805 1073.41 -170.538C1073.3 -170.408 1072.96 -170.038 1072.5 -169.524C1066.26 -162.571 1066.29 -162.55 1066.82 -162.19C1071.62 -158.936 1075.33 -157.685 1077.56 -158.572C1078.37 -158.893 1078.84 -159.482 1079.25 -160.003C1086.62 -169.263 1094.86 -178.202 1103.72 -186.57C1104.13 -186.957 1104.53 -187.379 1104.93 -187.808C1106.07 -189.025 1107.25 -190.284 1108.96 -190.936C1110.89 -191.679 1113.62 -191.932 1116.27 -192.176C1117.19 -192.263 1118.09 -192.345 1118.92 -192.449C1127.05 -193.441 1134.57 -193.809 1141.92 -193.57C1157.02 -193.083 1168.95 -190.963 1177.39 -187.25C1180.57 -185.85 1182.43 -183.264 1184.22 -180.764C1184.66 -180.151 1185.09 -179.554 1185.53 -178.988C1188.52 -175.133 1191.42 -171.199 1194.16 -167.296C1199.63 -159.503 1204.63 -151.552 1209.04 -143.668C1217.82 -127.963 1224.4 -112.236 1228.6 -96.914C1229.05 -95.2637 1229.39 -93.7976 1228.97 -92.5899C1228.59 -91.4799 1226.15 -88.9168 1224.91 -87.7187C1224.22 -87.0447 1223.47 -86.2631 1222.7 -85.4628C1221.13 -83.8274 1219.51 -82.135 1218.14 -81.1429L1217.82 -80.9108L1218.35 -80.6091C1219.19 -80.1237 1226.63 -75.904 1229.01 -76.8995C1230.34 -77.4596 1236.22 -81.8943 1237.6 -82.9607C1241.52 -85.9878 1245.14 -89.2755 1248.64 -92.4565C1253.08 -96.494 1257.67 -100.669 1262.9 -104.317C1263.23 -104.544 1263.73 -104.892 1263.64 -105.465C1263.55 -106.055 1262.9 -106.619 1262.36 -107.019C1264.39 -108.571 1264.03 -112.019 1262.9 -113.975C1261.74 -116.001 1261.05 -117.59 1260.17 -119.604C1259.97 -120.059 1259.76 -120.532 1259.54 -121.029C1257.06 -126.598 1258.32 -133.105 1262.58 -136.855C1268.19 -141.778 1274.27 -146.523 1280.15 -151.11C1283.25 -153.528 1286.46 -156.027 1289.56 -158.525C1294.9 -162.831 1299.07 -166.442 1302.67 -169.881C1304.86 -171.971 1306.81 -173.956 1308.62 -175.952C1308.65 -175.987 1311.55 -179.626 1309.88 -180.908C1309.74 -181.009 1309.6 -181.09 1309.45 -181.149C1308.6 -181.476 1307.53 -181.17 1306.64 -180.845C1295.73 -176.82 1287.64 -170.898 1280.51 -165.097C1275.11 -160.691 1253.12 -142.258 1251 -139.661C1248.55 -136.654 1247.9 -132.277 1249.02 -126.276C1249.41 -124.221 1249.95 -122.106 1250.48 -120.062C1250.97 -118.168 1251.46 -116.232 1251.83 -114.32L1251.75 -114.38L1240.67 -104.33C1240.07 -105.89 1239.47 -107.452 1238.87 -109.016C1233.62 -122.685 1228.19 -136.817 1219.83 -150.678C1210.77 -165.683 1190.57 -193.829 1174.94 -205.469C1170.03 -209.128 1164.92 -212.641 1159.97 -216.041C1157.48 -217.76 1154.89 -219.534 1152.34 -221.323L1151.94 -221.605C1144.52 -226.814 1136.86 -232.187 1128.09 -235.577C1127.53 -235.794 1126.96 -236.001 1126.4 -236.201C1107.42 -242.859 1088.31 -248.457 1070.36 -253.626C1059.74 -256.682 1048.99 -259.832 1038.41 -262.988C1033.09 -264.576 1027.77 -266.177 1022.45 -267.793C1017.49 -269.299 1015.57 -269.969 1011.68 -272.959C1010.79 -273.642 1009.87 -274.35 1008.84 -274.967C1005.11 -277.201 1000.24 -277.969 996.984 -276.83C994.005 -275.784 992.478 -273.308 992.897 -270.208ZM1014.09 -259.333C1014.25 -260.561 1018.06 -262.495 1019.65 -262.374L1019.65 -262.373C1023.14 -262.109 1096.79 -240.286 1117.1 -234.062C1118.4 -233.66 1119.88 -233.207 1121.1 -232.477C1121.66 -232.147 1122.03 -231.766 1122.22 -231.317C1123.12 -229.181 1120 -226.186 1117.94 -224.202C1117.29 -223.585 1116.74 -223.052 1116.42 -222.658C1112.9 -218.246 1109.97 -214.666 1107.22 -211.392C1100.03 -202.843 1093.7 -195.984 1087.29 -189.805C1085.57 -188.148 1082.79 -185.143 1081.14 -183.348C1080.8 -182.986 1080.49 -182.65 1080.27 -182.41C1070.7 -193.11 1062.1 -203.08 1053 -213.624C1049 -218.258 1044.94 -222.97 1040.7 -227.848C1039.2 -229.574 1035.71 -233.711 1032.02 -238.089C1026.52 -244.607 1020.29 -251.993 1018.73 -253.677C1016.96 -255.583 1014.56 -258.716 1014.09 -259.333ZM1118.05 -200.068L1141.11 -218.042C1141.47 -218.325 1141.87 -218.595 1142.41 -218.513C1142.9 -218.434 1143.45 -218.057 1143.96 -217.672L1146.75 -215.596C1155.28 -209.264 1161.44 -204.688 1168.75 -197.528C1168.85 -197.434 1168.82 -197.364 1168.8 -197.341C1168.78 -197.316 1168.73 -197.263 1168.59 -197.293C1162.58 -198.624 1146.86 -199.886 1143.3 -200.128C1139.35 -200.395 1126.01 -201.171 1120.19 -199.941L1118.36 -199.761C1118.3 -199.755 1118.25 -199.765 1118.21 -199.782C1118.15 -199.804 1118.11 -199.84 1118.08 -199.867C1118.03 -199.913 1117.97 -200.002 1118.05 -200.068ZM1088.95 -121.042C1089.2 -119.955 1088.54 -119.226 1086.99 -118.876C1083.8 -118.155 1078.65 -118.856 1072.87 -120.802C1070.05 -121.749 1067.23 -122.951 1064.93 -124.185C1064.41 -124.462 1063.98 -124.69 1063.52 -124.9C1062.13 -125.549 1060.52 -126.273 1058.9 -126.714C1057.68 -127.045 1056.44 -127.22 1055.24 -127.389L1053.63 -127.613C1047.43 -128.475 1041.58 -129.291 1035.22 -131.896C1027.35 -135.122 1020.06 -139.1 1013.57 -143.72C1008.36 -147.422 1005.04 -150.617 1003.13 -153.773C1002.24 -155.244 1001.34 -157.326 1002.13 -158.893C1003.37 -161.37 1009.96 -160.222 1014.77 -159.384C1015.7 -159.222 1016.54 -159.076 1017.24 -158.975C1022.53 -158.217 1027.08 -157.095 1031.02 -155.573C1032.93 -154.834 1034.69 -154.002 1036.32 -153.072C1038.61 -151.769 1040.63 -150.117 1042.58 -148.517C1044.02 -147.344 1045.5 -146.135 1047.05 -145.098C1051.14 -142.35 1055.53 -139.935 1060.09 -137.923C1062.32 -136.935 1064.64 -136.025 1066.88 -135.144C1070.03 -133.908 1073.28 -132.631 1076.39 -131.109C1078.94 -129.862 1088.17 -124.402 1088.95 -121.042Z" fill="url(#paint6_linear_65_2)"/>
<path d="M1255.3 -98.2138C1256.63 -103.615 1258.62 -107.431 1261.19 -111.501C1261.34 -111.74 1261.52 -112.038 1261.92 -112.198C1262.7 -112.519 1263.86 -112.192 1264.8 -111.872C1265.24 -111.717 1265.69 -111.556 1266.13 -111.384C1269.3 -110.161 1272.33 -108.506 1274.96 -106.553C1275.56 -106.113 1276.14 -105.63 1276.35 -105.088C1276.51 -104.659 1276.4 -104.307 1276.3 -104.022L1272.24 -91.4639C1272.22 -91.4059 1272.17 -91.3641 1272.11 -91.3381L1271.82 -90.5532C1271.76 -90.3838 1271.66 -90.1017 1271.26 -90.0264C1270.96 -89.9666 1270.61 -90.058 1270.38 -90.1172C1268.43 -90.6194 1266.42 -91.3278 1264.54 -92.0084C1260.95 -93.3089 1258.43 -94.5849 1256.38 -96.1391C1256 -96.4246 1255.48 -96.8648 1255.3 -97.3545C1255.17 -97.6991 1255.24 -97.9836 1255.3 -98.2138ZM1303.88 -180.108C1305.71 -179.033 1306.94 -178.234 1308.81 -177.025C1309.43 -176.617 1310.13 -176.167 1310.94 -175.647C1313.7 -173.877 1316.27 -172.122 1318.75 -170.424C1321.25 -168.714 1323.84 -166.946 1326.63 -165.157C1327.79 -164.409 1329.01 -163.612 1330.24 -162.8C1333.18 -160.879 1336.21 -158.89 1339.07 -157.227C1339.33 -157.079 1339.69 -156.812 1340.07 -156.53C1341.27 -155.656 1342.9 -154.462 1344.5 -154.34C1345.51 -154.265 1346.33 -154.641 1346.95 -155.457C1347.61 -156.323 1345.66 -157.735 1344.61 -158.492L1308.1 -184.852C1307.55 -185.251 1306.94 -185.571 1306.33 -185.807C1304.8 -186.398 1303.21 -186.463 1302.18 -185.894C1301.47 -185.505 1301.01 -185.047 1300.77 -184.498C1299.99 -182.672 1302.17 -181.118 1303.88 -180.108Z" fill="url(#paint7_linear_65_2)"/>
<path d="M998.077 -269.537C1000.69 -265.149 1009.93 -261.115 1016.05 -258.446C1017.02 -258.02 1017.91 -257.636 1018.65 -257.296C1030 -252.126 1042.36 -246.573 1056.45 -240.318C1061.98 -237.858 1067.53 -235.406 1073.07 -232.963C1079.67 -230.054 1086.27 -227.16 1092.95 -224.23L1121.3 -211.79C1123.81 -210.69 1126.31 -209.59 1128.82 -208.495C1133.3 -206.532 1133.88 -206.814 1135.89 -208.462L1136.27 -208.776C1136.96 -209.336 1138.03 -209.673 1139.06 -210.001C1140.44 -210.441 1141.87 -210.896 1142.63 -211.899C1143.92 -213.614 1142.75 -216.051 1141.61 -218.409C1141.28 -219.103 1140.93 -219.821 1140.67 -220.491C1138.31 -226.469 1141.92 -231.013 1145.41 -235.409C1145.84 -235.956 1146.27 -236.498 1146.69 -237.041C1147.42 -237.997 1147.65 -239.482 1145.88 -240.526C1145.68 -240.643 1145.46 -240.749 1145.22 -240.842C1144.9 -240.964 1144.59 -241.051 1144.32 -241.123C1099.87 -253.22 1054.83 -264.528 1010.48 -274.735C1005.93 -275.782 1000.44 -276.681 998.404 -274.32C997.155 -272.876 997.046 -271.269 998.077 -269.537ZM1143.86 -236.29C1140.24 -231.742 1136.51 -227.037 1139.04 -220.611C1139.32 -219.905 1139.67 -219.17 1140.02 -218.441C1141.09 -216.227 1142.1 -214.139 1141.07 -212.767C1140.46 -211.963 1139.23 -211.576 1137.93 -211.162C1136.81 -210.805 1135.65 -210.436 1134.83 -209.769L1134.44 -209.452C1132.98 -208.248 1132.76 -208.065 1130.97 -208.754C1130.5 -208.937 1129.93 -209.183 1129.22 -209.493C1126.71 -210.588 1124.21 -211.686 1121.71 -212.785L1093.28 -225.256C1086.68 -228.153 1080.08 -231.05 1073.48 -233.955C1067.94 -236.401 1062.4 -238.85 1056.86 -241.308C1042.78 -247.56 1030.43 -253.109 1019.09 -258.276C1018.37 -258.607 1017.51 -258.982 1016.56 -259.396L1016.45 -259.445C1010.65 -261.976 1001.87 -265.807 999.606 -269.612C998.796 -270.974 998.904 -272.218 999.938 -273.414C1001.6 -275.338 1006.5 -274.505 1010.59 -273.566C1054.92 -263.364 1099.92 -252.064 1144.33 -239.981C1144.62 -239.9 1144.95 -239.81 1145.16 -239.689C1145.83 -239.294 1145.5 -238.39 1145.13 -237.911C1144.75 -237.413 1144.35 -236.913 1143.95 -236.41L1143.86 -236.29Z" fill="url(#paint8_linear_65_2)"/>
<path d="M1046.2 -152.872C1047.48 -153.467 1049.22 -153.439 1050.88 -152.8C1050.89 -152.794 1050.91 -152.787 1050.93 -152.78C1051.5 -152.556 1052.07 -152.272 1052.63 -151.998C1053.9 -151.37 1055.11 -150.776 1055.95 -151.009C1056.35 -151.12 1056.59 -151.434 1056.81 -151.713L1062.67 -159.386C1063.2 -160.082 1063.72 -160.897 1063.17 -161.794C1063.08 -161.939 1062.96 -162.086 1062.85 -162.228C1062.65 -162.481 1062.44 -162.744 1062.33 -163.028C1062.06 -163.659 1062.33 -164.139 1062.6 -164.431C1063.47 -165.36 1065.41 -165.62 1067.66 -165.105C1068.32 -164.954 1069.01 -164.741 1069.72 -164.465C1070.84 -164.034 1072.03 -163.446 1073.38 -162.669C1075.02 -161.716 1076.6 -160.664 1078.07 -159.546C1078.99 -158.835 1079.36 -157.909 1078.97 -157.293L1078.38 -156.386C1077.99 -155.779 1076.92 -155.62 1075.71 -155.995C1075.25 -156.139 1074.74 -156.194 1074.32 -156.147C1073.47 -156.048 1072.87 -155.642 1072.23 -155.16C1069.87 -153.391 1067.64 -151.485 1065.6 -149.495C1064.76 -148.676 1063.97 -147.777 1064.28 -146.607C1064.35 -146.37 1064.46 -146.121 1064.57 -145.857C1064.77 -145.413 1064.97 -144.951 1064.96 -144.508C1064.95 -143.855 1064.87 -143.179 1064.11 -142.698C1063.52 -142.324 1063.04 -141.993 1062.55 -141.664C1062.08 -141.339 1061.61 -141.016 1061.04 -140.654C1061.01 -140.639 1060.99 -140.623 1060.97 -140.604C1060.36 -140.107 1059.17 -140.12 1058.08 -140.635C1055.23 -141.983 1052.46 -143.511 1049.85 -145.179C1047.9 -146.425 1045.57 -148.095 1044.87 -149.958C1044.41 -151.181 1044.91 -152.269 1046.2 -152.872ZM1142.97 -202.533C1155.3 -200.018 1165.84 -202.419 1171.16 -208.954C1174.61 -213.177 1174.57 -218.984 1171.06 -224.885C1170.1 -226.504 1168.73 -228.182 1166.99 -229.868C1162.92 -233.799 1157.41 -237.16 1151.47 -239.454C1148.27 -240.692 1144.94 -241.619 1141.66 -242.156C1132.85 -243.593 1124.64 -242.273 1119.13 -238.533C1113.75 -234.878 1111.63 -229.141 1113.46 -223.191C1116.77 -212.401 1130.67 -205.043 1142.97 -202.533ZM1218.51 -78.0597L1218.94 -77.8143C1221.28 -76.4663 1222.56 -75.7701 1224.85 -74.6067L1226.29 -73.7204C1227.22 -73.1535 1228.35 -72.9373 1229.12 -73.1812C1230.75 -73.7044 1232.08 -74.5562 1232.95 -75.6489C1233.26 -76.0307 1233.55 -76.5066 1233.32 -77.1303C1233.01 -78.0078 1231.89 -78.7212 1230.86 -79.3232C1229 -80.4088 1227.91 -81.09 1226.86 -81.7467C1225.8 -82.4104 1224.7 -83.0975 1222.82 -84.196C1222.73 -84.2522 1222.57 -84.352 1222.39 -84.4718C1221.58 -84.9954 1220.9 -85.4166 1220.39 -85.617C1220.05 -85.7468 1219.78 -85.7826 1219.58 -85.6992L1219.44 -85.6363C1218.78 -85.3664 1218.53 -85.2471 1218.44 -85.164L1218.18 -84.935C1217.29 -84.149 1216.29 -83.2595 1215.85 -82.0385C1215.68 -81.5591 1215.46 -80.9629 1215.81 -80.2507C1216.26 -79.329 1217.45 -78.6534 1218.51 -78.0597Z" fill="url(#paint9_linear_65_2)"/>
<path d="M992.534 -272.993C993.128 -276.121 995.833 -277.785 1000.16 -277.675C1002.51 -277.616 1005.13 -277.026 1007.64 -276.055C1010.39 -274.992 1013.01 -273.468 1015 -271.69C1018.26 -268.787 1019.34 -265.674 1018.06 -262.925C1017.31 -261.297 1016.11 -260.085 1014.5 -259.326C1012.05 -258.169 1008.35 -258.098 1004.34 -259.133C998.388 -260.674 993.18 -265.095 992.479 -269.206C992.271 -270.425 992.287 -271.701 992.534 -272.993Z" fill="url(#paint10_linear_65_2)"/>
<path d="M1001.72 -272.997C1002.88 -273.189 1004.13 -273.128 1005.34 -272.816C1005.71 -272.724 1006.08 -272.605 1006.44 -272.465C1008.51 -271.666 1010.39 -270.165 1011.24 -268.579C1012.18 -266.813 1011.81 -265.055 1010.29 -264.099C1010.3 -264.097 1007.6 -261.714 1002.27 -264.047C999.527 -265.254 998.024 -267.76 998.004 -269.505C997.98 -271.249 999.44 -272.62 1001.72 -272.997Z" fill="url(#paint11_linear_65_2)"/>
<path d="M1120.57 -221.285C1122.12 -217.79 1125.59 -214.694 1130.62 -212.33C1139.3 -208.247 1147.58 -207.549 1152.03 -208.193C1159.73 -209.304 1163.53 -213.613 1162.45 -220.017C1161.22 -227.343 1154.68 -232.992 1147.82 -235.643C1146.54 -236.139 1145.24 -236.53 1143.97 -236.807C1133.18 -239.162 1126.87 -235.822 1125.2 -234.744C1120.27 -231.566 1118.41 -226.16 1120.57 -221.285ZM1125.98 -234.143C1127.59 -235.184 1133.67 -238.402 1144.05 -236.136C1151.67 -234.474 1160.1 -228.469 1161.49 -220.204C1162.54 -213.983 1159 -209.964 1151.52 -208.884C1147.47 -208.299 1140.68 -208.98 1133.78 -211.646C1132.82 -212.018 1131.86 -212.429 1130.89 -212.882C1126.18 -215.098 1122.93 -217.99 1121.49 -221.244C1119.42 -225.9 1121.23 -231.083 1125.98 -234.143Z" fill="url(#paint12_linear_65_2)"/>
<path d="M1140.21 -227.665C1142.25 -228.086 1144.85 -227.75 1146.93 -227.481C1162.08 -225.522 1177.54 -223.1 1192.88 -220.288C1192.93 -220.279 1192.99 -220.259 1193.03 -220.244C1193.11 -220.294 1193.23 -220.313 1193.37 -220.286C1194.96 -219.98 1196.73 -219.642 1198.44 -218.979C1198.87 -218.813 1199.29 -218.628 1199.71 -218.42C1201.72 -217.409 1203.73 -215.507 1203.48 -213.974C1203.36 -213.178 1202.63 -212.557 1201.43 -212.232C1199.96 -211.829 1198.19 -211.906 1196.2 -212.038C1179.23 -213.174 1162.02 -215.864 1148.92 -218.079C1146.89 -218.424 1144.58 -218.808 1142.34 -219.763C1139.82 -220.831 1137.85 -222.512 1137.33 -224.052C1136.66 -226.003 1138.29 -227.272 1140.21 -227.665Z" fill="url(#paint13_linear_65_2)"/>
<path d="M1154.44 -85.0691C1162.99 -80.0463 1173.26 -74.4151 1182.6 -69.6146C1192.59 -64.4802 1201.11 -61.1099 1210.2 -61.3535C1214.51 -61.4679 1218.63 -62.0256 1222.46 -62.9485C1222.66 -62.3152 1222.86 -61.6867 1223.06 -61.069L1227.66 -46.6644C1229.8 -40.0039 1232.21 -32.4535 1238.77 -25.5326C1238.94 -25.3502 1239.25 -25.2493 1239.45 -25.3117C1239.65 -25.3729 1239.68 -25.5722 1239.5 -25.7566C1233.1 -32.5163 1230.71 -39.9755 1228.61 -46.555L1224 -60.9616C1223.77 -61.6879 1223.53 -62.4215 1223.31 -63.1514C1237.85 -66.9032 1248.04 -76.0711 1248.58 -87.1007C1248.69 -89.2764 1248.45 -91.5704 1248.23 -93.7902C1248.19 -94.1548 1248.15 -94.5202 1248.12 -94.8857C1250.73 -96.6321 1252.96 -98.6329 1254.41 -101.107C1255.4 -102.791 1256.01 -104.672 1256.59 -106.494C1257.09 -108.027 1257.6 -109.616 1258.34 -111.063C1259.44 -113.223 1262.14 -116.867 1267.91 -117.017C1268.16 -117.022 1268.26 -117.185 1268.16 -117.38C1268.15 -117.389 1268.14 -117.395 1268.14 -117.404C1268.16 -117.442 1268.18 -117.487 1268.17 -117.541C1268.15 -117.698 1267.98 -117.86 1267.77 -117.942C1267.73 -117.957 1267.69 -117.971 1267.65 -117.981C1255.2 -120.643 1247.56 -108.585 1246.95 -101.377C1246.79 -99.427 1246.93 -97.374 1247.13 -95.3467C1244.29 -93.4783 1241.01 -91.901 1237.79 -90.3556C1237.15 -90.047 1236.51 -89.7417 1235.87 -89.4359C1228.82 -86.0091 1222.1 -81.9328 1220.78 -75.3721C1220.06 -71.7797 1221.04 -67.628 1222.23 -63.7079C1218.36 -62.7468 1214.19 -62.1713 1209.81 -62.0538C1201.01 -61.8184 1192.7 -65.1146 1182.93 -70.1364C1173.61 -74.9247 1163.38 -80.5413 1154.86 -85.5466C1154.62 -85.6899 1154.33 -85.698 1154.22 -85.565C1154.09 -85.4339 1154.2 -85.2124 1154.44 -85.0691ZM1247.91 -101.077C1248.46 -107.538 1255.22 -118.549 1265.89 -117.58C1262.12 -117.033 1259.15 -114.916 1257.41 -111.505C1256.66 -110.033 1256.14 -108.43 1255.64 -106.879C1255.06 -105.078 1254.46 -103.217 1253.49 -101.569C1252.2 -99.3756 1250.28 -97.5546 1248.02 -95.9536C1247.86 -97.6888 1247.77 -99.427 1247.91 -101.077ZM1221.74 -75.0277C1223.02 -81.4232 1229.64 -85.4292 1236.59 -88.8058C1237.23 -89.1115 1237.86 -89.4181 1238.5 -89.7234C1241.49 -91.158 1244.53 -92.6176 1247.23 -94.3111C1247.24 -94.2106 1247.25 -94.1101 1247.26 -94.0097C1247.48 -91.8054 1247.72 -89.529 1247.61 -87.3858C1247.09 -76.6277 1237.2 -67.6707 1223.07 -63.9249C1221.92 -67.7655 1221.05 -71.6067 1221.74 -75.0277Z" fill="url(#paint14_linear_65_2)"/>
<path d="M1153.19 -234.355C1151.98 -235.871 1152.74 -237.256 1154.08 -237.79C1156.26 -238.658 1171.72 -237.574 1174.36 -236.617C1174.43 -236.59 1174.5 -236.563 1174.58 -236.534C1176.37 -235.842 1177.94 -234.744 1179.33 -233.771L1196.26 -221.944C1196.92 -221.488 1197.73 -220.918 1198.14 -220.228C1198.47 -219.675 1198.46 -219.155 1198.4 -218.678C1198.29 -217.861 1198.08 -217.074 1197.76 -216.341C1197.45 -215.615 1196.45 -215.264 1195.2 -215.447L1178.14 -217.972C1177.54 -218.031 1176.81 -218.105 1176.07 -218.38C1175.25 -218.677 1174.6 -219.143 1174.01 -219.556L1155.1 -232.748C1154.44 -233.209 1153.69 -233.731 1153.19 -234.355ZM1115.16 -110.563C1115.24 -110.004 1115.64 -109.438 1116.05 -108.907C1121.2 -102.132 1129.93 -95.964 1139.3 -92.3569C1137.74 -91.2455 1136.5 -89.8884 1135.67 -88.3433C1135.54 -88.1004 1135.42 -87.8314 1135.56 -87.481C1135.7 -87.1051 1136.07 -86.7918 1136.4 -86.519C1136.51 -86.4295 1136.62 -86.3379 1136.72 -86.246C1137.83 -85.1802 1137.15 -84.0427 1136.54 -83.0368L1136.45 -82.8848C1136.27 -82.5768 1136.12 -82.2319 1136.3 -81.7983C1136.49 -81.3507 1136.98 -80.9547 1137.38 -80.6591C1138.42 -79.9046 1139.62 -79.2474 1140.85 -78.7615C1141.11 -78.6316 1141.37 -78.707 1141.41 -78.8692C1141.42 -78.8876 1141.41 -78.9057 1141.41 -78.9212L1141.75 -78.8233C1141.75 -78.707 1141.84 -78.5668 1142.01 -78.462C1142.24 -78.3151 1142.53 -78.2922 1142.66 -78.4168C1143.95 -79.6787 1145.02 -81.0965 1145.82 -82.6307C1145.96 -82.886 1146.08 -83.1909 1145.85 -83.5799C1145.55 -84.0852 1144.9 -84.359 1144.37 -84.5808C1144.18 -84.6588 1144 -84.7367 1143.83 -84.826C1143.33 -85.0952 1143.15 -85.4734 1143.09 -85.6719C1142.96 -86.1137 1143.13 -86.5173 1143.51 -86.6808C1144.34 -87.0326 1145.77 -86.6515 1146.81 -86.1177C1147.33 -85.8518 1147.88 -85.513 1148.41 -85.1871C1149.85 -84.3026 1151.33 -83.391 1152.84 -83.4638C1153.74 -83.5093 1154.29 -83.9305 1154.73 -84.2722L1156.62 -85.7096C1156.74 -85.8014 1156.94 -85.9544 1156.89 -86.2262C1156.83 -86.5422 1156.47 -86.8194 1156.3 -86.9518C1153.1 -89.4086 1149.38 -91.4155 1145.79 -93.3569C1145.46 -93.5317 1145.09 -93.7341 1144.68 -93.8929C1144.64 -93.9068 1144.6 -93.9158 1144.56 -93.9289C1144.1 -94.2045 1143.61 -94.4566 1143.16 -94.6946L1142.65 -94.9576C1141.97 -95.3144 1141.21 -95.7048 1140.41 -96.1149C1137.61 -97.548 1134.14 -99.3297 1132.06 -100.882C1130.43 -102.104 1129 -103.284 1127.62 -104.426C1124.85 -106.709 1122.23 -108.863 1118.51 -110.957C1118.17 -111.147 1117.8 -111.346 1117.42 -111.492C1117.07 -111.626 1116.71 -111.718 1116.36 -111.723C1115.47 -111.735 1115.08 -111.15 1115.16 -110.563ZM1233.91 -12.3812L1235.72 -11.1808C1236.02 -10.985 1236.51 -10.6582 1237.06 -10.5862C1237.54 -10.5193 1237.85 -10.672 1238.15 -10.8183C1239.39 -11.421 1241.27 -11.4583 1243.14 -10.9315C1243.96 -10.5988 1244.86 -10.4517 1245.56 -10.5154C1246.83 -10.6307 1247.66 -11.2542 1248.32 -11.7556L1251.29 -13.9996C1251.41 -14.0902 1251.53 -14.1841 1251.65 -14.2801L1252.91 -13.0986C1256.2 -10.0128 1259.59 -6.82191 1263.17 -3.74028C1267.17 -0.290694 1272.03 3.47641 1277.72 5.27852C1279.01 5.68837 1279.87 5.704 1280.28 5.32227C1280.77 4.85335 1280.37 4.00541 1279.14 2.93729C1276.37 0.525173 1273.31 -1.78406 1270.36 -4.01645C1266.65 -6.81125 1262.82 -9.69986 1259.58 -12.7856C1257.84 -14.4463 1255.45 -16.5364 1253.23 -17.879C1253.15 -18.1159 1253.02 -18.3597 1252.84 -18.613C1252.3 -19.3901 1251.43 -20.0578 1250.57 -20.6761C1247.7 -22.7594 1244.62 -24.7065 1241.42 -26.4643C1241.14 -26.6186 1240.86 -26.7676 1240.57 -26.8798C1240.38 -26.9541 1240.19 -27.0109 1239.98 -27.0477C1239.14 -27.1926 1238.6 -26.8536 1238.27 -26.588C1237.57 -26.0337 1237.04 -25.3725 1236.69 -24.621C1236.59 -24.4053 1236.49 -24.1469 1236.6 -23.8155C1236.76 -23.3595 1237.27 -22.9527 1237.64 -22.6852C1238.18 -22.2994 1238.76 -21.9468 1239.33 -21.605C1240.39 -20.9654 1241.39 -20.3601 1242 -19.6047C1242.75 -18.692 1242.78 -17.6276 1242.09 -16.9511C1242.01 -16.8696 1241.96 -16.8589 1241.96 -16.8561C1241.95 -16.8599 1241.9 -16.8693 1241.75 -16.9515C1241.35 -17.1668 1240.95 -17.441 1240.54 -17.7302C1239.66 -18.3442 1238.65 -19.0414 1237.52 -19.1301C1236.54 -19.2067 1235.95 -18.7518 1235.55 -18.452L1232.57 -16.1888C1232.03 -15.7837 1231.52 -15.3301 1231.69 -14.6237C1231.9 -13.7694 1232.94 -13.0173 1233.91 -12.3812Z" fill="url(#paint15_linear_65_2)"/>
<path d="M1258.48 -129.162L1258.64 -129.691L1259.28 -129.124C1265.35 -123.753 1272.44 -121.106 1278.74 -121.86L1279.04 -121.898C1279.97 -122.016 1281.02 -122.149 1282.21 -121.766C1282.31 -121.734 1282.41 -121.697 1282.51 -121.659C1283.22 -121.382 1283.87 -120.969 1284.39 -120.63C1287.95 -118.34 1294.71 -113.492 1296.69 -112.058C1296.99 -111.84 1297.19 -111.571 1297.22 -111.319C1297.26 -111.066 1297.13 -110.864 1296.87 -110.762C1296.52 -110.624 1296.1 -110.558 1295.74 -110.507C1288.81 -109.519 1279.67 -110.988 1274.12 -112.775C1271.01 -113.779 1260.22 -118.557 1259.4 -120.584C1258.43 -122.981 1257.73 -126.688 1258.48 -129.162Z" fill="url(#paint16_linear_65_2)"/>
<path d="M1156.85 -234.434C1156.79 -234.624 1156.95 -234.755 1157.21 -234.721C1158.26 -234.593 1159.55 -234.459 1160.94 -234.313C1166.76 -233.706 1171.5 -233.152 1173.86 -232.24C1174.18 -232.116 1174.46 -231.987 1174.69 -231.849C1178.87 -229.336 1183.43 -226.094 1187.85 -222.96C1190.16 -221.314 1192.35 -219.762 1194.41 -218.36C1194.64 -218.204 1194.72 -217.984 1194.58 -217.867C1194.44 -217.752 1194.14 -217.783 1193.91 -217.94C1191.84 -219.35 1189.64 -220.908 1187.32 -222.557C1182.93 -225.675 1178.39 -228.9 1174.26 -231.382C1172.5 -232.436 1165.96 -233.12 1161.17 -233.618C1159.77 -233.764 1158.48 -233.899 1157.43 -234.03C1157.17 -234.059 1156.91 -234.241 1156.85 -234.434ZM1010.55 -149.598C1010.59 -149.407 1010.83 -149.216 1011.1 -149.172C1018.06 -147.942 1025.54 -146.46 1033.09 -143.967C1041.1 -141.318 1048.2 -137.772 1053.63 -133.707C1053.85 -133.543 1054.15 -133.495 1054.31 -133.599C1054.46 -133.704 1054.41 -133.923 1054.19 -134.086C1049.62 -137.505 1043.91 -140.566 1037.49 -143.048C1036.08 -143.591 1034.64 -144.107 1033.17 -144.591C1025.53 -147.119 1017.98 -148.612 1010.96 -149.852C1010.69 -149.9 1010.51 -149.785 1010.55 -149.598ZM1259.13 -105.835C1263.82 -104.211 1268.86 -102.261 1273.91 -99.0251C1274.15 -98.8762 1274.44 -98.8533 1274.57 -98.9766C1274.7 -99.0992 1274.61 -99.3212 1274.38 -99.4714C1270.61 -101.883 1266.87 -103.597 1263.27 -104.987C1261.9 -105.515 1260.55 -105.998 1259.24 -106.454C1258.97 -106.546 1258.73 -106.481 1258.7 -106.313C1258.67 -106.141 1258.87 -105.929 1259.13 -105.835ZM1260.16 -108.372C1264.4 -106.975 1268.95 -104.754 1274.47 -101.387C1274.71 -101.24 1275 -101.227 1275.12 -101.356C1275.24 -101.485 1275.14 -101.706 1274.9 -101.854C1270.24 -104.7 1266.24 -106.747 1262.52 -108.184C1261.75 -108.481 1260.99 -108.751 1260.24 -109C1259.98 -109.087 1259.74 -109.017 1259.72 -108.846C1259.7 -108.672 1259.89 -108.46 1260.16 -108.372ZM1143.78 -222.148C1143.96 -222.031 1144.15 -221.928 1144.34 -221.844C1144.42 -221.779 1144.51 -221.728 1144.62 -221.694C1146.3 -221.201 1147.85 -221.55 1148.15 -222.49C1148.31 -223.002 1148.02 -223.707 1147.39 -224.325C1146.99 -224.728 1146.49 -225.047 1145.97 -225.249C1145.76 -225.331 1145.54 -225.394 1145.32 -225.433C1144.52 -225.583 1143.91 -225.422 1143.54 -225.261C1142.71 -224.901 1142.36 -224.213 1142.62 -223.467C1142.77 -223.013 1143.21 -222.52 1143.78 -222.148Z" fill="url(#paint17_linear_65_2)"/>
</g>
<g opacity="0.75">
<mask id="mask0_65_2" style="mask-type:alpha" maskUnits="userSpaceOnUse" x="-63" y="5" width="447" height="290">
<path fill-rule="evenodd" clip-rule="evenodd" d="M-59.1134 282.529C-65.4542 275.308 -65.3426 271.437 -48.8147 262.348C-36.2983 255.461 -23.3669 264.391 -22.8404 264.654C-19.2974 257.595 -14.3444 255.181 -25.3347 252.748C-48.0651 247.723 -58.5601 233.551 -48.7032 220.8C-35.2185 203.408 -19.989 207.775 -15.7544 208.032C-22.2067 203.256 -28.9045 201.224 -23.5365 189.742C-22.0952 186.644 -19.2171 177.465 0.831498 173.814C23.1201 169.75 -12.8763 161.36 -10.6051 140.62C-9.24857 128.329 6.28428 79.1054 54.6008 94.137C59.2504 88.9286 59.112 88.2447 68.4424 87.6541C57.1754 61.7846 49.5585 54.0837 62.7666 41.44C78.6876 26.1992 92.7524 31.6676 96.5185 31.8682C96.572 31.7411 93.859 15.0251 131.181 9.83085C151.586 6.99352 159.368 15.3586 167.289 20.3069C180.3 14.1236 188.301 6.78156 224.712 5.19051C305.67 1.65514 291.824 48.4344 290.329 53.4422C292.212 53.9763 308.41 56.6017 307.33 63.5735C305.777 73.8546 285.041 83.0816 282.355 84.2798C293.345 89.6041 303.537 91.0566 300.047 105.981C306.138 104.607 347.753 88.8015 370.594 125.127C388.399 153.419 383.968 160.653 382.169 163.57C375.275 174.775 369.93 179.961 344.29 186.356C334.629 204.31 331.028 202.976 328.262 204.835C325.714 206.542 335.874 208.622 315.745 233.096C316.687 232.969 354.785 221.063 370.844 249.834C380.701 267.517 341.47 289.58 280.972 280.717C268.317 278.866 251.209 288.918 229.723 284.541C221.692 282.905 194.695 290.829 94.1089 295" fill="white"/>
</mask>
<g mask="url(#mask0_65_2)">
<path fill-rule="evenodd" clip-rule="evenodd" d="M-59.1134 282.529C-65.4542 275.308 -65.3426 271.437 -48.8147 262.348C-36.2983 255.461 -23.3669 264.391 -22.8404 264.654C-19.2974 257.595 -14.3444 255.181 -25.3347 252.748C-48.0651 247.723 -58.5601 233.551 -48.7032 220.8C-35.2185 203.408 -19.989 207.775 -15.7544 208.032C-22.2067 203.256 -28.9045 201.224 -23.5365 189.742C-22.0952 186.644 -19.2171 177.465 0.831498 173.814C23.1201 169.75 -12.8763 161.36 -10.6051 140.62C-9.24857 128.329 6.28428 79.1054 54.5963 94.137C59.2504 88.9286 59.112 88.2447 68.4424 87.6541C57.1754 61.7846 49.5585 54.0837 62.7666 41.44C78.6876 26.1992 92.7524 31.6676 96.5185 31.8682C96.572 31.7411 93.859 15.0251 131.185 9.83085C151.586 6.99352 159.368 15.3586 167.284 20.3069C180.3 14.1236 188.301 6.78156 224.712 5.19051C305.67 1.65514 291.824 48.4344 290.329 53.4422C292.212 53.9763 308.41 56.6017 307.33 63.5735C305.777 73.8546 285.041 83.0816 282.355 84.2798C293.35 89.6041 303.537 91.0566 300.047 105.981C306.138 104.607 347.753 88.8015 370.594 125.127C388.399 153.419 383.968 160.653 382.169 163.57C375.275 174.775 369.93 179.961 344.29 186.356C334.629 204.31 331.028 202.976 328.262 204.835C325.714 206.542 335.874 208.622 315.745 233.096C316.687 232.969 354.785 221.063 370.844 249.834C380.701 267.517 341.47 289.58 280.972 280.717C268.317 278.866 251.209 288.918 229.723 284.541C221.692 282.905 194.695 290.829 94.1089 295" fill="black"/>
<path fill-rule="evenodd" clip-rule="evenodd" d="M-68.5352 283.35C-73.0643 278.393 -95.0182 262.443 -76.9999 237.325C-64.0596 219.295 -43.4042 219.286 -43.1097 219.36C-37.3579 220.821 -58.8746 174.954 -5.97988 191.125C-4.74386 191.504 21.9132 190.339 28.5395 196.051C30.1638 197.449 36.5893 207.878 37.7182 207.875C47.9322 207.849 47.245 205.82 57.4589 205.266C59.0966 205.176 58.3871 205.891 71.5951 214.784C82.3847 210.726 93.1742 206.668 103.977 202.61C101.17 196.319 94.0354 191.034 91.2287 184.746C88.0695 177.639 105.271 163.565 105.378 161.74C107.069 131.366 130.88 140.16 132.87 136.893C134.512 134.209 137.037 110.789 164.221 113.466C166.332 113.672 186.527 111.705 193.649 112.524C201.632 113.437 199.548 115.277 207.196 125.733C211.4 124.877 252.412 108.899 275.82 138.569C278.426 141.878 291.005 162.678 292.281 164.789C309.871 155.867 310.371 156.687 330.888 150.778C328.51 145.417 307.279 138.758 340.241 110.281C358.424 94.5791 415.629 110.264 445.985 154.531C471.112 191.193 468.087 202.935 453.79 229.197C433.366 266.73 403.626 280.603 387.558 288.821C335.685 315.326 328.028 303.85 180.254 320.269C66.6644 332.881 -28.1926 300.379 -37.5721 298.373C-44.6804 296.849 -52.5829 297.2 -59.6912 295.677C-68.321 284.115 -68.5352 284.141 -68.5352 283.35Z" fill="#D1DCF0" fill-opacity="0.5"/>
<path fill-rule="evenodd" clip-rule="evenodd" d="M-59.1134 282.529C-65.4542 275.308 -65.3426 271.437 -48.8147 262.348C-36.2983 255.461 -23.3669 264.391 -22.8404 264.654C-19.2974 257.595 -14.3444 255.181 -25.3347 252.748C-48.0651 247.723 -58.5601 233.551 -48.7032 220.8C-35.2185 203.408 -19.989 207.775 -15.7544 208.032C-22.2067 203.256 -28.9045 201.224 -23.5365 189.742C-22.0952 186.644 -19.2171 177.465 0.831498 173.814C23.1201 169.75 -12.8763 161.36 -10.6051 140.62C-9.24857 128.329 6.28428 79.1054 54.5963 94.137C59.2504 88.9286 59.112 88.2447 68.4424 87.6541C57.1754 61.7846 49.5585 54.0837 62.7666 41.44C78.6876 26.1992 92.7524 31.6676 96.5185 31.8682C96.572 31.7411 93.859 15.0251 131.185 9.83085C151.586 6.99352 159.368 15.3586 167.284 20.3069C180.3 14.1236 188.301 6.78156 224.712 5.19051C305.67 1.65514 291.824 48.4344 290.329 53.4422C292.212 53.9763 308.41 56.6017 307.33 63.5735C305.777 73.8546 285.041 83.0816 282.355 84.2798C293.35 89.6041 303.537 91.0566 300.047 105.981C306.138 104.607 347.753 88.8015 370.594 125.127C388.399 153.419 383.968 160.653 382.169 163.57C375.275 174.775 369.93 179.961 344.29 186.356C334.629 204.31 331.028 202.976 328.262 204.835C325.714 206.542 335.874 208.622 315.745 233.096C316.687 232.969 354.785 221.063 370.844 249.834C380.701 267.517 341.47 289.58 280.972 280.717C268.317 278.866 251.209 288.918 229.723 284.541C221.692 282.905 194.695 290.829 94.1089 295" fill="#FFEFF4"/>
<path fill-rule="evenodd" clip-rule="evenodd" d="M-59.5628 283.35C-63.7081 278.39 -83.8058 262.443 -67.3091 237.325C-55.4665 219.292 -36.5602 219.283 -36.2881 219.36C-31.0227 220.818 -50.7187 174.954 -2.29963 191.122C-1.1707 191.501 23.2374 190.336 29.3015 196.051C30.7874 197.449 36.6686 207.878 37.6993 207.875C47.0521 207.849 46.4229 205.817 55.7712 205.266C57.2705 205.176 56.619 205.891 68.7115 214.784C78.5908 210.726 88.4656 206.665 98.3582 202.607C95.788 196.319 89.2554 191.034 86.6852 184.746C83.7937 177.636 99.5362 163.565 99.6344 161.74C101.187 131.366 122.985 140.16 124.806 136.893C126.305 134.206 128.616 110.786 153.502 113.463C155.434 113.672 173.921 111.705 180.44 112.522C187.749 113.437 185.839 115.277 192.84 125.733C196.691 124.874 234.232 108.899 255.663 138.566C258.046 141.878 269.563 162.678 270.728 164.786C286.832 155.867 287.287 156.687 306.068 150.778C303.891 145.414 284.458 138.758 314.631 110.281C331.275 94.5791 383.639 110.264 411.429 154.531C434.432 191.193 431.661 202.932 418.573 229.197C399.877 266.73 372.653 280.603 357.941 288.818C310.463 315.323 303.449 303.85 168.178 320.266C64.1958 332.881 -22.6338 300.379 -31.219 298.373C-37.7293 296.849 -44.9625 297.197 -51.4684 295.674C-59.3664 284.115 -59.5628 284.141 -59.5628 283.35Z" fill="url(#paint18_linear_65_2)"/>
<path fill-rule="evenodd" clip-rule="evenodd" d="M302.685 131.506C296.973 127.561 268.648 129.87 269.602 132.198C271.9 137.893 296.732 138.958 304.015 135.089C306.755 133.634 304.822 133.309 302.685 131.506Z" fill="#E8EEF8"/>
<path fill-rule="evenodd" clip-rule="evenodd" d="M281.44 121.584C271.266 120.165 271.186 120.055 260.932 121.324C233.936 124.661 262.141 127.696 262.962 127.733C264.024 127.784 268.165 127.979 276.103 126.634C284.113 125.277 286.344 123.536 287.473 123.192L281.44 121.584Z" fill="#E8EEF8"/>
<path fill-rule="evenodd" clip-rule="evenodd" d="M66.2871 199.509C63.4537 198.974 41.0401 194.764 30.0319 204.265C22.4819 210.776 91.6055 208.45 75.68 199.565C70.3343 196.586 66.6397 199.509 66.2871 199.509Z" fill="#E8EEF8"/>
<path fill-rule="evenodd" clip-rule="evenodd" d="M78.4246 191.271C78.1658 191.223 67.47 188.007 57.8227 192.638C53.722 194.608 59.9869 195.724 60.4153 195.801C70.5355 197.601 80.8833 193.288 80.6825 193.026C80.1559 192.347 78.9467 191.949 78.4246 191.271Z" fill="#E8EEF8"/>
</g>
</g>
</g>
<defs>
<linearGradient id="paint0_linear_65_2" x1="1194.9" y1="-306.106" x2="1084.45" y2="-67.9417" gradientUnits="userSpaceOnUse">
<stop offset="0.221157" stop-color="#20323F"/>
<stop offset="1" stop-color="#5383A5" stop-opacity="0"/>
</linearGradient>
<linearGradient id="paint1_linear_65_2" x1="1194.9" y1="-306.106" x2="1084.45" y2="-67.9417" gradientUnits="userSpaceOnUse">
<stop offset="0.221157" stop-color="#20323F"/>
<stop offset="1" stop-color="#5383A5" stop-opacity="0"/>
</linearGradient>
<linearGradient id="paint2_linear_65_2" x1="1194.9" y1="-306.106" x2="1084.45" y2="-67.9417" gradientUnits="userSpaceOnUse">
<stop offset="0.221157" stop-color="#20323F"/>
<stop offset="1" stop-color="#5383A5" stop-opacity="0"/>
</linearGradient>
<linearGradient id="paint3_linear_65_2" x1="1194.9" y1="-306.106" x2="1084.45" y2="-67.9417" gradientUnits="userSpaceOnUse">
<stop offset="0.221157" stop-color="#20323F"/>
<stop offset="1" stop-color="#5383A5" stop-opacity="0"/>
</linearGradient>
<linearGradient id="paint4_linear_65_2" x1="1194.9" y1="-306.106" x2="1084.45" y2="-67.9417" gradientUnits="userSpaceOnUse">
<stop offset="0.221157" stop-color="#20323F"/>
<stop offset="1" stop-color="#5383A5" stop-opacity="0"/>
</linearGradient>
<linearGradient id="paint5_linear_65_2" x1="1194.9" y1="-306.106" x2="1084.45" y2="-67.9417" gradientUnits="userSpaceOnUse">
<stop offset="0.221157" stop-color="#20323F"/>
<stop offset="1" stop-color="#5383A5" stop-opacity="0"/>
</linearGradient>
<linearGradient id="paint6_linear_65_2" x1="1194.9" y1="-306.106" x2="1084.45" y2="-67.9417" gradientUnits="userSpaceOnUse">
<stop offset="0.221157" stop-color="#20323F"/>
<stop offset="1" stop-color="#5383A5" stop-opacity="0"/>
</linearGradient>
<linearGradient id="paint7_linear_65_2" x1="1194.9" y1="-306.106" x2="1084.45" y2="-67.9417" gradientUnits="userSpaceOnUse">
<stop offset="0.221157" stop-color="#20323F"/>
<stop offset="1" stop-color="#5383A5" stop-opacity="0"/>
</linearGradient>
<linearGradient id="paint8_linear_65_2" x1="1194.9" y1="-306.106" x2="1084.45" y2="-67.9417" gradientUnits="userSpaceOnUse">
<stop offset="0.221157" stop-color="#20323F"/>
<stop offset="1" stop-color="#5383A5" stop-opacity="0"/>
</linearGradient>
<linearGradient id="paint9_linear_65_2" x1="1194.9" y1="-306.106" x2="1084.45" y2="-67.9417" gradientUnits="userSpaceOnUse">
<stop offset="0.221157" stop-color="#20323F"/>
<stop offset="1" stop-color="#5383A5" stop-opacity="0"/>
</linearGradient>
<linearGradient id="paint10_linear_65_2" x1="1194.9" y1="-306.106" x2="1084.45" y2="-67.9417" gradientUnits="userSpaceOnUse">
<stop offset="0.221157" stop-color="#20323F"/>
<stop offset="1" stop-color="#5383A5" stop-opacity="0"/>
</linearGradient>
<linearGradient id="paint11_linear_65_2" x1="1194.9" y1="-306.106" x2="1084.45" y2="-67.9417" gradientUnits="userSpaceOnUse">
<stop offset="0.221157" stop-color="#20323F"/>
<stop offset="1" stop-color="#5383A5" stop-opacity="0"/>
</linearGradient>
<linearGradient id="paint12_linear_65_2" x1="1194.9" y1="-306.106" x2="1084.45" y2="-67.9417" gradientUnits="userSpaceOnUse">
<stop offset="0.221157" stop-color="#20323F"/>
<stop offset="1" stop-color="#5383A5" stop-opacity="0"/>
</linearGradient>
<linearGradient id="paint13_linear_65_2" x1="1194.9" y1="-306.106" x2="1084.45" y2="-67.9417" gradientUnits="userSpaceOnUse">
<stop offset="0.221157" stop-color="#20323F"/>
<stop offset="1" stop-color="#5383A5" stop-opacity="0"/>
</linearGradient>
<linearGradient id="paint14_linear_65_2" x1="1194.9" y1="-306.106" x2="1084.45" y2="-67.9417" gradientUnits="userSpaceOnUse">
<stop offset="0.221157" stop-color="#20323F"/>
<stop offset="1" stop-color="#5383A5" stop-opacity="0"/>
</linearGradient>
<linearGradient id="paint15_linear_65_2" x1="1194.9" y1="-306.106" x2="1084.45" y2="-67.9417" gradientUnits="userSpaceOnUse">
<stop offset="0.221157" stop-color="#20323F"/>
<stop offset="1" stop-color="#5383A5" stop-opacity="0"/>
</linearGradient>
<linearGradient id="paint16_linear_65_2" x1="1194.9" y1="-306.106" x2="1084.45" y2="-67.9417" gradientUnits="userSpaceOnUse">
<stop offset="0.221157" stop-color="#20323F"/>
<stop offset="1" stop-color="#5383A5" stop-opacity="0"/>
</linearGradient>
<linearGradient id="paint17_linear_65_2" x1="1194.9" y1="-306.106" x2="1084.45" y2="-67.9417" gradientUnits="userSpaceOnUse">
<stop offset="0.221157" stop-color="#20323F"/>
<stop offset="1" stop-color="#5383A5" stop-opacity="0"/>
</linearGradient>
<linearGradient id="paint18_linear_65_2" x1="177.436" y1="104.345" x2="177.436" y2="323.166" gradientUnits="userSpaceOnUse">
<stop offset="0.32212" stop-color="#BBD8FA"/>
<stop offset="0.807703" stop-color="#A1D4F2"/>
</linearGradient>
<clipPath id="clip0_65_2">
<rect width="1728" height="5831" fill="white" transform="translate(0 -1579)"/>
</clipPath>
</defs>
</svg>
