<svg width="1440" height="1761" viewBox="0 0 1440 1761" fill="none" xmlns="http://www.w3.org/2000/svg">
<path d="M-248.072 523.489L-33.3981 584.13C-33.3981 584.13 68.0821 618.451 145.444 638.061C254.298 665.653 280.679 730.826 409.455 753.176C656.949 796.131 898.159 809.632 1194.16 824.771C1448.88 837.798 1740.36 886.073 1740.36 886.073L1754.93 1202.7L1761.93 1355.86L1794.07 1755.64L-183.641 1730.16L-232.844 1309.18L-245.685 1029.52L-253.291 863.875L-250.067 653.641L-248.072 523.489Z" fill="#A1D4F2"/>
<g opacity="0.75">
<mask id="mask0_18_13" style="mask-type:alpha" maskUnits="userSpaceOnUse" x="-197" y="1112" width="646" height="504">
<path fill-rule="evenodd" clip-rule="evenodd" d="M-191.383 1593.86C-200.547 1581.33 -200.386 1574.62 -176.5 1558.85C-158.411 1546.91 -139.723 1562.4 -138.962 1562.85C-133.841 1550.61 -126.683 1546.42 -142.567 1542.2C-175.416 1533.49 -190.584 1508.91 -176.338 1486.79C-156.85 1456.62 -134.841 1464.2 -128.721 1464.64C-138.046 1456.36 -147.725 1452.84 -139.968 1432.92C-137.885 1427.55 -133.725 1411.63 -104.751 1405.29C-72.5401 1398.25 -124.562 1383.69 -121.279 1347.72C-119.319 1326.4 -96.871 1241.02 -27.0445 1267.1C-20.325 1258.06 -20.5249 1256.88 -7.04067 1255.85C-23.3236 1210.98 -34.3316 1197.62 -15.2434 1175.69C7.76554 1149.26 28.0918 1158.74 33.5345 1159.09C33.6119 1158.87 29.6911 1129.88 83.628 1120.87C113.118 1115.95 124.364 1130.46 135.811 1139.04C154.615 1128.31 166.178 1115.58 218.799 1112.82C335.798 1106.69 315.788 1187.82 313.627 1196.51C316.349 1197.44 339.757 1201.99 338.197 1214.08C335.953 1231.92 305.986 1247.92 302.103 1250C317.987 1259.23 332.715 1261.75 327.673 1287.64C336.475 1285.26 396.616 1257.84 429.626 1320.85C455.357 1369.92 448.953 1382.47 446.354 1387.53C436.391 1406.96 428.666 1415.95 391.611 1427.05C377.65 1458.19 372.446 1455.87 368.448 1459.1C364.765 1462.06 379.449 1465.67 350.359 1508.12C351.72 1507.9 406.779 1487.25 429.988 1537.15C444.233 1567.82 387.536 1606.09 300.104 1590.72C281.816 1587.5 257.092 1604.94 226.041 1597.35C214.433 1594.51 175.419 1608.25 30.0522 1615.49" fill="white"/>
</mask>
<g mask="url(#mask0_18_13)">
<path fill-rule="evenodd" clip-rule="evenodd" d="M-191.383 1593.86C-200.547 1581.33 -200.386 1574.62 -176.5 1558.85C-158.411 1546.91 -139.723 1562.4 -138.962 1562.85C-133.841 1550.61 -126.683 1546.42 -142.567 1542.2C-175.416 1533.49 -190.584 1508.91 -176.338 1486.79C-156.85 1456.62 -134.841 1464.2 -128.721 1464.64C-138.046 1456.36 -147.725 1452.84 -139.968 1432.92C-137.885 1427.55 -133.725 1411.63 -104.751 1405.29C-72.5401 1398.25 -124.562 1383.69 -121.279 1347.72C-119.319 1326.4 -96.871 1241.02 -27.051 1267.1C-20.325 1258.06 -20.5249 1256.88 -7.04067 1255.85C-23.3236 1210.98 -34.3316 1197.62 -15.2434 1175.69C7.76554 1149.26 28.0918 1158.74 33.5345 1159.09C33.6119 1158.87 29.6911 1129.88 83.6345 1120.87C113.118 1115.95 124.364 1130.46 135.804 1139.04C154.615 1128.31 166.178 1115.58 218.799 1112.82C335.798 1106.69 315.788 1187.82 313.627 1196.51C316.349 1197.44 339.757 1201.99 338.197 1214.08C335.953 1231.92 305.986 1247.92 302.103 1250C317.993 1259.23 332.715 1261.75 327.673 1287.64C336.475 1285.26 396.616 1257.84 429.626 1320.85C455.357 1369.92 448.953 1382.47 446.354 1387.53C436.391 1406.96 428.666 1415.95 391.611 1427.05C377.65 1458.19 372.446 1455.87 368.448 1459.1C364.765 1462.06 379.449 1465.67 350.359 1508.12C351.72 1507.9 406.779 1487.25 429.988 1537.15C444.233 1567.82 387.536 1606.09 300.104 1590.72C281.816 1587.5 257.092 1604.94 226.041 1597.35C214.433 1594.51 175.419 1608.25 30.0522 1615.49" fill="black"/>
<path fill-rule="evenodd" clip-rule="evenodd" d="M-205 1595.28C-211.545 1586.68 -243.273 1559.02 -217.233 1515.45C-198.532 1484.18 -168.68 1484.16 -168.255 1484.29C-159.942 1486.83 -191.038 1407.27 -114.595 1435.32C-112.809 1435.98 -74.2844 1433.96 -64.7081 1443.86C-62.3608 1446.29 -53.0747 1464.38 -51.4431 1464.37C-36.6821 1464.33 -37.6752 1460.81 -22.9141 1459.85C-20.5474 1459.69 -21.5728 1460.93 -2.48463 1476.36C13.1083 1469.32 28.7013 1462.28 44.3136 1455.24C40.2573 1444.33 29.9459 1435.16 25.8896 1424.26C21.324 1411.93 46.1837 1387.52 46.3385 1384.35C48.7825 1331.67 83.1928 1346.92 86.0689 1341.26C88.442 1336.6 92.092 1295.98 131.377 1300.62C134.428 1300.98 163.614 1297.57 173.907 1298.99C185.443 1300.57 182.432 1303.76 193.485 1321.9C199.56 1320.41 258.83 1292.7 292.659 1344.16C296.425 1349.9 314.604 1385.98 316.449 1389.64C341.869 1374.17 342.592 1375.59 372.243 1365.34C368.806 1356.04 338.123 1344.49 385.759 1295.1C412.038 1267.86 494.71 1295.07 538.58 1371.85C574.893 1435.44 570.521 1455.8 549.859 1501.35C520.344 1566.45 477.363 1590.52 454.141 1604.77C379.175 1650.74 368.109 1630.84 154.548 1659.32C-9.61045 1681.19 -146.697 1624.82 -160.252 1621.34C-170.525 1618.7 -181.945 1619.3 -192.218 1616.66C-204.69 1596.61 -205 1596.65 -205 1595.28Z" fill="#D1DCF0" fill-opacity="0.5"/>
<path fill-rule="evenodd" clip-rule="evenodd" d="M-191.383 1593.86C-200.547 1581.33 -200.386 1574.62 -176.5 1558.85C-158.411 1546.91 -139.723 1562.4 -138.962 1562.85C-133.841 1550.61 -126.683 1546.42 -142.567 1542.2C-175.416 1533.49 -190.584 1508.91 -176.338 1486.79C-156.85 1456.62 -134.841 1464.2 -128.721 1464.64C-138.046 1456.36 -147.725 1452.84 -139.968 1432.92C-137.885 1427.55 -133.725 1411.63 -104.751 1405.29C-72.5401 1398.25 -124.562 1383.69 -121.279 1347.72C-119.319 1326.4 -96.871 1241.02 -27.051 1267.1C-20.325 1258.06 -20.5249 1256.88 -7.04067 1255.85C-23.3236 1210.98 -34.3316 1197.62 -15.2434 1175.69C7.76554 1149.26 28.0918 1158.74 33.5345 1159.09C33.6119 1158.87 29.6911 1129.88 83.6345 1120.87C113.118 1115.95 124.364 1130.46 135.804 1139.04C154.615 1128.31 166.178 1115.58 218.799 1112.82C335.798 1106.69 315.788 1187.82 313.627 1196.51C316.349 1197.44 339.757 1201.99 338.197 1214.08C335.953 1231.92 305.986 1247.92 302.103 1250C317.993 1259.23 332.715 1261.75 327.673 1287.64C336.475 1285.26 396.616 1257.84 429.626 1320.85C455.357 1369.92 448.953 1382.47 446.354 1387.53C436.391 1406.96 428.666 1415.95 391.611 1427.05C377.65 1458.19 372.446 1455.87 368.448 1459.1C364.765 1462.06 379.449 1465.67 350.359 1508.12C351.72 1507.9 406.779 1487.25 429.988 1537.15C444.233 1567.82 387.536 1606.09 300.104 1590.72C281.816 1587.5 257.092 1604.94 226.041 1597.35C214.433 1594.51 175.419 1608.25 30.0522 1615.49" fill="#FFEFF4"/>
<path fill-rule="evenodd" clip-rule="evenodd" d="M-192.033 1595.28C-198.024 1586.68 -227.069 1559.02 -203.228 1515.45C-186.113 1484.17 -158.79 1484.16 -158.397 1484.29C-150.787 1486.82 -179.252 1407.27 -109.277 1435.31C-107.645 1435.97 -72.3709 1433.95 -63.6071 1443.86C-61.4597 1446.29 -52.9603 1464.38 -51.4706 1464.37C-37.9542 1464.33 -38.8634 1460.8 -25.3534 1459.85C-23.1867 1459.69 -24.1282 1460.93 -6.65218 1476.36C7.62523 1469.32 21.8962 1462.27 36.193 1455.23C32.4785 1444.33 23.0376 1435.16 19.3232 1424.26C15.1444 1411.92 37.8954 1387.52 38.0373 1384.35C40.2814 1331.67 71.7833 1346.92 74.4144 1341.26C76.5812 1336.59 79.9216 1295.97 115.886 1300.62C118.678 1300.98 145.395 1297.57 154.817 1298.98C165.38 1300.57 162.62 1303.76 172.738 1321.9C178.303 1320.41 232.556 1292.7 263.529 1344.16C266.973 1349.9 283.617 1385.98 285.3 1389.64C308.573 1374.17 309.231 1375.59 336.373 1365.34C333.226 1356.03 305.142 1344.49 348.748 1295.1C372.802 1267.86 448.478 1295.07 488.64 1371.85C521.883 1435.44 517.878 1455.8 498.964 1501.35C471.944 1566.45 432.601 1590.52 411.34 1604.77C342.725 1650.74 332.588 1630.84 137.096 1659.31C-13.1783 1681.19 -138.664 1624.82 -151.071 1621.34C-160.479 1618.7 -170.933 1619.3 -180.335 1616.66C-191.749 1596.61 -192.033 1596.65 -192.033 1595.28Z" fill="url(#paint0_linear_18_13)"/>
<path fill-rule="evenodd" clip-rule="evenodd" d="M331.484 1331.91C323.23 1325.07 282.293 1329.07 283.673 1333.11C286.994 1342.99 322.881 1344.84 333.406 1338.13C337.365 1335.6 334.573 1335.04 331.484 1331.91Z" fill="#E8EEF8"/>
<path fill-rule="evenodd" clip-rule="evenodd" d="M300.782 1314.7C286.079 1312.24 285.963 1312.05 271.144 1314.25C232.129 1320.04 272.891 1325.3 274.078 1325.37C275.612 1325.46 281.597 1325.79 293.069 1323.46C304.645 1321.11 307.869 1318.09 309.5 1317.49L300.782 1314.7Z" fill="#E8EEF8"/>
<path fill-rule="evenodd" clip-rule="evenodd" d="M-10.1553 1449.86C-14.2502 1448.93 -46.642 1441.63 -62.551 1458.11C-73.4622 1469.4 26.4346 1465.37 3.41922 1449.96C-4.30632 1444.79 -9.64584 1449.86 -10.1553 1449.86Z" fill="#E8EEF8"/>
<path fill-rule="evenodd" clip-rule="evenodd" d="M7.38515 1435.57C7.01113 1435.49 -8.4464 1429.91 -22.3885 1437.94C-28.3148 1441.36 -19.2609 1443.3 -18.6418 1443.43C-4.01615 1446.55 10.9384 1439.07 10.6482 1438.62C9.88725 1437.44 8.13965 1436.75 7.38515 1435.57Z" fill="#E8EEF8"/>
</g>
</g>
<g filter="url(#filter0_f_18_13)">
<path d="M-392.576 104.472C-400.779 92.3701 -388.589 76.8804 -374.898 82.0088L-173.904 157.3C-173.044 157.622 -172.265 157.992 -171.478 158.465C-159.083 165.901 -47.8818 232.399 19.8601 265.362C120.908 314.53 183.216 469.74 302.611 508.386C532.078 582.661 828.041 618.934 1101.96 639.038C1311.06 654.385 1570.97 719.134 1627.03 733.567C1633.61 735.262 1638 741.156 1638 747.951V948.287V1274.43C1638 1285.76 1626 1293.17 1615.89 1288.04C1548.65 1253.9 1336.86 1151.21 1101.96 1087.03C786.948 1000.96 323.301 969.862 53.715 877.268C-193.043 792.513 -288.525 624.407 -302.926 596.545C-304.284 593.918 -304.655 591.031 -304.204 588.108L-260.657 306.248C-260.078 302.504 -260.938 298.679 -263.064 295.542L-392.576 104.472Z" fill="url(#paint1_linear_18_13)"/>
</g>
<defs>
<filter id="filter0_f_18_13" x="-476.231" y="0" width="2195.23" height="1370.7" filterUnits="userSpaceOnUse" color-interpolation-filters="sRGB">
<feFlood flood-opacity="0" result="BackgroundImageFix"/>
<feBlend mode="normal" in="SourceGraphic" in2="BackgroundImageFix" result="shape"/>
<feGaussianBlur stdDeviation="40.5" result="effect1_foregroundBlur_18_13"/>
</filter>
<linearGradient id="paint0_linear_18_13" x1="150.475" y1="1284.8" x2="150.475" y2="1664.34" gradientUnits="userSpaceOnUse">
<stop offset="0.32212" stop-color="#BBD8FA"/>
<stop offset="0.807703" stop-color="#A1D4F2"/>
</linearGradient>
<linearGradient id="paint1_linear_18_13" x1="504.487" y1="-20.8135" x2="240.228" y2="1405.2" gradientUnits="userSpaceOnUse">
<stop offset="0.270343" stop-color="#869FAC"/>
<stop offset="0.754494" stop-color="#A1D4F2"/>
</linearGradient>
</defs>
</svg>
