<svg width="1440" height="1559" viewBox="0 0 1440 1559" fill="none" xmlns="http://www.w3.org/2000/svg">
<path d="M-53.8135 689.2L110.519 731.917C110.519 731.917 188.208 756.073 247.427 769.894C330.751 789.341 351.003 835.047 449.567 850.839C638.997 881.191 823.59 890.892 1050.11 901.794C1245.04 911.177 1468.14 945.3 1468.14 945.3L1479.6 1167.24L1485.11 1274.6L1510.1 1554.84L-3.31984 1535.03L-41.3862 1239.92L-51.4883 1043.89L-57.4719 927.775L-55.2123 780.423L-53.8135 689.2Z" fill="#A1D4F2"/>
<g opacity="0.75">
<mask id="mask0_30_3" style="mask-type:alpha" maskUnits="userSpaceOnUse" x="-199" y="947" width="471" height="439">
<path fill-rule="evenodd" clip-rule="evenodd" d="M-194.905 1366.54C-201.586 1355.64 -201.468 1349.79 -184.053 1336.06C-170.865 1325.66 -157.239 1339.15 -156.684 1339.55C-152.951 1328.88 -147.732 1325.24 -159.312 1321.56C-183.263 1313.98 -194.322 1292.57 -183.936 1273.31C-169.727 1247.04 -153.68 1253.64 -149.218 1254.03C-156.016 1246.81 -163.074 1243.75 -157.418 1226.4C-155.899 1221.73 -152.866 1207.86 -131.741 1202.35C-108.256 1196.21 -146.185 1183.54 -143.792 1152.21C-142.363 1133.65 -125.996 1059.3 -75.0851 1082.01C-70.1859 1074.14 -70.3316 1073.11 -60.5002 1072.22C-72.3722 1033.14 -80.3981 1021.51 -66.4809 1002.42C-49.705 979.398 -34.8851 987.657 -30.9168 987.96C-30.8604 987.768 -33.719 962.521 5.60649 954.676C27.1076 950.391 35.3075 963.025 43.6531 970.499C57.3635 961.16 65.7937 950.071 104.16 947.668C189.464 942.328 174.875 1012.98 173.299 1020.54C175.284 1021.35 192.351 1025.32 191.213 1035.85C189.577 1051.37 167.728 1065.31 164.897 1067.12C176.478 1075.16 187.217 1077.36 183.54 1099.9C189.958 1097.82 233.806 1073.95 257.875 1128.81C276.635 1171.54 271.966 1182.47 270.071 1186.87C262.807 1203.8 257.174 1211.63 230.158 1221.29C219.979 1248.41 216.184 1246.39 213.269 1249.2C210.584 1251.78 221.29 1254.92 200.081 1291.88C201.073 1291.69 241.216 1273.71 258.138 1317.16C268.524 1343.87 227.186 1377.19 163.44 1363.81C150.106 1361.01 132.079 1376.19 109.44 1369.58C100.977 1367.11 72.5313 1379.08 -33.4557 1385.38" fill="white"/>
</mask>
<g mask="url(#mask0_30_3)">
<path fill-rule="evenodd" clip-rule="evenodd" d="M-194.905 1366.54C-201.586 1355.64 -201.468 1349.79 -184.053 1336.06C-170.865 1325.66 -157.239 1339.15 -156.684 1339.55C-152.951 1328.88 -147.732 1325.24 -159.312 1321.56C-183.263 1313.98 -194.322 1292.57 -183.936 1273.31C-169.727 1247.04 -153.68 1253.64 -149.218 1254.03C-156.016 1246.81 -163.074 1243.75 -157.418 1226.4C-155.899 1221.73 -152.866 1207.86 -131.741 1202.35C-108.256 1196.21 -146.185 1183.54 -143.792 1152.21C-142.363 1133.65 -125.996 1059.3 -75.0898 1082.01C-70.1859 1074.14 -70.3316 1073.11 -60.5002 1072.22C-72.3722 1033.14 -80.3981 1021.51 -66.4809 1002.42C-49.705 979.398 -34.8851 987.657 -30.9168 987.96C-30.8604 987.768 -33.719 962.521 5.6112 954.676C27.1076 950.391 35.3075 963.025 43.6484 970.499C57.3635 961.16 65.7937 950.071 104.16 947.668C189.464 942.328 174.875 1012.98 173.299 1020.54C175.284 1021.35 192.351 1025.32 191.213 1035.85C189.577 1051.37 167.728 1065.31 164.897 1067.12C176.483 1075.16 187.217 1077.36 183.54 1099.9C189.958 1097.82 233.806 1073.95 257.875 1128.81C276.635 1171.54 271.966 1182.47 270.071 1186.87C262.807 1203.8 257.174 1211.63 230.158 1221.29C219.979 1248.41 216.184 1246.39 213.269 1249.2C210.584 1251.78 221.29 1254.92 200.081 1291.88C201.073 1291.69 241.216 1273.71 258.138 1317.16C268.524 1343.87 227.186 1377.19 163.44 1363.81C150.106 1361.01 132.079 1376.19 109.44 1369.58C100.977 1367.11 72.5313 1379.08 -33.4557 1385.38" fill="black"/>
<path fill-rule="evenodd" clip-rule="evenodd" d="M-204.833 1367.78C-209.605 1360.3 -232.738 1336.21 -213.752 1298.27C-200.117 1271.04 -178.353 1271.03 -178.042 1271.14C-171.982 1273.34 -194.654 1204.07 -138.919 1228.49C-137.616 1229.06 -109.528 1227.31 -102.546 1235.93C-100.835 1238.05 -94.0641 1253.8 -92.8745 1253.79C-82.1122 1253.75 -82.8363 1250.69 -72.074 1249.85C-70.3484 1249.71 -71.096 1250.79 -57.1788 1264.23C-45.8099 1258.1 -34.4411 1251.97 -23.0581 1245.84C-26.0155 1236.34 -33.5336 1228.36 -36.491 1218.86C-39.8199 1208.12 -21.6946 1186.87 -21.5818 1184.11C-19.7998 1138.24 5.2888 1151.52 7.38579 1146.58C9.11603 1142.53 11.7772 1107.16 40.4204 1111.2C42.6443 1111.51 63.9245 1108.54 71.4285 1109.78C79.8399 1111.16 77.6442 1113.94 85.703 1129.73C90.1321 1128.44 133.346 1104.3 158.011 1149.12C160.757 1154.11 174.011 1185.53 175.356 1188.72C193.891 1175.24 194.417 1176.48 216.036 1167.55C213.53 1159.46 191.159 1149.4 225.891 1106.39C245.05 1082.68 305.327 1106.36 337.313 1173.22C363.789 1228.6 360.601 1246.33 345.536 1285.99C324.016 1342.68 292.679 1363.64 275.748 1376.05C221.09 1416.08 213.022 1398.75 57.3138 1423.54C-62.3742 1442.59 -162.324 1393.5 -172.207 1390.47C-179.697 1388.17 -188.024 1388.7 -195.514 1386.4C-204.607 1368.94 -204.833 1368.98 -204.833 1367.78Z" fill="#D1DCF0" fill-opacity="0.5"/>
<path fill-rule="evenodd" clip-rule="evenodd" d="M-194.905 1366.54C-201.586 1355.64 -201.468 1349.79 -184.053 1336.06C-170.865 1325.66 -157.239 1339.15 -156.684 1339.55C-152.951 1328.88 -147.732 1325.24 -159.312 1321.56C-183.263 1313.98 -194.322 1292.57 -183.936 1273.31C-169.727 1247.04 -153.68 1253.64 -149.218 1254.03C-156.016 1246.81 -163.074 1243.75 -157.418 1226.4C-155.899 1221.73 -152.866 1207.86 -131.741 1202.35C-108.256 1196.21 -146.185 1183.54 -143.792 1152.21C-142.363 1133.65 -125.996 1059.3 -75.0898 1082.01C-70.1859 1074.14 -70.3316 1073.11 -60.5002 1072.22C-72.3722 1033.14 -80.3981 1021.51 -66.4809 1002.42C-49.705 979.398 -34.8851 987.657 -30.9168 987.96C-30.8604 987.768 -33.719 962.521 5.6112 954.676C27.1076 950.391 35.3075 963.025 43.6484 970.499C57.3635 961.16 65.7937 950.071 104.16 947.668C189.464 942.328 174.875 1012.98 173.299 1020.54C175.284 1021.35 192.351 1025.32 191.213 1035.85C189.577 1051.37 167.728 1065.31 164.897 1067.12C176.483 1075.16 187.217 1077.36 183.54 1099.9C189.958 1097.82 233.806 1073.95 257.875 1128.81C276.635 1171.54 271.966 1182.47 270.071 1186.87C262.807 1203.8 257.174 1211.63 230.158 1221.29C219.979 1248.41 216.184 1246.39 213.269 1249.2C210.584 1251.78 221.29 1254.92 200.081 1291.88C201.073 1291.69 241.216 1273.71 258.138 1317.16C268.524 1343.87 227.186 1377.19 163.44 1363.81C150.106 1361.01 132.079 1376.19 109.44 1369.58C100.977 1367.11 72.5313 1379.08 -33.4557 1385.38" fill="#FFEFF4"/>
<path fill-rule="evenodd" clip-rule="evenodd" d="M-195.379 1367.78C-199.747 1360.29 -220.923 1336.21 -203.541 1298.27C-191.062 1271.03 -171.141 1271.02 -170.854 1271.14C-165.306 1273.34 -186.06 1204.07 -135.041 1228.49C-133.851 1229.06 -108.133 1227.3 -101.743 1235.93C-100.177 1238.05 -93.9805 1253.8 -92.8944 1253.79C-83.0396 1253.75 -83.7025 1250.68 -73.8523 1249.85C-72.2725 1249.71 -72.959 1250.79 -60.2172 1264.23C-49.8075 1258.1 -39.4025 1251.96 -28.9787 1245.83C-31.6869 1236.34 -38.5703 1228.36 -41.2785 1218.86C-44.3253 1208.12 -27.7374 1186.87 -27.634 1184.11C-25.9978 1138.24 -3.02969 1151.52 -1.11137 1146.58C0.468421 1142.53 2.90392 1107.15 29.1256 1111.2C31.1615 1111.51 50.6409 1108.54 57.5102 1109.77C65.2117 1111.16 63.1993 1113.94 70.5764 1129.73C74.634 1128.43 114.19 1104.3 136.772 1149.11C139.283 1154.11 151.418 1185.53 152.646 1188.71C169.614 1175.24 170.094 1176.48 189.884 1167.55C187.589 1159.45 167.113 1149.4 198.906 1106.39C216.444 1082.68 271.619 1106.36 300.901 1173.22C325.139 1228.6 322.219 1246.33 308.429 1286C288.729 1342.68 260.043 1363.64 244.541 1376.04C194.515 1416.08 187.124 1398.75 44.5897 1423.54C-64.9754 1442.59 -156.467 1393.5 -165.513 1390.47C-172.373 1388.17 -179.995 1388.7 -186.85 1386.4C-195.172 1368.94 -195.379 1368.98 -195.379 1367.78Z" fill="url(#paint0_linear_30_3)"/>
<path fill-rule="evenodd" clip-rule="evenodd" d="M186.318 1138.45C180.3 1132.49 150.453 1135.98 151.459 1139.49C153.881 1148.09 180.046 1149.7 187.719 1143.86C190.606 1141.66 188.57 1141.17 186.318 1138.45Z" fill="#E8EEF8"/>
<path fill-rule="evenodd" clip-rule="evenodd" d="M163.934 1123.46C153.214 1121.32 153.129 1121.15 142.324 1123.07C113.879 1128.11 143.599 1132.69 144.464 1132.75C145.583 1132.83 149.946 1133.12 158.31 1131.09C166.75 1129.04 169.101 1126.41 170.291 1125.89L163.934 1123.46Z" fill="#E8EEF8"/>
</g>
</g>
<g filter="url(#filter0_f_30_3)">
<path d="M-172.174 103.816C-179.684 91.3866 -166.912 76.6048 -153.524 82.2312L52.8609 168.968C53.7658 169.348 54.5857 169.786 55.4 170.334C68.1241 178.898 180.941 254.583 249.687 292.112C352.307 348.134 415.585 524.977 536.837 569.01C769.874 653.638 1070.44 694.966 1348.62 717.873C1561.75 735.423 1826.86 809.673 1882.47 825.756C1888.84 827.597 1893 833.378 1893 840.006V1070.23V1443.85C1893 1455.52 1880.34 1462.91 1870.2 1457.14C1801.54 1418.04 1586.77 1301.3 1348.62 1228.31C1028.71 1130.25 557.848 1094.81 284.069 989.308C30.8872 891.744 -65.4793 697.241 -78.5465 668.526C-79.6476 666.107 -79.9302 663.564 -79.5675 660.93L-35.0034 337.318C-34.5348 333.916 -35.2482 330.455 -37.0244 327.515L-172.174 103.816Z" fill="url(#paint1_linear_30_3)"/>
</g>
<defs>
<filter id="filter0_f_30_3" x="-255.405" y="0" width="2229.41" height="1540.14" filterUnits="userSpaceOnUse" color-interpolation-filters="sRGB">
<feFlood flood-opacity="0" result="BackgroundImageFix"/>
<feBlend mode="normal" in="SourceGraphic" in2="BackgroundImageFix" result="shape"/>
<feGaussianBlur stdDeviation="40.5" result="effect1_foregroundBlur_30_3"/>
</filter>
<linearGradient id="paint0_linear_30_3" x1="54.3447" y1="1097.42" x2="54.3447" y2="1427.92" gradientUnits="userSpaceOnUse">
<stop offset="0.32212" stop-color="#BBD8FA"/>
<stop offset="0.807703" stop-color="#A1D4F2"/>
</linearGradient>
<linearGradient id="paint1_linear_30_3" x1="741.853" y1="-33.9513" x2="406.925" y2="1576.99" gradientUnits="userSpaceOnUse">
<stop offset="0.270343" stop-color="#869FAC"/>
<stop offset="0.754494" stop-color="#A1D4F2"/>
</linearGradient>
</defs>
</svg>
