<svg width="1440" height="813" viewBox="0 0 1440 813" fill="none" xmlns="http://www.w3.org/2000/svg">
<g clip-path="url(#clip0_71_1069)">
<path d="M1346.74 96.9947L1271.81 137.664C1271.81 137.664 1074.35 83.6093 1017.5 134.624C937.524 206.407 768.126 81.2437 673.626 137.664C492.007 246.099 757.306 92.6499 540.5 122C355.165 137.563 500 126 500 126L380 127.5L244 128.5H183H89H-57.5L-129 589.737C-129 589.737 -16.916 1145.35 208.673 1031.66C458.003 906.015 1515.7 1073.66 1729.07 938.482C1942.45 803.301 1465.34 81.7967 1465.34 81.7967L1475.19 96.9946L1416.5 134.624L1346.74 96.9947Z" fill="url(#paint0_linear_71_1069)"/>
<path d="M1218.65 1.70457C1242.09 0.447479 1237.39 -0.600921 1266.08 12.3588C1288.18 22.3522 1291.67 25.7528 1304.56 49.8546C1321.37 81.2728 1335.48 94.8293 1362.98 105.944C1388.89 116.425 1412.54 116.67 1422.19 106.568C1426.18 102.389 1434.98 96.8013 1441.73 94.1523C1458.32 87.6587 1471.65 96.0783 1485.38 121.726C1499.9 148.848 1523.53 165.597 1551.57 168.636C1563.84 169.966 1577.61 173.474 1582.17 176.431C1586.73 179.389 1598.19 181.814 1607.63 181.814C1619.32 181.814 1629.33 184.97 1638.97 191.717C1646.77 197.161 1659.91 202.613 1668.17 203.834C1676.43 205.064 1692.39 208.665 1703.64 211.848C1714.88 215.023 1730.96 217.654 1739.37 217.69C1747.77 217.726 1757.48 219.48 1760.95 221.605C1765.04 224.101 1509.37 225.486 1035.17 225.523C371.445 225.586 302.842 224.997 300.53 219.291C295.888 207.85 297.874 187.701 304.521 178.721C312.305 168.194 339.897 166.674 356.831 175.845C376.781 186.643 388.242 183.395 413.035 159.927C430.636 143.259 439.127 138.04 448.592 138.04C457.426 138.04 467.188 132.786 482.354 119.881C507.721 98.2933 577.554 67.2097 608.489 63.7459C625.641 61.8196 632.184 63.0039 644.647 70.2931C666.757 83.2349 728.024 84.9713 760.515 73.576C773.179 69.1446 793.111 64.1264 804.82 62.4351C825.631 59.4055 854.981 47.1058 880.223 30.8269C897.356 19.7754 908.922 20.5619 925.27 33.9012C932.87 40.0963 942.33 46.2907 946.31 47.6654C950.3 49.0315 960.52 59.3334 969.03 70.5475C983.86 90.0726 985.16 90.8313 999.63 88.3356C1017.28 85.2966 1042.01 70.6825 1042.05 63.2576C1042.08 58.383 1045.16 54.0056 1058.29 40.2772C1063.31 35.014 1066.13 35.5028 1082.15 44.3927C1092.15 49.936 1102.31 54.4747 1104.75 54.4754C1107.18 54.4754 1121.59 43.8218 1136.75 30.8167C1165.52 6.13607 1170.77 4.27297 1218.65 1.70457Z" fill="#AED195"/>
<g style="mix-blend-mode:multiply" opacity="0.5">
<path d="M-112.875 596.956V502.188C-112.875 502.188 772.693 533.162 1000.97 462.679C1383.98 344.417 1223.96 106.36 1335.3 113.142C1858.91 145.036 1312.49 511.866 1529.54 520.672C1716.33 528.251 1633.87 565.694 1633.87 565.694V911.186L1127.15 1041C1127.15 1041 -123.253 1006.48 -436.722 1006.48C-724.238 1006.48 -282.72 787.279 -496.336 746.72C-709.953 706.162 -281.284 658.493 -281.284 658.493V630.689L-112.875 596.956Z" fill="#FFBFA0"/>
<path d="M-19 128.5C-19 128.5 1030.29 132.546 1241.5 95C1503 128.5 1171.76 322.649 1274.78 326.262C1759.26 343.252 1318.14 248.154 1518.97 252.845C1691.8 256.882 1615.5 276.828 1615.5 276.828V460.871L1146.65 530.023C1146.65 530.023 -10.3128 511.634 -300.357 511.634C-566.388 511.634 -157.863 394.866 -355.516 373.261C-553.17 351.655 -156.535 326.262 -156.535 326.262L-19 128.5Z" fill="#FFBFA0"/>
<path d="M1218.65 1.70562C1242.09 0.445888 1237.39 -0.604547 1266.08 12.3824C1288.18 22.3967 1291.67 25.8052 1304.56 49.9576C1321.37 81.4415 1335.48 95.0263 1362.98 106.165C1388.89 116.668 1412.54 116.913 1422.19 106.79C1426.18 102.602 1434.98 97.0028 1441.73 94.3482C1458.32 87.841 1471.65 96.2782 1485.38 121.98C1499.9 149.159 1523.53 165.943 1551.57 168.989C1563.84 170.322 1577.61 173.837 1582.17 176.8C1586.73 179.764 1598.19 182.194 1607.63 182.194C1619.32 182.194 1629.33 185.357 1638.97 192.118C1646.77 197.573 1659.91 203.037 1668.17 204.26C1676.43 205.493 1692.39 209.102 1703.64 212.292C1714.88 215.473 1730.96 218.11 1739.37 218.146C1747.77 218.182 1757.48 219.939 1760.95 222.069C1765.03 224.57 1509.36 225.958 1035.17 225.995C371.445 226.058 302.842 225.468 300.53 219.75C295.888 208.284 297.873 188.093 304.52 179.094C312.305 168.545 339.897 167.022 356.831 176.212C376.781 187.033 388.242 183.779 413.035 160.261C430.636 143.558 439.127 138.328 448.592 138.328C457.426 138.328 467.188 133.063 482.353 120.131C507.72 98.498 577.554 67.3486 608.489 63.8775C625.641 61.9472 632.183 63.1346 644.646 70.439C666.756 83.408 728.023 85.1473 760.515 73.7281C773.179 69.2874 793.111 64.2589 804.82 62.564C825.631 59.5279 854.981 47.2022 880.223 30.8892C897.355 19.8145 908.921 20.603 925.269 33.9703C932.869 40.1782 942.329 46.3854 946.309 47.7632C950.299 49.1322 960.52 59.4563 969.03 70.6939C983.86 90.2596 985.16 91.02 999.63 88.5191C1017.28 85.4737 1042.01 70.8287 1042.05 63.3882C1042.08 58.5034 1045.16 54.117 1058.29 40.3599C1063.31 35.0857 1066.13 35.5755 1082.15 44.4839C1092.15 50.0389 1102.31 54.5868 1104.75 54.5875C1107.18 54.5868 1121.59 43.9115 1136.75 30.8794C1165.52 6.14708 1170.77 4.27941 1218.65 1.70562Z" fill="#FFBFA0"/>
</g>
</g>
<defs>
<linearGradient id="paint0_linear_71_1069" x1="2105.12" y1="315.076" x2="2105.12" y2="1043.48" gradientUnits="userSpaceOnUse">
<stop stop-color="#AED195"/>
<stop offset="0.26391" stop-color="#8CAB80"/>
<stop offset="0.479954" stop-color="#708B6F"/>
<stop offset="0.768013" stop-color="#445B55"/>
<stop offset="1" stop-color="#2C4252"/>
</linearGradient>
<clipPath id="clip0_71_1069">
<rect width="1440" height="813" fill="white"/>
</clipPath>
</defs>
</svg>
