<svg width="1440" height="1156" viewBox="0 0 1440 1156" fill="none" xmlns="http://www.w3.org/2000/svg">
<g clip-path="url(#clip0_24_2)">
<rect width="1440" height="8758" transform="translate(0 -7602)" fill="#2C4252"/>
<path d="M1524.25 -705.086L1304.25 -705.086C1304.25 -705.086 1052.53 -763.393 995.252 -705.086C914.664 -623.045 103.972 -686.07 8.75134 -621.586C-174.253 -497.654 173.711 -447.131 -44.7487 -413.586C-232.749 -384.718 -149.749 -242.086 -149.749 -242.086V111.414V697.414C-149.749 697.414 -36.8099 1332.43 190.5 1202.5C441.732 1058.89 1507.5 1250.5 1722.5 1096C1937.5 941.5 1524.25 -492.586 1524.25 -492.586L1601.25 -669.586L1524.25 -705.086Z" fill="url(#paint0_linear_24_2)"/>
<path d="M1474.44 -1214.3L1254.41 -1214.3C1254.41 -1214.3 1002.66 -1276.63 945.378 -1214.3C864.782 -1126.59 54.0011 -1193.97 -41.2294 -1125.03C-224.254 -992.549 123.748 -938.539 -94.7352 -902.679C-282.756 -871.818 -199.747 -719.342 -199.747 -719.342V-341.444L-371.499 191C-371.499 191 -61.2352 157.5 295 191C588.153 218.568 1412.48 81.1632 1627.5 -84C1842.52 -249.163 1474.44 -987.131 1474.44 -987.131L1551.44 -1176.35L1474.44 -1214.3Z" fill="#869FAC"/>
<path d="M1282.65 7.81588C1306.09 6.36019 1301.39 5.14615 1330.08 20.1534C1352.18 31.7257 1355.67 35.6635 1368.56 63.5731C1385.37 99.9551 1399.48 115.653 1426.98 128.524C1452.89 140.662 1476.54 140.945 1486.19 129.247C1490.18 124.408 1498.98 117.937 1505.73 114.869C1522.32 107.35 1535.65 117.099 1549.38 146.799C1563.9 178.207 1587.53 197.602 1615.57 201.121C1627.84 202.661 1641.61 206.724 1646.17 210.148C1650.73 213.573 1662.19 216.381 1671.63 216.381C1683.32 216.381 1693.33 220.036 1702.97 227.848C1710.77 234.153 1723.91 240.467 1732.17 241.88C1740.43 243.305 1756.39 247.474 1767.64 251.16C1778.88 254.836 1794.96 257.883 1803.37 257.925C1811.77 257.967 1821.48 259.998 1824.95 262.459C1829.04 265.35 1573.37 266.953 1099.17 266.995C435.445 267.068 366.842 266.387 364.53 259.779C359.888 246.531 361.874 223.199 368.521 212.799C376.305 200.609 403.897 198.849 420.831 209.469C440.781 221.973 452.242 218.212 477.035 191.036C494.636 171.735 503.127 165.692 512.592 165.692C521.426 165.692 531.188 159.608 546.354 144.663C571.721 119.665 641.554 83.6702 672.489 79.6591C689.641 77.4285 696.184 78.7999 708.647 87.2407C730.757 102.227 792.024 104.238 824.515 91.0423C837.179 85.9108 857.111 80.0997 868.82 78.1413C889.631 74.6329 918.981 60.39 944.223 41.5392C961.356 28.7417 972.922 29.6524 989.272 45.0993C996.865 52.2731 1006.33 59.4462 1010.31 61.038C1014.3 62.6199 1024.52 74.5495 1033.03 87.5352C1047.86 110.145 1049.16 111.024 1063.63 108.134C1081.28 104.615 1106.01 87.6916 1106.05 79.0936C1106.08 73.4489 1109.16 68.3799 1122.29 52.4825C1127.31 46.3879 1130.13 46.9538 1146.15 57.2482C1156.15 63.6673 1166.31 68.9232 1168.75 68.924C1171.18 68.924 1185.59 56.5872 1200.75 41.5274C1229.52 12.9475 1234.77 10.7901 1282.65 7.81588Z" fill="#AED195"/>
<g opacity="0.5" style="mix-blend-mode:multiply">
<path d="M26.4445 -324.997V-685.999C26.4445 -685.999 917.748 -568.01 1147.5 -836.5C1533 -1287 1371.94 -2193.84 1484 -2168C2011 -2046.5 1461.04 -649.132 1679.5 -615.587C1867.5 -586.719 1784.5 -444.086 1784.5 -444.086V872L1274.5 1366.5C1274.5 1366.5 15.9998 1235 -299.5 1235C-588.879 1235 -144.5 400 -359.5 245.5C-574.5 90.9995 -143.056 -90.5862 -143.056 -90.5862V-196.499L26.4445 -324.997Z" fill="#FFBFA0"/>
</g>
</g>
<defs>
<linearGradient id="paint0_linear_24_2" x1="808" y1="330" x2="808" y2="1162.5" gradientUnits="userSpaceOnUse">
<stop stop-color="#AED195"/>
<stop offset="0.26391" stop-color="#8CAB80"/>
<stop offset="0.479954" stop-color="#708B6F"/>
<stop offset="0.768013" stop-color="#445B55"/>
<stop offset="1" stop-color="#2C4252"/>
</linearGradient>
<clipPath id="clip0_24_2">
<rect width="1440" height="8758" fill="white" transform="translate(0 -7602)"/>
</clipPath>
</defs>
</svg>
