<svg width="1440" height="813" viewBox="0 0 1440 813" fill="none" xmlns="http://www.w3.org/2000/svg">
<g clip-path="url(#clip0_43_1468)">
<rect width="1440" height="8557" transform="translate(0 -7744)" fill="#2C4252"/>
<path d="M1539.25 -604.463L1319.25 -604.463C1319.25 -604.463 1067.53 -654.814 1010.25 -604.463C929.664 -533.615 118.972 -588.041 23.7513 -532.355C-159.253 -425.332 188.711 -381.702 -29.7487 -352.734C-217.749 -327.804 -134.749 -204.632 -134.749 -204.632V100.638V606.688C-134.749 606.688 -21.8099 1155.07 205.5 1042.86C456.732 918.849 1522.5 1084.31 1737.5 950.893C1952.5 817.472 1539.25 -420.955 1539.25 -420.955L1616.25 -573.806L1539.25 -604.463Z" fill="url(#paint0_linear_43_1468)"/>
<path d="M1489.43 -1044.2L1269.41 -1044.2C1269.41 -1044.2 1017.66 -1098.03 960.377 -1044.2C879.781 -968.463 69.0002 -1026.64 -26.2303 -967.116C-209.255 -852.706 138.747 -806.065 -79.7362 -775.097C-267.757 -748.447 -184.748 -616.774 -184.748 -616.774V-290.435L-356.5 169.366C-356.5 169.366 -46.2362 140.437 309.999 169.366C603.152 193.173 1427.48 74.5148 1642.5 -68.1144C1857.52 -210.744 1489.43 -848.027 1489.43 -848.027L1566.44 -1011.43L1489.43 -1044.2Z" fill="#869FAC"/>
<path d="M1297.65 11.1743C1321.09 9.91721 1316.39 8.86881 1345.08 21.8285C1367.18 31.8219 1370.67 35.2225 1383.56 59.3243C1400.37 90.7425 1414.48 104.299 1441.98 115.414C1467.89 125.895 1491.54 126.14 1501.19 116.038C1505.18 111.859 1513.98 106.271 1520.73 103.622C1537.32 97.1284 1550.65 105.548 1564.38 131.196C1578.9 158.318 1602.53 175.067 1630.57 178.106C1642.84 179.436 1656.61 182.944 1661.17 185.901C1665.73 188.859 1677.19 191.284 1686.63 191.284C1698.32 191.284 1708.33 194.44 1717.97 201.187C1725.77 206.631 1738.91 212.083 1747.17 213.304C1755.43 214.534 1771.39 218.135 1782.64 221.318C1793.88 224.493 1809.96 227.124 1818.37 227.16C1826.77 227.196 1836.48 228.95 1839.95 231.075C1844.04 233.571 1588.37 234.956 1114.17 234.993C450.445 235.056 381.842 234.467 379.53 228.761C374.888 217.32 376.874 197.171 383.521 188.191C391.305 177.664 418.897 176.144 435.831 185.315C455.781 196.113 467.242 192.865 492.035 169.397C509.636 152.729 518.127 147.51 527.592 147.51C536.426 147.51 546.188 142.256 561.354 129.351C586.721 107.763 656.554 76.6794 687.489 73.2156C704.641 71.2893 711.184 72.4736 723.647 79.7628C745.757 92.7046 807.024 94.441 839.515 83.0457C852.179 78.6143 872.111 73.5961 883.82 71.9048C904.631 68.8752 933.981 56.5755 959.223 40.2966C976.356 29.2451 987.922 30.0316 1004.27 43.3709C1011.87 49.566 1021.33 55.7604 1025.31 57.1351C1029.3 58.5012 1039.52 68.8031 1048.03 80.0172C1062.86 99.5423 1064.16 100.301 1078.63 97.8053C1096.28 94.7663 1121.01 80.1522 1121.05 72.7273C1121.08 67.8527 1124.16 63.4753 1137.29 49.7469C1142.31 44.4837 1145.13 44.9725 1161.15 53.8624C1171.15 59.4057 1181.31 63.9444 1183.75 63.9451C1186.18 63.9451 1200.59 53.2915 1215.75 40.2864C1244.52 15.6058 1249.77 13.7427 1297.65 11.1743Z" fill="#AED195"/>
<g opacity="0.5" style="mix-blend-mode:multiply">
<path d="M-90.0052 -419.98V-731.729C-90.0052 -731.729 801.299 -629.837 1031.05 -861.696C1416.55 -1250.73 1255.49 -2033.84 1367.55 -2011.53C1894.55 -1906.61 1344.59 -699.891 1563.05 -670.923C1751.05 -645.993 1668.05 -522.821 1668.05 -522.821V613.705L1158.05 1040.74C1158.05 1040.74 -100.45 927.179 -415.95 927.179C-705.328 927.179 -260.95 206.102 -475.95 72.6813C-690.95 -60.7396 -259.505 -217.551 -259.505 -217.551V-309.013L-90.0052 -419.98Z" fill="#FFBFA0"/>
</g>
</g>
<defs>
<linearGradient id="paint0_linear_43_1468" x1="823" y1="289.402" x2="823" y2="1008.32" gradientUnits="userSpaceOnUse">
<stop stop-color="#AED195"/>
<stop offset="0.26391" stop-color="#8CAB80"/>
<stop offset="0.479954" stop-color="#708B6F"/>
<stop offset="0.768013" stop-color="#445B55"/>
<stop offset="1" stop-color="#2C4252"/>
</linearGradient>
<clipPath id="clip0_43_1468">
<rect width="1440" height="8557" fill="white" transform="translate(0 -7744)"/>
</clipPath>
</defs>
</svg>
