<svg width="1512" height="2198" viewBox="0 0 1512 2198" fill="none" xmlns="http://www.w3.org/2000/svg">
<mask id="mask0_466_27" style="mask-type:alpha" maskUnits="userSpaceOnUse" x="0" y="0" width="1512" height="2198">
<rect width="1512" height="2198" fill="#D9D9D9"/>
</mask>
<g mask="url(#mask0_466_27)">
<path d="M1.10547 121.926L174.069 123.14V13.2407L344.108 10L330.554 150.462L598.214 137.409L593.369 247.681H760.884L753.26 90.7433H923.105L929.458 259.75L966.731 258.406L968.425 161.394H1092.68V259.302L1118.79 258.855L1116.24 128.067L1315.74 120.452L1302.61 71.3059H1511.22V349L1.10547 317.082V121.926Z" fill="#DAAAD4"/>
<path d="M591.514 137.417L520.967 95.8228L346.297 99.4063L277.487 146.439L312.774 150.471L591.514 137.417Z" fill="#D59DCE"/>
<path d="M1512 296.547H0V873.325H1512V296.547Z" fill="#DAAAD4"/>
<path d="M149.812 13.2409L326.89 10L293.367 415.837L159.277 562.569L149.812 13.2409Z" fill="#D59DCE"/>
<path d="M586.249 252.418H762.684H854.429L850.901 541.068L559.784 548.235L520.969 252.418H586.249Z" fill="#D59DCE"/>
<path d="M977.049 161.404L981.46 548.235H1113.79L1106.45 161.404H977.049Z" fill="#D59DCE"/>
<path d="M1275.59 69L1297.64 725.039H1503.63L1492.83 69H1275.59Z" fill="#D59DCE"/>
<path d="M752.979 90.7487L800.244 71.6348H897.243L929.854 90.7487H752.979Z" fill="#D59DCE"/>
<path d="M520.969 252.418L605.935 216.602L798.062 218.502L854.429 252.418H520.969Z" fill="#CF8FC7"/>
<path d="M977.049 161.404L1026.01 145.544L1073.65 143.752L1106.45 161.404H977.049Z" fill="#CF8FC7"/>
<path d="M1130.99 128.075L1202.22 111.501L1308.53 106.125L1347.12 119.787L1130.99 128.075Z" fill="#D59DCE"/>
<path d="M1196.04 365L1374.76 369.9V536.073L1512 541.055V704.445V830.698V3104H0.000544503L0.000419636 1178.78L0.000544503 978.119L0 488.415H188.659L186.729 550.933L205.352 541.055L312.635 549.182L384.527 574.24L186.36 562.859L186.347 563.356L384.527 574.24L381.856 741.28L407.418 741.91L409.289 593.915L442.397 567.227L490.474 569.937L539.886 593.915L541.667 740.603L580.84 742.634L587.518 627.356L620.428 598.462H718.323L766.024 627.356L759.521 679.666L914.424 677.37L932.992 689.095L928.979 505.432L1000.18 442.549L1176.46 447.967L1205.12 529.529L1196.04 365Z" fill="#E6D2E3"/>
</g>
</svg>
