<svg width="1512" height="2198" viewBox="0 0 1512 2198" fill="none" xmlns="http://www.w3.org/2000/svg">
<g clip-path="url(#clip0_638_4231)">
<mask id="mask0_638_4231" style="mask-type:alpha" maskUnits="userSpaceOnUse" x="0" y="0" width="1512" height="2198">
<path d="M1512 0H0V2198H1512V0Z" fill="#D9D9D9"/>
</mask>
<g mask="url(#mask0_638_4231)">
<path d="M1.10547 121.926L174.069 123.14V13.2407L344.108 10L330.554 150.462L598.214 137.409L593.369 247.681H760.884L753.26 90.7433H923.105L929.458 259.75L966.731 258.406L968.425 161.394H1092.68V259.302L1118.79 258.855L1116.24 128.067L1315.74 120.452L1302.61 71.3059H1511.22V349L1.10547 317.082V121.926Z" fill="#DAAAD4"/>
<path d="M591.514 137.417L520.967 95.8232L346.297 99.4067L277.487 146.439L312.774 150.471L591.514 137.417Z" fill="#D59DCE"/>
<path d="M1512 296.547H0V873.325H1512V296.547Z" fill="#DAAAD4"/>
<path d="M149.812 13.2409L326.89 10L293.367 415.837L159.277 562.569L149.812 13.2409Z" fill="#D59DCE"/>
<path d="M586.249 252.418H762.684H854.429L850.901 541.068L559.784 548.235L520.969 252.418H586.249Z" fill="#D59DCE"/>
<path d="M977.049 161.404L981.46 548.235H1113.79L1106.45 161.404H977.049Z" fill="#D59DCE"/>
<path d="M1275.59 69L1297.64 725.039H1503.63L1492.83 69H1275.59Z" fill="#D59DCE"/>
<path d="M752.979 90.7487L800.244 71.6348H897.243L929.854 90.7487H752.979Z" fill="#D59DCE"/>
<path d="M520.969 252.418L605.935 216.602L798.062 218.502L854.429 252.418H520.969Z" fill="#CF8FC7"/>
<path d="M977.049 161.404L1026.01 145.544L1073.65 143.752L1106.45 161.404H977.049Z" fill="#CF8FC7"/>
<path d="M1130.99 128.075L1202.22 111.501L1308.53 106.125L1347.12 119.787L1130.99 128.075Z" fill="#D59DCE"/>
</g>
<path d="M35.5723 671.08H356.726H677.88C713.824 736.076 718.773 771.707 677.88 832.999H35.5723C-6.14454 769.767 -7.86006 734.313 35.5723 671.08Z" fill="#E8AFE0"/>
<path d="M680.346 429.495C680.346 598.594 535.579 735.677 357 735.677C178.421 735.677 33.6534 598.594 33.6534 429.495C33.6534 260.395 178.421 123.312 357 123.312C535.579 123.312 680.346 260.395 680.346 429.495Z" fill="#E8AFE0"/>
<path d="M224.094 432.925L279.459 363.615L315.076 443.737L224.094 432.925Z" stroke="#C578BA" stroke-width="5"/>
<path d="M372.498 373.974L317.133 443.285L281.516 363.162L372.498 373.974Z" stroke="#C578BA" stroke-width="5"/>
<path d="M277.584 362.696L222.218 432.006L186.601 351.884L277.584 362.696Z" stroke="#C578BA" stroke-width="5"/>
<path d="M186.832 350.141L242.197 280.831L277.814 360.953L186.832 350.141Z" stroke="#C578BA" stroke-width="5"/>
<path d="M281.744 361.42L337.109 292.109L372.726 372.232L281.744 361.42Z" stroke="#C578BA" stroke-width="5"/>
<path d="M203.596 585.184L258.962 515.874L294.579 595.996L203.596 585.184Z" stroke="#C578BA" stroke-width="5"/>
<path d="M352 526.236L296.635 595.546L261.018 515.424L352 526.236Z" stroke="#C578BA" stroke-width="5"/>
<path d="M257.089 514.955L201.724 584.265L166.107 504.142L257.089 514.955Z" stroke="#C578BA" stroke-width="5"/>
<path d="M166.334 502.399L221.7 433.088L257.317 513.211L166.334 502.399Z" stroke="#C578BA" stroke-width="5"/>
<path d="M261.249 513.681L316.615 444.371L352.232 524.493L261.249 513.681Z" stroke="#C578BA" stroke-width="5"/>
<path d="M314.739 443.452L259.373 512.762L223.756 432.64L314.739 443.452Z" stroke="#C578BA" stroke-width="5"/>
<path d="M70.3622 494.477L125.728 425.166L161.345 505.289L70.3622 494.477Z" stroke="#C578BA" stroke-width="5"/>
<path d="M218.766 435.529L163.401 504.839L127.784 424.717L218.766 435.529Z" stroke="#C578BA" stroke-width="5"/>
<path d="M123.855 424.247L68.4893 493.558L32.8724 413.435L123.855 424.247Z" stroke="#C578BA" stroke-width="5"/>
<path d="M33.1001 411.692L88.4657 342.381L124.083 422.504L33.1001 411.692Z" stroke="#C578BA" stroke-width="5"/>
<path d="M128.015 422.973L183.381 353.663L218.997 433.785L128.015 422.973Z" stroke="#C578BA" stroke-width="5"/>
<path d="M181.504 352.745L126.139 422.055L90.5218 341.933L181.504 352.745Z" stroke="#C578BA" stroke-width="5"/>
<path d="M336.831 682.37L392.196 613.059L427.813 693.182L336.831 682.37Z" stroke="#C578BA" stroke-width="5"/>
<path d="M485.235 623.421L429.869 692.732L394.252 612.609L485.235 623.421Z" stroke="#C578BA" stroke-width="5"/>
<path d="M390.324 612.14L334.958 681.451L299.341 601.328L390.324 612.14Z" stroke="#C578BA" stroke-width="5"/>
<path d="M299.569 599.585L354.934 530.274L390.551 610.397L299.569 599.585Z" stroke="#C578BA" stroke-width="5"/>
<path d="M394.484 610.867L449.849 541.556L485.466 621.679L394.484 610.867Z" stroke="#C578BA" stroke-width="5"/>
<path d="M447.973 540.637L392.607 609.948L356.99 529.825L447.973 540.637Z" stroke="#C578BA" stroke-width="5"/>
<path d="M357.328 526.874L412.694 457.563L448.311 537.686L357.328 526.874Z" stroke="#C578BA" stroke-width="5"/>
<path d="M505.732 467.925L450.367 537.236L414.75 457.113L505.732 467.925Z" stroke="#C578BA" stroke-width="5"/>
<path d="M410.821 456.644L355.456 525.955L319.839 445.832L410.821 456.644Z" stroke="#C578BA" stroke-width="5"/>
<path d="M320.067 444.088L375.432 374.778L411.049 454.9L320.067 444.088Z" stroke="#C578BA" stroke-width="5"/>
<path d="M414.981 455.371L470.347 386.06L505.964 466.183L414.981 455.371Z" stroke="#C578BA" stroke-width="5"/>
<path d="M468.47 385.141L413.105 454.452L377.488 374.329L468.47 385.141Z" stroke="#C578BA" stroke-width="5"/>
<path d="M377.827 371.376L433.192 302.065L468.809 382.188L377.827 371.376Z" stroke="#C578BA" stroke-width="5"/>
<path d="M526.231 312.427L470.865 381.738L435.248 301.615L526.231 312.427Z" stroke="#C578BA" stroke-width="5"/>
<path d="M431.319 301.146L375.954 370.457L340.337 290.334L431.319 301.146Z" stroke="#C578BA" stroke-width="5"/>
<path d="M340.565 288.59L395.93 219.28L431.547 299.402L340.565 288.59Z" stroke="#C578BA" stroke-width="5"/>
<path d="M435.479 299.873L490.845 230.562L526.462 310.685L435.479 299.873Z" stroke="#C578BA" stroke-width="5"/>
<path d="M488.969 229.643L433.603 298.954L397.986 218.831L488.969 229.643Z" stroke="#C578BA" stroke-width="5"/>
<path d="M244.592 283.909L299.958 214.598L335.575 294.721L244.592 283.909Z" stroke="#C578BA" stroke-width="5"/>
<path d="M392.996 224.96L337.631 294.271L302.014 214.148L392.996 224.96Z" stroke="#C578BA" stroke-width="5"/>
<path d="M298.085 213.679L242.719 282.99L207.102 202.867L298.085 213.679Z" stroke="#C578BA" stroke-width="5"/>
<path d="M207.33 201.124L262.696 131.813L298.313 211.936L207.33 201.124Z" stroke="#C578BA" stroke-width="5"/>
<path d="M302.245 212.406L357.611 143.095L393.227 223.218L302.245 212.406Z" stroke="#C578BA" stroke-width="5"/>
<path d="M355.735 142.175L300.369 211.486L264.752 131.363L355.735 142.175Z" stroke="#C578BA" stroke-width="5"/>
<path d="M507.645 465.322L563.01 396.011L598.627 476.134L507.645 465.322Z" stroke="#C578BA" stroke-width="5"/>
<path d="M656.049 406.372L600.683 475.683L565.066 395.56L656.049 406.372Z" stroke="#C578BA" stroke-width="5"/>
<path d="M561.137 395.091L505.772 464.402L470.155 384.279L561.137 395.091Z" stroke="#C578BA" stroke-width="5"/>
<path d="M470.383 382.536L525.748 313.225L561.365 393.348L470.383 382.536Z" stroke="#C578BA" stroke-width="5"/>
<path d="M565.297 393.818L620.663 324.507L656.28 404.63L565.297 393.818Z" stroke="#C578BA" stroke-width="5"/>
<path d="M618.787 323.588L563.421 392.899L527.804 312.776L618.787 323.588Z" stroke="#C578BA" stroke-width="5"/>
<path d="M490.563 620.819L545.929 551.508L581.546 631.631L490.563 620.819Z" stroke="#C578BA" stroke-width="5"/>
<path d="M638.967 561.871L583.602 631.181L547.985 551.059L638.967 561.871Z" stroke="#C578BA" stroke-width="5"/>
<path d="M544.056 550.589L488.69 619.9L453.073 539.777L544.056 550.589Z" stroke="#C578BA" stroke-width="5"/>
<path d="M453.301 538.034L508.667 468.723L544.284 548.846L453.301 538.034Z" stroke="#C578BA" stroke-width="5"/>
<path d="M548.216 549.316L603.581 480.005L639.198 560.128L548.216 549.316Z" stroke="#C578BA" stroke-width="5"/>
<path d="M601.706 479.086L546.34 548.397L510.723 468.274L601.706 479.086Z" stroke="#C578BA" stroke-width="5"/>
<path d="M90.8595 342.218L146.225 272.908L181.842 353.03L90.8595 342.218Z" stroke="#C578BA" stroke-width="5"/>
<path d="M239.264 283.27L183.898 352.581L148.281 272.458L239.264 283.27Z" stroke="#C578BA" stroke-width="5"/>
<path d="M144.352 271.989L88.9867 341.299L53.3698 261.177L144.352 271.989Z" stroke="#C578BA" stroke-width="5"/>
<path d="M53.5975 259.433L108.963 190.123L144.58 270.245L53.5975 259.433Z" stroke="#C578BA" stroke-width="5"/>
<path d="M148.512 270.715L203.878 201.405L239.495 281.527L148.512 270.715Z" stroke="#C578BA" stroke-width="5"/>
<path d="M202.002 200.486L146.636 269.796L111.019 189.674L202.002 200.486Z" stroke="#C578BA" stroke-width="5"/>
<path d="M711.5 429.77C711.5 617.041 552.889 769.039 357 769.039C161.111 769.039 2.5 617.041 2.5 429.77C2.5 242.498 161.111 90.5 357 90.5C552.889 90.5 711.5 242.498 711.5 429.77Z" stroke="#C578BA" stroke-width="5"/>
<path d="M271.593 760.201L334.794 684.072L374.081 766.68L430.45 695.411L454.364 753.722" stroke="#C578BA" stroke-width="5"/>
<path d="M488.526 622.521L520.981 703.509M520.981 703.509L582.474 633.859M520.981 703.509L478.278 748.862M520.981 703.509L531.23 726.186M582.474 633.859L601.263 675.973M582.474 633.859L633.718 640.338M582.474 633.859L640.55 562.59M640.55 562.59L679.837 567.449M640.55 562.59L657.632 603.084" stroke="#C578BA" stroke-width="5"/>
<path d="M428.741 693.79L560.268 706.748" stroke="#C578BA" stroke-width="5"/>
<path d="M119.569 680.833L201.56 585.267L273.301 756.961L336.502 684.072M336.502 684.072L90.531 654.916M336.502 684.072L293.799 596.605L193.019 731.045" stroke="#C578BA" stroke-width="5"/>
<path d="M68.3253 494.56L157.148 709.988M68.3253 494.56L23.9139 543.152M68.3253 494.56L162.273 505.898M68.3253 494.56L8.54066 488.081M68.3253 494.56L32.4545 411.952M162.273 505.898L63.2009 616.042M162.273 505.898L201.56 585.266L32.4545 565.829M32.4545 411.952L5.12439 410.332M32.4545 411.952L5.12439 444.347" stroke="#C578BA" stroke-width="5"/>
<path d="M88.8232 342.302L17.0815 335.823L32.4547 411.952" stroke="#C578BA" stroke-width="5"/>
<path d="M177.646 138.212L204.976 201.383L263.053 131.733M263.053 131.733L251.096 107.437M263.053 131.733L288.675 99.3378M263.053 131.733L355.292 141.452M263.053 131.733L198.143 126.874L577.349 167.368L355.292 141.452M355.292 141.452L392.871 94.4785M355.292 141.452L329.67 94.4785M392.871 220.82L395.433 218.228M486.818 115.535L397.995 215.637L395.433 218.228M395.433 218.228L490.234 227.299M490.234 227.299L428.742 99.3378M490.234 227.299L558.56 152.79M490.234 227.299L527.813 309.907M490.234 227.299L652.507 246.736M527.813 309.907L613.22 199.763M527.813 309.907L620.053 322.865M620.053 322.865L532.938 134.973M620.053 322.865L693.502 330.964" stroke="#C578BA" stroke-width="5"/>
<path d="M638.842 562.591L602.971 476.744M602.971 476.744L657.632 403.854M602.971 476.744L703.751 492.941M657.632 403.854L707.167 411.953M657.632 403.854L703.751 502.66" stroke="#C578BA" stroke-width="5"/>
<path d="M620.053 324.485L662.756 262.935" stroke="#C578BA" stroke-width="5"/>
<path d="M640.55 562.589L708.875 468.643" stroke="#C578BA" stroke-width="5"/>
<path d="M1196.04 460L1374.76 464.9V631.073L1512 636.055V799.445V925.698V3199H0.000544503L0.000419636 1273.78L0.000544503 1073.12L0 583.415H188.659L186.729 645.933L205.352 636.055L312.635 644.182L384.527 669.24L186.36 657.859L186.347 658.356L384.527 669.24L381.856 836.28L407.418 836.91L409.289 688.915L442.397 662.227L490.474 664.937L539.886 688.915L541.667 835.603L580.84 837.634L587.518 722.356L620.428 693.462H718.323L766.024 722.356L759.521 774.666L914.424 772.37L932.992 784.095L928.979 600.432L1000.18 537.549L1176.46 542.967L1205.12 624.529L1196.04 460Z" fill="#E6D2E3"/>
</g>
<defs>
<clipPath id="clip0_638_4231">
<rect width="1512" height="2198" fill="white"/>
</clipPath>
</defs>
</svg>
