<svg width="1512" height="959" viewBox="0 0 1512 959" fill="none" xmlns="http://www.w3.org/2000/svg">
<mask id="mask0_343_33" style="mask-type:alpha" maskUnits="userSpaceOnUse" x="0" y="0" width="1512" height="959">
<rect width="1512" height="959" fill="#D9D9D9"/>
</mask>
<g mask="url(#mask0_343_33)">
<path d="M1231.49 87.0744C1219.75 86.8149 1208.09 87.2288 1196.74 88.4022C1141.24 94.1394 1087.31 114.568 1053.02 141.011C995.087 185.678 935.044 252.065 899.878 304.38C883.219 329.163 856.275 368.584 822.023 380.798C799.496 388.831 773.38 381.467 750.569 374.277C729.928 367.771 713.238 352.353 694.214 342.035C646.409 316.106 608.862 285.98 549.074 267.52C515.427 257.132 477.096 252.914 439.968 248.255C410.539 244.562 380.491 240.425 350.457 241.443C316.906 242.581 283.91 248.554 252.59 255.76C228.142 261.386 204.458 268.72 183.505 278.057C147.509 294.098 120.587 316.241 88.5119 334.969C65.7719 348.246 42.2413 361.042 19.4306 374.277C0.0541579 385.519 -14.9971 399.951 -38.1406 408.337C-69.968 419.869 -107.738 425.478 -144.643 428.771L-245 899.468H1779.21C1821.75 899.468 1856 874.501 1856 843.487V655.145L1765.24 253.898C1727.07 246.13 1684.44 247.214 1644.34 249.958C1609.43 252.348 1578.31 267.505 1543.16 267.52C1519.82 267.53 1493.26 265.179 1475.95 255.917C1434.21 233.578 1441.46 191.922 1412.7 163.299C1391.08 141.777 1368.21 118.285 1332.03 105.302C1302.47 94.6967 1266.68 87.8533 1231.49 87.0744Z" fill="#B0D471"/>
<path d="M1505.13 560.244L826.59 559.896L1166.94 396.658L1505.13 560.244Z" fill="#D2D2D2"/>
<path d="M1505.13 559.896H826.59V600.538H1505.13V559.896Z" fill="url(#paint0_linear_343_33)"/>
<path d="M1420.38 600.538H910.767V845.379H1420.38V600.538Z" fill="url(#paint1_linear_343_33)"/>
<path d="M1191.81 734.533H1139.34C1126.49 734.533 1116.08 744.947 1116.08 757.792V854.342C1116.08 867.187 1126.49 877.6 1139.34 877.6H1191.81C1204.66 877.6 1215.07 867.187 1215.07 854.342V757.792C1215.07 744.947 1204.66 734.533 1191.81 734.533Z" fill="#AEAEAE" stroke="#C9C9C9" stroke-width="6.97584" stroke-linecap="square" stroke-linejoin="round"/>
<path d="M1505.13 845.379H826.59V886.021H1505.13V845.379Z" fill="url(#paint2_linear_343_33)"/>
<path d="M962.283 600.538H859.248V644.225H962.283V600.538Z" fill="#D2D2D2"/>
<path d="M962.283 801.692H859.248V845.379H962.283V801.692Z" fill="#D2D2D2"/>
<path d="M940.853 644.414H880.68V801.692H940.853V644.414Z" fill="url(#paint3_linear_343_33)"/>
<path d="M1100.65 600.538H997.61V644.225H1100.65V600.538Z" fill="#D2D2D2"/>
<path d="M1100.65 801.692H997.61V845.379H1100.65V801.692Z" fill="#D2D2D2"/>
<path d="M1079.21 644.414H1019.04V801.692H1079.21V644.414Z" fill="url(#paint4_linear_343_33)"/>
<path d="M1333.54 600.538H1230.5V644.225H1333.54V600.538Z" fill="#D2D2D2"/>
<path d="M1333.54 801.692H1230.5V845.379H1333.54V801.692Z" fill="#D2D2D2"/>
<path d="M1312.11 644.414H1251.93V801.692H1312.11V644.414Z" fill="url(#paint5_linear_343_33)"/>
<path d="M1471.9 600.538H1368.86V644.225H1471.9V600.538Z" fill="#D2D2D2"/>
<path d="M1471.9 801.692H1368.86V845.379H1471.9V801.692Z" fill="#D2D2D2"/>
<path d="M1450.47 644.414H1390.29V801.692H1450.47V644.414Z" fill="url(#paint6_linear_343_33)"/>
<path d="M401.442 583.556H103.681V882.592H401.442V583.556Z" fill="#B37841"/>
<path d="M413.796 583.556H91.3271V610.664H413.796V583.556Z" fill="url(#paint7_linear_343_33)"/>
<path d="M413.796 719.52H91.3271V746.628H413.796V719.52Z" fill="url(#paint8_linear_343_33)"/>
<path d="M197.927 779.477H136.911V882.593H197.927V779.477Z" fill="#C69260"/>
<path d="M287.734 779.477H226.717V827.592H287.734V779.477Z" fill="#C69260"/>
<path d="M370.234 641.034H309.218V689.149H370.234V641.034Z" fill="#C69260"/>
<path d="M257.225 638.556H196.209V686.671H257.225V638.556Z" fill="#C69260"/>
<path d="M773.527 728.057H475.766V886.173H773.527V728.057Z" fill="#456393"/>
<path d="M628.021 783.058H567.004V886.173H628.021V783.058Z" fill="#90B8C9"/>
<path d="M773.527 683.569H475.766V725.287H773.527V683.569Z" fill="#4A9FBE"/>
<path d="M785.881 723.101H463.412V750.209H785.881V723.101Z" fill="url(#paint9_linear_343_33)"/>
<path d="M694.195 783.058H633.178V886.173H694.195V783.058Z" fill="#90B8C9"/>
<path d="M773.527 728.057H475.766V886.173H773.527V728.057Z" fill="#456393"/>
<path d="M628.022 783.058H567.005V886.173H628.022V783.058Z" fill="#90B8C9"/>
<path d="M773.527 683.569H475.766V725.287H773.527V683.569Z" fill="#4A9FBE"/>
<path d="M785.881 723.101H463.412V750.209H785.881V723.101Z" fill="url(#paint10_linear_343_33)"/>
<path d="M694.193 783.058H633.177V886.173H694.193V783.058Z" fill="#90B8C9"/>
<mask id="mask1_343_33" style="mask-type:luminance" maskUnits="userSpaceOnUse" x="1044" y="397" width="548" height="662">
<path d="M1591.56 397.114H1044.46V1058.9H1591.56V397.114Z" fill="white"/>
</mask>
<g mask="url(#mask1_343_33)">
<path d="M1220.2 885.89L1560.97 883.693C1560.97 883.693 1486.46 839.925 1446.31 829.972C1431.11 826.205 1415.15 825.335 1399.79 828.019C1393.73 829.079 1388.43 835.973 1382.35 835.052C1370.29 833.225 1362.34 818.245 1351.67 811.218C1345.71 807.299 1339.9 800.317 1333.15 801.059C1324.31 802.031 1317.61 811.896 1311.29 819.423C1307.6 823.81 1307.02 832.276 1302.24 834.661C1296.19 837.682 1289.34 831.939 1282.86 830.754C1274.18 829.163 1265.24 823.765 1256.74 826.456C1247.06 829.519 1238.89 838.738 1232.8 848.336C1226 859.053 1220.2 885.89 1220.2 885.89Z" fill="#64CF38"/>
</g>
<path d="M1557.62 882.593H0.734863V933.427H1557.62V882.593Z" fill="#4FB947"/>
<mask id="mask2_343_33" style="mask-type:luminance" maskUnits="userSpaceOnUse" x="770" y="413" width="642" height="641">
<path d="M1411.49 413.065H770.984V1053.57H1411.49V413.065Z" fill="white"/>
</mask>
<g mask="url(#mask2_343_33)">
<path d="M645.837 897.052C651.131 892.135 656.747 881.245 662.098 873.271C666.312 866.99 670.707 860.819 674.577 854.32C676.625 850.879 678.097 847.107 680.249 843.731C683.977 837.886 687.957 832.122 692.729 827.092C700.982 818.393 708.528 806.126 720.334 804.025C731.011 802.124 740.152 815.82 750.965 814.991C771.267 813.434 784.46 783.339 804.663 785.873C818.293 787.583 827.093 802.565 834.916 813.857C842.515 824.824 845.595 838.337 850.042 850.916C854.128 862.472 860.631 886.129 860.631 886.129C860.631 886.129 790.525 884.985 751.648 885.073C712.771 885.161 708.611 887.976 684.409 890.245C660.207 892.514 645.837 897.052 645.837 897.052Z" fill="#64CF38"/>
</g>
<path d="M1557.62 908.01H0.734863V958.844H1557.62V908.01Z" fill="#63A85D"/>
<path d="M1076.9 854.765C1079.76 855.62 1083.33 856.64 1084.59 859.343C1085.93 862.227 1083.05 868.764 1083.05 868.764C1083.05 868.764 1087.37 867.365 1091.77 872.425C1096.18 877.486 1090.78 883.467 1090.78 883.467C1090.78 883.467 1100.7 886.291 1093.44 894.377C1088.14 900.286 1082.23 887.595 1082.23 887.595C1082.23 887.595 1079.45 892.486 1071.66 887.639C1063.86 882.792 1070.48 873.14 1070.48 873.14C1070.48 873.14 1065.98 873.652 1062.48 863.943C1058.98 854.234 1064.96 852.873 1064.96 852.873L1069.16 854.419C1069.16 854.419 1074.43 854.024 1076.9 854.765Z" fill="url(#paint11_linear_343_33)"/>
<path d="M1068.9 857.191C1066.24 856.771 1062.21 857.074 1062.21 857.074L1061.55 856.832C1061.2 858.468 1061.33 860.753 1062.48 863.944C1065.98 873.653 1070.48 873.14 1070.48 873.14C1070.48 873.14 1063.86 882.792 1071.66 887.639C1079.45 892.486 1082.23 887.596 1082.23 887.596C1082.23 887.596 1084.74 892.986 1087.96 895.104C1092.13 888.493 1083.82 886.121 1083.82 886.121C1083.82 886.121 1089.22 880.14 1084.82 875.079C1080.41 870.018 1076.1 871.419 1076.1 871.419C1076.1 871.419 1078.98 864.883 1077.63 861.998C1076.37 859.295 1072.8 858.275 1069.95 857.419C1069.64 857.327 1069.29 857.251 1068.9 857.191Z" fill="#9A348E"/>
<path d="M1037.15 837.127C1037.15 837.127 1030.34 837.393 1027.4 830.5C1024.46 823.608 1028.31 818.358 1028.31 818.358C1028.31 818.358 1019.7 814.928 1020.91 803.87C1022.12 792.812 1031.78 791.437 1031.78 791.437C1031.78 791.437 1026.98 783.42 1031.38 776.841C1035.77 770.262 1039.56 773.65 1039.56 773.65L1047.6 798.519L1043.22 836.175L1037.15 837.127Z" fill="url(#paint12_linear_343_33)"/>
<path d="M1038.69 833.444C1041.19 833.876 1042.76 832.948 1042.76 832.948C1044.59 821.51 1049.18 806.884 1050.52 795.379L1039.76 776.825C1038.32 776.838 1037.27 780.168 1036.48 781.44C1032.24 788.248 1038.94 791.737 1038.94 791.737C1038.94 791.737 1038.5 792.272 1037.85 793.2C1036.22 795.528 1030.39 797.458 1029.18 804.786C1027.97 812.059 1035.47 818.657 1035.47 818.657C1035.47 818.657 1027.94 822.169 1030.58 826.212C1031.66 827.871 1037.18 833.184 1038.69 833.444Z" fill="#9A348E"/>
<path d="M1076.03 771.41C1076.03 771.41 1075.84 772.474 1079.49 779.021C1083.14 785.568 1079.85 791.192 1079.85 791.192C1079.85 791.192 1088.78 793.703 1088.73 804.827C1088.68 815.952 1079.21 818.328 1079.21 818.328C1079.21 818.328 1084.83 825.799 1081.14 832.802C1077.46 839.805 1073.33 836.832 1073.33 836.832L1062.74 812.938L1063.16 775.031L1076.03 771.41Z" fill="url(#paint13_linear_343_33)"/>
<path d="M1067.96 777.274C1065.42 777.105 1063.96 778.192 1063.96 778.192C1063.33 789.759 1060.3 804.784 1060.17 816.366L1072.81 833.694C1074.24 833.531 1078.35 828.792 1079 827.443C1082.51 820.229 1072.06 818.779 1072.06 818.779C1072.06 818.779 1072.44 818.201 1072.99 817.21C1074.37 814.724 1080.83 813.18 1081.85 804.654C1082.05 796.467 1072.7 791.643 1072.7 791.643C1072.7 791.643 1075.86 792.895 1072.38 782.874C1071.73 781.002 1069.48 777.375 1067.96 777.274Z" fill="#9A348E"/>
<path d="M1056.14 759.943C1052.96 759.923 1050.38 762.668 1047.35 763.631C1045.53 764.209 1042.86 763.309 1041.76 764.87C1040.1 767.246 1041.96 769.368 1042.89 773.502L1051.84 774.857C1053.23 773.514 1054.29 772.175 1054.85 770.752L1061.17 771.709C1061.41 772.799 1061.67 773.83 1061.87 774.699L1070.81 776.054C1074.07 772.906 1075.22 772.445 1072.69 768.203C1072.06 767.211 1070.97 765.102 1069.5 764.256C1067.92 763.339 1065.84 763.908 1064.08 763.396C1061.31 762.588 1059.02 759.962 1056.14 759.943Z" fill="url(#paint14_linear_343_33)"/>
<path d="M1034.86 855.895L1040.85 890.598C1040.85 890.598 1043.24 891.849 1044.54 891.915C1046.57 892.018 1050.46 890.458 1050.46 890.458L1052.32 867.583L1056.85 867.817L1057.81 890.338C1057.81 890.338 1061.28 892.281 1063.19 892.31C1064.7 892.335 1067.48 890.887 1067.48 890.887C1069.09 880.132 1071.24 866.512 1074.74 856.137L1034.86 855.895Z" fill="url(#paint15_linear_343_33)"/>
<path d="M1040.85 890.598C1040.85 890.598 1039 895.824 1039.45 896.242C1039.9 896.661 1042.27 898.282 1045.28 898.021C1048.3 897.759 1050.06 896.416 1050.64 895.611C1051.22 894.805 1050.66 889.63 1050.66 889.63C1050.66 889.63 1047.54 891.455 1045.98 891.473C1044.42 891.491 1040.85 890.598 1040.85 890.598Z" fill="#E782DB"/>
<path d="M1067.48 890.887C1067.48 890.887 1069.1 896.187 1068.64 896.586C1068.17 896.985 1065.74 898.505 1062.74 898.116C1059.74 897.727 1058.03 896.31 1057.49 895.481C1056.95 894.651 1057.72 889.504 1057.72 889.504C1057.72 889.504 1060.76 891.46 1062.32 891.545C1063.87 891.629 1067.48 890.887 1067.48 890.887Z" fill="#E782DB"/>
<path d="M1044.69 816.117C1043.28 813.769 1038.64 814.765 1036.48 816.589C1028.72 823.169 1016.47 841.341 1016.47 841.341C1016.47 841.341 1015.77 844.648 1016.74 845.756C1017.72 846.865 1019.95 848.23 1019.95 848.23L1029.08 841.908C1029.08 841.908 1049.88 824.725 1044.69 816.117Z" fill="url(#paint16_linear_343_33)"/>
<path d="M1019.95 848.23C1019.95 848.23 1016.38 851.903 1015.74 851.685C1015.1 851.466 1013.41 850.591 1012.3 849.134C1011.2 847.677 1010.86 845.791 1011.06 845.209C1011.26 844.628 1016.47 841.341 1016.47 841.341C1016.47 841.341 1016 845.043 1016.74 845.756C1017.49 846.47 1019.95 848.23 1019.95 848.23Z" fill="#E782DB"/>
<path d="M1065.04 816.089C1066.56 813.803 1071.15 814.995 1073.23 816.908C1080.71 823.812 1092.17 842.487 1092.17 842.487C1092.17 842.487 1092.73 845.82 1091.71 846.887C1090.69 847.953 1088.4 849.222 1088.4 849.222L1079.54 842.519C1079.54 842.519 1059.5 824.47 1065.04 816.089Z" fill="url(#paint17_linear_343_33)"/>
<path d="M1088.4 849.222C1088.4 849.222 1091.81 853.043 1092.46 852.852C1093.11 852.661 1094.83 851.858 1096 850.449C1097.17 849.04 1097.59 847.17 1097.41 846.581C1097.24 845.992 1092.17 842.487 1092.17 842.487C1092.17 842.487 1092.49 846.205 1091.71 846.886C1090.94 847.568 1088.4 849.222 1088.4 849.222Z" fill="#E782DB"/>
<path d="M1045.56 810.066C1045.56 810.066 1032.37 831.901 1034.86 855.895C1035.42 861.336 1042.56 867.514 1053.5 867.746C1064.44 867.978 1074.22 859.229 1074.74 856.137C1077.77 838.022 1069.81 828.213 1064.93 809.774L1045.56 810.066Z" fill="#FFEE99"/>
<path d="M1044.84 808.514L1043.64 816.813C1043.64 816.813 1044.89 820.058 1045.97 820.843C1048.71 822.828 1052.21 822.801 1055.19 821.619C1059.05 820.089 1062.18 816.941 1065.22 811.915L1064.65 808.558L1044.84 808.514Z" fill="url(#paint18_linear_343_33)"/>
<path d="M1055.92 767.847C1043.37 767.581 1034.37 773.668 1034.21 784.311C1034.12 789.775 1033.93 797.839 1037.82 802.75C1041.72 807.683 1049.72 810.42 1055.01 810.532C1061.04 810.66 1068.22 808.273 1072.31 803.6C1076.48 798.844 1076.98 790.469 1076.99 785.218C1076.99 774.703 1068.46 768.113 1055.92 767.847Z" fill="#FFEE99"/>
<path d="M1054.8 813.396C1047.37 813.239 1043.96 807.637 1043.06 805.786C1041.71 802.994 1043.26 797.135 1046.53 796.667C1050.68 796.073 1050.89 797.074 1052.67 794.986C1054.44 792.897 1052.4 786.836 1056.28 787.242C1059.29 787.557 1057.44 793.388 1059.13 795.532C1060.81 797.676 1061.1 796.608 1064.67 797.386C1067.75 798.056 1068.41 803.422 1067.25 806.299C1066.38 808.439 1062.24 813.554 1054.8 813.396Z" fill="url(#paint19_linear_343_33)"/>
<path d="M1051.06 805.357C1051.06 805.357 1052.1 807.134 1055.16 807.244C1058.21 807.354 1059.29 805.532 1059.29 805.532" stroke="#4E1C79" stroke-width="1.06202" stroke-linecap="round" stroke-linejoin="round"/>
<path d="M1070.27 776.593C1070.27 776.593 1066.44 773.228 1068.63 770.249C1070.82 767.269 1072.41 762.236 1074.46 762.693C1076.52 763.149 1077.74 769.534 1077.16 771.231C1076.58 772.929 1074.95 776.135 1073.73 776.612C1072.5 777.089 1070.27 776.593 1070.27 776.593Z" fill="#FFEE99"/>
<path d="M1041.28 775.979C1041.28 775.979 1045.25 772.779 1043.19 769.71C1041.13 766.64 1039.76 761.544 1037.69 761.913C1035.61 762.282 1034.12 768.609 1034.63 770.33C1035.13 772.05 1036.62 775.322 1037.83 775.851C1039.03 776.38 1041.28 775.979 1041.28 775.979Z" fill="#FFEE99"/>
<path d="M1041.7 771.481C1041.7 771.481 1040.12 770.226 1038.88 768.573C1037.65 766.92 1038.02 763.136 1038.02 763.136C1038.02 763.136 1035.85 766.38 1035.65 768.247C1035.57 769.119 1038.88 774.447 1039.14 774.191C1039.41 773.935 1041.7 771.481 1041.7 771.481Z" fill="#4E1C79"/>
<path d="M1070.37 772.09C1070.37 772.09 1072.01 770.902 1073.31 769.303C1074.61 767.704 1074.4 763.907 1074.4 763.907C1074.4 763.907 1076.44 767.241 1076.55 769.114C1076.6 769.989 1073.06 775.173 1072.81 774.905C1072.56 774.638 1070.37 772.09 1070.37 772.09Z" fill="#4E1C79"/>
<path d="M1069.33 769.201C1069.8 769.89 1070.14 770.65 1070.72 771.275C1072.97 773.701 1074.3 772.788 1075.49 774.14C1075.66 774.327 1077.25 776.28 1072.92 777.504C1071.9 777.793 1070.78 777.925 1069.69 777.854C1068.51 777.778 1067.33 777.456 1066.23 777.032C1063.03 775.692 1059.75 772.979 1059.84 769.773C1059.9 767.649 1060.94 766.23 1063.33 765.68C1064.7 765.297 1065.81 765.676 1066.99 766.387C1068.16 767.04 1068.67 768.2 1069.33 769.201Z" fill="#E782DB"/>
<path d="M1054.14 763.543L1056.05 752.079C1056.4 749.961 1056.81 746.706 1058.81 746.841C1061.32 747.011 1061.2 751.356 1061.33 753.819L1061.87 763.739L1062.17 771.969C1062.21 773.13 1061.8 774.525 1060.91 775.351C1060.04 776.154 1058.65 776.632 1057.49 776.377C1055.59 775.962 1052.76 776.358 1053.17 772.539L1054.14 763.543Z" fill="#A4DCD7"/>
<path d="M1056.81 748.615C1056.45 749.575 1056.26 750.756 1056.1 751.759C1056.52 752.114 1057.62 752.987 1058.39 753.142C1059.11 753.291 1060.6 752.69 1061.27 752.391C1061.24 751.634 1061.19 750.83 1061.07 750.066C1060.67 750.268 1059.83 750.612 1059.1 750.442C1058.45 750.289 1057.44 749.294 1056.81 748.615ZM1055.5 755.381L1054.63 760.557C1055.43 761.201 1056.91 762.307 1057.98 762.525C1058.89 762.711 1060.57 762.145 1061.76 761.667L1061.56 757.956C1060.87 758.22 1059.94 758.453 1059.11 758.258C1058.08 758.018 1056.49 756.454 1055.5 755.381ZM1054.1 763.924L1053.38 770.596C1054.41 771.363 1055.77 772.252 1056.81 772.464C1058.12 772.733 1060.68 771.763 1062.14 771.14L1061.97 766.438C1061.12 766.843 1059.59 767.421 1058.23 767.104C1057.07 766.834 1055.34 765.226 1054.1 763.924Z" fill="url(#paint20_linear_343_33)"/>
<path d="M1044.6 769.253C1043.69 770.193 1042.93 771.305 1041.89 772.091C1037.82 775.144 1036.27 773.073 1034.09 774.803C1033.79 775.042 1030.83 777.594 1036.48 781.44C1037.81 782.346 1039.33 783.034 1040.9 783.38C1042.59 783.752 1044.37 783.719 1046.08 783.483C1051.08 782.622 1056.7 779.529 1057.77 774.204C1058.47 770.673 1057.53 767.892 1054.36 765.975C1052.58 764.768 1050.87 764.922 1048.94 765.598C1047.05 766.182 1045.9 767.879 1044.6 769.253Z" fill="#E782DB"/>
<path d="M1046.56 794.856C1048.04 794.887 1049.28 793.08 1049.32 790.819C1049.37 788.558 1048.21 786.7 1046.74 786.669C1045.26 786.638 1044.03 788.445 1043.98 790.706C1043.93 792.967 1045.09 794.825 1046.56 794.856Z" fill="#4E1C79"/>
<path d="M1047.69 790.064C1048.06 790.071 1048.36 789.744 1048.37 789.333C1048.38 788.921 1048.09 788.582 1047.73 788.574C1047.36 788.566 1047.06 788.894 1047.05 789.305C1047.04 789.716 1047.33 790.056 1047.69 790.064Z" fill="white"/>
<path d="M1046.34 786.707C1046.34 786.707 1044.85 787.44 1044.05 787.527C1043.19 787.62 1041.58 787.079 1041.48 787.197C1041.39 787.314 1042.43 788.425 1043.09 788.765C1043.79 789.119 1045.4 789.16 1045.4 789.16L1046.34 786.707Z" fill="#4E1C79"/>
<path d="M1051.8 800.204C1052.46 799.53 1052.76 798.756 1052.48 798.475C1052.19 798.195 1051.42 798.514 1050.76 799.189C1050.11 799.863 1049.8 800.637 1050.09 800.918C1050.38 801.198 1051.15 800.879 1051.8 800.204Z" fill="#FFDB27"/>
<path d="M1058.49 800.346C1057.86 799.644 1057.6 798.858 1057.89 798.59C1058.19 798.322 1058.95 798.674 1059.58 799.376C1060.2 800.078 1060.47 800.864 1060.17 801.132C1059.87 801.4 1059.12 801.048 1058.49 800.346Z" fill="#FFDB27"/>
<path d="M1064.29 795.232C1062.81 795.201 1061.65 793.343 1061.7 791.082C1061.75 788.821 1062.98 787.014 1064.46 787.045C1065.94 787.076 1067.09 788.934 1067.05 791.195C1067 793.456 1065.76 795.263 1064.29 795.232Z" fill="#4E1C79"/>
<path d="M1063.36 790.396C1062.99 790.388 1062.71 790.049 1062.72 789.637C1062.72 789.226 1063.03 788.899 1063.39 788.906C1063.75 788.914 1064.04 789.254 1064.03 789.665C1064.02 790.077 1063.72 790.404 1063.36 790.396Z" fill="white"/>
<path d="M1064.86 787.1C1064.86 787.1 1066.31 787.895 1067.11 788.016C1067.96 788.145 1069.6 787.673 1069.69 787.795C1069.78 787.916 1068.69 788.982 1068.01 789.293C1067.3 789.618 1065.69 789.59 1065.69 789.59L1064.86 787.1Z" fill="#4E1C79"/>
<path d="M1127.05 854.459C1124.18 855.275 1120.6 856.246 1119.3 858.931C1117.92 861.796 1120.71 868.372 1120.71 868.372C1120.71 868.372 1116.41 866.913 1111.94 871.912C1111.4 872.52 1111 873.144 1110.71 873.77C1108.68 878.294 1112.78 882.965 1112.78 882.965C1112.78 882.965 1102.83 885.652 1109.97 893.837C1115.19 899.817 1121.27 887.21 1121.27 887.21C1121.27 887.21 1123.99 892.138 1131.84 887.399C1139.7 882.66 1133.22 872.919 1133.22 872.919C1133.22 872.919 1137.71 873.493 1141.34 863.834C1144.98 854.175 1139.02 852.731 1139.02 852.731L1134.79 854.22C1134.79 854.22 1129.53 853.753 1127.05 854.459Z" fill="url(#paint21_linear_343_33)"/>
<path d="M1135.01 856.995C1137.68 856.611 1141.71 856.969 1141.71 856.969L1142.37 856.737C1142.69 858.377 1142.54 860.66 1141.34 863.834C1137.71 873.493 1133.22 872.918 1133.22 872.918C1133.22 872.918 1139.7 882.659 1131.84 887.398C1123.99 892.137 1121.27 887.21 1121.27 887.21C1121.27 887.21 1118.69 892.565 1115.44 894.638C1111.36 887.971 1119.7 885.714 1119.7 885.714C1119.7 885.714 1114.38 879.659 1118.86 874.66C1123.33 869.661 1127.63 871.121 1127.63 871.121C1127.63 871.121 1124.83 864.546 1126.22 861.681C1127.51 858.995 1131.1 858.024 1133.97 857.208C1134.28 857.12 1134.63 857.05 1135.01 856.995Z" fill="#FFD91B"/>
<path d="M1167.03 837.37C1167.03 837.37 1173.84 837.729 1176.87 830.879C1179.91 824.028 1176.13 818.726 1176.13 818.726C1176.13 818.726 1184.79 815.416 1183.73 804.343C1182.67 793.27 1173.03 791.763 1173.03 791.763C1173.03 791.763 1177.94 783.814 1173.64 777.176C1169.33 770.537 1165.49 773.873 1165.49 773.873L1157.11 798.627L1160.97 836.335L1167.03 837.37Z" fill="url(#paint22_linear_343_33)"/>
<path d="M1165.55 833.667C1163.04 834.065 1161.49 833.115 1161.49 833.115C1159.81 821.655 1155.42 806.969 1154.24 795.447L1165.25 777.045C1166.69 777.077 1167.69 780.421 1168.47 781.704C1172.62 788.569 1165.87 791.965 1165.87 791.965C1165.87 791.965 1166.3 792.506 1166.94 793.443C1168.53 795.793 1174.34 797.802 1175.45 805.146C1176.56 812.434 1168.97 818.927 1168.97 818.927C1168.97 818.927 1176.45 822.542 1173.76 826.548C1172.65 828.192 1167.06 833.428 1165.55 833.667Z" fill="#FFD91B"/>
<path d="M1129.07 771.133C1129.07 771.133 1129.24 772.2 1125.5 778.695C1121.77 785.191 1124.97 790.859 1124.97 790.859C1124.97 790.859 1116.02 793.247 1115.91 804.37C1115.81 815.492 1125.24 817.998 1125.24 817.998C1125.24 817.998 1119.52 825.391 1123.11 832.443C1126.7 839.495 1130.86 836.579 1130.86 836.579L1141.78 812.836L1141.88 774.93L1129.07 771.133Z" fill="url(#paint23_linear_343_33)"/>
<path d="M1137.05 777.106C1139.59 776.973 1141.04 778.079 1141.04 778.079C1141.51 789.653 1144.34 804.716 1144.3 816.298L1131.43 833.449C1130 833.266 1125.96 828.471 1125.33 827.114C1121.92 819.853 1132.38 818.547 1132.38 818.547C1132.38 818.547 1132.01 817.964 1131.47 816.965C1130.13 814.461 1123.7 812.829 1122.79 804.291C1122.7 796.102 1132.11 791.408 1132.11 791.408C1132.11 791.408 1128.94 792.616 1132.56 782.644C1133.23 780.782 1135.53 777.186 1137.05 777.106Z" fill="#FFD91B"/>
<path d="M1158.84 816.246C1160.29 813.917 1164.92 814.977 1167.05 816.83C1174.72 823.515 1186.72 841.852 1186.72 841.852C1186.72 841.852 1187.37 845.167 1186.38 846.263C1185.39 847.358 1183.14 848.692 1183.14 848.692L1174.09 842.246C1174.09 842.246 1153.54 824.781 1158.84 816.246Z" fill="url(#paint24_linear_343_33)"/>
<path d="M1183.14 848.692C1183.14 848.692 1186.66 852.413 1187.3 852.204C1187.95 851.994 1189.65 851.142 1190.77 849.701C1191.9 848.259 1192.26 846.378 1192.07 845.794C1191.88 845.21 1186.72 841.852 1186.72 841.852C1186.72 841.852 1187.14 845.56 1186.38 846.263C1185.63 846.966 1183.14 848.692 1183.14 848.692Z" fill="#FFEE99"/>
<path d="M1138.5 815.938C1137.02 813.631 1132.4 814.76 1130.31 816.645C1122.73 823.444 1111.01 841.958 1111.01 841.958C1111.01 841.958 1110.41 845.283 1111.41 846.363C1112.42 847.444 1114.69 848.744 1114.69 848.744L1123.64 842.163C1123.64 842.163 1143.93 824.393 1138.5 815.938Z" fill="url(#paint25_linear_343_33)"/>
<path d="M1114.69 848.744C1114.69 848.744 1111.23 852.517 1110.58 852.317C1109.93 852.117 1108.22 851.291 1107.07 849.866C1105.92 848.442 1105.53 846.567 1105.72 845.98C1105.9 845.393 1111.01 841.958 1111.01 841.958C1111.01 841.958 1110.65 845.671 1111.41 846.364C1112.17 847.056 1114.69 848.744 1114.69 848.744Z" fill="#FFEE99"/>
<path d="M1149.11 759.942C1152.29 759.965 1154.83 762.745 1157.85 763.749C1159.66 764.352 1162.34 763.489 1163.41 765.065C1165.05 767.464 1163.16 769.559 1162.17 773.68L1153.21 774.912C1151.84 773.55 1150.8 772.197 1150.25 770.766L1143.92 771.637C1143.66 772.723 1143.39 773.75 1143.18 774.616L1134.22 775.848C1131 772.656 1129.86 772.179 1132.45 767.973C1133.1 766.99 1134.21 764.896 1135.69 764.07C1137.29 763.176 1139.36 763.773 1141.12 763.285C1143.91 762.515 1146.23 759.921 1149.11 759.942Z" fill="url(#paint26_linear_343_33)"/>
<path d="M1169.07 856.166L1162.6 890.78C1162.6 890.78 1160.2 891.997 1158.89 892.046C1156.86 892.121 1152.99 890.507 1152.99 890.507L1151.45 867.612L1146.92 867.784L1145.65 890.287C1145.65 890.287 1142.15 892.182 1140.24 892.185C1138.73 892.189 1135.97 890.703 1135.97 890.703C1134.52 879.928 1132.55 866.282 1129.2 855.861L1169.07 856.166Z" fill="url(#paint27_linear_343_33)"/>
<path d="M1162.6 890.78C1162.6 890.78 1164.38 896.03 1163.92 896.443C1163.46 896.855 1161.08 898.443 1158.07 898.14C1155.06 897.838 1153.31 896.471 1152.75 895.657C1152.18 894.844 1152.8 889.678 1152.8 889.678C1152.8 889.678 1155.9 891.545 1157.46 891.585C1159.02 891.624 1162.6 890.78 1162.6 890.78Z" fill="#FFEE99"/>
<path d="M1135.97 890.704C1135.97 890.704 1134.28 895.98 1134.74 896.386C1135.2 896.791 1137.61 898.343 1140.62 897.996C1143.62 897.648 1145.35 896.255 1145.9 895.433C1146.45 894.612 1145.75 889.455 1145.75 889.455C1145.75 889.455 1142.69 891.369 1141.13 891.432C1139.57 891.494 1135.97 890.704 1135.97 890.704Z" fill="#FFEE99"/>
<path d="M1159 810.2C1159 810.2 1171.89 832.211 1169.07 856.167C1168.43 861.598 1161.21 867.677 1150.27 867.759C1139.33 867.841 1129.67 858.959 1129.2 855.861C1126.41 837.708 1134.51 828.01 1139.63 809.642L1159 810.2Z" fill="#A4DCD7"/>
<path d="M1159.74 808.658L1160.83 816.972C1160.83 816.972 1159.53 820.199 1158.44 820.969C1155.67 822.916 1152.18 822.841 1149.21 821.618C1145.37 820.036 1142.29 816.845 1139.32 811.778L1139.93 808.43L1159.74 808.658Z" fill="url(#paint28_linear_343_33)"/>
<path d="M1149.22 767.847C1161.77 767.753 1170.68 773.963 1170.7 784.606C1170.71 790.07 1170.8 798.135 1166.84 802.992C1162.87 807.87 1154.84 810.496 1149.54 810.536C1143.51 810.581 1136.37 808.096 1132.34 803.368C1128.24 798.556 1127.85 790.175 1127.92 784.926C1128.06 774.412 1136.68 767.941 1149.22 767.847Z" fill="#A4DCD7"/>
<path d="M1149.71 813.403C1157.15 813.347 1160.63 807.794 1161.55 805.955C1162.94 803.182 1161.48 797.303 1158.22 796.791C1154.07 796.14 1153.85 797.137 1152.1 795.025C1150.36 792.913 1152.48 786.88 1148.59 787.234C1145.58 787.507 1147.35 793.362 1145.64 795.483C1143.92 797.603 1143.65 796.532 1140.07 797.26C1136.98 797.888 1136.24 803.243 1137.37 806.136C1138.2 808.288 1142.27 813.458 1149.71 813.403Z" fill="url(#paint29_linear_343_33)"/>
<path d="M1153.57 805.416C1153.57 805.416 1152.5 807.179 1149.44 807.246C1146.38 807.314 1145.33 805.478 1145.33 805.478" stroke="#4E1C79" stroke-width="1.0619" stroke-linecap="round" stroke-linejoin="round"/>
<path d="M1134.75 776.395C1134.75 776.395 1138.63 773.082 1136.48 770.074C1134.33 767.065 1132.81 762.011 1130.75 762.439C1128.69 762.867 1127.38 769.234 1127.94 770.939C1128.49 772.644 1130.08 775.872 1131.3 776.365C1132.51 776.859 1134.75 776.395 1134.75 776.395Z" fill="#A4DCD7"/>
<path d="M1163.74 776.178C1163.74 776.178 1159.82 772.924 1161.92 769.884C1164.02 766.843 1165.47 761.767 1167.53 762.164C1169.6 762.562 1171.01 768.908 1170.48 770.621C1169.94 772.335 1168.41 775.585 1167.2 776.097C1165.99 776.609 1163.74 776.178 1163.74 776.178Z" fill="#A4DCD7"/>
<path d="M1163.39 771.676C1163.39 771.676 1164.99 770.442 1166.25 768.807C1167.5 767.172 1167.18 763.383 1167.18 763.383C1167.18 763.383 1169.31 766.656 1169.48 768.525C1169.55 769.398 1166.17 774.68 1165.91 774.42C1165.65 774.16 1163.39 771.676 1163.39 771.676Z" fill="#4E1C79"/>
<path d="M1134.71 771.891C1134.71 771.891 1133.1 770.681 1131.81 769.065C1130.53 767.448 1130.79 763.655 1130.79 763.655C1130.79 763.655 1128.72 766.96 1128.58 768.831C1128.52 769.705 1131.98 774.936 1132.24 774.672C1132.49 774.408 1134.71 771.891 1134.71 771.891Z" fill="#4E1C79"/>
<path d="M1135.79 769.016C1135.32 769.699 1134.97 770.454 1134.38 771.071C1132.1 773.466 1130.77 772.534 1129.57 773.87C1129.4 774.055 1127.78 775.986 1132.1 777.269C1133.11 777.571 1134.22 777.718 1135.32 777.663C1136.5 777.603 1137.68 777.298 1138.79 776.888C1142.01 775.592 1145.32 772.925 1145.28 769.719C1145.25 767.594 1144.22 766.161 1141.84 765.578C1140.48 765.176 1139.36 765.541 1138.17 766.235C1136.99 766.872 1136.46 768.024 1135.79 769.016Z" fill="#FFEE99"/>
<path d="M1151.06 763.569L1149.31 752.081C1148.99 749.958 1148.62 746.699 1146.62 746.806C1144.1 746.941 1144.16 751.287 1144 753.748L1143.33 763.658L1142.91 771.882C1142.85 773.043 1143.25 774.443 1144.13 775.281C1144.98 776.096 1146.37 776.593 1147.53 776.354C1149.44 775.965 1152.26 776.4 1151.9 772.576L1151.06 763.569Z" fill="#E782DB"/>
<path d="M1148.59 748.606C1148.94 749.571 1149.11 750.754 1149.26 751.759C1148.83 752.109 1147.72 752.967 1146.96 753.111C1146.23 753.25 1144.75 752.629 1144.08 752.321C1144.13 751.564 1144.19 750.761 1144.31 749.998C1144.72 750.206 1145.54 750.562 1146.28 750.402C1146.93 750.258 1147.96 749.277 1148.59 748.606ZM1149.81 755.389L1150.6 760.576C1149.8 761.209 1148.3 762.295 1147.23 762.497C1146.32 762.671 1144.65 762.082 1143.47 761.588L1143.72 757.88C1144.41 758.153 1145.32 758.399 1146.16 758.216C1147.2 757.99 1148.8 756.449 1149.81 755.389ZM1151.1 763.95L1151.72 770.63C1150.68 771.383 1149.31 772.254 1148.27 772.451C1146.95 772.702 1144.4 771.697 1142.96 771.054L1143.19 766.355C1144.04 766.771 1145.56 767.37 1146.92 767.072C1148.08 766.818 1149.83 765.234 1151.1 763.95Z" fill="url(#paint30_linear_343_33)"/>
<path d="M1160.52 769.408C1161.41 770.36 1162.16 771.482 1163.19 772.282C1167.22 775.391 1168.79 773.342 1170.95 775.101C1171.24 775.344 1174.17 777.936 1168.47 781.705C1167.13 782.592 1165.6 783.258 1164.02 783.583C1162.33 783.931 1160.55 783.875 1158.84 783.615C1153.85 782.686 1148.28 779.516 1147.28 774.177C1146.63 770.637 1147.61 767.87 1150.8 765.997C1152.6 764.814 1154.31 764.992 1156.23 765.694C1158.11 766.304 1159.24 768.016 1160.52 769.408Z" fill="#FFEE99"/>
<path d="M1158.2 794.979C1156.73 794.99 1155.52 793.166 1155.5 790.905C1155.48 788.644 1156.66 786.802 1158.14 786.791C1159.62 786.78 1160.83 788.604 1160.85 790.865C1160.86 793.126 1159.68 794.968 1158.2 794.979Z" fill="#4E1C79"/>
<path d="M1157.14 790.172C1156.77 790.175 1156.48 789.843 1156.47 789.432C1156.47 789.021 1156.76 788.685 1157.13 788.682C1157.49 788.679 1157.79 789.011 1157.79 789.422C1157.79 789.834 1157.5 790.169 1157.14 790.172Z" fill="white"/>
<path d="M1158.54 786.835C1158.54 786.835 1160.01 787.588 1160.82 787.686C1161.67 787.791 1163.29 787.272 1163.39 787.391C1163.48 787.51 1162.43 788.606 1161.76 788.937C1161.06 789.281 1159.44 789.3 1159.44 789.3L1158.54 786.835Z" fill="#4E1C79"/>
<path d="M1152.89 800.254C1152.24 799.571 1151.95 798.793 1152.24 798.516C1152.53 798.24 1153.3 798.57 1153.94 799.253C1154.59 799.937 1154.88 800.715 1154.59 800.991C1154.3 801.268 1153.54 800.938 1152.89 800.254Z" fill="#A4DCD7"/>
<path d="M1146.2 800.304C1146.84 799.611 1147.12 798.829 1146.82 798.557C1146.53 798.285 1145.77 798.626 1145.13 799.319C1144.49 800.012 1144.22 800.794 1144.51 801.066C1144.81 801.338 1145.56 800.997 1146.2 800.304Z" fill="#A4DCD7"/>
<path d="M1140.48 795.111C1141.96 795.1 1143.14 793.258 1143.12 790.997C1143.11 788.736 1141.9 786.912 1140.42 786.923C1138.94 786.934 1137.76 788.776 1137.78 791.037C1137.79 793.298 1139 795.122 1140.48 795.111Z" fill="#4E1C79"/>
<path d="M1141.47 790.289C1141.84 790.286 1142.13 789.951 1142.13 789.539C1142.12 789.128 1141.83 788.797 1141.46 788.799C1141.1 788.802 1140.81 789.138 1140.81 789.549C1140.81 789.961 1141.11 790.292 1141.47 790.289Z" fill="white"/>
<path d="M1140.02 786.973C1140.02 786.973 1138.56 787.748 1137.76 787.859C1136.9 787.976 1135.27 787.481 1135.18 787.602C1135.09 787.722 1136.16 788.803 1136.84 789.123C1137.54 789.457 1139.16 789.452 1139.16 789.452L1140.02 786.973Z" fill="#4E1C79"/>
<path d="M1220.97 854.014C1218.09 854.79 1214.49 855.71 1213.16 858.377C1211.74 861.223 1214.43 867.837 1214.43 867.837C1214.43 867.837 1210.16 866.318 1205.62 871.254C1201.07 876.191 1206.3 882.319 1206.3 882.319C1206.3 882.319 1196.31 884.866 1203.34 893.151C1208.47 899.204 1214.73 886.683 1214.73 886.683C1214.73 886.683 1217.38 891.649 1225.3 887.02C1233.22 882.391 1226.88 872.56 1226.88 872.56C1226.88 872.56 1231.36 873.197 1235.13 863.589C1238.9 853.982 1232.96 852.454 1232.96 852.454L1228.72 853.884C1228.72 853.884 1223.46 853.342 1220.97 854.014Z" fill="url(#paint31_linear_343_33)"/>
<path d="M1228.9 856.661C1231.57 856.315 1235.59 856.73 1235.59 856.73L1236.25 856.507C1236.56 858.152 1236.37 860.432 1235.13 863.59C1231.36 873.197 1226.88 872.56 1226.88 872.56C1226.88 872.56 1233.22 882.391 1225.3 887.02C1217.38 891.648 1214.73 886.683 1214.73 886.683C1214.73 886.683 1212.07 892.001 1208.8 894.029C1204.81 887.305 1213.18 885.165 1213.18 885.165C1213.18 885.165 1207.95 879.036 1212.49 874.1C1217.04 869.164 1221.31 870.683 1221.31 870.683C1221.31 870.683 1218.61 864.07 1220.04 861.224C1221.37 858.557 1224.97 857.636 1227.85 856.86C1228.16 856.776 1228.51 856.711 1228.9 856.661Z" fill="#4DBBB0"/>
<path d="M1261.19 837.488C1261.19 837.488 1267.99 837.942 1271.12 831.134C1274.25 824.327 1270.55 818.972 1270.55 818.972C1270.55 818.972 1279.25 815.783 1278.35 804.696C1277.44 793.608 1267.83 791.966 1267.83 791.966C1267.83 791.966 1272.85 784.086 1268.64 777.388C1264.42 770.689 1260.54 773.971 1260.54 773.971L1251.82 798.606L1255.15 836.367L1261.19 837.488Z" fill="url(#paint32_linear_343_33)"/>
<path d="M1259.76 833.763C1257.24 834.126 1255.7 833.155 1255.7 833.155C1254.19 821.671 1250.01 806.924 1248.99 795.386L1260.26 777.139C1261.7 777.191 1262.65 780.549 1263.41 781.843C1267.46 788.766 1260.66 792.067 1260.66 792.067C1260.66 792.067 1261.09 792.614 1261.71 793.56C1263.27 795.932 1269.05 798.023 1270.06 805.382C1271.06 812.685 1263.39 819.072 1263.39 819.072C1263.39 819.072 1270.82 822.792 1268.07 826.76C1266.94 828.388 1261.27 833.545 1259.76 833.763Z" fill="#4DBBB0"/>
<path d="M1224.16 770.72C1224.16 770.72 1224.31 771.789 1220.48 778.232C1216.66 784.675 1219.78 790.388 1219.78 790.388C1219.78 790.388 1210.8 792.65 1210.54 803.771C1210.27 814.892 1219.67 817.53 1219.67 817.53C1219.67 817.53 1213.85 824.841 1217.34 831.944C1220.83 839.046 1225.03 836.188 1225.03 836.188L1236.29 812.599L1236.92 774.697L1224.16 770.72Z" fill="url(#paint33_linear_343_33)"/>
<path d="M1232.06 776.804C1234.6 776.707 1236.03 777.833 1236.03 777.833C1236.34 789.413 1238.95 804.516 1238.76 816.096L1225.65 833.066C1224.22 832.864 1220.25 828.012 1219.63 826.646C1216.32 819.338 1226.8 818.178 1226.8 818.178C1226.8 818.178 1226.44 817.59 1225.92 816.584C1224.61 814.061 1218.2 812.338 1217.42 803.788C1217.44 795.599 1226.92 791.036 1226.92 791.036C1226.92 791.036 1223.72 792.2 1227.48 782.279C1228.18 780.427 1230.53 776.863 1232.06 776.804Z" fill="#4DBBB0"/>
<path d="M1244.36 759.81C1247.53 759.878 1250.04 762.693 1253.04 763.739C1254.84 764.368 1257.53 763.542 1258.59 765.133C1260.18 767.555 1258.27 769.624 1257.22 773.73L1248.24 774.837C1246.89 773.455 1245.87 772.088 1245.34 770.65L1239 771.431C1238.73 772.514 1238.44 773.537 1238.22 774.4L1229.24 775.506C1226.07 772.269 1224.93 771.777 1227.58 767.606C1228.24 766.632 1229.39 764.555 1230.88 763.749C1232.49 762.877 1234.55 763.504 1236.32 763.04C1239.11 762.31 1241.47 759.748 1244.36 759.81Z" fill="url(#paint34_linear_343_33)"/>
<path d="M1253.93 817.061C1255.41 814.753 1260.03 815.877 1262.13 817.76C1269.71 824.553 1281.44 843.057 1281.44 843.057C1281.44 843.057 1282.05 846.382 1281.05 847.463C1280.05 848.544 1277.77 849.846 1277.77 849.846L1268.82 843.274C1268.82 843.274 1248.51 825.522 1253.93 817.061Z" fill="url(#paint35_linear_343_33)"/>
<path d="M1277.77 849.846C1277.77 849.846 1281.24 853.616 1281.89 853.416C1282.53 853.215 1284.24 852.387 1285.39 850.962C1286.54 849.536 1286.93 847.66 1286.74 847.074C1286.56 846.487 1281.44 843.057 1281.44 843.057C1281.44 843.057 1281.81 846.77 1281.05 847.462C1280.29 848.155 1277.77 849.846 1277.77 849.846Z" fill="#A4DCD7"/>
<path d="M1233.59 816.468C1232.14 814.14 1227.52 815.204 1225.39 817.06C1217.72 823.752 1205.74 842.101 1205.74 842.101C1205.74 842.101 1205.09 845.417 1206.08 846.512C1207.07 847.606 1209.32 848.938 1209.32 848.938L1218.36 842.483C1218.36 842.483 1238.9 824.999 1233.59 816.468Z" fill="url(#paint36_linear_343_33)"/>
<path d="M1209.32 848.938C1209.32 848.938 1205.81 852.662 1205.16 852.453C1204.52 852.244 1202.82 851.394 1201.69 849.953C1200.56 848.513 1200.2 846.632 1200.39 846.048C1200.58 845.464 1205.74 842.101 1205.74 842.101C1205.74 842.101 1205.32 845.809 1206.08 846.511C1206.83 847.214 1209.32 848.938 1209.32 848.938Z" fill="#A4DCD7"/>
<path d="M1262.96 856.312L1256.01 890.833C1256.01 890.833 1253.59 892.017 1252.28 892.047C1250.25 892.093 1246.4 890.426 1246.4 890.426L1245.18 867.51L1240.65 867.618L1239.06 890.102C1239.06 890.102 1235.54 891.948 1233.63 891.924C1232.12 891.906 1229.38 890.383 1229.38 890.383C1228.08 879.588 1226.3 865.914 1223.09 855.447L1262.96 856.312Z" fill="url(#paint37_linear_343_33)"/>
<path d="M1256.01 890.833C1256.01 890.833 1257.71 896.108 1257.25 896.514C1256.79 896.92 1254.38 898.475 1251.37 898.13C1248.37 897.785 1246.64 896.394 1246.09 895.572C1245.53 894.751 1246.23 889.593 1246.23 889.593C1246.23 889.593 1249.3 891.505 1250.86 891.566C1252.42 891.627 1256.01 890.833 1256.01 890.833Z" fill="#A4DCD7"/>
<path d="M1229.38 890.383C1229.38 890.383 1227.61 895.636 1228.07 896.048C1228.53 896.459 1230.91 898.046 1233.92 897.74C1236.93 897.435 1238.68 896.066 1239.24 895.252C1239.81 894.438 1239.18 889.272 1239.18 889.272C1239.18 889.272 1236.09 891.143 1234.53 891.183C1232.97 891.224 1229.38 890.383 1229.38 890.383Z" fill="#A4DCD7"/>
<path d="M1253.54 810.205C1253.54 810.205 1266.12 832.397 1262.97 856.311C1262.25 861.734 1254.94 867.711 1244 867.639C1233.06 867.568 1223.53 858.551 1223.09 855.446C1220.57 837.255 1228.8 827.671 1234.18 809.375L1253.54 810.205Z" fill="#E372D6"/>
<path d="M1254.3 808.673L1255.27 817.002C1255.27 817.002 1253.93 820.211 1252.82 820.966C1250.03 822.874 1246.54 822.75 1243.59 821.486C1239.77 819.849 1236.74 816.615 1233.84 811.507L1234.49 808.168L1254.3 808.673Z" fill="url(#paint38_linear_343_33)"/>
<path d="M1244.36 767.716C1256.9 767.799 1265.73 774.133 1265.6 784.776C1265.53 790.24 1265.5 798.306 1261.48 803.107C1257.44 807.93 1249.37 810.443 1244.08 810.408C1238.04 810.369 1230.94 807.784 1226.98 802.999C1222.95 798.13 1222.67 789.744 1222.82 784.496C1223.1 773.985 1231.81 767.634 1244.36 767.716Z" fill="#E372D6"/>
<path d="M1244.2 813.277C1251.64 813.326 1255.2 807.822 1256.15 805.996C1257.58 803.243 1256.2 797.343 1252.94 796.785C1248.81 796.076 1248.57 797.07 1246.85 794.934C1245.14 792.797 1247.35 786.795 1243.45 787.093C1240.44 787.324 1242.13 793.205 1240.38 795.301C1238.64 797.397 1238.38 796.322 1234.79 797C1231.69 797.584 1230.88 802.929 1231.96 805.837C1232.77 808.001 1236.77 813.229 1244.2 813.277Z" fill="url(#paint39_linear_343_33)"/>
<path d="M1248.17 805.345C1248.17 805.345 1247.08 807.092 1244.02 807.117C1240.96 807.142 1239.94 805.291 1239.94 805.291" stroke="#4E1C79" stroke-width="1.06197" stroke-linecap="round" stroke-linejoin="round"/>
<path d="M1229.77 776.061C1229.77 776.061 1233.69 772.803 1231.58 769.765C1229.48 766.726 1228.03 761.65 1225.96 762.05C1223.9 762.449 1222.5 768.797 1223.03 770.51C1223.56 772.223 1225.1 775.472 1226.31 775.983C1227.52 776.494 1229.77 776.061 1229.77 776.061Z" fill="#E372D6"/>
<path d="M1258.76 776.251C1258.76 776.251 1254.88 772.942 1257.03 769.931C1259.17 766.92 1260.69 761.864 1262.75 762.291C1264.81 762.717 1266.13 769.083 1265.57 770.789C1265.02 772.494 1263.43 775.723 1262.22 776.219C1261 776.714 1258.76 776.251 1258.76 776.251Z" fill="#E372D6"/>
<path d="M1258.47 771.744C1258.47 771.744 1260.08 770.533 1261.36 768.915C1262.64 767.297 1262.38 763.504 1262.38 763.504C1262.38 763.504 1264.46 766.807 1264.6 768.679C1264.66 769.552 1261.21 774.787 1260.95 774.523C1260.69 774.26 1258.47 771.744 1258.47 771.744Z" fill="#4E1C79"/>
<path d="M1229.79 771.556C1229.79 771.556 1228.19 770.324 1226.93 768.69C1225.67 767.055 1225.99 763.266 1225.99 763.266C1225.99 763.266 1223.86 766.541 1223.7 768.411C1223.62 769.284 1227.01 774.563 1227.27 774.303C1227.54 774.043 1229.79 771.556 1229.79 771.556Z" fill="#4E1C79"/>
<path d="M1230.91 768.697C1230.43 769.373 1230.07 770.123 1229.47 770.731C1227.15 773.095 1225.84 772.144 1224.62 773.463C1224.45 773.646 1222.8 775.554 1227.1 776.898C1228.11 777.214 1229.22 777.377 1230.32 777.337C1231.5 777.294 1232.68 777.005 1233.8 776.611C1237.03 775.36 1240.38 772.739 1240.39 769.532C1240.38 767.407 1239.38 765.96 1237.01 765.344C1235.65 764.923 1234.53 765.272 1233.33 765.95C1232.14 766.57 1231.6 767.714 1230.91 768.697Z" fill="#A4DCD7"/>
<path d="M1246.26 763.464L1244.67 751.952C1244.37 749.825 1244.06 746.56 1242.05 746.64C1239.53 746.74 1239.53 751.086 1239.33 753.545L1238.52 763.445L1237.99 771.663C1237.92 772.822 1238.29 774.228 1239.16 775.079C1240 775.905 1241.38 776.422 1242.55 776.2C1244.46 775.837 1247.27 776.312 1246.97 772.483L1246.26 763.464Z" fill="#FFEE99"/>
<path d="M1244 748.467C1244.33 749.437 1244.49 750.623 1244.62 751.63C1244.19 751.974 1243.06 752.816 1242.3 752.95C1241.57 753.078 1240.1 752.436 1239.43 752.119C1239.49 751.362 1239.56 750.56 1239.7 749.8C1240.1 750.013 1240.92 750.38 1241.66 750.23C1242.32 750.096 1243.35 749.129 1244 748.467ZM1245.12 755.267L1245.84 760.465C1245.03 761.086 1243.51 762.151 1242.44 762.339C1241.52 762.5 1239.86 761.887 1238.69 761.377L1238.99 757.673C1239.68 757.956 1240.59 758.214 1241.43 758.043C1242.47 757.831 1244.1 756.313 1245.12 755.267ZM1246.29 763.846L1246.82 770.535C1245.77 771.273 1244.38 772.124 1243.34 772.307C1242.02 772.539 1239.48 771.499 1238.05 770.836L1238.35 766.14C1239.19 766.568 1240.7 767.188 1242.07 766.909C1243.23 766.671 1245 765.112 1246.29 763.846Z" fill="url(#paint40_linear_343_33)"/>
<path d="M1255.63 769.436C1256.51 770.4 1257.24 771.533 1258.26 772.348C1262.25 775.513 1263.85 773.486 1265.98 775.275C1266.27 775.522 1269.16 778.155 1263.41 781.843C1262.05 782.712 1260.52 783.357 1258.94 783.659C1257.24 783.984 1255.46 783.902 1253.76 783.618C1248.78 782.619 1243.25 779.371 1242.33 774.019C1241.73 770.47 1242.74 767.717 1245.96 765.889C1247.77 764.731 1249.49 764.933 1251.39 765.661C1253.26 766.298 1254.37 768.026 1255.63 769.436Z" fill="#A4DCD7"/>
<path d="M1252.96 794.973C1251.48 794.963 1250.29 793.123 1250.31 790.861C1250.32 788.6 1251.53 786.775 1253.01 786.785C1254.49 786.794 1255.67 788.635 1255.66 790.896C1255.64 793.158 1254.43 794.983 1252.96 794.973Z" fill="#4E1C79"/>
<path d="M1251.96 790.152C1251.6 790.149 1251.3 789.814 1251.31 789.402C1251.31 788.991 1251.61 788.659 1251.97 788.662C1252.33 788.664 1252.63 789 1252.62 789.411C1252.62 789.822 1252.32 790.154 1251.96 790.152Z" fill="white"/>
<path d="M1253.41 786.834C1253.41 786.834 1254.87 787.608 1255.67 787.717C1256.53 787.834 1258.16 787.338 1258.25 787.458C1258.34 787.579 1257.27 788.66 1256.59 788.981C1255.89 789.316 1254.28 789.312 1254.28 789.312L1253.41 786.834Z" fill="#4E1C79"/>
<path d="M1247.57 800.174C1246.93 799.482 1246.65 798.7 1246.94 798.427C1247.24 798.155 1248 798.495 1248.64 799.188C1249.28 799.881 1249.56 800.663 1249.26 800.935C1248.97 801.207 1248.21 800.867 1247.57 800.174Z" fill="#D563C7"/>
<path d="M1240.88 800.13C1241.53 799.446 1241.82 798.668 1241.53 798.392C1241.24 798.115 1240.47 798.446 1239.83 799.13C1239.18 799.814 1238.89 800.593 1239.18 800.869C1239.47 801.145 1240.23 800.814 1240.88 800.13Z" fill="#D563C7"/>
<path d="M1235.23 794.857C1236.71 794.867 1237.92 793.041 1237.93 790.78C1237.95 788.519 1236.76 786.678 1235.29 786.668C1233.81 786.659 1232.6 788.484 1232.58 790.745C1232.57 793.006 1233.75 794.847 1235.23 794.857Z" fill="#4E1C79"/>
<path d="M1236.29 790.049C1236.66 790.051 1236.95 789.72 1236.96 789.308C1236.96 788.897 1236.67 788.561 1236.3 788.559C1235.94 788.557 1235.64 788.888 1235.64 789.3C1235.64 789.711 1235.93 790.047 1236.29 790.049Z" fill="white"/>
<path d="M1234.88 786.712C1234.88 786.712 1233.41 787.467 1232.61 787.566C1231.75 787.672 1230.13 787.154 1230.04 787.273C1229.95 787.392 1231 788.488 1231.67 788.818C1232.37 789.161 1233.99 789.179 1233.99 789.179L1234.88 786.712Z" fill="#4E1C79"/>
<g filter="url(#filter0_f_343_33)">
<path d="M395.814 805.187L386.69 810.549L395.254 800.785L386.29 797.824L395.414 797.264L403.109 789.661L407.419 796.624L418.384 796.544L408.539 801.419L416.444 811.19L406.467 805.267" stroke="#B5FF71" stroke-width="1.46933" stroke-linecap="round" stroke-linejoin="round"/>
</g>
<path d="M421.553 906.531C424.363 907.308 427.873 908.231 429.16 910.847C430.533 913.638 427.854 920.088 427.854 920.088C427.854 920.088 432.044 918.63 436.453 923.485C440.862 928.34 435.708 934.298 435.708 934.298C435.708 934.298 445.462 936.852 438.54 944.907C433.481 950.792 427.439 938.51 427.439 938.51C427.439 938.51 424.822 943.348 417.106 938.772C409.39 934.196 415.656 924.625 415.656 924.625C415.656 924.625 411.271 925.219 407.647 915.802C404.023 906.385 409.838 904.93 409.838 904.93L413.98 906.354C413.98 906.354 419.119 905.859 421.553 906.531Z" fill="url(#paint41_linear_343_33)"/>
<path d="M413.786 909.069C411.172 908.713 407.238 909.093 407.238 909.093L406.593 908.871C406.287 910.477 406.455 912.707 407.646 915.802C411.27 925.219 415.656 924.625 415.656 924.625C415.656 924.625 409.39 934.196 417.106 938.772C424.823 943.348 427.438 938.511 427.438 938.511C427.438 938.511 430.008 943.727 433.197 945.73C437.139 939.182 428.967 937.037 428.967 937.037C428.967 937.037 434.119 931.078 429.71 926.223C425.301 921.368 421.111 922.826 421.111 922.826C421.111 922.826 423.792 916.378 422.419 913.586C421.132 910.97 417.62 910.047 414.81 909.27C414.506 909.186 414.159 909.12 413.786 909.069Z" fill="#4DBBB0"/>
<path d="M382.333 890.116C382.333 890.116 375.685 890.517 372.666 883.842C369.647 877.166 373.305 871.954 373.305 871.954C373.305 871.954 364.816 868.781 365.771 857.947C366.725 847.113 376.139 845.569 376.139 845.569C376.139 845.569 371.275 837.833 375.439 831.311C379.602 824.79 383.376 828.023 383.376 828.023L391.749 852.164L388.25 889.06L382.333 890.116Z" fill="url(#paint42_linear_343_33)"/>
<path d="M383.758 886.484C386.216 886.855 387.728 885.915 387.728 885.915C389.286 874.698 393.463 860.307 394.533 849.034L383.634 831.122C382.226 831.164 381.274 834.441 380.525 835.701C376.518 842.443 383.142 845.714 383.142 845.714C383.142 845.714 382.724 846.246 382.109 847.167C380.566 849.476 374.901 851.483 373.875 858.671C372.843 865.805 380.308 872.098 380.308 872.098C380.308 872.098 373.018 875.687 375.682 879.584C376.776 881.183 382.283 886.262 383.758 886.484Z" fill="#4DBBB0"/>
<path d="M418.971 825.078C418.971 825.078 418.812 826.122 422.512 832.445C426.212 838.769 423.119 844.334 423.119 844.334C423.119 844.334 431.892 846.603 432.075 857.477C432.258 868.351 423.057 870.871 423.057 870.871C423.057 870.871 428.703 878.056 425.244 884.977C421.784 891.899 417.693 889.078 417.693 889.078L406.843 865.944L406.467 828.884L418.971 825.078Z" fill="url(#paint43_linear_343_33)"/>
<path d="M411.205 830.976C408.721 830.864 407.316 831.956 407.316 831.956C406.939 843.275 404.288 858.024 404.403 869.347L417.114 886.022C418.51 885.833 422.425 881.115 423.038 879.784C426.318 872.66 416.078 871.459 416.078 871.459C416.078 871.459 416.438 870.886 416.954 869.906C418.246 867.448 424.527 865.805 425.346 857.45C425.377 849.444 416.139 844.923 416.139 844.923C416.139 844.923 419.255 846.081 415.644 836.358C414.97 834.542 412.695 831.043 411.205 830.976Z" fill="#4DBBB0"/>
<path d="M399.291 814.282C396.186 814.328 393.718 817.065 390.78 818.068C389.015 818.671 386.383 817.846 385.346 819.395C383.767 821.752 385.626 823.787 386.626 827.809L395.396 828.948C396.727 827.606 397.735 826.276 398.255 824.873L404.452 825.678C404.71 826.738 404.988 827.741 405.198 828.585L413.968 829.724C417.089 826.58 418.204 826.106 415.644 822.012C415.001 821.055 413.894 819.017 412.445 818.22C410.877 817.357 408.854 817.956 407.126 817.492C404.4 816.759 402.113 814.24 399.291 814.282Z" fill="url(#paint44_linear_343_33)"/>
<path d="M389.562 870.192C388.131 867.926 383.613 868.995 381.547 870.823C374.094 877.415 362.499 895.431 362.499 895.431C362.499 895.431 361.882 898.677 362.857 899.741C363.831 900.805 366.046 902.092 366.046 902.092L374.842 895.724C374.842 895.724 394.807 878.498 389.562 870.192Z" fill="url(#paint45_linear_343_33)"/>
<path d="M366.045 902.092C366.045 902.092 362.634 905.756 362.001 905.556C361.368 905.356 359.702 904.535 358.589 903.134C357.475 901.733 357.11 899.896 357.291 899.324C357.472 898.752 362.499 895.431 362.499 895.431C362.499 895.431 362.115 899.058 362.856 899.741C363.598 900.423 366.045 902.092 366.045 902.092Z" fill="#A4DCD7"/>
<path d="M409.453 869.743C410.884 867.477 415.401 868.546 417.468 870.374C424.921 876.966 436.516 894.982 436.516 894.982C436.516 894.982 437.132 898.228 436.158 899.292C435.183 900.355 432.969 901.643 432.969 901.643L424.173 895.275C424.173 895.275 404.208 878.049 409.453 869.743Z" fill="url(#paint46_linear_343_33)"/>
<path d="M432.969 901.643C432.969 901.643 436.381 905.307 437.014 905.107C437.647 904.907 439.312 904.086 440.426 902.685C441.539 901.284 441.905 899.448 441.724 898.875C441.543 898.303 436.516 894.982 436.516 894.982C436.516 894.982 436.9 898.61 436.158 899.292C435.416 899.974 432.969 901.643 432.969 901.643Z" fill="#A4DCD7"/>
<path d="M380.479 908.509L387.056 942.303C387.056 942.303 389.417 943.476 390.694 943.514C392.68 943.572 396.451 941.967 396.451 941.967L397.793 919.57L402.222 919.705L403.631 941.698C403.631 941.698 407.065 943.525 408.932 943.514C410.404 943.505 413.092 942.034 413.092 942.034C414.439 931.488 416.263 918.131 419.464 907.918L380.479 908.509Z" fill="url(#paint47_linear_343_33)"/>
<path d="M387.056 942.303C387.056 942.303 385.361 947.45 385.81 947.849C386.259 948.249 388.602 949.785 391.543 949.467C394.484 949.149 396.179 947.799 396.728 947C397.276 946.201 396.628 941.154 396.628 941.154C396.628 941.154 393.617 943.003 392.091 943.053C390.566 943.103 387.056 942.303 387.056 942.303Z" fill="#A4DCD7"/>
<path d="M413.093 942.034C413.093 942.034 414.788 947.181 414.339 947.58C413.891 947.98 411.548 949.515 408.606 949.198C405.665 948.88 403.97 947.53 403.421 946.731C402.873 945.931 403.521 940.885 403.521 940.885C403.521 940.885 406.532 942.734 408.058 942.784C409.583 942.833 413.093 942.034 413.093 942.034Z" fill="#A4DCD7"/>
<path d="M389.992 863.492C389.992 863.492 377.553 885.108 380.48 908.508C381.143 913.815 388.248 919.705 398.946 919.705C409.644 919.705 419.023 910.951 419.465 907.918C422.054 890.15 414.068 880.727 408.92 862.805L389.992 863.492Z" fill="#E372D6"/>
<path d="M389.252 861.99L388.254 870.126C388.254 870.126 389.546 873.272 390.621 874.017C393.337 875.901 396.751 875.802 399.642 874.585C403.386 873.009 406.376 869.867 409.245 864.892L408.624 861.623L389.252 861.99Z" fill="url(#paint48_linear_343_33)"/>
<path d="M399.238 822.012C386.972 822.012 378.303 828.148 378.362 838.554C378.393 843.896 378.369 851.783 382.27 856.502C386.189 861.243 394.06 863.752 399.238 863.752C405.139 863.752 412.099 861.27 416.003 856.618C419.976 851.883 420.296 843.686 420.192 838.554C419.983 828.276 411.504 822.012 399.238 822.012Z" fill="#E372D6"/>
<path d="M399.096 866.556C391.826 866.556 388.378 861.152 387.464 859.36C386.085 856.66 387.474 850.901 390.658 850.376C394.703 849.709 394.934 850.683 396.625 848.605C398.315 846.527 396.192 840.645 400.001 840.962C402.943 841.207 401.255 846.945 402.949 849.005C404.643 851.066 404.899 850.016 408.408 850.702C411.43 851.293 412.188 856.524 411.111 859.36C410.31 861.471 406.366 866.556 399.096 866.556Z" fill="url(#paint49_linear_343_33)"/>
<path d="M413.452 830.263C413.452 830.263 409.639 827.053 411.716 824.096C413.793 821.139 415.24 816.186 417.258 816.59C419.276 816.993 420.607 823.209 420.074 824.88C419.542 826.551 418.017 829.718 416.829 830.21C415.642 830.702 413.452 830.263 413.452 830.263Z" fill="#E372D6"/>
<path d="M385.103 830.263C385.103 830.263 388.916 827.053 386.839 824.096C384.762 821.139 383.314 816.186 381.297 816.59C379.279 816.993 377.948 823.209 378.481 824.88C379.013 826.551 380.538 829.718 381.726 830.21C382.913 830.702 385.103 830.263 385.103 830.263Z" fill="#E372D6"/>
<path d="M385.417 825.859C385.417 825.859 383.845 824.665 382.604 823.075C381.363 821.485 381.646 817.778 381.646 817.778C381.646 817.778 379.591 820.994 379.443 822.823C379.374 823.677 382.722 828.817 382.976 828.561C383.229 828.305 385.417 825.859 385.417 825.859Z" fill="#4E1C79"/>
<path d="M413.457 825.859C413.457 825.859 415.029 824.665 416.27 823.075C417.511 821.485 417.228 817.778 417.228 817.778C417.228 817.778 419.283 820.994 419.431 822.823C419.5 823.677 416.152 828.817 415.898 828.561C415.645 828.305 413.457 825.859 413.457 825.859Z" fill="#4E1C79"/>
<path d="M412.381 823.057C412.851 823.72 413.196 824.456 413.776 825.055C416.026 827.38 417.312 826.459 418.504 827.757C418.669 827.936 420.261 829.812 416.054 831.098C415.064 831.401 413.979 831.553 412.906 831.507C411.754 831.457 410.593 831.167 409.507 830.775C406.35 829.531 403.094 826.948 403.109 823.812C403.127 821.735 404.116 820.326 406.442 819.739C407.767 819.336 408.869 819.685 410.035 820.355C411.191 820.969 411.717 822.091 412.381 823.057Z" fill="#A4DCD7"/>
<path d="M397.411 817.843L399.04 806.597C399.341 804.52 399.67 801.33 401.631 801.421C404.094 801.534 404.064 805.784 404.244 808.189L404.971 817.873L405.438 825.911C405.504 827.045 405.127 828.417 404.275 829.243C403.447 830.046 402.097 830.542 400.954 830.317C399.091 829.951 396.333 830.396 396.654 826.655L397.411 817.843Z" fill="#FFEE99"/>
<path d="M399.714 803.195C399.383 804.141 399.223 805.299 399.084 806.283C399.506 806.621 400.601 807.452 401.348 807.588C402.061 807.718 403.499 807.1 404.153 806.794C404.104 806.054 404.038 805.269 403.909 804.525C403.517 804.731 402.709 805.085 401.992 804.933C401.348 804.798 400.343 803.846 399.714 803.195ZM398.571 809.836L397.836 814.913C398.626 815.525 400.1 816.576 401.144 816.766C402.043 816.93 403.672 816.341 404.819 815.85L404.547 812.227C403.878 812.499 402.982 812.746 402.163 812.573C401.15 812.36 399.566 810.864 398.571 809.836ZM397.379 818.215L396.817 824.751C397.836 825.479 399.186 826.32 400.204 826.506C401.498 826.741 403.979 825.74 405.391 825.101L405.125 820.509C404.302 820.922 402.82 821.519 401.486 821.237C400.346 820.997 398.625 819.462 397.379 818.215Z" fill="url(#paint50_linear_343_33)"/>
<path d="M388.211 823.621C387.339 824.558 386.621 825.661 385.614 826.45C381.698 829.519 380.149 827.527 378.055 829.263C377.765 829.502 374.924 832.058 380.524 835.701C381.842 836.559 383.34 837.199 384.883 837.505C386.539 837.834 388.281 837.765 389.948 837.498C394.823 836.553 400.25 833.413 401.185 828.187C401.794 824.721 400.816 822.022 397.681 820.215C395.917 819.071 394.242 819.258 392.376 819.958C390.542 820.568 389.451 822.251 388.211 823.621Z" fill="#A4DCD7"/>
<path d="M390.658 848.605C392.102 848.605 393.273 846.813 393.273 844.602C393.273 842.391 392.102 840.599 390.658 840.599C389.214 840.599 388.043 842.391 388.043 844.602C388.043 846.813 389.214 848.605 390.658 848.605Z" fill="#4E1C79"/>
<path d="M391.664 843.897C392.02 843.897 392.308 843.571 392.308 843.169C392.308 842.767 392.02 842.44 391.664 842.44C391.308 842.44 391.02 842.767 391.02 843.169C391.02 843.571 391.308 843.897 391.664 843.897Z" fill="white"/>
<path d="M390.265 840.645C390.265 840.645 388.833 841.391 388.048 841.494C387.212 841.603 385.624 841.107 385.532 841.224C385.441 841.341 386.48 842.405 387.14 842.723C387.827 843.055 389.404 843.061 389.404 843.061L390.265 840.645Z" fill="#4E1C79"/>
<path d="M395.891 853.724C396.521 853.051 396.799 852.288 396.512 852.02C396.226 851.752 395.483 852.08 394.853 852.753C394.223 853.426 393.945 854.189 394.232 854.457C394.518 854.725 395.261 854.397 395.891 853.724Z" fill="#D563C7"/>
<path d="M402.43 853.724C401.801 853.051 401.523 852.288 401.809 852.02C402.096 851.752 402.838 852.08 403.468 852.753C404.098 853.426 404.376 854.189 404.09 854.457C403.803 854.725 403.06 854.397 402.43 853.724Z" fill="#D563C7"/>
<path d="M407.987 848.605C406.543 848.605 405.372 846.813 405.372 844.602C405.372 842.391 406.543 840.599 407.987 840.599C409.431 840.599 410.602 842.391 410.602 844.602C410.602 846.813 409.431 848.605 407.987 848.605Z" fill="#4E1C79"/>
<path d="M406.98 843.897C406.625 843.897 406.336 843.571 406.336 843.169C406.336 842.767 406.625 842.44 406.98 842.44C407.336 842.44 407.625 842.767 407.625 843.169C407.625 843.571 407.336 843.897 406.98 843.897Z" fill="white"/>
<path d="M408.379 840.645C408.379 840.645 409.811 841.391 410.596 841.494C411.432 841.603 413.021 841.107 413.112 841.224C413.203 841.341 412.164 842.405 411.504 842.723C410.817 843.055 409.241 843.061 409.241 843.061L408.379 840.645Z" fill="#4E1C79"/>
<path d="M399.254 862.805C401.246 862.805 402.86 861.517 402.86 859.927C402.86 858.338 401.246 857.049 399.254 857.049C397.263 857.049 395.648 858.338 395.648 859.927C395.648 861.517 397.263 862.805 399.254 862.805Z" fill="#4E1C79"/>
<path d="M395.814 805.187L386.69 810.549L395.254 800.785L386.29 797.824L395.414 797.264L403.109 789.661L407.419 796.624L418.384 796.544L408.539 801.419L416.444 811.19L406.467 805.267" stroke="white" stroke-width="0.629713" stroke-linecap="round" stroke-linejoin="round"/>
</g>
<defs>
<filter id="filter0_f_343_33" x="382.973" y="786.344" width="38.7274" height="28.1629" filterUnits="userSpaceOnUse" color-interpolation-filters="sRGB">
<feFlood flood-opacity="0" result="BackgroundImageFix"/>
<feBlend mode="normal" in="SourceGraphic" in2="BackgroundImageFix" result="shape"/>
<feGaussianBlur stdDeviation="1.29109" result="effect1_foregroundBlur_343_33"/>
</filter>
<linearGradient id="paint0_linear_343_33" x1="826.59" y1="580.217" x2="1505.13" y2="580.217" gradientUnits="userSpaceOnUse">
<stop stop-color="#E7E7E7"/>
<stop offset="1" stop-color="#AFAFAF"/>
</linearGradient>
<linearGradient id="paint1_linear_343_33" x1="1165.57" y1="845.379" x2="1169.51" y2="531.263" gradientUnits="userSpaceOnUse">
<stop stop-color="white"/>
<stop offset="1" stop-color="#D9D9D9"/>
</linearGradient>
<linearGradient id="paint2_linear_343_33" x1="826.59" y1="865.7" x2="1505.13" y2="865.7" gradientUnits="userSpaceOnUse">
<stop stop-color="#E7E7E7"/>
<stop offset="1" stop-color="#AFAFAF"/>
</linearGradient>
<linearGradient id="paint3_linear_343_33" x1="880.681" y1="723.053" x2="953.777" y2="723.262" gradientUnits="userSpaceOnUse">
<stop stop-color="#E7E7E7"/>
<stop offset="1" stop-color="#AFAFAF"/>
</linearGradient>
<linearGradient id="paint4_linear_343_33" x1="997.61" y1="722.959" x2="1100.65" y2="722.959" gradientUnits="userSpaceOnUse">
<stop stop-color="#E7E7E7"/>
<stop offset="1" stop-color="#AFAFAF"/>
</linearGradient>
<linearGradient id="paint5_linear_343_33" x1="1230.5" y1="722.959" x2="1333.54" y2="722.959" gradientUnits="userSpaceOnUse">
<stop stop-color="#E7E7E7"/>
<stop offset="1" stop-color="#AFAFAF"/>
</linearGradient>
<linearGradient id="paint6_linear_343_33" x1="1368.86" y1="722.959" x2="1471.9" y2="722.959" gradientUnits="userSpaceOnUse">
<stop stop-color="#E7E7E7"/>
<stop offset="1" stop-color="#AFAFAF"/>
</linearGradient>
<linearGradient id="paint7_linear_343_33" x1="91.3271" y1="597.11" x2="413.796" y2="597.11" gradientUnits="userSpaceOnUse">
<stop stop-color="#C59268"/>
<stop offset="1" stop-color="#A26D3B"/>
</linearGradient>
<linearGradient id="paint8_linear_343_33" x1="91.3271" y1="733.074" x2="413.796" y2="733.074" gradientUnits="userSpaceOnUse">
<stop stop-color="#C59268"/>
<stop offset="1" stop-color="#A26D3B"/>
</linearGradient>
<linearGradient id="paint9_linear_343_33" x1="463.412" y1="736.655" x2="785.881" y2="736.655" gradientUnits="userSpaceOnUse">
<stop stop-color="#6DB1CB"/>
<stop offset="1" stop-color="#35809B"/>
</linearGradient>
<linearGradient id="paint10_linear_343_33" x1="463.412" y1="736.655" x2="785.881" y2="736.655" gradientUnits="userSpaceOnUse">
<stop stop-color="#6DB1CB"/>
<stop offset="1" stop-color="#35809B"/>
</linearGradient>
<linearGradient id="paint11_linear_343_33" x1="1074.74" y1="856.137" x2="1093.44" y2="894.377" gradientUnits="userSpaceOnUse">
<stop stop-color="#9A348E"/>
<stop offset="1" stop-color="#E782DB"/>
</linearGradient>
<linearGradient id="paint12_linear_343_33" x1="1035.07" y1="824.393" x2="1034.21" y2="784.311" gradientUnits="userSpaceOnUse">
<stop stop-color="#9A348E"/>
<stop offset="1" stop-color="#E782DB"/>
</linearGradient>
<linearGradient id="paint13_linear_343_33" x1="1081.14" y1="832.802" x2="1076.98" y2="785.218" gradientUnits="userSpaceOnUse">
<stop stop-color="#9A348E"/>
<stop offset="1" stop-color="#E782DB"/>
</linearGradient>
<linearGradient id="paint14_linear_343_33" x1="1041.08" y1="767.523" x2="1074.31" y2="768.228" gradientUnits="userSpaceOnUse">
<stop stop-color="#9A348E"/>
<stop offset="1" stop-color="#E782DB"/>
</linearGradient>
<linearGradient id="paint15_linear_343_33" x1="1050.99" y1="889.637" x2="1052.5" y2="859.534" gradientUnits="userSpaceOnUse">
<stop stop-color="#FFEE99"/>
<stop offset="1" stop-color="#FFD91B"/>
</linearGradient>
<linearGradient id="paint16_linear_343_33" x1="1020.1" y1="841.418" x2="1054.75" y2="808.536" gradientUnits="userSpaceOnUse">
<stop stop-color="#FFEE99"/>
<stop offset="1" stop-color="#FFD91B"/>
</linearGradient>
<linearGradient id="paint17_linear_343_33" x1="1091.71" y1="846.886" x2="1059.42" y2="808.789" gradientUnits="userSpaceOnUse">
<stop stop-color="#FFEE99"/>
<stop offset="1" stop-color="#FFD91B"/>
</linearGradient>
<linearGradient id="paint18_linear_343_33" x1="1055.19" y1="821.619" x2="1049.91" y2="808.094" gradientUnits="userSpaceOnUse">
<stop stop-color="#FFEE99"/>
<stop offset="1" stop-color="#FFD91B"/>
</linearGradient>
<linearGradient id="paint19_linear_343_33" x1="1057.72" y1="801.175" x2="1057.85" y2="778.87" gradientUnits="userSpaceOnUse">
<stop stop-color="#FFF3C7"/>
<stop offset="1" stop-color="#FFE565" stop-opacity="0"/>
</linearGradient>
<linearGradient id="paint20_linear_343_33" x1="1053.59" y1="760.489" x2="1062.36" y2="760.675" gradientUnits="userSpaceOnUse">
<stop stop-color="#66C3BC"/>
<stop offset="1" stop-color="#A4DCD7"/>
</linearGradient>
<linearGradient id="paint21_linear_343_33" x1="1114.34" y1="894.646" x2="1141.71" y2="856.969" gradientUnits="userSpaceOnUse">
<stop stop-color="#FFEE99"/>
<stop offset="1" stop-color="#FFD91B"/>
</linearGradient>
<linearGradient id="paint22_linear_343_33" x1="1175.49" y1="798.227" x2="1175.76" y2="833.679" gradientUnits="userSpaceOnUse">
<stop stop-color="#FFEE99"/>
<stop offset="1" stop-color="#FFD91B"/>
</linearGradient>
<linearGradient id="paint23_linear_343_33" x1="1128.02" y1="802.444" x2="1127.67" y2="831.717" gradientUnits="userSpaceOnUse">
<stop stop-color="#FFEE99"/>
<stop offset="1" stop-color="#FFD91B"/>
</linearGradient>
<linearGradient id="paint24_linear_343_33" x1="1186.38" y1="846.263" x2="1157.37" y2="815.478" gradientUnits="userSpaceOnUse">
<stop stop-color="#A4DCD7"/>
<stop offset="1" stop-color="#4DBBB0"/>
</linearGradient>
<linearGradient id="paint25_linear_343_33" x1="1139.39" y1="814.619" x2="1114.13" y2="841.452" gradientUnits="userSpaceOnUse">
<stop stop-color="#66C3BC"/>
<stop offset="1" stop-color="#A4DCD7"/>
</linearGradient>
<linearGradient id="paint26_linear_343_33" x1="1164.06" y1="767.727" x2="1130.83" y2="767.976" gradientUnits="userSpaceOnUse">
<stop stop-color="#FFEE99"/>
<stop offset="1" stop-color="#FFD91B"/>
</linearGradient>
<linearGradient id="paint27_linear_343_33" x1="1151.86" y1="855.692" x2="1153" y2="890.507" gradientUnits="userSpaceOnUse">
<stop stop-color="#66C3BC"/>
<stop offset="1" stop-color="#A4DCD7"/>
</linearGradient>
<linearGradient id="paint28_linear_343_33" x1="1157.63" y1="812.575" x2="1151.26" y2="826.189" gradientUnits="userSpaceOnUse">
<stop stop-color="#66C3BC"/>
<stop offset="1" stop-color="#A4DCD7"/>
</linearGradient>
<linearGradient id="paint29_linear_343_33" x1="1149.43" y1="806.197" x2="1149.71" y2="783.916" gradientUnits="userSpaceOnUse">
<stop stop-color="#D6F5EF"/>
<stop offset="1" stop-color="#A4DCD7" stop-opacity="0"/>
</linearGradient>
<linearGradient id="paint30_linear_343_33" x1="1143.66" y1="758.703" x2="1151.63" y2="757.86" gradientUnits="userSpaceOnUse">
<stop stop-color="#E782DB"/>
<stop offset="1" stop-color="#D563C7"/>
</linearGradient>
<linearGradient id="paint31_linear_343_33" x1="1200.79" y1="894.767" x2="1223.1" y2="855.446" gradientUnits="userSpaceOnUse">
<stop stop-color="#A4DCD7"/>
<stop offset="1" stop-color="#4DBBB0"/>
</linearGradient>
<linearGradient id="paint32_linear_343_33" x1="1270.2" y1="798.464" x2="1269.97" y2="833.919" gradientUnits="userSpaceOnUse">
<stop stop-color="#A4DCD7"/>
<stop offset="1" stop-color="#4DBBB0"/>
</linearGradient>
<linearGradient id="paint33_linear_343_33" x1="1222.67" y1="802.015" x2="1221.91" y2="831.282" gradientUnits="userSpaceOnUse">
<stop stop-color="#A4DCD7"/>
<stop offset="1" stop-color="#4DBBB0"/>
</linearGradient>
<linearGradient id="paint34_linear_343_33" x1="1259.19" y1="767.804" x2="1225.96" y2="767.587" gradientUnits="userSpaceOnUse">
<stop stop-color="#A4DCD7"/>
<stop offset="1" stop-color="#4DBBB0"/>
</linearGradient>
<linearGradient id="paint35_linear_343_33" x1="1268.82" y1="843.274" x2="1259.13" y2="820.593" gradientUnits="userSpaceOnUse">
<stop stop-color="#E372D6"/>
<stop offset="1" stop-color="#D563C7"/>
</linearGradient>
<linearGradient id="paint36_linear_343_33" x1="1206.08" y1="846.512" x2="1228.68" y2="820.269" gradientUnits="userSpaceOnUse">
<stop stop-color="#E372D6"/>
<stop offset="1" stop-color="#D563C7"/>
</linearGradient>
<linearGradient id="paint37_linear_343_33" x1="1245.9" y1="889.591" x2="1245.23" y2="859.459" gradientUnits="userSpaceOnUse">
<stop stop-color="#E372D6"/>
<stop offset="1" stop-color="#D563C7"/>
</linearGradient>
<linearGradient id="paint38_linear_343_33" x1="1252.14" y1="812.561" x2="1245.58" y2="826.084" gradientUnits="userSpaceOnUse">
<stop stop-color="#DF5ED0"/>
<stop offset="1" stop-color="#DF5ED0" stop-opacity="0"/>
</linearGradient>
<linearGradient id="paint39_linear_343_33" x1="1244.03" y1="806.068" x2="1244.62" y2="783.791" gradientUnits="userSpaceOnUse">
<stop stop-color="#F085E2"/>
<stop offset="1" stop-color="#F17FE3" stop-opacity="0"/>
</linearGradient>
<linearGradient id="paint40_linear_343_33" x1="1246.88" y1="760.426" x2="1238.11" y2="760.369" gradientUnits="userSpaceOnUse">
<stop stop-color="#FFE565"/>
<stop offset="1" stop-color="#FFE565" stop-opacity="0"/>
</linearGradient>
<linearGradient id="paint41_linear_343_33" x1="441.022" y1="946.503" x2="419.465" y2="907.918" gradientUnits="userSpaceOnUse">
<stop stop-color="#A4DCD7"/>
<stop offset="1" stop-color="#4DBBB0"/>
</linearGradient>
<linearGradient id="paint42_linear_343_33" x1="373.776" y1="851.907" x2="373.776" y2="886.571" gradientUnits="userSpaceOnUse">
<stop stop-color="#A4DCD7"/>
<stop offset="1" stop-color="#4DBBB0"/>
</linearGradient>
<linearGradient id="paint43_linear_343_33" x1="420.221" y1="855.683" x2="420.781" y2="884.301" gradientUnits="userSpaceOnUse">
<stop stop-color="#A4DCD7"/>
<stop offset="1" stop-color="#4DBBB0"/>
</linearGradient>
<linearGradient id="paint44_linear_343_33" x1="384.734" y1="822.003" x2="417.223" y2="822.003" gradientUnits="userSpaceOnUse">
<stop stop-color="#A4DCD7"/>
<stop offset="1" stop-color="#4DBBB0"/>
</linearGradient>
<linearGradient id="paint45_linear_343_33" x1="374.842" y1="895.724" x2="384.456" y2="873.612" gradientUnits="userSpaceOnUse">
<stop stop-color="#E372D6"/>
<stop offset="1" stop-color="#D563C7"/>
</linearGradient>
<linearGradient id="paint46_linear_343_33" x1="436.158" y1="899.292" x2="414.226" y2="873.491" gradientUnits="userSpaceOnUse">
<stop stop-color="#E372D6"/>
<stop offset="1" stop-color="#D563C7"/>
</linearGradient>
<linearGradient id="paint47_linear_343_33" x1="396.948" y1="941.154" x2="397.797" y2="911.699" gradientUnits="userSpaceOnUse">
<stop stop-color="#E372D6"/>
<stop offset="1" stop-color="#D563C7"/>
</linearGradient>
<linearGradient id="paint48_linear_343_33" x1="391.347" y1="865.805" x2="397.672" y2="879.068" gradientUnits="userSpaceOnUse">
<stop stop-color="#DF5ED0"/>
<stop offset="1" stop-color="#DF5ED0" stop-opacity="0"/>
</linearGradient>
<linearGradient id="paint49_linear_343_33" x1="399.313" y1="859.509" x2="398.876" y2="837.726" gradientUnits="userSpaceOnUse">
<stop stop-color="#F085E2"/>
<stop offset="1" stop-color="#F17FE3" stop-opacity="0"/>
</linearGradient>
<linearGradient id="paint50_linear_343_33" x1="396.817" y1="814.868" x2="405.391" y2="814.868" gradientUnits="userSpaceOnUse">
<stop stop-color="#FFE565"/>
<stop offset="1" stop-color="#FFE565" stop-opacity="0"/>
</linearGradient>
</defs>
</svg>
