<svg width="1512" height="2970" viewBox="0 0 1512 2970" fill="none" xmlns="http://www.w3.org/2000/svg">
<mask id="mask0_638_3849" style="mask-type:alpha" maskUnits="userSpaceOnUse" x="0" y="0" width="1512" height="2970">
<path d="M1512 0H0V2969.11H1512V0Z" fill="#D9D9D9"/>
</mask>
<g mask="url(#mask0_638_3849)">
<path d="M-38 559.904V240.249L134.976 273.317L319.414 396.402L463.734 358.741L637.752 117.164L751.332 230.306L860.223 396.402L954.005 273.317L1128.54 117.164L1312.98 240.249L1422.92 145.639L1487 32.6572H1549V892.418V1166.15H-38V559.904Z" fill="#377291"/>
<path d="M-64 839.809V509.177L61.2778 303.749L269.532 435.562L358.474 583.3L530.934 725.18L652.415 459.566L836.265 278.362L1003.3 459.566L1136.71 397.449L1231.08 459.566L1302.67 435.562L1387.81 278.362L1538.58 189.142L1576 278.362V1183.74V1466.87H-64V839.809Z" fill="#6D9BB3"/>
<g filter="url(#filter0_d_638_3849)">
<path d="M-70.9992 2994.29L-71 657.96V568.292H-28.7227V648.45V657.96H-6.40939V691.926H40.5655V556.065H6.5087V543.837L40.5655 499.004H51.1347V691.926H109.853V643.015H134.515V576.444V568.292H174.444V648.45H193.234V691.926H287.184V543.837H307.148V527.534H315.369V505.797V499.004H320.066V482.701H331.81V467.756H335.333V455.529L341.205 451.453V440.584L347.077 436.508V425.64L357.646 417.488V340.047H389.355V405.26L395.226 417.488V425.64L402.273 440.584L410.493 451.453H415.191V276.194H429.283V254.456H464.514V270.759L473.909 276.194V287.062H490.351V299.289L496.223 303.366V410.695H512.664V838.654H545.546V814.199V806.047H604.265V740.834H643.018V724.531H694.691V740.834H735.795V912.018H787.467V787.027H807.431V716.381H891.986V691.926H985.936V740.834H1005.9V638.94H1064.62V587.313H1097.5V577.802H1111.59V558.782H1160.92V577.802H1171.49V587.313H1200.85V716.381H1218.46V806.047H1259.57V638.94H1273.66V407.978H1304.19V353.634H1357.04V282.986H1369.96V273.476H1409.89V257.173H1431.02V270.759L1466.25 273.476H1502.66V353.634H1556.68V414.771H1582.52V2994.29H-70.9992Z" fill="#593154"/>
<path d="M-70.9992 2994.29L-71 657.96V568.292H-28.7227V648.45V657.96H-6.40939V691.926H40.5655V556.065H6.5087V543.837L40.5655 499.004H51.1347V691.926H109.853V643.015H134.515V576.444V568.292H174.444V648.45H193.234V691.926H287.184V543.837H307.148V527.534H315.369V505.797V499.004H320.066V482.701H331.81V467.756H335.333V455.529L341.205 451.453V440.584L347.077 436.508V425.64L357.646 417.488V340.047H389.355V405.26L395.226 417.488V425.64L402.273 440.584L410.493 451.453H415.191V276.194H429.283V254.456H464.514V270.759L473.909 276.194V287.062H490.351V299.289L496.223 303.366V410.695H512.664V838.654H545.546V814.199V806.047H604.265V740.834H643.018V724.531H694.691V740.834H735.795V912.018H787.467V787.027H807.431V716.381H891.986V691.926H985.936V740.834H1005.9V638.94H1064.62V587.313H1097.5V577.802H1111.59V558.782H1160.92V577.802H1171.49V587.313H1200.85V716.381H1218.46V806.047H1259.57V638.94H1273.66V407.978H1304.19V353.634H1357.04V282.986H1369.96V273.476H1409.89V257.173H1431.02V270.759L1466.25 273.476H1502.66V353.634H1556.68V414.771H1582.52V2994.29H-70.9992Z" stroke="#9A348E" stroke-opacity="0.466667" stroke-width="1.90418"/>
</g>
</g>
<defs>
<filter id="filter0_d_638_3849" x="-79.5689" y="253.504" width="1670.66" height="2756.97" filterUnits="userSpaceOnUse" color-interpolation-filters="sRGB">
<feFlood flood-opacity="0" result="BackgroundImageFix"/>
<feColorMatrix in="SourceAlpha" type="matrix" values="0 0 0 0 0 0 0 0 0 0 0 0 0 0 0 0 0 0 127 0" result="hardAlpha"/>
<feOffset dy="7.61671"/>
<feGaussianBlur stdDeviation="3.80836"/>
<feComposite in2="hardAlpha" operator="out"/>
<feColorMatrix type="matrix" values="0 0 0 0 0 0 0 0 0 0 0 0 0 0 0 0 0 0 0.25 0"/>
<feBlend mode="normal" in2="BackgroundImageFix" result="effect1_dropShadow_638_3849"/>
<feBlend mode="normal" in="SourceGraphic" in2="effect1_dropShadow_638_3849" result="shape"/>
</filter>
</defs>
</svg>
