<svg width="1512" height="1689" viewBox="0 0 1512 1689" fill="none" xmlns="http://www.w3.org/2000/svg">
<mask id="mask0_466_22" style="mask-type:alpha" maskUnits="userSpaceOnUse" x="0" y="0" width="1512" height="1689">
<rect width="1512" height="1689" fill="#D9D9D9"/>
</mask>
<g mask="url(#mask0_466_22)">
<path d="M308.535 -19C304.988 -18.9912 301.563 -15.402 298.895 -8.89882C296.227 -2.39561 294.498 6.57973 294.029 16.3608C271.009 16.7977 249.611 18.9804 234.024 22.4816C218.436 25.9828 209.78 30.5507 209.749 35.2916C209.803 38.8712 214.777 42.3752 224.101 45.4015V148.065H179.666V109.906C179.666 104.116 175.004 99.4544 169.214 99.4544H-4.48646C-10.2758 99.4544 -14.9383 104.116 -14.9383 109.906V148.065H-41.834V342.177V639.987V812.829L1529.92 815.488L1521.72 597.443V150.724H1466.24V98.2756C1466.24 97.8869 1465.93 97.5742 1465.54 97.5742H1466.24L1446.8 43.0476H1396.94L1372.67 97.5742H1373.37C1372.98 97.5742 1372.67 97.8869 1372.67 98.2756V150.724H1355.75V98.2756C1355.75 97.8869 1355.44 97.5742 1355.05 97.5742H1339.53C1339.14 97.5742 1338.83 97.8869 1338.83 98.2756V150.724H1322.84V108.026C1322.84 102.236 1318.18 97.5742 1312.39 97.5742H1307.91C1302.12 97.5742 1297.46 102.236 1297.46 108.026V150.724H1224.13V53.499C1224.13 47.7096 1219.47 43.0476 1213.68 43.0476H1188.52C1182.73 43.0476 1178.07 47.7096 1178.07 53.499V63.9467H859.317C859.646 62.6325 859.839 61.2635 859.839 59.8448C859.839 50.5398 852.346 43.0476 843.042 43.0476H786.572C777.267 43.0476 769.775 50.5398 769.775 59.8448C769.775 61.2635 769.968 62.6325 770.297 63.9467H724.003V126.248H649.885C642.243 126.248 636.092 132.399 636.092 140.041V142.538C636.092 145.612 637.1 148.435 638.787 150.724H622.141V100.934C622.141 94.0345 616.587 88.4815 609.687 88.4815C602.788 88.4815 597.231 94.0345 597.231 100.934V150.724H585.932V99.9465C585.932 92.3047 579.78 86.1532 572.138 86.1532C564.496 86.1532 558.345 92.3047 558.345 99.9465V150.724H537.868V267.379H435.697V168.729C435.697 162.94 431.034 158.281 425.245 158.281H380.986V45.4272C390.362 42.3954 395.367 38.8817 395.422 35.2916C395.421 30.9728 388.26 26.7824 375.113 23.4084C361.966 20.0345 343.615 17.6775 323.074 16.7244C322.633 6.86163 320.912 -2.2133 318.234 -8.79266C315.557 -15.372 312.107 -19.0022 308.535 -19Z" fill="#A971A1"/>
<path d="M1202.6 263C1206.15 263.011 1209.57 267.428 1212.24 275.431C1214.91 283.435 1216.64 294.481 1217.11 306.518C1240.13 307.056 1261.52 309.742 1277.11 314.051C1292.7 318.36 1301.36 323.982 1301.39 329.816C1301.33 334.222 1296.36 338.534 1287.03 342.259V468.606H1331.47V421.644C1331.47 414.519 1336.13 408.781 1341.92 408.781H1515.62C1521.41 408.781 1526.08 414.519 1526.08 421.644V468.606H1552.97V707.498V1074.01V1687H-10.5907L-10.5908 1021.65V471.878H44.8839V407.33C44.8839 406.852 45.1966 406.467 45.5853 406.467H44.8839L64.329 339.362H114.185L138.455 406.467H137.754C138.143 406.467 138.455 406.852 138.455 407.33V471.878H155.378V407.33C155.378 406.852 155.69 406.467 156.079 406.467H171.598C171.987 406.467 172.3 406.852 172.3 407.33V471.878H188.282V419.33C188.282 412.205 192.944 406.467 198.733 406.467H203.217C209.007 406.467 213.665 412.205 213.665 419.33V471.878H286.995V352.224C286.995 345.099 291.657 339.362 297.446 339.362H322.609C328.399 339.362 333.061 345.099 333.061 352.224V365.082H651.813C651.485 363.465 651.292 361.78 651.292 360.034C651.292 348.582 658.784 339.362 668.089 339.362H724.559C733.864 339.362 741.356 348.582 741.356 360.034C741.356 361.78 741.163 363.465 740.834 365.082H787.128V441.756H861.247C868.889 441.756 875.041 449.326 875.041 458.731V461.804C875.041 465.587 874.032 469.062 872.345 471.878H888.992V410.603C888.992 402.111 894.545 395.277 901.445 395.277C908.345 395.277 913.901 402.111 913.901 410.603V471.878H925.201V409.387C925.201 399.982 931.353 392.412 938.995 392.412C946.636 392.412 952.788 399.982 952.788 409.387V471.878H973.265V615.445H1075.44V494.037C1075.44 486.912 1080.1 481.179 1085.89 481.179H1130.15V342.29C1120.77 338.559 1115.77 334.235 1115.71 329.816C1115.71 324.501 1122.87 319.344 1136.02 315.192C1149.17 311.039 1167.52 308.139 1188.06 306.966C1188.5 294.828 1190.22 283.659 1192.9 275.562C1195.58 267.465 1199.03 262.997 1202.6 263Z" fill="#D18FC8"/>
</g>
</svg>
