<svg width="1512" height="808" viewBox="0 0 1512 808" fill="none" xmlns="http://www.w3.org/2000/svg">
<mask id="mask0_343_23" style="mask-type:alpha" maskUnits="userSpaceOnUse" x="0" y="0" width="1512" height="808">
<rect width="1512" height="808" fill="#D9D9D9"/>
</mask>
<g mask="url(#mask0_343_23)">
<path d="M-65.2114 -13.0485H1636.21V881.547H-65.2114V-13.0485Z" fill="#C6FFFF"/>
<path d="M730.272 359.119C694.955 359.149 660.797 369.15 633.883 387.34C624.758 382.083 614.084 379.28 603.171 379.276C579.657 379.331 558.683 392.273 550.649 411.684H544.754C531.818 404.994 515.243 401.309 498.088 401.309C488.396 401.322 478.81 402.511 469.921 404.805C450.759 388.501 424.237 379.278 396.508 379.276C353.093 379.356 314.54 401.87 300.564 435.306C281.575 428.803 260.859 425.428 239.883 425.417C199.417 425.498 160.89 438.081 133.838 460.05C125.183 438.94 106.392 425.418 85.7106 425.417C60.259 425.48 38.4416 445.87 33.7438 473.984C23.7317 464.701 10.8493 459.577 -2.4921 459.571C-32.7912 459.572 -57.353 485.43 -57.3521 517.327V783.027L1647.61 881.47L1650 517.327H1642.53C1647.45 508.501 1649.98 499.067 1650 489.542C1650 448.579 1604.44 415.372 1548.24 415.372C1510.73 415.422 1476.3 430.507 1458.64 454.627C1436.44 429.837 1402.59 415.375 1366.78 415.372C1351.93 415.453 1337.24 418.023 1323.49 422.945C1307.94 383.352 1279.92 359.123 1249.68 359.119C1216.74 359.237 1186.73 388.056 1172.4 433.344C1158.04 428.13 1142.41 425.425 1126.59 425.417C1094.92 425.487 1064.86 436.331 1044.21 455.133C1014.13 436.14 972.859 425.424 929.75 425.417C908.672 425.42 887.803 427.988 868.346 432.971C845.47 388.319 790.889 359.125 730.272 359.119Z" fill="#E5FFFF"/>
<path d="M158.578 212.51C125.352 217.29 93.1707 292.837 93.1707 292.837L-84.9702 509.813L-123 806.971L266.218 808.525V981.938H666.535V810.126L1590.12 813.815L1602.37 321.077L1545.72 262.701L1466.26 353.108L1392.2 497.759L1320.14 523.877L1230.07 635.367L1093.96 606.397L985.878 523.877L893.805 429.613L775.711 337.036L698.075 399.316L621.589 503.786L467.467 574.319L391.407 475.848L283.321 405.343L205.26 321.077C205.26 321.077 172.952 213.775 165.228 212.542C163.013 212.188 160.793 212.191 158.578 212.51Z" fill="#95CBE3"/>
<path d="M165.228 212.543L178.596 311.744L164.443 331.632L130.475 369.989L66.7852 408.345L93.6761 409.055L153.12 377.802L191.334 360.044L226.01 380.643L253.609 414.738L230.256 455.225L256.44 470.142L289.7 475.114L341.36 519.863L327.206 581.659L272.008 712.355L267.762 760.188H376.743L466.616 631.381L485.723 581.659L531.353 545.081L612.396 523.877L669.009 470.852L751.392 426.103L784.359 455.225L755.345 549.696L746.853 597.286L823.988 588.762L901.124 559.64L908.908 607.23L887.679 649.849L961.276 676.84L1018.6 655.531L1089.36 637.063L1130.41 642.035L1187.73 693.887L1264.16 647.007L1306.37 540.928L1334.22 544.723L1392.2 497.759L1460.89 396.98L1512.55 331.632L1555.73 291.145L1545.72 262.701L1466.26 353.108L1392.2 497.759L1320.14 523.877L1230.07 635.365L1093.96 606.397L985.877 523.877L893.804 429.614L775.711 337.036L698.075 399.316L621.589 503.786L467.467 574.317L391.406 475.849L283.321 405.343L205.26 321.078L165.228 212.543Z" fill="#C3EFFF"/>
</g>
</svg>
