<svg width="1440" height="228" viewBox="0 0 1440 228" fill="none" xmlns="http://www.w3.org/2000/svg">
<path d="M798.604 19.5306C809.765 16.5592 827.363 15.5778 859.053 16.1599C901.821 16.9383 904.702 17.3723 925.653 26.1376C937.699 31.1801 958.078 38.3887 970.941 42.1588C992.507 48.4738 995.628 48.7107 1010.94 45.1437C1054.84 34.93 1074.84 33.2649 1106.64 37.1839C1123.8 39.3025 1129.03 38.6594 1150.5 31.7826C1183.03 21.3658 1206.42 21.2702 1222.4 31.4907C1233.39 38.5165 1235.72 38.8143 1278.9 38.8413C1343.11 38.882 1352.66 43.2007 1421.59 103.427C1443.17 122.271 1461.79 138.909 1462.99 140.398C1464.27 142.029 1301.65 143.065 1056.09 142.997L647 142.895L653.879 135.531C657.66 131.476 673.753 119.428 689.643 108.747C721.828 87.1152 735.546 73.5167 742.166 56.6697C749.483 38.0294 763.289 28.9456 798.604 19.5306Z" fill="#57A0C6"/>
<path d="M300.803 0C303.378 0.000434453 311.741 4.54446 319.389 10.1008C341.844 26.407 346.091 28.0382 366.065 28.0382C384.758 28.0382 384.811 28.0577 394.981 39.9419C404.23 50.749 406.28 51.8253 417.324 51.6915C424.016 51.6087 435.013 50.5071 441.763 49.2326C453.339 47.0597 455.088 47.607 472.588 59.0132L491.134 71.1021L503.205 67.329C509.844 65.2516 520.127 63.0221 526.057 62.3658C535.536 61.3145 538.075 62.3784 547.17 71.2419C560.731 84.4516 567.807 84.1517 590.451 69.3936L608.736 57.4779H636.099C672.079 57.4779 678.287 59.1793 704.073 76.0976C728.312 92.009 771.828 110.616 819.16 125.31C879.715 144.114 912.89 142.764 388.325 142.885L-87 143L-79.2393 132.486C-71.4314 121.895 -67.5865 118.582 -31.9667 91.6717C11.2426 59.0332 18.3654 56.4588 39.5271 65.845C60.5526 75.1801 80.3618 75.0654 110.075 65.4436C129.069 59.288 140.244 57.6886 173.666 56.3249L214.218 54.6737L239.963 35.9585C254.12 25.6674 272.547 13.3626 280.916 8.62163C289.285 3.88069 298.233 0 300.803 0Z" fill="#57A0C6"/>
<path d="M1274.12 24.5837C1290.93 23.5423 1287.56 22.6738 1308.13 33.4097C1323.98 41.6883 1326.48 44.5054 1335.72 64.4715C1347.77 90.4986 1357.89 101.729 1377.61 110.936C1396.19 119.62 1413.14 119.822 1420.07 111.453C1422.93 107.992 1429.24 103.363 1434.08 101.168C1445.97 95.7887 1455.53 102.763 1465.37 124.01C1475.79 146.479 1492.73 160.354 1512.84 162.871C1521.64 163.973 1531.5 166.879 1534.78 169.329C1538.04 171.779 1546.26 173.788 1553.03 173.788C1561.41 173.788 1568.59 176.402 1575.5 181.991C1581.1 186.502 1590.51 191.018 1596.44 192.03C1602.36 193.049 1613.8 196.031 1621.87 198.669C1629.93 201.298 1641.46 203.478 1647.49 203.508C1653.52 203.538 1660.48 204.991 1662.97 206.752C1665.9 208.819 1482.58 209.967 1142.57 209.997C666.662 210.049 617.471 209.561 615.814 204.834C612.486 195.357 613.91 178.665 618.676 171.225C624.257 162.505 644.041 161.246 656.183 168.843C670.488 177.788 678.705 175.098 696.482 155.657C709.103 141.849 715.191 137.526 721.977 137.526C728.312 137.526 735.311 133.173 746.186 122.482C764.374 104.599 814.446 78.8486 836.627 75.9792C848.925 74.3835 853.617 75.3646 862.553 81.403C878.406 92.124 922.336 93.5625 945.633 84.1226C954.713 80.4516 969.004 76.2944 977.4 74.8934C992.322 72.3835 1013.37 62.1944 1031.47 48.7088C1043.75 39.5537 1052.04 40.2052 1063.77 51.2556C1069.21 56.3877 1076 61.5192 1078.85 62.658C1081.71 63.7896 1089.04 72.3238 1095.15 81.6137C1105.77 97.7884 1106.7 98.4173 1117.09 96.3495C1129.74 93.832 1147.47 81.7255 1147.5 75.5747C1147.52 71.5365 1149.73 67.9102 1159.14 56.5375C1162.74 52.1775 1164.76 52.5824 1176.25 59.9468C1183.42 64.5389 1190.71 68.2989 1192.45 68.2995C1194.2 68.2995 1204.53 59.4739 1215.4 48.7004C1236.03 28.2548 1239.79 26.7114 1274.12 24.5837Z" fill="#225579"/>
<path d="M207.651 51.2261C232.934 38.0796 238.667 38.5547 258.264 55.4163C288.623 81.5293 352.371 123.15 370.604 128.751C390.233 134.792 399.782 133.51 420.066 122.12C436.977 112.617 447.541 112.264 464.722 120.615C481.721 128.866 485.095 128.629 495.789 118.377C505.385 109.19 509.93 108.571 536.925 112.746C551.071 114.942 553.113 114.481 560.99 107.332C574.126 95.4022 583.461 92.0983 603.741 92.1775C623.385 92.2567 640.467 99.4417 654.993 113.74C660.397 119.06 665.266 120.615 676.585 120.615C692.407 120.615 691.757 120.169 720.038 150.48C745.497 177.773 763.313 200.271 761.924 203.382C760.294 207.018 -87 206.795 -87 203.159C-86.9993 201.827 -79.0076 197.586 -69.2406 193.749C-32.2121 179.184 -16.3586 169.299 1.78606 149.471C17.1504 132.682 49.6709 114.223 85.075 102.178C119.459 90.4784 182.701 64.1926 207.651 51.2261Z" fill="#225579"/>
<path d="M308.252 228H400.042V151.623H308.252V228Z" fill="url(#paint0_linear_1309_21)"/>
<path d="M400.042 228H471.326V179.159H400.042V228Z" fill="url(#paint1_linear_1309_21)"/>
<path d="M551.398 228H601.199V179.159H551.398V228Z" fill="url(#paint2_linear_1309_21)"/>
<path d="M601.199 228H651V191.821H601.199L601.199 228Z" fill="url(#paint3_linear_1309_21)"/>
<path d="M471.326 228H551.398V162.677H471.326L471.326 228Z" fill="url(#paint4_linear_1309_21)"/>
<path d="M505.015 217.347H531.868V147H505.015V217.347Z" fill="url(#paint5_linear_1309_21)"/>
<path d="M338.748 228H246.958V166.898H338.748V228Z" fill="url(#paint6_linear_1309_21)"/>
<path d="M246.958 228H175.674V179.159H246.958V228Z" fill="url(#paint7_linear_1309_21)"/>
<path d="M95.6021 228H45.801V179.159H95.6021V228Z" fill="url(#paint8_linear_1309_21)"/>
<path d="M45.801 228H-4V191.821H45.8011L45.801 228Z" fill="url(#paint9_linear_1309_21)"/>
<path d="M175.674 228H95.6021L95.6021 162.677H175.674L175.674 228Z" fill="url(#paint10_linear_1309_21)"/>
<path d="M84.3725 219.558H57.519V154.236H84.3725V219.558Z" fill="url(#paint11_linear_1309_21)"/>
<path d="M722.748 228H630.958V173.54H722.748V228Z" fill="url(#paint12_linear_1309_21)"/>
<path d="M630.958 228H559.674V193.174H630.958V228Z" fill="url(#paint13_linear_1309_21)"/>
<path d="M479.602 228H429.801V193.174H479.602V228Z" fill="url(#paint14_linear_1309_21)"/>
<path d="M429.801 228H380V202.203H429.801L429.801 228Z" fill="url(#paint15_linear_1309_21)"/>
<path d="M559.674 228H479.602L479.602 181.422H559.674L559.674 228Z" fill="url(#paint16_linear_1309_21)"/>
<path d="M525.985 220.404H499.132V170.243H525.985V220.404Z" fill="url(#paint17_linear_1309_21)"/>
<path d="M692.252 228H784.042V184.432H692.252V228Z" fill="url(#paint18_linear_1309_21)"/>
<path d="M784.042 228H855.326V193.174H784.042V228Z" fill="url(#paint19_linear_1309_21)"/>
<path d="M935.398 228H985.199V193.174H935.398V228Z" fill="url(#paint20_linear_1309_21)"/>
<path d="M985.199 228H1035V202.203H985.199V228Z" fill="url(#paint21_linear_1309_21)"/>
<path d="M855.326 228H935.398V181.422H855.326V228Z" fill="url(#paint22_linear_1309_21)"/>
<path d="M946.628 221.981H973.481V175.403H946.628V221.981Z" fill="url(#paint23_linear_1309_21)"/>
<path d="M1126.75 228H1034.96V157.6H1126.75V228Z" fill="url(#paint24_linear_1309_21)"/>
<path d="M1034.96 228H963.674V182.981H1034.96V228Z" fill="url(#paint25_linear_1309_21)"/>
<path d="M883.602 228H833.801V182.981H883.602V228Z" fill="url(#paint26_linear_1309_21)"/>
<path d="M833.801 228H784V194.653H833.801L833.801 228Z" fill="url(#paint27_linear_1309_21)"/>
<path d="M963.674 228H883.602V167.79H963.674L963.674 228Z" fill="url(#paint28_linear_1309_21)"/>
<path d="M929.985 218.181H903.132V153.339H929.985V218.181Z" fill="url(#paint29_linear_1309_21)"/>
<path d="M1096.25 228H1188.04V171.68H1096.25V228Z" fill="url(#paint30_linear_1309_21)"/>
<path d="M1188.04 228H1259.33V182.981H1188.04V228Z" fill="url(#paint31_linear_1309_21)"/>
<path d="M1339.4 228H1389.2V182.981H1339.4V228Z" fill="url(#paint32_linear_1309_21)"/>
<path d="M1389.2 228H1439V194.653H1389.2V228Z" fill="url(#paint33_linear_1309_21)"/>
<path d="M1259.33 228H1339.4V167.79H1259.33L1259.33 228Z" fill="url(#paint34_linear_1309_21)"/>
<path d="M1350.63 220.219H1377.48V160.009H1350.63V220.219Z" fill="url(#paint35_linear_1309_21)"/>
<defs>
<linearGradient id="paint0_linear_1309_21" x1="791" y1="187.5" x2="791" y2="228" gradientUnits="userSpaceOnUse">
<stop offset="0.302889" stop-color="#20323F"/>
<stop offset="0.543277" stop-color="#4B4351"/>
<stop offset="1" stop-color="#D985A0" stop-opacity="0.81"/>
</linearGradient>
<linearGradient id="paint1_linear_1309_21" x1="791" y1="187.5" x2="791" y2="228" gradientUnits="userSpaceOnUse">
<stop offset="0.302889" stop-color="#20323F"/>
<stop offset="0.543277" stop-color="#4B4351"/>
<stop offset="1" stop-color="#D985A0" stop-opacity="0.81"/>
</linearGradient>
<linearGradient id="paint2_linear_1309_21" x1="791" y1="187.5" x2="791" y2="228" gradientUnits="userSpaceOnUse">
<stop offset="0.302889" stop-color="#20323F"/>
<stop offset="0.543277" stop-color="#4B4351"/>
<stop offset="1" stop-color="#D985A0" stop-opacity="0.81"/>
</linearGradient>
<linearGradient id="paint3_linear_1309_21" x1="791" y1="187.5" x2="791" y2="228" gradientUnits="userSpaceOnUse">
<stop offset="0.302889" stop-color="#20323F"/>
<stop offset="0.543277" stop-color="#4B4351"/>
<stop offset="1" stop-color="#D985A0" stop-opacity="0.81"/>
</linearGradient>
<linearGradient id="paint4_linear_1309_21" x1="791" y1="187.5" x2="791" y2="228" gradientUnits="userSpaceOnUse">
<stop offset="0.302889" stop-color="#20323F"/>
<stop offset="0.543277" stop-color="#4B4351"/>
<stop offset="1" stop-color="#D985A0" stop-opacity="0.81"/>
</linearGradient>
<linearGradient id="paint5_linear_1309_21" x1="791" y1="187.5" x2="791" y2="228" gradientUnits="userSpaceOnUse">
<stop offset="0.302889" stop-color="#20323F"/>
<stop offset="0.543277" stop-color="#4B4351"/>
<stop offset="1" stop-color="#D985A0" stop-opacity="0.81"/>
</linearGradient>
<linearGradient id="paint6_linear_1309_21" x1="791" y1="187.5" x2="791" y2="228" gradientUnits="userSpaceOnUse">
<stop offset="0.302889" stop-color="#20323F"/>
<stop offset="0.543277" stop-color="#4B4351"/>
<stop offset="1" stop-color="#D985A0" stop-opacity="0.81"/>
</linearGradient>
<linearGradient id="paint7_linear_1309_21" x1="791" y1="187.5" x2="791" y2="228" gradientUnits="userSpaceOnUse">
<stop offset="0.302889" stop-color="#20323F"/>
<stop offset="0.543277" stop-color="#4B4351"/>
<stop offset="1" stop-color="#D985A0" stop-opacity="0.81"/>
</linearGradient>
<linearGradient id="paint8_linear_1309_21" x1="791" y1="187.5" x2="791" y2="228" gradientUnits="userSpaceOnUse">
<stop offset="0.302889" stop-color="#20323F"/>
<stop offset="0.543277" stop-color="#4B4351"/>
<stop offset="1" stop-color="#D985A0" stop-opacity="0.81"/>
</linearGradient>
<linearGradient id="paint9_linear_1309_21" x1="791" y1="187.5" x2="791" y2="228" gradientUnits="userSpaceOnUse">
<stop offset="0.302889" stop-color="#20323F"/>
<stop offset="0.543277" stop-color="#4B4351"/>
<stop offset="1" stop-color="#D985A0" stop-opacity="0.81"/>
</linearGradient>
<linearGradient id="paint10_linear_1309_21" x1="791" y1="187.5" x2="791" y2="228" gradientUnits="userSpaceOnUse">
<stop offset="0.302889" stop-color="#20323F"/>
<stop offset="0.543277" stop-color="#4B4351"/>
<stop offset="1" stop-color="#D985A0" stop-opacity="0.81"/>
</linearGradient>
<linearGradient id="paint11_linear_1309_21" x1="791" y1="187.5" x2="791" y2="228" gradientUnits="userSpaceOnUse">
<stop offset="0.302889" stop-color="#20323F"/>
<stop offset="0.543277" stop-color="#4B4351"/>
<stop offset="1" stop-color="#D985A0" stop-opacity="0.81"/>
</linearGradient>
<linearGradient id="paint12_linear_1309_21" x1="791" y1="187.5" x2="791" y2="228" gradientUnits="userSpaceOnUse">
<stop offset="0.302889" stop-color="#20323F"/>
<stop offset="0.543277" stop-color="#4B4351"/>
<stop offset="1" stop-color="#D985A0" stop-opacity="0.81"/>
</linearGradient>
<linearGradient id="paint13_linear_1309_21" x1="791" y1="187.5" x2="791" y2="228" gradientUnits="userSpaceOnUse">
<stop offset="0.302889" stop-color="#20323F"/>
<stop offset="0.543277" stop-color="#4B4351"/>
<stop offset="1" stop-color="#D985A0" stop-opacity="0.81"/>
</linearGradient>
<linearGradient id="paint14_linear_1309_21" x1="791" y1="187.5" x2="791" y2="228" gradientUnits="userSpaceOnUse">
<stop offset="0.302889" stop-color="#20323F"/>
<stop offset="0.543277" stop-color="#4B4351"/>
<stop offset="1" stop-color="#D985A0" stop-opacity="0.81"/>
</linearGradient>
<linearGradient id="paint15_linear_1309_21" x1="791" y1="187.5" x2="791" y2="228" gradientUnits="userSpaceOnUse">
<stop offset="0.302889" stop-color="#20323F"/>
<stop offset="0.543277" stop-color="#4B4351"/>
<stop offset="1" stop-color="#D985A0" stop-opacity="0.81"/>
</linearGradient>
<linearGradient id="paint16_linear_1309_21" x1="791" y1="187.5" x2="791" y2="228" gradientUnits="userSpaceOnUse">
<stop offset="0.302889" stop-color="#20323F"/>
<stop offset="0.543277" stop-color="#4B4351"/>
<stop offset="1" stop-color="#D985A0" stop-opacity="0.81"/>
</linearGradient>
<linearGradient id="paint17_linear_1309_21" x1="791" y1="187.5" x2="791" y2="228" gradientUnits="userSpaceOnUse">
<stop offset="0.302889" stop-color="#20323F"/>
<stop offset="0.543277" stop-color="#4B4351"/>
<stop offset="1" stop-color="#D985A0" stop-opacity="0.81"/>
</linearGradient>
<linearGradient id="paint18_linear_1309_21" x1="791" y1="187.5" x2="791" y2="228" gradientUnits="userSpaceOnUse">
<stop offset="0.302889" stop-color="#20323F"/>
<stop offset="0.543277" stop-color="#4B4351"/>
<stop offset="1" stop-color="#D985A0" stop-opacity="0.81"/>
</linearGradient>
<linearGradient id="paint19_linear_1309_21" x1="791" y1="187.5" x2="791" y2="228" gradientUnits="userSpaceOnUse">
<stop offset="0.302889" stop-color="#20323F"/>
<stop offset="0.543277" stop-color="#4B4351"/>
<stop offset="1" stop-color="#D985A0" stop-opacity="0.81"/>
</linearGradient>
<linearGradient id="paint20_linear_1309_21" x1="791" y1="187.5" x2="791" y2="228" gradientUnits="userSpaceOnUse">
<stop offset="0.302889" stop-color="#20323F"/>
<stop offset="0.543277" stop-color="#4B4351"/>
<stop offset="1" stop-color="#D985A0" stop-opacity="0.81"/>
</linearGradient>
<linearGradient id="paint21_linear_1309_21" x1="791" y1="187.5" x2="791" y2="228" gradientUnits="userSpaceOnUse">
<stop offset="0.302889" stop-color="#20323F"/>
<stop offset="0.543277" stop-color="#4B4351"/>
<stop offset="1" stop-color="#D985A0" stop-opacity="0.81"/>
</linearGradient>
<linearGradient id="paint22_linear_1309_21" x1="791" y1="187.5" x2="791" y2="228" gradientUnits="userSpaceOnUse">
<stop offset="0.302889" stop-color="#20323F"/>
<stop offset="0.543277" stop-color="#4B4351"/>
<stop offset="1" stop-color="#D985A0" stop-opacity="0.81"/>
</linearGradient>
<linearGradient id="paint23_linear_1309_21" x1="791" y1="187.5" x2="791" y2="228" gradientUnits="userSpaceOnUse">
<stop offset="0.302889" stop-color="#20323F"/>
<stop offset="0.543277" stop-color="#4B4351"/>
<stop offset="1" stop-color="#D985A0" stop-opacity="0.81"/>
</linearGradient>
<linearGradient id="paint24_linear_1309_21" x1="791" y1="187.5" x2="791" y2="228" gradientUnits="userSpaceOnUse">
<stop offset="0.302889" stop-color="#20323F"/>
<stop offset="0.543277" stop-color="#4B4351"/>
<stop offset="1" stop-color="#D985A0" stop-opacity="0.81"/>
</linearGradient>
<linearGradient id="paint25_linear_1309_21" x1="791" y1="187.5" x2="791" y2="228" gradientUnits="userSpaceOnUse">
<stop offset="0.302889" stop-color="#20323F"/>
<stop offset="0.543277" stop-color="#4B4351"/>
<stop offset="1" stop-color="#D985A0" stop-opacity="0.81"/>
</linearGradient>
<linearGradient id="paint26_linear_1309_21" x1="791" y1="187.5" x2="791" y2="228" gradientUnits="userSpaceOnUse">
<stop offset="0.302889" stop-color="#20323F"/>
<stop offset="0.543277" stop-color="#4B4351"/>
<stop offset="1" stop-color="#D985A0" stop-opacity="0.81"/>
</linearGradient>
<linearGradient id="paint27_linear_1309_21" x1="791" y1="187.5" x2="791" y2="228" gradientUnits="userSpaceOnUse">
<stop offset="0.302889" stop-color="#20323F"/>
<stop offset="0.543277" stop-color="#4B4351"/>
<stop offset="1" stop-color="#D985A0" stop-opacity="0.81"/>
</linearGradient>
<linearGradient id="paint28_linear_1309_21" x1="791" y1="187.5" x2="791" y2="228" gradientUnits="userSpaceOnUse">
<stop offset="0.302889" stop-color="#20323F"/>
<stop offset="0.543277" stop-color="#4B4351"/>
<stop offset="1" stop-color="#D985A0" stop-opacity="0.81"/>
</linearGradient>
<linearGradient id="paint29_linear_1309_21" x1="791" y1="187.5" x2="791" y2="228" gradientUnits="userSpaceOnUse">
<stop offset="0.302889" stop-color="#20323F"/>
<stop offset="0.543277" stop-color="#4B4351"/>
<stop offset="1" stop-color="#D985A0" stop-opacity="0.81"/>
</linearGradient>
<linearGradient id="paint30_linear_1309_21" x1="791" y1="187.5" x2="791" y2="228" gradientUnits="userSpaceOnUse">
<stop offset="0.302889" stop-color="#20323F"/>
<stop offset="0.543277" stop-color="#4B4351"/>
<stop offset="1" stop-color="#D985A0" stop-opacity="0.81"/>
</linearGradient>
<linearGradient id="paint31_linear_1309_21" x1="791" y1="187.5" x2="791" y2="228" gradientUnits="userSpaceOnUse">
<stop offset="0.302889" stop-color="#20323F"/>
<stop offset="0.543277" stop-color="#4B4351"/>
<stop offset="1" stop-color="#D985A0" stop-opacity="0.81"/>
</linearGradient>
<linearGradient id="paint32_linear_1309_21" x1="791" y1="187.5" x2="791" y2="228" gradientUnits="userSpaceOnUse">
<stop offset="0.302889" stop-color="#20323F"/>
<stop offset="0.543277" stop-color="#4B4351"/>
<stop offset="1" stop-color="#D985A0" stop-opacity="0.81"/>
</linearGradient>
<linearGradient id="paint33_linear_1309_21" x1="791" y1="187.5" x2="791" y2="228" gradientUnits="userSpaceOnUse">
<stop offset="0.302889" stop-color="#20323F"/>
<stop offset="0.543277" stop-color="#4B4351"/>
<stop offset="1" stop-color="#D985A0" stop-opacity="0.81"/>
</linearGradient>
<linearGradient id="paint34_linear_1309_21" x1="791" y1="187.5" x2="791" y2="228" gradientUnits="userSpaceOnUse">
<stop offset="0.302889" stop-color="#20323F"/>
<stop offset="0.543277" stop-color="#4B4351"/>
<stop offset="1" stop-color="#D985A0" stop-opacity="0.81"/>
</linearGradient>
<linearGradient id="paint35_linear_1309_21" x1="791" y1="187.5" x2="791" y2="228" gradientUnits="userSpaceOnUse">
<stop offset="0.302889" stop-color="#20323F"/>
<stop offset="0.543277" stop-color="#4B4351"/>
<stop offset="1" stop-color="#D985A0" stop-opacity="0.81"/>
</linearGradient>
</defs>
</svg>
