<svg width="1440" height="2317" viewBox="0 0 1440 2317" fill="none" xmlns="http://www.w3.org/2000/svg">
<g clip-path="url(#clip0_40_2)">
<g opacity="0.75" filter="url(#filter0_d_40_2)">
<mask id="mask0_40_2" style="mask-type:alpha" maskUnits="userSpaceOnUse" x="598" y="86" width="1054" height="768">
<path d="M1028.76 86.5986C1037 86.0476 1045.25 87.7741 1052.02 92.4316C1058.78 97.084 1064.1 104.691 1066.43 115.985C1066.68 117.168 1067.46 118.089 1068.49 118.826C1069.52 119.563 1070.83 120.15 1072.22 120.66C1073.61 121.171 1075.11 121.616 1076.51 122.05C1077.92 122.487 1079.22 122.911 1080.26 123.388V123.389C1086.82 126.402 1089.31 128.572 1091.1 131.491C1092.01 132.978 1092.74 134.667 1093.72 136.815C1094.7 138.955 1095.9 141.512 1097.74 144.684L1097.79 144.769L1097.87 144.828C1102.3 148.252 1105.94 150.723 1108.88 152.839C1111.83 154.962 1114.07 156.72 1115.77 158.745C1119.14 162.757 1120.47 167.907 1120.63 179.329V179.335C1120.63 179.434 1120.64 179.567 1120.67 179.718C1120.71 179.873 1120.77 180.021 1120.87 180.188C1121.06 180.502 1121.4 180.949 1122.02 181.707C1123.27 183.236 1125.77 186.181 1130.73 192.182V192.183C1130.86 192.34 1130.94 192.461 1131 192.592C1131.06 192.722 1131.11 192.883 1131.15 193.127C1131.24 193.636 1131.27 194.417 1131.33 195.868C1131.43 198.742 1131.62 204.075 1132.48 214.602L1132.49 214.746L1132.58 214.862C1136.11 219.515 1139.51 222.874 1142.47 225.63C1145.45 228.401 1147.94 230.517 1149.73 232.741C1151.49 234.935 1152.53 237.199 1152.61 240.233C1152.69 243.295 1151.79 247.183 1149.56 252.615V252.616C1149.34 253.157 1149.41 253.648 1149.61 254.122C1149.79 254.559 1150.12 255.04 1150.44 255.559C1151.11 256.623 1151.98 258.129 1152.52 260.698C1153.55 265.703 1153.31 274.809 1147.56 292.536L1146.99 294.278C1145.3 299.321 1143.87 303.124 1142.37 305.99C1140.87 308.849 1139.31 310.741 1137.36 311.991C1135.41 313.243 1133.01 313.886 1129.78 314.152C1126.55 314.419 1122.52 314.306 1117.33 314.081L1117.01 314.067L1116.87 314.358C1114.91 318.287 1107.36 333.53 1103.1 367.053L1103.08 367.212L1103.16 367.354L1115.37 389.953L1115.65 390.459L1116.11 390.118L1150.87 364.482C1179.77 368.269 1194.46 369.545 1202.33 370.346C1206.3 370.749 1208.48 371.028 1209.89 371.434C1210.58 371.633 1211.07 371.858 1211.47 372.133C1211.78 372.34 1212.05 372.584 1212.33 372.889L1212.63 373.214C1219.41 380.981 1226.54 383.015 1231.28 385.872C1233.65 387.304 1235.45 388.941 1236.48 391.603C1237.44 394.119 1237.74 397.61 1237.07 402.807L1236.92 403.869C1235.65 412.564 1234.8 417.169 1235.48 421.473C1236.08 425.256 1237.85 428.792 1241.41 434.675L1243.04 437.348C1243.73 438.461 1243.88 439.001 1244.92 443.299C1245.95 447.575 1247.85 455.5 1252.06 471.287L1252.1 471.442L1252.22 471.545C1252.53 471.797 1252.92 471.832 1253.22 471.855C1253.55 471.882 1253.92 471.896 1254.38 471.989C1255.3 472.173 1256.65 472.675 1258.6 474.278C1262.4 477.405 1268.41 484.659 1277.78 501.629L1278.69 503.302C1282.06 509.477 1283.36 514.243 1283.73 517.976C1284.09 521.707 1283.52 524.436 1283.09 526.579V526.582C1282.3 530.602 1280.9 537.917 1293.1 575.325L1293.36 576.134L1293.94 575.51C1300.89 568.006 1304.55 564.293 1307.35 560.089C1310.16 555.872 1312.1 551.166 1315.68 541.685C1321.73 525.612 1336.72 507.52 1352.91 494.343C1361 487.758 1369.37 482.421 1377.04 479.181C1384.49 476.034 1391.2 474.898 1396.35 476.42L1396.85 476.576C1399.77 477.559 1402.75 477.424 1405.67 476.817C1408.58 476.212 1411.49 475.126 1414.26 474.181C1419.88 472.262 1424.87 470.958 1429.05 474.534C1448.35 491.052 1455.97 501.019 1459.23 507.096C1460.86 510.124 1461.41 512.195 1461.79 513.659C1462.16 515.086 1462.4 516.175 1463.55 516.853C1466.95 518.852 1470.38 520.379 1473.45 521.974C1476.54 523.581 1479.32 525.279 1481.56 527.664C1486 532.401 1488.45 539.989 1486.61 555.422V555.423C1485.09 568.275 1491.31 574.375 1495.98 581.925C1498.32 585.704 1500.31 589.878 1500.88 595.511C1501.45 601.151 1500.61 608.296 1497.2 618.012C1491.44 634.383 1490.1 642.741 1490.01 651.355C1489.96 655.641 1490.22 660 1490.38 665.408C1490.54 670.826 1490.61 677.336 1490.19 685.974L1490.18 686.175L1490.32 686.327C1492.74 689.097 1495.37 691.659 1497.99 694.204C1500.61 696.754 1503.21 699.285 1505.61 702.015C1507.16 703.788 1508.1 705.141 1508.63 706.555C1509.17 707.963 1509.33 709.474 1509.25 711.592C1509.17 713.721 1508.86 716.407 1508.49 720.17C1508.12 723.922 1507.69 728.714 1507.38 735.016L1507.37 735.243L1507.54 735.401L1532.21 758.985L1532.33 759.101L1532.5 759.12C1542.81 760.342 1551.5 760.996 1559.17 762.049C1566.81 763.099 1573.33 764.536 1579.2 767.294C1590.91 772.796 1600.17 783.615 1610.49 807.514V807.515C1611.93 810.841 1614.09 813.092 1614.94 813.906L1615.22 814.166C1620.43 818.972 1629.58 831.453 1650.51 841.713C1639.81 844.091 1616.57 846.008 1583.9 847.528C1549.79 849.116 1505.46 850.271 1454.52 851.086C1352.64 852.715 1224.36 852.981 1098.58 852.61C972.807 852.24 849.549 851.234 757.733 850.32C711.826 849.863 673.779 849.43 647.209 849.11C633.924 848.951 623.508 848.82 616.414 848.729C612.867 848.683 610.15 848.647 608.32 848.623C607.405 848.611 606.712 848.601 606.247 848.595C606.122 848.593 606.013 848.591 605.921 848.59C605.889 848.473 605.849 848.328 605.803 848.156C605.662 847.637 605.459 846.873 605.209 845.897C604.71 843.947 604.024 841.149 603.281 837.766C601.795 830.997 600.08 821.89 599.162 812.526C598.243 803.155 598.126 793.564 599.812 785.811C601.502 778.047 604.965 772.261 611.097 770.245L611.104 770.242C611.56 770.085 611.923 769.93 612.406 769.535C612.864 769.161 613.43 768.572 614.324 767.567C615.667 766.059 617.82 763.535 621.562 759.24L625.861 754.328C628.004 751.894 629.67 750.271 631.402 749.057C633.129 747.846 634.943 747.025 637.399 746.222C639.867 745.415 642.953 744.636 647.233 743.495C651.506 742.357 656.942 740.865 664.079 738.64L664.217 738.597L664.311 738.487L682.242 717.528L682.486 717.243L682.281 716.93C679.698 712.981 676.581 709.001 673.707 705.062C670.821 701.108 668.168 697.18 666.447 693.274C664.728 689.373 663.957 685.531 664.786 681.733C665.588 678.058 667.904 674.351 672.465 670.629L672.913 670.269C677.547 666.604 680.143 663 681.812 659.473C683.47 655.966 684.209 652.531 685.125 649.297C686.046 646.048 687.154 642.953 689.542 639.972C691.93 636.989 695.629 634.083 701.784 631.282C717.705 624.037 726.186 621.238 734.224 622.728C738.244 623.473 742.189 625.298 746.929 628.252C751.673 631.208 757.175 635.269 764.319 640.462L764.655 640.706L764.957 640.421L790.041 616.636L790.178 616.507L790.195 616.319L792.46 592.492L792.491 592.17L792.209 592.01C775.537 582.573 768.017 576.734 760.356 571.125C752.674 565.5 744.865 560.117 727.648 551.624C711.056 543.44 706.389 536.997 705.656 531.786C705.287 529.164 705.899 526.782 706.615 524.514C706.969 523.393 707.357 522.274 707.64 521.207C707.925 520.133 708.117 519.065 708.075 518.011L708.07 517.879L708.001 517.767L707.814 517.485C707.346 516.819 706.65 516.083 705.848 515.271C704.915 514.326 703.817 513.256 702.654 511.998C700.335 509.488 697.799 506.266 696.029 502.021C692.503 493.559 691.967 480.887 702.676 461.471C708.233 451.379 715.447 445.647 721.489 442.201C724.512 440.477 727.244 439.325 729.339 438.482C730.38 438.064 731.283 437.714 731.972 437.414C732.317 437.263 732.623 437.119 732.874 436.979C733.119 436.842 733.346 436.69 733.509 436.515L733.508 436.514C734.196 435.781 734.349 434.967 734.62 433.914C734.898 432.837 735.327 431.332 736.513 428.998C738.895 424.31 744.338 416.268 757.756 401.709L757.907 401.544L757.886 401.321C756.997 392.202 756.517 385.062 756.833 379.315C757.149 373.574 758.257 369.268 760.511 365.793C762.763 362.32 766.194 359.622 771.259 357.164C776.33 354.703 783.003 352.499 791.702 349.993L791.701 349.992C792.92 349.647 795.463 348.768 799.651 349.589C803.725 350.388 809.396 352.807 816.904 358.991L817.637 359.602C829.271 369.423 833.55 375.248 835.916 382.233C837.107 385.75 837.818 389.573 838.718 394.394C839.616 399.206 840.698 404.982 842.633 412.357L842.725 412.706L843.085 412.729C847.359 413.003 850.609 413.069 853.136 413.092C855.675 413.114 857.449 413.093 858.816 413.187C860.172 413.28 861.059 413.484 861.827 413.921C862.506 414.307 863.129 414.896 863.901 415.839L864.242 416.265C864.543 416.648 864.873 417.01 865.308 417.172C865.781 417.348 866.26 417.25 866.764 417.003C867.259 416.761 867.854 416.338 868.608 415.743C869.369 415.143 870.323 414.34 871.541 413.318C876.418 409.227 885.675 401.489 904.384 388.421C910.579 384.093 912.975 381.358 914.385 377.855C915.079 376.131 915.529 374.23 916.095 371.913C916.663 369.587 917.357 366.804 918.54 363.263L918.739 362.667L918.113 362.606C899.682 360.83 884.015 360.048 871.138 359.041C858.234 358.031 848.142 356.795 840.758 354.127C833.406 351.47 828.793 347.416 826.748 340.772C824.686 334.074 825.209 324.67 828.366 311.266L828.41 311.079L828.317 310.91C825.557 305.894 822.872 302.117 820.583 298.979C818.284 295.826 816.42 293.361 815.24 290.917C814.075 288.502 813.587 286.125 814.065 283.163C814.548 280.177 816.015 276.57 818.822 271.718V271.717C824.04 262.69 825.975 257.99 827.156 253.014C827.744 250.539 828.144 247.998 828.673 244.848C829.194 241.743 829.844 238.024 830.926 233.138L855.837 221.641L856.068 221.534L856.118 221.283C856.563 219.022 858.81 207.708 862.68 196.018C864.615 190.171 866.951 184.246 869.662 179.318C872.382 174.374 875.442 170.506 878.791 168.679C881.412 167.25 883.539 165.232 885.813 162.824C888.098 160.405 890.525 157.598 893.795 154.491C900.311 148.3 910.148 140.953 928.496 133.624C935.077 130.998 939.653 131.098 943.286 132.562C946.952 134.038 949.736 136.927 952.695 140.083C955.632 143.215 958.729 146.594 962.972 148.839C967.104 151.025 972.288 152.121 979.432 150.981L980.129 150.863C991.979 148.773 998.6 145.861 1001.82 142.424C1003.44 140.688 1004.2 138.82 1004.31 136.884C1004.42 134.961 1003.9 133.008 1003.05 131.089C1001.34 127.272 998.212 123.423 995.749 120.036C994.505 118.326 993.431 116.736 992.747 115.298C992.059 113.85 991.81 112.643 992.09 111.661C994.049 104.807 999.075 98.8179 1005.7 94.3975C1012.33 89.9787 1020.52 87.1498 1028.76 86.5986Z" fill="white" stroke="black"/>
</mask>
<g mask="url(#mask0_40_2)">
<path d="M1028.76 86.5986C1037 86.0476 1045.25 87.7741 1052.02 92.4316C1058.78 97.084 1064.1 104.691 1066.43 115.985C1066.68 117.168 1067.46 118.089 1068.49 118.826C1069.52 119.563 1070.83 120.15 1072.22 120.66C1073.61 121.171 1075.11 121.616 1076.51 122.05C1077.92 122.487 1079.22 122.911 1080.26 123.388V123.389C1086.82 126.402 1089.31 128.572 1091.1 131.491C1092.01 132.978 1092.74 134.667 1093.72 136.815C1094.7 138.955 1095.9 141.512 1097.74 144.684L1097.79 144.769L1097.87 144.828C1102.3 148.252 1105.94 150.723 1108.88 152.839C1111.83 154.962 1114.07 156.72 1115.77 158.745C1119.14 162.757 1120.47 167.907 1120.63 179.329V179.335C1120.63 179.434 1120.64 179.567 1120.67 179.718C1120.71 179.873 1120.77 180.021 1120.87 180.188C1121.06 180.502 1121.4 180.949 1122.02 181.707C1123.27 183.236 1125.77 186.181 1130.73 192.182V192.183C1130.86 192.34 1130.94 192.461 1131 192.592C1131.06 192.722 1131.11 192.883 1131.15 193.127C1131.24 193.636 1131.27 194.417 1131.33 195.868C1131.43 198.742 1131.62 204.075 1132.48 214.602L1132.49 214.746L1132.58 214.862C1136.11 219.515 1139.51 222.874 1142.47 225.63C1145.45 228.401 1147.94 230.517 1149.73 232.741C1151.49 234.935 1152.53 237.199 1152.61 240.233C1152.69 243.295 1151.79 247.183 1149.56 252.615V252.616C1149.34 253.157 1149.41 253.648 1149.61 254.122C1149.79 254.559 1150.12 255.04 1150.44 255.559C1151.11 256.623 1151.98 258.129 1152.52 260.698C1153.55 265.703 1153.31 274.809 1147.56 292.536L1146.99 294.278C1145.3 299.321 1143.87 303.124 1142.37 305.99C1140.87 308.849 1139.31 310.741 1137.36 311.991C1135.41 313.243 1133.01 313.886 1129.78 314.152C1126.55 314.419 1122.52 314.306 1117.33 314.081L1117.01 314.067L1116.87 314.358C1114.91 318.287 1107.36 333.53 1103.1 367.053L1103.08 367.212L1103.16 367.354L1115.37 389.953L1115.65 390.459L1116.11 390.118L1150.87 364.482C1179.77 368.269 1194.46 369.545 1202.33 370.346C1206.3 370.749 1208.48 371.028 1209.89 371.434C1210.58 371.633 1211.07 371.858 1211.47 372.133C1211.78 372.34 1212.05 372.584 1212.33 372.889L1212.63 373.214C1219.41 380.981 1226.54 383.015 1231.28 385.872C1233.65 387.304 1235.45 388.941 1236.48 391.603C1237.44 394.119 1237.74 397.61 1237.07 402.807L1236.92 403.869C1235.65 412.564 1234.8 417.169 1235.48 421.473C1236.08 425.256 1237.85 428.792 1241.41 434.675L1243.04 437.348C1243.73 438.461 1243.88 439.001 1244.92 443.299C1245.95 447.575 1247.85 455.5 1252.06 471.287L1252.1 471.442L1252.22 471.545C1252.53 471.797 1252.92 471.832 1253.22 471.855C1253.55 471.882 1253.92 471.895 1254.38 471.989C1255.3 472.173 1256.65 472.675 1258.61 474.278C1262.53 477.506 1268.81 485.131 1278.69 503.302C1282.06 509.478 1283.36 514.243 1283.73 517.977C1284.09 521.707 1283.53 524.436 1283.1 526.579C1282.29 530.601 1280.9 537.918 1293.1 575.325L1293.36 576.134L1293.94 575.51C1300.89 568.006 1304.55 564.293 1307.35 560.089C1310.16 555.872 1312.1 551.166 1315.68 541.685C1321.73 525.612 1336.72 507.52 1352.91 494.343C1361 487.758 1369.37 482.421 1377.04 479.181C1384.49 476.034 1391.2 474.898 1396.35 476.42L1396.85 476.576C1399.77 477.559 1402.75 477.424 1405.67 476.817C1408.58 476.212 1411.49 475.126 1414.26 474.181C1419.88 472.262 1424.87 470.958 1429.05 474.534C1448.35 491.052 1455.97 501.019 1459.23 507.096C1460.86 510.124 1461.41 512.195 1461.79 513.659C1462.16 515.086 1462.4 516.175 1463.55 516.853C1466.95 518.852 1470.38 520.379 1473.45 521.974C1476.54 523.581 1479.32 525.279 1481.56 527.664C1486 532.401 1488.45 539.989 1486.61 555.422V555.423C1485.09 568.275 1491.31 574.375 1495.98 581.925C1498.32 585.704 1500.31 589.878 1500.88 595.511C1501.45 601.151 1500.61 608.296 1497.2 618.012C1491.44 634.388 1490.1 642.746 1490.01 651.359C1489.96 655.644 1490.22 660.003 1490.38 665.41C1490.54 670.827 1490.61 677.337 1490.19 685.974L1490.18 686.175L1490.32 686.327C1492.74 689.097 1495.37 691.659 1497.99 694.204C1500.61 696.754 1503.21 699.285 1505.61 702.015C1507.16 703.788 1508.1 705.141 1508.63 706.555C1509.17 707.963 1509.33 709.474 1509.25 711.592C1509.17 713.721 1508.86 716.407 1508.49 720.17C1508.12 723.922 1507.69 728.714 1507.38 735.016L1507.37 735.243L1507.54 735.401L1532.21 758.985L1532.33 759.101L1532.5 759.12C1542.81 760.342 1551.5 760.996 1559.17 762.049C1566.81 763.099 1573.33 764.536 1579.2 767.294C1590.91 772.796 1600.17 783.615 1610.49 807.514V807.515C1611.93 810.841 1614.09 813.092 1614.94 813.906L1615.22 814.166C1620.43 818.972 1629.58 831.453 1650.51 841.713C1639.81 844.091 1616.57 846.008 1583.9 847.528C1549.79 849.116 1505.46 850.271 1454.52 851.086C1352.64 852.715 1224.36 852.981 1098.58 852.61C972.807 852.24 849.549 851.234 757.733 850.32C711.826 849.863 673.779 849.43 647.209 849.11C633.924 848.951 623.508 848.82 616.414 848.729C612.867 848.683 610.15 848.647 608.32 848.623C607.405 848.611 606.712 848.601 606.247 848.595C606.122 848.593 606.013 848.591 605.921 848.59C605.889 848.473 605.849 848.328 605.803 848.156C605.662 847.637 605.459 846.873 605.209 845.897C604.71 843.947 604.024 841.149 603.281 837.766C601.795 830.997 600.08 821.89 599.162 812.526C598.243 803.155 598.126 793.564 599.812 785.811C601.502 778.047 604.965 772.261 611.097 770.245L611.104 770.242C611.56 770.085 611.923 769.93 612.406 769.535C612.864 769.161 613.43 768.572 614.324 767.567C615.667 766.059 617.82 763.535 621.562 759.24L625.861 754.328C628.004 751.894 629.67 750.271 631.402 749.057C633.129 747.846 634.943 747.025 637.399 746.222C639.867 745.415 642.953 744.636 647.233 743.495C651.506 742.357 656.942 740.865 664.079 738.64L664.217 738.597L664.311 738.487L682.242 717.528L682.486 717.243L682.281 716.93C679.698 712.981 676.581 709.001 673.707 705.062C670.821 701.108 668.168 697.18 666.447 693.274C664.728 689.373 663.957 685.531 664.786 681.733C665.588 678.058 667.904 674.351 672.465 670.629L672.913 670.269C677.547 666.604 680.143 663 681.812 659.473C683.47 655.966 684.209 652.531 685.125 649.297C686.046 646.048 687.154 642.953 689.542 639.972C691.93 636.989 695.629 634.083 701.784 631.282C717.705 624.037 726.186 621.238 734.224 622.728C738.244 623.473 742.189 625.298 746.929 628.252C751.673 631.208 757.175 635.269 764.319 640.462L764.655 640.706L764.957 640.421L790.041 616.636L790.178 616.507L790.195 616.319L792.46 592.492L792.491 592.17L792.209 592.01C775.537 582.573 768.017 576.734 760.356 571.125C752.674 565.5 744.865 560.117 727.648 551.624C711.056 543.44 706.389 536.997 705.656 531.786C705.287 529.164 705.899 526.782 706.615 524.514C706.969 523.393 707.357 522.274 707.64 521.207C707.925 520.133 708.117 519.065 708.075 518.011L708.07 517.879L708.001 517.767L707.814 517.485C707.346 516.819 706.65 516.083 705.848 515.271C704.915 514.326 703.817 513.256 702.654 511.998C700.335 509.488 697.799 506.266 696.029 502.021C692.503 493.559 691.967 480.887 702.676 461.471C708.233 451.379 715.447 445.647 721.489 442.201C724.512 440.477 727.244 439.325 729.339 438.482C730.38 438.064 731.283 437.714 731.972 437.414C732.317 437.263 732.623 437.119 732.874 436.979C733.119 436.842 733.346 436.69 733.509 436.515L733.508 436.514C734.193 435.78 734.345 434.966 734.616 433.913C734.893 432.836 735.322 431.331 736.509 428.996C738.892 424.307 744.338 416.263 757.756 401.698L757.907 401.533L757.886 401.311C756.997 392.194 756.517 385.055 756.833 379.311C757.149 373.571 758.257 369.266 760.511 365.792C762.763 362.32 766.194 359.622 771.259 357.164C776.33 354.703 783.003 352.499 791.702 349.993L791.701 349.992C792.92 349.647 795.461 348.768 799.647 349.589C803.72 350.388 809.391 352.807 816.904 358.991L817.637 359.602C829.271 369.423 833.55 375.248 835.916 382.233C837.107 385.75 837.818 389.573 838.718 394.394C839.616 399.206 840.698 404.982 842.633 412.357L842.725 412.706L843.085 412.729C847.359 413.003 850.608 413.069 853.136 413.092C855.675 413.114 857.45 413.093 858.818 413.187C860.175 413.28 861.062 413.485 861.831 413.922C862.608 414.363 863.314 415.067 864.252 416.263V416.264C864.551 416.646 864.88 417.01 865.314 417.172C865.787 417.348 866.266 417.249 866.769 417.003C867.263 416.761 867.857 416.338 868.61 415.743C869.37 415.143 870.325 414.34 871.543 413.318C876.419 409.227 885.675 401.488 904.384 388.421C910.579 384.093 912.975 381.358 914.385 377.855C915.079 376.131 915.529 374.23 916.095 371.913C916.663 369.587 917.357 366.804 918.54 363.263L918.739 362.667L918.113 362.606C899.682 360.83 884.015 360.048 871.138 359.041C858.234 358.031 848.142 356.795 840.758 354.127C833.406 351.47 828.793 347.416 826.748 340.772C824.686 334.074 825.209 324.67 828.366 311.266L828.41 311.079L828.317 310.91C825.557 305.894 822.872 302.117 820.583 298.979C818.284 295.826 816.42 293.361 815.24 290.917C814.075 288.502 813.587 286.125 814.065 283.163C814.548 280.177 816.015 276.57 818.822 271.718V271.717C824.04 262.69 825.975 257.99 827.156 253.014C827.744 250.539 828.144 247.998 828.673 244.848C829.194 241.743 829.844 238.024 830.926 233.138L855.837 221.641L856.068 221.534L856.118 221.283C856.563 219.022 858.813 207.708 862.686 196.018C864.622 190.171 866.959 184.246 869.671 179.318C872.392 174.374 875.452 170.505 878.802 168.678C881.42 167.249 883.546 165.232 885.817 162.824C888.1 160.405 890.524 157.598 893.792 154.491C900.305 148.3 910.142 140.953 928.496 133.624C935.077 130.998 939.653 131.098 943.286 132.562C946.952 134.038 949.736 136.927 952.695 140.083C955.632 143.215 958.729 146.594 962.972 148.839C967.104 151.025 972.288 152.121 979.432 150.981L980.129 150.863C991.979 148.773 998.6 145.861 1001.82 142.424C1003.44 140.688 1004.2 138.82 1004.31 136.884C1004.42 134.961 1003.9 133.008 1003.05 131.089C1001.34 127.272 998.212 123.423 995.749 120.036C994.505 118.326 993.431 116.736 992.747 115.298C992.059 113.85 991.81 112.643 992.09 111.661C994.049 104.807 999.075 98.8179 1005.7 94.3975C1012.33 89.9787 1020.52 87.1498 1028.76 86.5986Z" fill="black" stroke="black"/>
<path d="M1054.65 427.791C1056.2 427.821 1057.17 428.381 1058.49 429.476V429.475C1061.25 431.781 1063.8 434.56 1065.52 437.71L1065.85 438.345C1073.4 453.726 1075.01 461.722 1074.38 472.046C1074.06 477.242 1073.17 483.021 1072.16 490.647C1071.14 498.263 1070.01 507.686 1069.21 520.125L1069.2 520.378L1069.39 520.541C1076.54 526.518 1082.44 530.751 1087.26 534.08C1092.08 537.417 1095.78 539.817 1098.57 542.16C1101.35 544.488 1103.2 546.725 1104.34 549.704C1105.42 552.511 1105.88 556.016 1105.84 560.943L1105.82 561.948C1105.69 567.822 1104.08 573.542 1102.44 579.335C1100.81 585.107 1099.15 590.951 1099.02 596.974L1099.01 597.191L1099.17 597.342C1101.99 600.109 1105.54 601.922 1109 603.697C1112.28 605.372 1115.48 607.014 1118.08 609.39L1118.6 609.875C1122.32 613.547 1125.64 618.413 1125.99 623.536C1126.52 631.174 1125.41 638.813 1124.29 646.514C1123.17 654.196 1122.04 661.941 1122.58 669.699L1122.62 670.194L1123.11 670.163C1147.24 668.638 1171.37 667.104 1195.5 665.569L1195.75 665.553L1195.89 665.341C1199.75 659.363 1202.76 652.909 1205.86 647.149C1208.98 641.36 1212.19 636.257 1216.47 632.818C1220.74 629.4 1226.1 627.598 1233.58 628.487C1241.1 629.379 1250.75 632.981 1263.56 640.405L1263.56 640.406C1263.86 640.575 1264.31 640.692 1264.8 640.784C1265.31 640.879 1265.94 640.956 1266.64 641.02C1268.03 641.149 1269.72 641.226 1271.4 641.271C1274.74 641.361 1278.02 641.324 1278.63 641.308L1278.63 641.307C1299.45 641.107 1308.91 643.627 1314.92 646.965C1317.94 648.639 1320.1 650.527 1322.44 652.45C1324.78 654.37 1327.27 656.305 1330.88 657.997L1331.27 658.178L1331.51 657.823C1339.03 646.672 1344.36 637.698 1348.52 630.509C1352.68 623.309 1355.64 617.938 1358.43 613.945C1361.2 609.965 1363.77 607.411 1367.13 605.823C1370.5 604.23 1374.71 603.583 1380.83 603.53C1389.43 603.459 1395.34 605.876 1399.98 610.021C1404.64 614.188 1408.06 620.13 1411.64 627.19C1418.77 641.283 1426.45 659.667 1445.89 676.248C1455.15 684.143 1459.37 694.317 1461.04 705.088C1462.71 715.873 1461.83 727.227 1460.92 737.457C1460.46 742.562 1460 747.394 1459.84 751.712C1459.69 756.027 1459.85 759.872 1460.65 762.997C1461.46 766.131 1462.94 768.59 1465.46 770.049C1467.97 771.501 1471.41 771.91 1476.05 771.152C1487.6 769.263 1496.59 767.216 1504.08 765.719C1511.58 764.22 1517.56 763.277 1523.15 763.561C1534.27 764.127 1543.96 769.563 1560.99 785.671C1572.46 796.532 1585.69 802.654 1600.07 806.986C1614.42 811.31 1630.01 813.869 1646.14 817.557C1678.42 824.94 1713.21 836.908 1746.16 876.808C1753.91 886.185 1759.45 894.471 1762.7 901.829C1765.95 909.184 1766.9 915.573 1765.51 921.181C1764.12 926.783 1760.38 931.69 1754.09 936.044C1747.79 940.403 1738.96 944.188 1727.47 947.544C1704.48 954.257 1670.95 959.215 1625.92 963.664C1580.9 968.112 1524.43 972.048 1455.59 976.721C1354.53 983.583 1185.68 979.562 1031.68 970.021C954.689 965.251 881.412 959.101 822.185 952.244C762.934 945.383 717.802 937.819 697.051 930.238C676.64 922.775 603.421 888.293 595.341 884.464L595.339 884.463C580.447 877.452 572.024 872.479 567.209 869.157C564.803 867.496 563.301 866.249 562.344 865.368C561.866 864.927 561.521 864.577 561.267 864.308C561.044 864.073 560.858 863.866 560.722 863.736C556.02 858.592 526.291 826.051 547.523 777.663L548.035 776.517C551.715 768.41 555.004 763.009 558.384 759.331C561.751 755.666 565.221 753.699 569.298 752.483C573.401 751.259 578.112 750.797 583.995 750.154C589.864 749.512 596.849 748.693 605.43 746.747L605.758 746.672L605.812 746.341C606.453 742.482 606.144 738.556 605.848 734.703C605.549 730.827 605.264 727.022 605.896 723.298C606.482 719.848 608.219 716.181 611.038 714.317L611.04 714.315C615.685 711.202 620.791 708.871 625.988 706.625L630.451 704.708C635.656 702.46 640.839 700.102 645.562 696.945L645.743 696.825L645.777 696.61C647.322 687.146 647.993 679.766 648.438 673.78C648.883 667.78 649.101 663.224 649.74 659.35C650.376 655.498 651.425 652.356 653.518 649.208C655.486 646.248 658.395 643.259 662.805 639.67L663.706 638.945C666.432 636.778 668.511 635.427 670.492 634.598C672.463 633.774 674.365 633.456 676.753 633.397C679.158 633.337 682.023 633.54 685.941 633.747C689.849 633.952 694.767 634.158 701.235 634.1L701.41 634.098L701.546 633.988C705.872 630.476 708.975 627.05 711.884 624.061C714.799 621.065 717.52 618.507 721.123 616.637C728.322 612.903 739.18 611.849 762.353 616.054C767.771 617.036 772.061 616.256 776.054 614.931C778.041 614.272 779.961 613.475 781.895 612.701C783.834 611.924 785.795 611.166 787.896 610.568C792.082 609.375 796.835 608.809 803.009 610.039C809.194 611.271 816.827 614.309 826.759 620.361V620.36C826.891 620.441 827.048 620.487 827.186 620.515C827.333 620.546 827.503 620.567 827.688 620.581C828.061 620.608 828.533 620.609 829.081 620.586C830.179 620.541 831.621 620.398 833.264 620.16C836.548 619.682 840.665 618.815 844.477 617.542C848.27 616.276 851.833 614.585 853.94 612.426C855.002 611.339 855.722 610.105 855.884 608.722C856.046 607.333 855.636 605.869 854.58 604.343C853.227 602.392 850.905 599.999 848.026 597.261C845.143 594.52 841.658 591.391 837.973 587.983C830.586 581.151 822.35 573.15 816.222 564.599C810.088 556.041 806.122 547.008 807.145 538.099C808.164 529.218 814.164 520.307 828.311 512.025L828.31 512.024C829.159 511.527 829.874 510.496 830.552 509.222C831.241 507.928 831.945 506.279 832.731 504.443C834.312 500.753 836.252 496.245 839.165 491.996C842.075 487.751 845.946 483.779 851.379 481.161C856.64 478.625 863.401 477.34 872.235 478.345L873.097 478.45C878.48 479.148 882.087 478.04 885.552 476.355C889.013 474.672 892.193 472.502 896.954 470.892C896.958 470.892 896.962 470.892 896.966 470.892C897.025 470.89 897.112 470.888 897.227 470.884C897.455 470.877 897.791 470.866 898.219 470.853C899.074 470.826 900.3 470.788 901.778 470.742C904.736 470.649 908.709 470.525 912.766 470.397C920.877 470.142 929.329 469.874 930.678 469.827L930.838 469.821L930.966 469.722C936.766 465.237 942.237 460.34 947.693 455.457C953.154 450.569 958.599 445.696 964.366 441.237C968.137 438.321 970.963 436.748 973.339 436.118C975.685 435.495 977.623 435.783 979.654 436.677C981.72 437.586 983.853 439.106 986.604 440.958C989.337 442.798 992.632 444.93 996.961 446.999L997.145 447.085L997.337 447.021C1011.15 442.352 1021.57 438.644 1029.52 435.779C1037.47 432.912 1042.92 430.895 1046.83 429.601C1050.75 428.302 1053.03 427.759 1054.65 427.791Z" fill="#D1DCF0" fill-opacity="0.5" stroke="black"/>
<path d="M1028.76 86.5986C1037 86.0476 1045.25 87.7741 1052.02 92.4316C1058.78 97.084 1064.1 104.691 1066.43 115.985C1066.68 117.168 1067.46 118.089 1068.49 118.826C1069.52 119.563 1070.83 120.15 1072.22 120.66C1073.61 121.171 1075.11 121.616 1076.51 122.05C1077.92 122.487 1079.22 122.911 1080.26 123.388V123.389C1086.82 126.402 1089.31 128.572 1091.1 131.491C1092.01 132.978 1092.74 134.667 1093.72 136.815C1094.7 138.955 1095.9 141.512 1097.74 144.684L1097.79 144.769L1097.87 144.828C1102.3 148.252 1105.94 150.723 1108.88 152.839C1111.83 154.962 1114.07 156.72 1115.77 158.745C1119.14 162.757 1120.47 167.907 1120.63 179.329V179.335C1120.63 179.434 1120.64 179.567 1120.67 179.718C1120.71 179.873 1120.77 180.021 1120.87 180.188C1121.06 180.502 1121.4 180.949 1122.02 181.707C1123.27 183.236 1125.77 186.181 1130.73 192.182V192.183C1130.86 192.34 1130.94 192.461 1131 192.592C1131.06 192.722 1131.11 192.883 1131.15 193.127C1131.24 193.636 1131.27 194.417 1131.33 195.868C1131.43 198.742 1131.62 204.075 1132.48 214.602L1132.49 214.746L1132.58 214.862C1136.11 219.515 1139.51 222.874 1142.47 225.63C1145.45 228.401 1147.94 230.517 1149.73 232.741C1151.49 234.935 1152.53 237.199 1152.61 240.233C1152.69 243.295 1151.79 247.183 1149.56 252.615V252.616C1149.34 253.157 1149.41 253.648 1149.61 254.122C1149.79 254.559 1150.12 255.04 1150.44 255.559C1151.11 256.623 1151.98 258.129 1152.52 260.698C1153.55 265.703 1153.31 274.809 1147.56 292.536L1146.99 294.278C1145.3 299.321 1143.87 303.124 1142.37 305.99C1140.87 308.849 1139.31 310.741 1137.36 311.991C1135.41 313.243 1133.01 313.886 1129.78 314.152C1126.55 314.419 1122.52 314.306 1117.33 314.081L1117.01 314.067L1116.87 314.358C1114.91 318.287 1107.36 333.53 1103.1 367.053L1103.08 367.212L1103.16 367.354L1115.37 389.953L1115.65 390.459L1116.11 390.118L1150.87 364.482C1179.77 368.269 1194.46 369.545 1202.33 370.346C1206.3 370.749 1208.48 371.028 1209.89 371.434C1210.58 371.633 1211.07 371.858 1211.47 372.133C1211.78 372.34 1212.05 372.584 1212.33 372.889L1212.63 373.214C1219.41 380.981 1226.54 383.015 1231.28 385.872C1233.65 387.304 1235.45 388.941 1236.48 391.603C1237.44 394.119 1237.74 397.61 1237.07 402.807L1236.92 403.869C1235.65 412.564 1234.8 417.169 1235.48 421.473C1236.08 425.256 1237.85 428.792 1241.41 434.675L1243.04 437.348C1243.73 438.461 1243.88 439.001 1244.92 443.299C1245.95 447.575 1247.85 455.5 1252.06 471.287L1252.1 471.442L1252.22 471.545C1252.53 471.797 1252.92 471.832 1253.22 471.855C1253.55 471.882 1253.92 471.895 1254.38 471.989C1255.3 472.173 1256.65 472.675 1258.61 474.278C1262.53 477.506 1268.81 485.131 1278.69 503.302C1282.06 509.478 1283.36 514.243 1283.73 517.977C1284.09 521.707 1283.53 524.436 1283.1 526.579C1282.29 530.601 1280.9 537.918 1293.1 575.325L1293.36 576.134L1293.94 575.51C1300.89 568.006 1304.55 564.293 1307.35 560.089C1310.16 555.872 1312.1 551.166 1315.68 541.685H1315.68C1321.73 525.612 1336.72 507.52 1352.91 494.343C1361 487.758 1369.37 482.421 1377.04 479.181C1384.49 476.034 1391.2 474.898 1396.35 476.42L1396.85 476.576C1399.77 477.559 1402.75 477.424 1405.67 476.817C1408.58 476.212 1411.49 475.126 1414.26 474.181C1419.88 472.262 1424.87 470.958 1429.05 474.534C1448.35 491.052 1455.97 501.019 1459.23 507.096C1460.86 510.124 1461.41 512.195 1461.79 513.659C1462.16 515.086 1462.4 516.175 1463.55 516.853C1466.95 518.852 1470.38 520.379 1473.45 521.974C1476.54 523.581 1479.32 525.279 1481.56 527.664C1486 532.401 1488.45 539.989 1486.61 555.422V555.423C1485.09 568.275 1491.31 574.375 1495.98 581.925C1498.32 585.704 1500.31 589.878 1500.88 595.511C1501.45 601.151 1500.61 608.296 1497.2 618.012C1491.44 634.388 1490.1 642.746 1490.01 651.359C1489.96 655.644 1490.22 660.003 1490.38 665.41C1490.54 670.827 1490.61 677.337 1490.19 685.974L1490.18 686.175L1490.32 686.327C1492.74 689.097 1495.37 691.659 1497.99 694.204C1500.61 696.754 1503.21 699.285 1505.61 702.015C1507.16 703.788 1508.1 705.141 1508.63 706.555C1509.17 707.963 1509.33 709.474 1509.25 711.592C1509.17 713.721 1508.86 716.407 1508.49 720.17C1508.12 723.922 1507.69 728.714 1507.38 735.016L1507.37 735.243L1507.54 735.401L1532.21 758.985L1532.33 759.101L1532.5 759.12C1542.81 760.342 1551.5 760.996 1559.17 762.049C1566.81 763.099 1573.33 764.536 1579.2 767.294C1590.91 772.796 1600.17 783.615 1610.49 807.514V807.515C1611.93 810.841 1614.09 813.092 1614.94 813.906L1615.22 814.166C1620.43 818.972 1629.58 831.453 1650.51 841.713C1639.81 844.091 1616.57 846.008 1583.9 847.528C1549.79 849.116 1505.46 850.271 1454.52 851.086C1352.64 852.715 1224.36 852.981 1098.58 852.61C972.808 852.24 849.549 851.234 757.733 850.32C711.826 849.863 673.779 849.43 647.209 849.11C633.924 848.951 623.508 848.82 616.414 848.729C612.867 848.683 610.15 848.647 608.32 848.623C607.405 848.611 606.712 848.601 606.247 848.595C606.122 848.593 606.013 848.591 605.921 848.59C605.889 848.473 605.849 848.328 605.803 848.156C605.662 847.637 605.459 846.873 605.209 845.897C604.71 843.947 604.024 841.149 603.281 837.766C601.795 830.997 600.08 821.89 599.162 812.526C598.243 803.155 598.126 793.564 599.812 785.811C601.502 778.047 604.965 772.261 611.097 770.245L611.104 770.242C611.56 770.085 611.923 769.93 612.406 769.535C612.864 769.161 613.43 768.572 614.324 767.567C615.667 766.059 617.82 763.535 621.562 759.24L625.861 754.328C628.004 751.894 629.67 750.271 631.402 749.057C633.129 747.846 634.943 747.025 637.399 746.222C639.867 745.415 642.953 744.636 647.233 743.495C651.506 742.357 656.942 740.865 664.079 738.64L664.217 738.597L664.311 738.487L682.242 717.528L682.486 717.243L682.281 716.93C679.698 712.981 676.581 709.001 673.707 705.062C670.821 701.108 668.168 697.18 666.447 693.274C664.728 689.373 663.957 685.531 664.786 681.733C665.588 678.058 667.904 674.351 672.465 670.629L672.913 670.269C677.547 666.604 680.143 663 681.812 659.473C683.47 655.966 684.209 652.531 685.125 649.297C686.046 646.048 687.154 642.953 689.542 639.972C691.93 636.989 695.629 634.083 701.784 631.282C717.705 624.037 726.186 621.238 734.224 622.728C738.244 623.473 742.189 625.298 746.929 628.252C751.673 631.208 757.175 635.269 764.319 640.462L764.655 640.706L764.957 640.421L790.042 616.636L790.178 616.507L790.195 616.319L792.46 592.492L792.491 592.17L792.209 592.01C775.537 582.573 768.017 576.734 760.356 571.125C752.674 565.5 744.865 560.117 727.648 551.624C711.056 543.44 706.389 536.997 705.656 531.786C705.287 529.164 705.899 526.782 706.615 524.514C706.969 523.393 707.357 522.274 707.64 521.207C707.925 520.133 708.117 519.065 708.075 518.011L708.07 517.879L708.001 517.767L707.814 517.485C707.346 516.819 706.65 516.083 705.848 515.271C704.915 514.326 703.817 513.256 702.654 511.998C700.335 509.488 697.799 506.266 696.029 502.021C692.503 493.559 691.967 480.887 702.676 461.471C708.233 451.379 715.447 445.647 721.489 442.201C724.512 440.477 727.245 439.325 729.34 438.482C730.381 438.064 731.283 437.714 731.972 437.414C732.317 437.263 732.623 437.119 732.874 436.979C733.119 436.842 733.346 436.69 733.509 436.515L733.508 436.514C734.193 435.78 734.345 434.966 734.616 433.913C734.893 432.836 735.322 431.331 736.509 428.996C738.892 424.307 744.338 416.263 757.756 401.698L757.907 401.533L757.886 401.311C756.997 392.194 756.517 385.055 756.833 379.311C757.149 373.571 758.257 369.266 760.511 365.792C762.763 362.32 766.194 359.622 771.259 357.164C776.33 354.703 783.003 352.499 791.702 349.993L791.701 349.992C792.92 349.647 795.461 348.768 799.647 349.589C803.72 350.388 809.391 352.807 816.904 358.991L817.637 359.602C829.271 369.423 833.55 375.248 835.916 382.233C837.107 385.75 837.818 389.573 838.718 394.394C839.616 399.206 840.698 404.982 842.633 412.357L842.725 412.706L843.085 412.729C847.359 413.003 850.608 413.069 853.136 413.092C855.675 413.114 857.45 413.093 858.818 413.187C860.175 413.28 861.062 413.485 861.831 413.922C862.608 414.363 863.314 415.067 864.252 416.263V416.264C864.551 416.646 864.88 417.01 865.314 417.172C865.787 417.348 866.266 417.249 866.769 417.003C867.263 416.761 867.857 416.338 868.61 415.743C869.37 415.143 870.325 414.34 871.543 413.318C876.419 409.227 885.675 401.488 904.384 388.421C910.579 384.093 912.975 381.358 914.385 377.855C915.079 376.131 915.529 374.23 916.095 371.913C916.663 369.587 917.357 366.804 918.54 363.263L918.739 362.667L918.113 362.606C899.682 360.83 884.015 360.048 871.138 359.041C858.234 358.031 848.142 356.795 840.758 354.127C833.406 351.47 828.793 347.416 826.748 340.772C824.686 334.074 825.209 324.67 828.366 311.266L828.41 311.079L828.317 310.91C825.557 305.894 822.872 302.117 820.583 298.979C818.284 295.826 816.42 293.361 815.24 290.917C814.075 288.502 813.587 286.125 814.065 283.163C814.548 280.177 816.015 276.57 818.822 271.718V271.717C824.04 262.69 825.975 257.99 827.156 253.014C827.744 250.539 828.144 247.998 828.673 244.848C829.194 241.743 829.844 238.024 830.926 233.138L855.837 221.641L856.068 221.534L856.118 221.283C856.563 219.022 858.813 207.708 862.686 196.018C864.622 190.171 866.959 184.246 869.671 179.318C872.392 174.374 875.452 170.505 878.802 168.678C881.42 167.249 883.546 165.232 885.817 162.824C888.1 160.405 890.524 157.598 893.792 154.491C900.305 148.3 910.142 140.953 928.496 133.624C935.077 130.998 939.653 131.098 943.286 132.562C946.952 134.038 949.736 136.927 952.695 140.083C955.632 143.215 958.729 146.594 962.972 148.839C967.237 151.096 972.624 152.19 980.129 150.863C991.979 148.773 998.6 145.861 1001.82 142.424C1003.44 140.688 1004.2 138.82 1004.31 136.884C1004.42 134.961 1003.9 133.008 1003.05 131.089C1001.34 127.272 998.212 123.423 995.749 120.036C994.505 118.326 993.431 116.736 992.747 115.298C992.059 113.85 991.81 112.643 992.09 111.661C994.049 104.807 999.075 98.8179 1005.7 94.3975C1012.33 89.9787 1020.52 87.1498 1028.76 86.5986Z" fill="#FFEFF4" stroke="black"/>
<path d="M1054.81 424.502C1056.36 424.533 1057.33 425.094 1058.65 426.191V426.192C1061.6 428.651 1064.31 431.636 1066.02 435.057V435.058C1073.57 450.435 1075.18 458.429 1074.55 468.755C1074.23 473.951 1073.34 479.731 1072.32 487.357C1071.31 494.974 1070.17 504.399 1069.38 516.841L1069.36 517.094L1069.55 517.257C1076.71 523.232 1082.61 527.464 1087.42 530.791C1092.25 534.127 1095.94 536.527 1098.74 538.87C1101.52 541.198 1103.37 543.436 1104.51 546.414C1105.66 549.407 1106.11 553.194 1106 558.652C1105.87 564.527 1104.25 570.248 1102.61 576.041C1100.98 581.812 1099.32 587.656 1099.19 593.68L1099.18 593.896L1099.34 594.047C1102.16 596.82 1105.71 598.633 1109.17 600.406C1112.66 602.192 1116.07 603.938 1118.76 606.579V606.58C1122.49 610.251 1125.8 615.128 1126.16 620.242C1126.69 627.88 1125.58 635.519 1124.46 643.221C1123.34 650.904 1122.21 658.651 1122.74 666.414L1122.78 666.91L1123.27 666.879C1147.4 665.344 1171.53 663.809 1195.67 662.274L1195.93 662.258L1196.06 662.046C1199.92 656.07 1202.93 649.618 1206.03 643.858C1209.14 638.07 1212.35 632.967 1216.64 629.526C1220.9 626.108 1226.27 624.306 1233.75 625.193C1241.27 626.084 1250.93 629.686 1263.73 637.11L1263.74 637.111C1264.03 637.28 1264.48 637.398 1264.97 637.489C1265.49 637.584 1266.11 637.661 1266.81 637.726C1268.2 637.854 1269.9 637.932 1271.57 637.978C1274.91 638.069 1278.19 638.035 1278.8 638.024L1278.8 638.023C1299.63 637.818 1309.08 640.334 1315.09 643.672C1318.11 645.345 1320.27 647.233 1322.61 649.155C1324.95 651.076 1327.44 653.011 1331.06 654.702L1331.44 654.883L1331.68 654.528C1339.2 643.38 1344.54 634.407 1348.69 627.22C1352.85 620.02 1355.81 614.649 1358.6 610.655C1361.38 606.675 1363.95 604.121 1367.3 602.534C1370.67 600.942 1374.88 600.295 1381 600.245C1389.6 600.175 1395.5 602.592 1400.14 606.737C1404.8 610.905 1408.22 616.845 1411.8 623.904C1418.94 637.996 1426.61 656.377 1446.06 672.952C1455.32 680.851 1459.54 691.026 1461.21 701.8C1462.88 712.586 1462 723.941 1461.09 734.171C1460.63 739.276 1460.17 744.109 1460.01 748.428C1459.86 752.742 1460.02 756.587 1460.83 759.712C1461.63 762.846 1463.11 765.306 1465.63 766.766C1467.98 768.127 1471.16 768.571 1475.37 767.996L1476.22 767.867C1487.77 765.976 1496.76 763.927 1504.25 762.43C1511.75 760.929 1517.72 759.985 1523.31 760.27C1534.43 760.835 1544.13 766.273 1561.16 782.387C1572.63 793.247 1585.85 799.369 1600.23 803.7C1614.59 808.024 1630.17 810.581 1646.3 814.269C1678.58 821.651 1713.37 833.619 1746.32 873.524C1754.07 882.901 1759.61 891.187 1762.87 898.544C1766.12 905.899 1767.07 912.287 1765.68 917.896C1764.29 923.497 1760.55 928.403 1754.26 932.757C1747.96 937.115 1739.14 940.9 1727.64 944.256C1704.66 950.967 1671.12 955.926 1626.09 960.375C1581.07 964.824 1524.6 968.76 1455.76 973.437C1354.7 980.294 1185.85 976.272 1031.85 966.731C954.854 961.961 881.576 955.812 822.348 948.953C763.096 942.092 717.964 934.528 697.213 926.943C676.813 919.491 603.591 884.997 595.513 881.169H595.512C580.62 874.158 572.196 869.185 567.382 865.862C564.976 864.202 563.473 862.955 562.516 862.073C562.037 861.633 561.694 861.281 561.439 861.013C561.216 860.777 561.029 860.571 560.893 860.44H560.894C556.144 855.256 525.995 822.252 548.207 773.223C551.884 765.115 555.173 759.714 558.552 756.037C561.918 752.374 565.388 750.409 569.465 749.194C573.568 747.972 578.28 747.511 584.162 746.868C590.03 746.227 597.014 745.409 605.592 743.463L605.919 743.389L605.975 743.058C606.621 739.192 606.312 735.264 606.014 731.41C605.714 727.535 605.425 723.732 606.058 720.014C606.653 716.552 608.392 712.886 611.21 711.022L611.213 711.021C616.521 707.462 622.432 704.926 628.393 702.373C634.339 699.827 640.336 697.264 645.734 693.661L645.915 693.54L645.95 693.326C647.495 683.862 648.165 676.482 648.609 670.494C649.055 664.493 649.272 659.936 649.911 656.061C650.546 652.207 651.595 649.063 653.687 645.915C655.654 642.954 658.56 639.965 662.967 636.376L663.868 635.65C666.594 633.484 668.673 632.133 670.655 631.306C672.627 630.482 674.53 630.165 676.92 630.107C679.327 630.049 682.193 630.254 686.112 630.461C690.02 630.668 694.94 630.874 701.408 630.815L701.583 630.814L701.719 630.704C706.045 627.193 709.147 623.766 712.056 620.775C714.971 617.778 717.691 615.22 721.294 613.35C728.266 609.73 738.672 608.628 760.379 612.391L762.515 612.771C767.936 613.753 772.228 612.971 776.222 611.646C778.209 610.987 780.131 610.19 782.064 609.416C784.005 608.639 785.966 607.883 788.066 607.284C792.254 606.091 797.007 605.525 803.182 606.755C809.174 607.948 816.524 610.837 826.007 616.519L826.932 617.077C827.064 617.158 827.222 617.202 827.359 617.23C827.506 617.261 827.676 617.281 827.861 617.294C828.234 617.321 828.706 617.322 829.254 617.299C830.352 617.253 831.794 617.11 833.437 616.871C836.721 616.393 840.838 615.525 844.649 614.253C848.443 612.987 852.006 611.296 854.113 609.137C855.175 608.049 855.894 606.814 856.056 605.431C856.218 604.041 855.809 602.575 854.753 601.049V601.048L854.488 600.678C853.108 598.798 850.898 596.536 848.198 593.97C845.315 591.229 841.83 588.101 838.145 584.693C830.758 577.863 822.523 569.863 816.395 561.312C810.261 552.754 806.293 543.72 807.316 534.81C808.305 526.205 813.966 517.572 827.18 509.509L828.482 508.73C829.332 508.234 830.046 507.202 830.724 505.929C831.413 504.635 832.116 502.985 832.902 501.149C834.482 497.461 836.421 492.954 839.334 488.706C842.243 484.463 846.114 480.493 851.547 477.875C856.978 475.258 864.009 473.974 873.27 475.165C878.653 475.858 882.26 474.748 885.725 473.062C889.185 471.379 892.366 469.213 897.127 467.608C897.131 467.608 897.135 467.609 897.139 467.608C897.198 467.607 897.285 467.604 897.399 467.601C897.628 467.593 897.963 467.582 898.391 467.568C899.246 467.541 900.472 467.503 901.951 467.456C904.909 467.362 908.881 467.237 912.938 467.108C921.05 466.852 929.5 466.584 930.848 466.542L931.01 466.537L931.138 466.438C936.938 461.953 942.409 457.056 947.865 452.173C953.326 447.286 958.771 442.413 964.538 437.953C968.309 435.035 971.135 433.459 973.51 432.827C975.855 432.203 977.792 432.491 979.821 433.385C981.886 434.294 984.017 435.814 986.767 437.667C989.5 439.509 992.794 441.642 997.123 443.714L997.307 443.802L997.499 443.736C1011.31 439.067 1021.73 435.359 1029.68 432.493C1037.63 429.626 1043.09 427.607 1046.99 426.312C1050.91 425.013 1053.19 424.47 1054.81 424.502Z" fill="url(#paint0_linear_40_2)" stroke="black"/>
<path d="M1154.59 602.777C1166.07 600.281 1175.64 601.109 1182.62 602.648C1186.11 603.418 1188.96 604.365 1191.08 605.166C1192.14 605.566 1193.02 605.929 1193.71 606.216C1194.14 606.395 1194.51 606.55 1194.8 606.665C1194.81 606.886 1194.87 607.092 1194.96 607.266C1195.1 607.57 1195.34 607.866 1195.53 608.103C1195.74 608.366 1195.9 608.57 1195.99 608.753C1196.07 608.925 1196.04 608.978 1196.03 609.002C1194.68 611.463 1191.67 613.745 1187.5 615.584C1183.34 617.417 1178.08 618.78 1172.32 619.451C1160.81 620.792 1147.38 619.346 1136.85 613.432H1136.85C1135.66 612.759 1135.12 612.142 1134.95 611.633C1134.8 611.166 1134.92 610.663 1135.4 610.082C1135.88 609.492 1136.69 608.888 1137.75 608.29C1138.79 607.695 1140.06 607.125 1141.42 606.591C1146.87 604.451 1153.77 602.952 1154.59 602.777H1154.59Z" fill="#E8EEF8" stroke="black"/>
<path d="M1198.88 595.772C1200.49 595.08 1202.48 594.923 1204.6 595.116C1206.73 595.309 1208.96 595.845 1211.04 596.502C1214.9 597.722 1218.2 599.341 1219.26 599.865C1219.41 600.285 1219.7 600.591 1220.02 600.82C1220.39 601.088 1220.86 601.29 1221.26 601.466C1221.68 601.652 1222.04 601.814 1222.32 602.01C1222.58 602.199 1222.71 602.38 1222.75 602.585L1222.75 602.588C1222.81 602.95 1222.61 603.301 1222.07 603.772C1221.81 604 1221.52 604.213 1221.21 604.455C1220.91 604.687 1220.6 604.944 1220.34 605.225L1220.34 605.228C1218.58 607.208 1216.14 607.749 1213.45 607.362C1210.76 606.974 1207.87 605.652 1205.33 603.984C1202.79 602.316 1200.66 600.333 1199.46 598.671C1198.85 597.831 1198.52 597.124 1198.45 596.613C1198.42 596.366 1198.45 596.196 1198.51 596.08C1198.56 595.97 1198.67 595.861 1198.88 595.774L1198.88 595.772Z" fill="#E8EEF8" stroke="black"/>
<path d="M1177.68 578.217C1179.74 578.247 1181.86 578.548 1184.54 578.929C1187.12 579.296 1190.21 579.73 1194.22 580.054C1194.26 582.052 1194.45 583.822 1194.62 585.335C1194.8 586.985 1194.93 588.281 1194.82 589.288C1194.71 590.257 1194.37 590.874 1193.66 591.265C1192.89 591.687 1191.6 591.891 1189.47 591.776H1189.47C1181.65 591.345 1173.95 589.34 1168.64 587.23C1165.98 586.172 1163.96 585.102 1162.83 584.212C1162.24 583.754 1161.98 583.407 1161.91 583.196C1161.88 583.113 1161.9 583.084 1161.9 583.075C1161.91 583.053 1161.96 582.988 1162.12 582.91L1162.12 582.909C1169.7 579.16 1173.61 578.158 1177.68 578.217Z" fill="#E8EEF8" stroke="black"/>
<path d="M992.958 402.224C1003.27 399.432 1016.85 397.592 1025.9 398.311H1025.91C1026.2 398.331 1026.47 398.512 1026.88 398.816C1027.22 399.063 1027.68 399.415 1028.25 399.508L1033.12 402.254C1031.41 404.52 1030.18 406.372 1029.21 407.899C1028.15 409.538 1027.41 410.764 1026.65 411.742C1025.91 412.703 1025.18 413.396 1024.19 413.953C1023.18 414.515 1021.87 414.952 1019.96 415.361H1019.95C1015.86 416.244 1008.09 416.881 1000.17 416.417C996.218 416.186 992.244 415.68 988.691 414.799C985.133 413.917 982.03 412.665 979.788 410.963L979.623 410.833C979.26 410.53 979.042 410.244 978.928 409.982C978.802 409.694 978.789 409.407 978.882 409.103C979.08 408.454 979.773 407.692 981.028 406.869C983.508 405.243 987.795 403.622 992.958 402.224Z" fill="#E8EEF8" stroke="black"/>
<path d="M1040.78 395.064C1046.75 392.469 1050.79 391.991 1053.41 392.15C1054.73 392.23 1055.7 392.47 1056.39 392.693C1056.74 392.806 1057.02 392.913 1057.25 393.001C1057.43 393.067 1057.63 393.142 1057.81 393.174C1060.99 394.199 1062.67 394.606 1063.57 394.828C1063.96 394.923 1064.15 394.975 1064.25 395.013C1064.31 395.607 1064.06 396.194 1063.64 396.858C1063.43 397.2 1063.18 397.533 1062.93 397.893C1062.69 398.243 1062.44 398.614 1062.24 398.998C1059.04 405.055 1051.82 405.946 1045.24 404.824C1041.97 404.268 1038.93 403.225 1036.76 402.139C1035.67 401.594 1034.82 401.049 1034.27 400.563C1033.99 400.32 1033.81 400.108 1033.7 399.935C1033.6 399.759 1033.6 399.671 1033.61 399.646L1033.61 399.642C1033.63 399.529 1033.71 399.36 1033.89 399.136C1034.07 398.917 1034.33 398.679 1034.65 398.428C1035.28 397.925 1036.11 397.407 1036.97 396.928C1038.69 395.972 1040.45 395.207 1040.78 395.065V395.064Z" fill="#E8EEF8" stroke="black"/>
<path d="M1019.42 381.553C1023.15 380.374 1028.1 380.236 1035.79 383.911C1035.94 384.583 1036.44 385.092 1036.8 385.47C1037.03 385.712 1037.23 385.917 1037.38 386.13C1037.52 386.333 1037.59 386.513 1037.61 386.692C1037.61 386.839 1037.56 387.039 1037.4 387.294C1037.24 387.55 1036.99 387.832 1036.65 388.126C1035.97 388.714 1034.97 389.304 1033.76 389.783C1031.34 390.743 1028.19 391.219 1025.28 390.419V390.418C1022.67 389.701 1020.14 388.706 1017.58 387.695C1015.52 386.882 1013.44 386.06 1011.31 385.378C1012.34 384.967 1013.34 384.427 1014.36 383.873C1015.9 383.034 1017.51 382.155 1019.42 381.553Z" fill="#E8EEF8" stroke="black"/>
</g>
</g>
<path d="M97.5576 302L428.999 376.472V1443H97.5576V302Z" fill="url(#paint1_linear_40_2)"/>
<path d="M97.5576 302L-70.0006 376.472V1443H97.5576V302Z" fill="url(#paint2_linear_40_2)"/>
<path d="M132.306 363.745L127.688 702.012M142.773 702.452L147.246 366.682M166.129 366.051L161.512 704.318M176.596 704.758L181.069 368.988M204.627 377.016L200.01 715.283M215.095 715.723L219.567 379.953M238.45 379.322L233.833 717.589M248.918 718.029L253.39 382.259M277.784 387.007L273.167 725.274M288.252 725.714L292.724 389.944M311.607 389.313L306.99 727.58M322.075 728.02L326.547 392.25M350.106 400.278L345.488 738.545M360.573 738.985L365.045 403.215M384.888 402.594L380.271 740.861M394.396 741.291L398.868 405.521" stroke="white" stroke-width="4" stroke-dasharray="6 12 18 24"/>
<path d="M64.0044 363.745L65.9566 702.012M59.5793 702.452L57.6886 366.682M49.7052 366.051L51.6574 704.318M45.2801 704.758L43.3894 368.988M33.4296 377.016L35.3818 715.283M29.0044 715.723L27.1137 379.953M19.1304 379.322L21.0826 717.589M14.7052 718.029L12.8145 382.259M2.50141 387.007L4.45357 725.274M-1.92376 725.714L-3.81445 389.944M-11.7978 389.313L-9.84563 727.58M-16.223 728.02L-18.1136 392.25M-28.0734 400.278L-26.1213 738.545M-32.4986 738.985L-34.3893 403.215M-42.7783 402.594L-40.8261 740.861M-46.7978 741.291L-48.6885 405.521" stroke="#D5849E" stroke-width="2" stroke-dasharray="6 12 18 24"/>
<path d="M64.0044 725.855L65.9566 1064.12M59.5793 1064.56L57.6886 728.792M49.7052 728.161L51.6574 1066.43M45.2801 1066.87L43.3894 731.098M33.4296 739.126L35.3818 1077.39M29.0044 1077.83L27.1137 742.063M19.1304 741.432L21.0826 1079.7M14.7052 1080.14L12.8145 744.369M2.50141 749.117L4.45357 1087.38M-1.92376 1087.82L-3.81445 752.054M-11.7978 751.423L-9.84563 1089.69M-16.223 1090.13L-18.1136 754.36M-28.0734 762.388L-26.1213 1100.66M-32.4986 1101.1L-34.3893 765.325M-42.7783 764.704L-40.8261 1102.97M-46.7978 1103.4L-48.6885 767.631" stroke="#D5849E" stroke-width="2" stroke-dasharray="6 12 18 24"/>
<path d="M64.0044 1103.4L65.9566 1380.58M59.5793 1380.94L57.6886 1105.81M49.7052 1105.29L51.6574 1382.47M45.2801 1382.83L43.3894 1107.7M33.4296 1114.28L35.3818 1391.46M29.0044 1391.82L27.1137 1116.68M19.1304 1116.17L21.0826 1393.35M14.7052 1393.71L12.8145 1118.57M2.50141 1122.46L4.45357 1399.65M-1.92376 1400.01L-3.81445 1124.87M-11.7978 1124.35L-9.84563 1401.54M-16.223 1401.9L-18.1136 1126.76M-28.0734 1133.34L-26.1213 1410.52M-32.4986 1410.88L-34.3893 1135.74M-42.7783 1135.24L-40.8261 1412.42M-46.7978 1412.77L-48.6885 1137.63" stroke="#D5849E" stroke-width="2" stroke-dasharray="6 12 18 24"/>
<path d="M132.306 725.855L127.688 1064.12M142.773 1064.56L147.246 728.792M166.129 728.161L161.512 1066.43M176.596 1066.87L181.069 731.098M204.627 739.126L200.01 1077.39M215.095 1077.83L219.567 742.063M238.45 741.432L233.833 1079.7M248.918 1080.14L253.39 744.369M277.784 749.117L273.167 1087.38M288.252 1087.82L292.724 752.054M311.607 751.423L306.99 1089.69M322.075 1090.13L326.547 754.36M350.106 762.388L345.488 1100.66M360.573 1101.1L365.045 765.325M384.888 764.704L380.271 1102.97M394.396 1103.4L398.868 767.631" stroke="white" stroke-width="4" stroke-dasharray="6 12 18 24"/>
<path d="M132.306 1103.4L127.688 1380.58M142.773 1380.94L147.246 1105.81M166.129 1105.29L161.512 1382.47M176.596 1382.83L181.069 1107.7M204.627 1114.28L200.01 1391.46M215.095 1391.82L219.567 1116.68M238.45 1116.17L233.833 1393.35M248.918 1393.71L253.39 1118.57M277.784 1122.46L273.167 1399.65M288.252 1400.01L292.724 1124.87M311.607 1124.35L306.99 1401.54M322.075 1401.9L326.547 1126.76M350.106 1133.34L345.488 1410.52M360.573 1410.88L365.045 1135.74M384.888 1135.24L380.271 1412.42M394.396 1412.77L398.868 1137.63" stroke="white" stroke-width="4" stroke-dasharray="6 12 18 24"/>
<path d="M1125.06 819L870 859.716V1442.82H1125.06V819Z" fill="url(#paint3_linear_40_2)"/>
<path d="M1125.06 819L1254 859.716V1442.82H1125.06V819Z" fill="url(#paint4_linear_40_2)"/>
<path d="M1098.32 852.758L1101.87 1037.7M1090.26 1037.94L1086.82 854.364M1072.29 854.019L1075.84 1038.96M1064.23 1039.2L1060.79 855.624M1042.66 860.014L1046.22 1044.95M1034.61 1045.19L1031.17 861.619M1016.64 861.274L1020.19 1046.21M1008.58 1046.46L1005.14 862.88M986.366 865.476L989.92 1050.42M978.311 1050.66L974.87 867.082M960.338 866.737L963.891 1051.68M952.283 1051.92L948.842 868.342M930.712 872.732L934.266 1057.67M922.657 1057.91L919.216 874.337M903.946 873.998L907.499 1058.94M896.629 1059.17L893.188 875.598" stroke="#FF7D9C" stroke-width="4" stroke-dasharray="6 12 18 24"/>
<path d="M1150.88 852.758L1149.38 1037.7M1154.28 1037.94L1155.74 854.364M1161.88 854.019L1160.38 1038.96M1165.29 1039.2L1166.74 855.624M1174.41 860.014L1172.9 1044.95M1177.81 1045.19L1179.27 861.619M1185.41 861.274L1183.91 1046.21M1188.82 1046.46L1190.27 862.88M1198.21 865.476L1196.7 1050.42M1201.61 1050.66L1203.07 867.082M1209.21 866.737L1207.71 1051.68M1212.62 1051.92L1214.07 868.342M1221.74 872.732L1220.23 1057.67M1225.14 1057.91L1226.6 874.337M1233.05 873.998L1231.55 1058.94M1236.14 1059.17L1237.6 875.598" stroke="#D5849E" stroke-width="2" stroke-dasharray="6 12 18 24"/>
<path d="M1150.88 1050.73L1149.38 1235.67M1154.28 1235.91L1155.74 1052.34M1161.88 1051.99L1160.38 1236.93M1165.29 1237.18L1166.74 1053.6M1174.41 1057.99L1172.9 1242.93M1177.81 1243.17L1179.27 1059.6M1185.41 1059.25L1183.91 1244.19M1188.82 1244.43L1190.27 1060.86M1198.21 1063.45L1196.7 1248.39M1201.61 1248.63L1203.07 1065.06M1209.21 1064.71L1207.71 1249.65M1212.62 1249.89L1214.07 1066.32M1221.74 1070.71L1220.23 1255.65M1225.14 1255.89L1226.6 1072.31M1233.05 1071.97L1231.55 1256.91M1236.14 1257.15L1237.6 1073.57" stroke="#D5849E" stroke-width="2" stroke-dasharray="6 12 18 24"/>
<path d="M1150.88 1257.15L1149.38 1408.69M1154.28 1408.89L1155.74 1258.47M1161.88 1258.18L1160.38 1409.73M1165.29 1409.92L1166.74 1259.5M1174.41 1263.09L1172.9 1414.64M1177.81 1414.84L1179.27 1264.41M1185.41 1264.13L1183.91 1415.67M1188.82 1415.87L1190.27 1265.44M1198.21 1267.57L1196.7 1419.11M1201.61 1419.31L1203.07 1268.89M1209.21 1268.6L1207.71 1420.15M1212.62 1420.34L1214.07 1269.92M1221.74 1273.52L1220.23 1425.06M1225.14 1425.26L1226.6 1274.83M1233.05 1274.55L1231.55 1426.1M1236.14 1426.29L1237.6 1275.87" stroke="#D5849E" stroke-width="2" stroke-dasharray="6 12 18 24"/>
<path d="M1098.32 1050.73L1101.87 1235.67M1090.26 1235.91L1086.82 1052.34M1072.29 1051.99L1075.84 1236.93M1064.23 1237.18L1060.79 1053.6M1042.66 1057.99L1046.22 1242.93M1034.61 1243.17L1031.17 1059.6M1016.64 1059.25L1020.19 1244.19M1008.58 1244.43L1005.14 1060.86M986.366 1063.45L989.92 1248.39M978.311 1248.63L974.87 1065.06M960.338 1064.71L963.891 1249.65M952.283 1249.89L948.842 1066.32M930.712 1070.71L934.266 1255.65M922.657 1255.89L919.216 1072.31M903.946 1071.97L907.499 1256.91M896.629 1257.15L893.188 1073.57" stroke="#FF7D9C" stroke-width="4" stroke-dasharray="6 12 18 24"/>
<path d="M1098.32 1257.15L1101.87 1408.69M1090.26 1408.89L1086.82 1258.47M1072.29 1258.18L1075.84 1409.73M1064.23 1409.92L1060.79 1259.5M1042.66 1263.09L1046.22 1414.64M1034.61 1414.84L1031.17 1264.41M1016.64 1264.13L1020.19 1415.67M1008.58 1415.87L1005.14 1265.44M986.366 1267.57L989.92 1419.11M978.311 1419.31L974.87 1268.89M960.338 1268.6L963.891 1420.15M952.283 1420.34L948.842 1269.92M930.712 1273.52L934.266 1425.06M922.657 1425.26L919.216 1274.83M903.946 1274.55L907.499 1426.1M896.629 1426.29L893.188 1275.87" stroke="#FF7D9C" stroke-width="4" stroke-dasharray="6 12 18 24"/>
<path d="M1367.86 589.04L1065.7 657.472V1637.5H1367.86V589.04Z" fill="url(#paint5_linear_40_2)"/>
<path d="M1367.86 589.04L1520.61 657.472V1637.5H1367.86V589.04Z" fill="url(#paint6_linear_40_2)"/>
<path d="M1336.18 645.777L1340.39 956.609M1326.64 957.013L1322.56 648.476M1305.35 647.896L1309.55 958.727M1295.8 959.132L1291.73 650.595M1270.25 657.972L1274.46 968.803M1260.71 969.208L1256.63 660.671M1239.41 660.091L1243.62 970.922M1229.87 971.327L1225.8 662.79M1203.56 667.152L1207.77 977.984M1194.01 978.388L1189.94 669.851M1172.72 669.271L1176.93 980.103M1163.18 980.507L1159.1 671.97M1137.63 679.347L1141.84 990.179M1128.08 990.583L1124.01 682.046M1105.92 681.475L1110.13 992.307M1097.25 992.702L1093.17 684.165" stroke="white" stroke-width="4" stroke-dasharray="6 12 18 24"/>
<path d="M1398.45 645.777L1396.67 956.609M1402.48 957.013L1404.2 648.476M1411.48 647.896L1409.7 958.727M1415.52 959.132L1417.24 650.595M1426.32 657.972L1424.54 968.803M1430.35 969.208L1432.08 660.671M1439.35 660.091L1437.57 970.922M1443.39 971.327L1445.11 662.79M1454.51 667.152L1452.73 977.984M1458.55 978.388L1460.27 669.851M1467.55 669.271L1465.77 980.103M1471.58 980.507L1473.31 671.97M1482.39 679.347L1480.61 990.179M1486.42 990.583L1488.15 682.046M1495.79 681.475L1494.01 992.307M1499.46 992.702L1501.18 684.165" stroke="#D5849E" stroke-width="2" stroke-dasharray="6 12 18 24"/>
<path d="M1398.45 978.518L1396.67 1289.35M1402.48 1289.75L1404.2 981.217M1411.48 980.637L1409.7 1291.47M1415.52 1291.87L1417.24 983.336M1426.32 990.713L1424.54 1301.54M1430.35 1301.95L1432.08 993.412M1439.35 992.832L1437.57 1303.66M1443.39 1304.07L1445.11 995.531M1454.51 999.894L1452.73 1310.73M1458.55 1311.13L1460.27 1002.59M1467.55 1002.01L1465.77 1312.84M1471.58 1313.25L1473.31 1004.71M1482.39 1012.09L1480.61 1322.92M1486.42 1323.32L1488.15 1014.79M1495.79 1014.22L1494.01 1325.05M1499.46 1325.44L1501.18 1016.91" stroke="#D5849E" stroke-width="2" stroke-dasharray="6 12 18 24"/>
<path d="M1398.45 1325.44L1396.67 1580.15M1402.48 1580.48L1404.2 1327.66M1411.48 1327.18L1409.7 1581.88M1415.52 1582.21L1417.24 1329.39M1426.32 1335.44L1424.54 1590.14M1430.35 1590.47L1432.08 1337.65M1439.35 1337.17L1437.57 1591.87M1443.39 1592.21L1445.11 1339.38M1454.51 1342.96L1452.73 1597.66M1458.55 1597.99L1460.27 1345.17M1467.55 1344.7L1465.77 1599.4M1471.58 1599.73L1473.31 1346.91M1482.39 1352.95L1480.61 1607.65M1486.42 1607.99L1488.15 1355.16M1495.79 1354.7L1494.01 1609.4M1499.46 1609.72L1501.18 1356.9" stroke="#D5849E" stroke-width="2" stroke-dasharray="6 12 18 24"/>
<path d="M1336.18 978.518L1340.39 1289.35M1326.64 1289.75L1322.56 981.217M1305.35 980.637L1309.55 1291.47M1295.8 1291.87L1291.73 983.336M1270.25 990.713L1274.46 1301.54M1260.71 1301.95L1256.63 993.412M1239.41 992.832L1243.62 1303.66M1229.87 1304.07L1225.8 995.531M1203.56 999.894L1207.77 1310.73M1194.01 1311.13L1189.94 1002.59M1172.72 1002.01L1176.93 1312.84M1163.18 1313.25L1159.1 1004.71M1137.63 1012.09L1141.84 1322.92M1128.08 1323.32L1124.01 1014.79M1105.92 1014.22L1110.13 1325.05M1097.25 1325.44L1093.17 1016.91" stroke="white" stroke-width="4" stroke-dasharray="6 12 18 24"/>
<path d="M1336.18 1325.44L1340.39 1580.15M1326.64 1580.48L1322.56 1327.66M1305.35 1327.18L1309.55 1581.88M1295.8 1582.21L1291.73 1329.39M1270.25 1335.44L1274.46 1590.14M1260.71 1590.47L1256.63 1337.65M1239.41 1337.17L1243.62 1591.87M1229.87 1592.21L1225.8 1339.38M1203.56 1342.96L1207.77 1597.66M1194.01 1597.99L1189.94 1345.17M1172.72 1344.7L1176.93 1599.4M1163.18 1599.73L1159.1 1346.91M1137.63 1352.95L1141.84 1607.65M1128.08 1607.99L1124.01 1355.16M1105.92 1354.7L1110.13 1609.4M1097.25 1609.72L1093.17 1356.9" stroke="white" stroke-width="4" stroke-dasharray="6 12 18 24"/>
<path d="M1524.25 1941.91L1304.25 1941.91C1304.25 1941.91 1052.53 1883.61 995.252 1941.91C914.664 2023.95 103.972 1960.93 8.75134 2025.41C-174.253 2149.35 173.711 2199.87 -44.7487 2233.41C-232.749 2262.28 -149.749 2404.91 -149.749 2404.91V2758.41V3344.41C-149.749 3344.41 -36.8099 3979.43 190.5 3849.5C441.732 3705.89 1507.5 3897.5 1722.5 3743C1937.5 3588.5 1524.25 2154.41 1524.25 2154.41L1601.25 1977.41L1524.25 1941.91Z" fill="url(#paint7_linear_40_2)"/>
<path d="M1474.44 1432.7L1254.41 1432.7C1254.41 1432.7 1002.66 1370.37 945.378 1432.7C864.782 1520.41 54.0011 1453.03 -41.2294 1521.97C-224.254 1654.45 123.748 1708.46 -94.7352 1744.32C-282.756 1775.18 -199.747 1927.66 -199.747 1927.66V2305.56L-371.499 2838C-371.499 2838 -61.2352 2804.5 295 2838C588.153 2865.57 1412.48 2728.16 1627.5 2563C1842.52 2397.84 1474.44 1659.87 1474.44 1659.87L1551.44 1470.65L1474.44 1432.7Z" fill="#869FAC"/>
<path d="M802.399 1304C805.65 1304 816.204 1308.64 825.855 1314.31C854.193 1330.96 859.552 1332.63 884.759 1332.63C908.349 1332.63 908.417 1332.65 921.251 1344.78C932.923 1355.81 935.51 1356.91 949.448 1356.78C957.892 1356.69 971.77 1355.57 980.289 1354.27C994.898 1352.05 997.105 1352.61 1019.19 1364.25L1042.59 1376.59L1057.83 1372.74C1066.21 1370.62 1079.18 1368.34 1086.67 1367.67C1098.63 1366.6 1101.83 1367.69 1113.31 1376.74C1130.42 1390.22 1139.35 1389.92 1167.93 1374.85L1191.01 1362.68H1225.54C1270.94 1362.68 1278.78 1364.42 1311.32 1381.69C1341.91 1397.94 1393.27 1402 1453 1417C1529.42 1436.2 1961.49 1479.38 1299.5 1479.5H-73.5L-48 1426C-38.1466 1415.19 337.499 1425.07 382.451 1397.59C436.98 1364.27 445.969 1361.64 472.675 1371.23C499.209 1380.76 524.207 1380.64 561.705 1370.82C585.675 1364.53 599.777 1362.9 641.956 1361.51L693.132 1359.82L725.621 1340.71C743.487 1330.21 766.741 1317.64 777.303 1312.8C787.864 1307.96 799.157 1304 802.399 1304Z" fill="#72955A"/>
<path d="M660.81 1379.4C680.178 1378.69 676.295 1378.09 700.004 1385.48C718.267 1391.17 721.155 1393.11 731.802 1406.85C745.693 1424.76 757.358 1432.49 780.081 1438.83C801.493 1444.8 821.035 1444.94 829.014 1439.18C832.314 1436.8 839.583 1433.62 845.162 1432.1C858.872 1428.4 869.889 1433.2 881.231 1447.82C893.235 1463.29 912.761 1472.83 935.933 1474.57C946.074 1475.33 957.447 1477.33 961.22 1479.01C964.985 1480.7 974.457 1482.08 982.255 1482.08C991.915 1482.08 1000.19 1483.88 1008.16 1487.73C1014.61 1490.83 1025.46 1493.94 1032.29 1494.63C1039.11 1495.33 1052.3 1497.39 1061.6 1499.2C1070.89 1501.01 1084.18 1502.51 1091.12 1502.53C1098.07 1502.55 1106.09 1503.55 1108.96 1504.76C1112.34 1506.19 901.056 1506.98 509.187 1507C-39.3062 1507.03 -95.999 1506.7 -97.9094 1503.44C-101.745 1496.92 -100.104 1485.44 -94.6109 1480.32C-88.1785 1474.32 -65.3766 1473.45 -51.3833 1478.68C-34.8963 1484.83 -25.4256 1482.98 -4.93705 1469.6C9.60848 1460.1 16.6254 1457.13 24.4466 1457.13C31.7472 1457.13 39.8143 1454.13 52.3475 1446.77C73.3102 1434.47 131.019 1416.75 156.583 1414.77C170.758 1413.67 176.164 1414.35 186.464 1418.5C204.735 1425.88 255.365 1426.87 282.215 1420.37C292.681 1417.85 309.152 1414.99 318.828 1414.02C336.026 1412.3 360.28 1405.28 381.14 1396C395.299 1389.7 404.856 1390.15 418.368 1397.76C424.643 1401.29 432.465 1404.82 435.756 1405.6C439.047 1406.38 447.492 1412.26 454.532 1418.65C466.781 1429.78 467.855 1430.21 479.82 1428.79C494.405 1427.06 514.838 1418.73 514.87 1414.49C514.893 1411.71 517.443 1409.22 528.287 1401.39C532.439 1398.39 534.768 1398.67 548.011 1403.74C556.273 1406.9 564.67 1409.49 566.683 1409.49C568.696 1409.49 580.598 1403.41 593.131 1396C616.903 1381.93 621.245 1380.87 660.81 1379.4Z" fill="#AED195"/>
<path d="M547.847 1356.52C547.847 1375.81 517.04 1391.24 479.785 1395.1C461.874 1404.21 415.664 1420.18 374.111 1398.32C348.438 1408.5 284.198 1418.57 232.614 1383.85C220.077 1368.84 202.524 1334.65 232.614 1317.93C223.659 1306.68 214.703 1278.06 250.525 1253.62C269.63 1251.48 317.154 1241.41 354.409 1218.25C356.2 1227.9 369.454 1244.3 408.141 1232.72C459.486 1215.04 558.593 1193.17 594.415 1247.19C568.146 1241.83 535.309 1253.62 535.309 1272.92C536.018 1268.09 551.071 1250.41 563.966 1282.56C587.848 1270.77 642.058 1265.52 667.85 1338.83C640.386 1332.4 577.937 1326.93 547.847 1356.52Z" fill="#D985A0"/>
<path d="M431.196 1445.94C441.349 1445.94 453.413 1458.42 449.113 1521.14C431.196 1525.94 455.921 1518.9 418.654 1522.74C414.474 1522.74 409.338 1496.82 407.904 1469.94C407.904 1465.67 413.996 1465.14 381.029 1433.14C358.932 1432.07 291.445 1422.9 277.112 1388.34C284.875 1395.8 302.195 1413.3 345.196 1423.54C352.96 1419.27 367.412 1398.58 341.612 1375.54C317.723 1363.27 274.245 1342.89 277.112 1333.93L327.863 1362.07C322.316 1358.17 305.333 1339.01 300.403 1324.33C307.57 1332.87 322.262 1356.98 359.529 1365.94C359.529 1361.67 364.546 1344.49 348.779 1329.13C366.354 1311.96 343.404 1312.49 314.737 1297.13L368.487 1309.93C363.112 1313.67 358.095 1325.93 381.029 1345.13C385.21 1336.6 399.662 1318.89 424.029 1316.33C420.446 1317.93 409.338 1325.29 393.571 1341.93C389.987 1359 388.912 1400.82 413.279 1431.54C418.654 1431.01 432.988 1417.46 447.321 1367.54C446.127 1350.47 449.471 1315.05 472.405 1309.93C462.849 1322.2 447.68 1351.86 463.446 1372.34C474.196 1368.6 498.563 1357.3 510.03 1341.93C513.613 1327 528.305 1298.09 558.405 1301.93C490.322 1345.13 549.447 1324.97 499.28 1372.34C483.155 1372.87 439.796 1393.46 431.196 1445.94Z" fill="#9C7B63"/>
<path d="M70.2256 1167.81C62.1099 1149.94 84.1479 1125.22 117.026 1109.05C129.781 1094.55 165.859 1064.12 213.539 1070.31C233.031 1052.2 288.286 1021.13 350.665 1035.83C368.589 1045.49 399.227 1071.21 378.394 1096.88C391.422 1104.27 411.754 1127.74 388.859 1162.49C372.067 1170.94 332.294 1196.35 307.531 1230.4C301.815 1222.07 282.642 1211.37 251.682 1235.18C211.571 1268.93 128.986 1322.71 73.0875 1284.81C99.6699 1280.88 125.121 1258.85 117.005 1240.99C118.377 1245.69 111.876 1267.16 86.4073 1241.75C69.2505 1260.75 21.2554 1283.96 -33.47 1224.79C-5.33092 1221.45 54.803 1205.38 70.2256 1167.81Z" fill="#FFB1C9"/>
<path d="M254.098 1286.16C254.669 1305.45 224.33 1321.61 187.202 1326.35C169.567 1335.89 123.846 1352.95 81.6604 1332.09C56.2985 1342.88 -7.62108 1354.48 -60.2143 1320.99C-73.1917 1306.29 -91.7504 1272.53 -62.1656 1255.1C-71.4511 1244.06 -81.2505 1215.67 -46.1647 1190.39C-27.1299 1187.79 36.3493 1170.88 72.9056 1146.85C74.9816 1156.45 72.4458 1178.23 110.777 1165.74C161.58 1146.84 260.005 1122.63 297.413 1175.77C270.995 1171.04 238.519 1183.61 239.09 1202.89C239.656 1198.05 254.179 1180.02 268.023 1211.85C291.546 1199.5 332.635 1182.43 360.588 1255.1C332.944 1249.32 283.302 1255.88 254.098 1286.16Z" fill="#FFB1C9"/>
<path d="M132.908 1406.14C122.859 1407.44 113.594 1425.63 131.298 1508.76C150.061 1512.87 124.079 1506.64 161.788 1507C165.926 1506.46 165.452 1471.22 161.107 1435.18C160.192 1429.49 177.688 1378.85 203.457 1331.94C194.857 1327.25 185.885 1334.8 206.481 1300.76C227.495 1281.34 266.16 1248.59 261.402 1237.01L217.201 1281.03C221.855 1275.12 234.557 1247.39 236.29 1227.18C231.026 1239.48 221.654 1273.52 186.689 1290.24C185.888 1285.26 183.67 1248.16 171.576 1225.37C170.254 1221.05 167.945 1218.17 165.815 1216.68C167.95 1219.2 169.862 1222.15 171.576 1225.37C174.052 1233.47 173.064 1246.63 160.949 1265.25C154.981 1254.4 136.88 1232.62 112.213 1232.33C116.103 1234 128.676 1242.4 147.849 1262.58C155.055 1284.89 165.085 1340.54 147.554 1384.64C142.119 1384.61 125.028 1368.38 100.138 1303.61C97.6606 1280.69 86.7572 1233.87 62.9605 1229.98C75.0485 1245.12 96.421 1282.74 85.2065 1312.08C73.766 1308.47 47.2241 1296.51 32.5811 1277.48C25.8325 1258.02 5.09303 1221.33 -23.876 1230.31C52.7742 1279.23 -10.0691 1259.9 49.7394 1316.66C65.814 1315.31 113.143 1337.23 132.908 1406.14Z" fill="#9C7B63"/>
<path d="M1375.8 1306.07C1382.97 1324.26 1417.75 1329.6 1454.31 1322.11C1474.58 1325.34 1524.08 1326.58 1555.13 1293.55C1583.12 1295.47 1647.43 1285.77 1683.16 1237.61C1689.4 1219.71 1693.25 1182.23 1658.66 1175.46C1662.92 1162.18 1660.73 1132.52 1617.88 1120.19C1599.07 1123.88 1550.52 1128.58 1506.79 1117.89C1508.69 1127.52 1502.28 1146.95 1461.51 1147.6C1406.53 1146.27 1304.96 1155.29 1291.26 1216.92C1314.04 1204.02 1349.38 1205.32 1356.55 1223.51C1354.09 1219.17 1333.32 1207 1333.11 1241.17C1306.22 1237.19 1253.15 1248.44 1256.08 1325.27C1279.59 1311 1336.43 1287.18 1375.8 1306.07Z" fill="#FFB1C9"/>
<path d="M1425.54 1108.05C1411.68 1093.3 1377.04 1099.3 1345.77 1117.88C1325.53 1121.26 1278.72 1135.75 1262.65 1176.48C1235.7 1183.53 1179.33 1212.94 1164.83 1269.31C1166.02 1288.03 1177.16 1324.32 1212.18 1319.72C1213.42 1333.5 1227.13 1360.56 1272.08 1358.55C1288.23 1349.15 1348.2 1323.96 1393.32 1320.14C1387.76 1311.73 1369.73 1296.96 1407.63 1283.45C1459.61 1267.31 1551.11 1226.76 1539.7 1164.75C1523.46 1184.03 1489.87 1193.99 1476.01 1179.23C1480.02 1182.51 1504.24 1187.34 1491 1155.3C1517.73 1150.51 1561.09 1138.79 1528.15 1067.82C1511.76 1088.61 1469.81 1113.29 1425.54 1108.05Z" fill="#FFB1C9"/>
<path d="M1422.03 1388.41C1432.08 1389.71 1441.34 1407.9 1423.64 1491.03C1404.88 1495.14 1430.86 1488.91 1393.15 1489.26C1389.01 1488.73 1389.49 1453.49 1393.83 1417.45C1394.75 1411.76 1377.25 1361.12 1351.48 1314.21C1360.08 1309.51 1369.05 1317.07 1348.46 1283.03C1327.44 1263.61 1288.78 1230.86 1293.54 1219.28L1337.74 1263.3C1333.08 1257.39 1320.38 1229.65 1318.65 1209.45C1323.91 1221.75 1333.28 1255.79 1368.25 1272.51C1369.05 1267.53 1371.27 1230.43 1383.36 1207.64C1384.68 1203.32 1386.99 1200.44 1389.12 1198.95C1386.99 1201.47 1385.08 1204.41 1383.36 1207.64C1380.89 1215.74 1381.87 1228.9 1393.99 1247.51C1399.96 1236.66 1418.06 1214.89 1442.73 1214.59C1438.84 1216.27 1426.26 1224.67 1407.09 1244.85C1399.88 1267.16 1389.85 1322.8 1407.38 1366.91C1412.82 1366.88 1429.91 1350.64 1454.8 1285.88C1457.28 1262.96 1468.18 1216.14 1491.98 1212.24C1479.89 1227.39 1458.52 1265.01 1469.73 1294.35C1481.17 1290.74 1507.71 1278.77 1522.36 1259.75C1529.11 1240.28 1549.85 1203.6 1578.81 1212.57C1502.16 1261.5 1565.01 1242.17 1505.2 1298.93C1489.12 1297.58 1441.8 1319.5 1422.03 1388.41Z" fill="#9C7B63"/>
<path d="M218.881 1948.38L1144.9 1829.04L1866 2016.75L925.77 2223.69L218.881 1948.38Z" fill="#F8E8E8"/>
<path d="M318.83 1953.68C305.82 1949.1 307.629 1930.19 321.238 1928.53L1137.6 1828.77C1139.18 1828.58 1140.79 1828.68 1142.34 1829.06L1726.45 1974.7C1739.92 1978.06 1739.77 1997.28 1726.25 2000.05L922.924 2164.49C920.616 2164.96 918.214 2164.8 915.976 2164.01L318.83 1953.68Z" fill="#B49C8A"/>
<path d="M-57.5996 1624.28V1603.59L435.556 1668.66L-57.5996 1695.64V1624.28Z" fill="#F8E8E8"/>
<path d="M-207.605 1613.33V1582.43C-207.605 1580.61 -206.007 1579.21 -204.208 1579.45L357.199 1654.55C360.83 1655.03 360.589 1660.36 356.929 1660.52L-204.477 1684.56C-206.183 1684.63 -207.605 1683.27 -207.605 1681.56V1613.33Z" fill="#B49C8A"/>
<path d="M-263 1722.75L464.478 1675.85L1144.4 1819.78L203.082 1935.23L-263 1722.75Z" fill="#F8E8E8"/>
<path d="M-107.131 1746.6C-123.803 1739.83 -119.903 1715.19 -101.955 1713.9L469.959 1672.72C471.526 1672.61 473.101 1672.72 474.64 1673.04L969.364 1775.88C988.3 1779.82 987.011 1807.28 967.789 1809.42L250.128 1889.47C247.315 1889.78 244.469 1889.39 241.847 1888.33L-107.131 1746.6Z" fill="#B49C8A"/>
<path d="M1075.86 1914.27C1063.34 1905.23 1016.55 1797.84 1031.29 1512.54L1082.15 1466.74L1082.15 1255.17L942.245 1186.73L801.681 1255.17L801.681 1464.22L858.849 1512.54C870.881 1531.19 895.6 1790.23 822.098 1905.74L822.098 1971.52L787.605 1976.02L787.605 2043.08C839.189 2071.82 989.919 2095.68 1123.17 2043.08L1116.28 1976.02L1075.86 1970.25L1075.86 1914.27Z" fill="#5E4747"/>
<path d="M834.862 1911.28C834.862 1911.28 903.993 1930.16 947.664 1930.24C992.433 1930.32 1060.47 1911.28 1060.47 1911.28V1972.89H834.862V1911.28Z" fill="#9C7B63"/>
<path d="M821.784 1457.9C821.784 1457.9 905.272 1475.61 949.079 1475.69C993.986 1475.77 1073.55 1457.9 1073.55 1457.9L1019.8 1502.96H872.702L821.784 1457.9Z" fill="#9C7B63"/>
<path d="M803.256 1984.85C803.256 1984.85 892.537 1993.1 950.112 1993.18C1009.13 1993.26 1100.69 1984.85 1100.69 1984.85L1110.6 2036.04C1110.6 2036.04 1014.17 2058.48 950.112 2057.47C891.255 2056.54 803.256 2036.04 803.256 2036.04V1984.85Z" fill="#9C7B63"/>
<ellipse cx="944.94" cy="1354.9" rx="110.077" ry="92.8824" fill="#9C7B63"/>
<path d="M946.03 1275.48C997.818 1275.48 1039.35 1310.85 1039.35 1353.98C1039.35 1397.11 997.818 1432.49 946.03 1432.49C894.243 1432.49 852.711 1397.11 852.711 1353.98C852.711 1310.85 894.243 1275.48 946.03 1275.48Z" fill="#FFE097" stroke="#543737" stroke-width="3"/>
<path d="M947.665 1556.14C958.348 1556.14 968.117 1558.73 975.281 1563.03C982.2 1567.17 986.983 1573.12 987.253 1580.05H987.266V1855.34H987.001C985.906 1861.4 981.46 1866.62 975.296 1870.39C968.129 1874.77 958.355 1877.41 947.665 1877.41C936.975 1877.41 927.201 1874.77 920.034 1870.39C913.87 1866.62 909.424 1861.4 908.329 1855.34H908.064V1580.05H908.078C908.348 1573.12 913.131 1567.17 920.05 1563.03C927.214 1558.73 936.982 1556.14 947.665 1556.14Z" fill="#FFE097" stroke="#543737" stroke-width="4"/>
<path d="M944.363 1302.48V1302.26L946.247 1301.98L934.45 1287.37L932.645 1287.08V1286.86H939.76V1287.08L937.903 1287.34L949.726 1301.98L951.504 1302.26V1302.48H944.363ZM932.567 1302.48V1302.26L934.372 1302L940.702 1294.89L941.355 1295.73H940.466L938.06 1298.51C937.728 1298.88 937.493 1299.22 937.353 1299.53C937.214 1299.84 937.144 1300.12 937.144 1300.39C937.144 1300.89 937.388 1301.31 937.877 1301.65C938.382 1301.97 939.123 1302.18 940.1 1302.26V1302.48H932.567ZM942.794 1293.55H943.5L946.011 1290.7C946.412 1290.3 946.691 1289.96 946.848 1289.66C947.005 1289.37 947.084 1289.11 947.084 1288.89C947.084 1288.56 946.979 1288.28 946.77 1288.03C946.561 1287.78 946.247 1287.57 945.828 1287.41C945.427 1287.23 944.913 1287.12 944.285 1287.08V1286.86H951.531V1287.08L949.935 1287.34L943.37 1294.27L942.794 1293.55Z" fill="#9C7B63"/>
<path d="M956.081 1286.86V1287.08L954.486 1287.37V1301.98L956.081 1302.26V1302.48H949.882V1302.26L951.478 1301.98V1287.37L949.882 1287.08V1286.86H956.081Z" fill="#9C7B63"/>
<path d="M961.698 1286.86V1287.08L960.102 1287.37V1301.98L961.698 1302.26V1302.48H955.499V1302.26L957.094 1301.98V1287.37L955.499 1287.08V1286.86H961.698Z" fill="#9C7B63"/>
<path d="M1011.63 1344.79V1345.02L1010.04 1345.3V1359.91L1011.63 1360.2V1360.42H1005.43V1360.2L1007.03 1359.91V1345.3L1005.43 1345.02V1344.79H1011.63Z" fill="#9C7B63"/>
<path d="M1017.25 1344.79V1345.02L1015.65 1345.3V1359.91L1017.25 1360.2V1360.42H1011.05V1360.2L1012.65 1359.91V1345.3L1011.05 1345.02V1344.79H1017.25Z" fill="#9C7B63"/>
<path d="M1022.87 1344.79V1345.02L1021.27 1345.3V1359.91L1022.87 1360.2V1360.42H1016.67V1360.2L1018.26 1359.91V1345.3L1016.67 1345.02V1344.79H1022.87Z" fill="#9C7B63"/>
<path d="M943.847 1422.96L936.916 1407.84L935.346 1407.55V1407.33H942.016V1407.55L940.159 1407.81L946.123 1420.9H946.411L949.628 1413.66C949.872 1413.1 950.064 1412.57 950.204 1412.05C950.343 1411.52 950.413 1411.05 950.413 1410.64C950.413 1409.83 950.16 1409.17 949.654 1408.65C949.166 1408.14 948.381 1407.77 947.3 1407.55V1407.33H954.363V1407.55L952.741 1407.84L945.835 1422.96H943.847Z" fill="#9C7B63"/>
<path d="M958.787 1407.33V1407.55L957.192 1407.84V1422.45L958.787 1422.73V1422.96H952.588V1422.73L954.184 1422.45V1407.84L952.588 1407.55V1407.33H958.787Z" fill="#9C7B63"/>
<path d="M867.99 1344.79V1345.02L866.395 1345.3V1359.91L867.99 1360.2V1360.42H861.791V1360.2L863.387 1359.91V1345.3L861.791 1345.02V1344.79H867.99Z" fill="#9C7B63"/>
<path d="M878.132 1360.42V1360.2L880.015 1359.91L868.218 1345.3L866.414 1345.02V1344.79H873.528V1345.02L871.671 1345.28L883.494 1359.91L885.273 1360.2V1360.42H878.132ZM866.335 1360.42V1360.2L868.14 1359.94L874.47 1352.83L875.124 1353.67H874.235L871.828 1356.45C871.497 1356.82 871.261 1357.15 871.122 1357.46C870.982 1357.77 870.913 1358.06 870.913 1358.32C870.913 1358.82 871.157 1359.24 871.645 1359.58C872.151 1359.91 872.892 1360.11 873.868 1360.2V1360.42H866.335ZM876.563 1351.48H877.269L879.78 1348.63C880.181 1348.24 880.46 1347.89 880.617 1347.6C880.774 1347.3 880.852 1347.05 880.852 1346.83C880.852 1346.5 880.748 1346.21 880.538 1345.96C880.329 1345.71 880.015 1345.51 879.597 1345.35C879.196 1345.17 878.681 1345.06 878.054 1345.02V1344.79H885.299V1345.02L883.703 1345.28L877.138 1352.21L876.563 1351.48Z" fill="#9C7B63"/>
<path opacity="0.6" d="M311.589 452.13C335.074 457.691 404.583 328.677 412.275 394.709C413.53 338.942 601.964 503.169 488.452 523.363C491.147 526.578 497.3 531.541 511.824 537.752L570.34 562.774C623.945 598.621 613.391 695.32 575.068 728.003C969.967 725.475 873.348 780.824 859.42 849.594C855.19 870.395 779.326 887.099 960.634 999.273C931.429 1063.64 1008.56 1156.49 950.322 1154.53C900.562 1152.87 1016.82 964.658 604.604 1014.2C556.493 1090.56 444.546 802.106 418.972 821.804C359.489 697.853 156.073 866.926 142.791 857.851C70.7737 895.972 -42.9447 872.159 -78.9114 875.712C-128.579 880.639 -113.733 771.176 -166.411 800.78C-219.089 830.384 -249.908 809.134 -223.96 761.569C-198.012 714.004 -270.23 714.294 -253.149 711.561C-204.521 703.787 -218.471 669.845 -204.766 668.111C-210.723 667.429 -218.747 670.277 -228.776 657.844C-296.717 573.59 -179.546 582.472 -166.143 571.605C-130.602 542.724 -139.058 535.794 -116.298 494.403C-122.826 492.927 -190.288 434.61 -152.709 416.802C-121.47 409.107 -121.509 405.91 -66.0616 413.558C-36.6952 365.251 -31.6477 370.643 24.0449 319.678C66.6973 280.661 98.735 305.618 112.329 310.371C259.037 185.653 274.288 381.102 285.857 396.206C298.945 413.302 311.839 445.313 311.589 452.13Z" fill="url(#paint8_linear_40_2)"/>
<path d="M1032.13 1163.62C1032.13 1163.62 1039.69 1154.42 1046.84 1154.42C1053.99 1154.42 1061.56 1163.62 1061.56 1163.62L1055.56 1174.66L1061.56 1190.29V1257.42H1032.13V1190.29L1039.21 1174.66L1032.13 1163.62Z" fill="#5E4747"/>
<path d="M905.159 1145.99V1137.55L912.243 1134.65C912.243 1134.65 917.759 1123.21 919.872 1115.74C922.36 1106.96 919.872 1093.06 919.872 1093.06C919.872 1093.06 925.417 1100.79 945.485 1101.2C965.179 1101.6 967.827 1091.89 967.827 1091.89C967.827 1091.89 966.321 1106.92 967.827 1115.74C969.1 1123.2 973.821 1134.65 973.821 1134.65L981.995 1137.55V1145.99H972.186C972.186 1145.99 971.834 1163.8 973.821 1174.2C977.689 1194.43 1014.69 1222.48 1014.69 1222.48H871.918C871.918 1222.48 911.297 1194.58 915.513 1174.2C917.661 1163.81 915.513 1145.99 915.513 1145.99H905.159Z" fill="#5E4747"/>
<ellipse cx="946.031" cy="1353.98" rx="7.62912" ry="6.4374" fill="#9C7B63"/>
<path d="M815.245 1163.62C815.245 1163.62 822.808 1154.42 829.958 1154.42C837.109 1154.42 844.672 1163.62 844.672 1163.62L838.677 1174.66L844.672 1190.29V1257.42H815.245V1190.29L822.329 1174.66L815.245 1163.62Z" fill="#5E4747"/>
<path d="M945.548 1325.38C947.142 1323.21 956.713 1319.39 956.713 1319.39C956.713 1319.39 963.461 1326.44 963.83 1328.99C964.239 1331.82 955.444 1332.02 955.444 1332.02L957.86 1342.46L953.482 1347.16L954.395 1354.95L950.556 1357.71L944.472 1379.64L946.617 1382.99L932.309 1380.17L936.523 1378.07L942.607 1356.14L940.087 1352.13L945.534 1345.59L943.552 1339.63L951.47 1331.24C951.47 1331.24 943.776 1327.79 945.548 1325.38Z" fill="#543737"/>
<path d="M903.706 1330.84C900.705 1328.28 895.967 1320.03 895.967 1320.03C895.967 1320.03 906.696 1321.75 910.411 1323.52C914.522 1325.48 904.994 1324.69 904.994 1324.69L929.352 1337.24L935.777 1343.29L947.1 1348.81L950.763 1353.07L981.92 1373.39L986.932 1374.8L981.685 1380.52L979.004 1376.57L947.848 1356.25L941.852 1354.54L932.862 1346.47L924.105 1342.96L903.297 1326.5C903.297 1326.5 907.042 1333.69 903.706 1330.84Z" fill="#5E4747"/>
<line y1="-2" x2="317.279" y2="-2" transform="matrix(0.00687013 0.999976 -0.999975 0.00706822 936.221 1558.1)" stroke="#543737" stroke-width="4"/>
<line y1="-2" x2="317.279" y2="-2" transform="matrix(0.00687013 0.999976 -0.999975 0.00706822 956.928 1558.1)" stroke="#543737" stroke-width="4"/>
<ellipse cx="409.75" cy="1240.4" rx="53.391" ry="53.391" fill="#B09D8F"/>
<path d="M416.64 1695.51C416.64 1695.51 440.985 1676.14 464.003 1676.14C487.021 1676.14 511.366 1695.51 511.366 1695.51L492.07 1718.76L511.366 1751.7V1893.15C511.366 1893.15 558.781 1908.55 464.379 1908.17C369.977 1907.78 416.64 1893.15 416.64 1893.15V1751.7L439.444 1718.76L416.64 1695.51Z" fill="#5E4747"/>
<ellipse cx="509.644" cy="1238.67" rx="53.391" ry="53.391" fill="#B09D8F"/>
<path d="M430.419 1328.82C430.419 1328.82 447.239 1319.62 463.143 1319.62C479.046 1319.62 495.866 1328.82 495.866 1328.82L482.534 1339.86L495.866 1355.5V1379.9H430.419V1355.5L446.175 1339.86L430.419 1328.82Z" fill="#5E4747"/>
<path d="M495.794 1407.42C495.794 1407.42 479.167 1417.01 463.378 1417.43C447.59 1417.86 430.819 1409.16 430.819 1409.16L443.968 1397.84L430.61 1382.65L430.419 1358.4L495.394 1356.66L495.585 1380.91L480.065 1396.87L495.794 1407.42Z" fill="#5E4747"/>
<rect x="451.086" y="1111.23" width="24.1121" height="583.857" fill="#5E4747"/>
<ellipse cx="549.256" cy="1192.17" rx="53.391" ry="53.391" fill="#FFEDC3"/>
<path d="M432.14 1193.9C432.14 1223.38 408.236 1247.29 378.749 1247.29C349.262 1247.29 325.358 1223.38 325.358 1193.9C325.358 1164.41 349.262 1140.5 378.749 1140.5C408.236 1140.5 432.14 1164.41 432.14 1193.9Z" fill="#FFEDC3"/>
<ellipse cx="463.142" cy="1085.39" rx="53.391" ry="53.391" fill="#FFEDC3"/>
<path d="M470.892 1190.45C484.671 1127.76 513.95 1141.94 526.867 1156.87M457.114 1190.32C443.336 1127.63 414.057 1141.81 401.14 1156.74" stroke="#5E4747" stroke-width="14"/>
<circle cx="72.0419" cy="1192.88" r="25.3329" fill="#B09D8F"/>
<path d="M75.3108 1408.82C75.3108 1408.82 86.8619 1399.63 97.7836 1399.63C108.705 1399.63 120.256 1408.82 120.256 1408.82L111.101 1419.85L120.256 1435.48V1502.6C120.256 1502.6 142.754 1509.91 97.9619 1509.72C53.17 1509.54 75.3108 1502.6 75.3108 1502.6V1435.48L86.131 1419.85L75.3108 1408.82Z" fill="#5E4747"/>
<circle cx="119.439" cy="1192.06" r="25.3329" fill="#B09D8F"/>
<path d="M81.8487 1234.84C81.8487 1234.84 89.8294 1230.47 97.3753 1230.47C104.921 1230.47 112.902 1234.84 112.902 1234.84L106.576 1240.07L112.902 1247.49V1259.07H81.8487V1247.49L89.3244 1240.07L81.8487 1234.84Z" fill="#5E4747"/>
<path d="M112.868 1272.13C112.868 1272.13 104.979 1276.68 97.4872 1276.88C89.9957 1277.08 82.0383 1272.95 82.0383 1272.95L88.2774 1267.58L81.9392 1260.38L81.8486 1248.87L112.678 1248.04L112.769 1259.55L105.405 1267.12L112.868 1272.13Z" fill="#5E4747"/>
<rect x="91.6553" y="1131.59" width="11.4407" height="277.028" fill="#5E4747"/>
<circle cx="138.235" cy="1170" r="25.3329" fill="#FFEDC3"/>
<path d="M82.6658 1170.82C82.6658 1184.81 71.3239 1196.15 57.3329 1196.15C43.3419 1196.15 32 1184.81 32 1170.82C32 1156.82 43.3419 1145.48 57.3329 1145.48C71.3239 1145.48 82.6658 1156.82 82.6658 1170.82Z" fill="#FFEDC3"/>
<circle cx="97.3749" cy="1119.33" r="25.3329" fill="#FFEDC3"/>
<path d="M101.053 1169.18C107.59 1139.44 121.483 1146.16 127.611 1153.25" stroke="#5E4747" stroke-width="5"/>
<path d="M94.5146 1169.12C87.9771 1139.38 74.0849 1146.1 67.9559 1153.19" stroke="#5E4747" stroke-width="5"/>
<g opacity="0.5" style="mix-blend-mode:multiply">
<path d="M-8.19001 2114.39V1808.64C-8.19001 1808.64 810.8 1908.57 1021.91 1681.17C1376.13 1299.62 1228.14 531.577 1331.11 553.458C1815.35 656.361 1310.01 1839.86 1510.75 1868.27C1683.5 1892.72 1607.23 2013.53 1607.23 2013.53V3128.18L1138.61 3547C1138.61 3547 -17.7873 3435.63 -307.69 3435.63C-573.59 3435.63 -165.265 2728.42 -362.822 2597.57C-560.378 2466.72 -163.938 2312.92 -163.938 2312.92V2223.22L-8.19001 2114.39Z" fill="#FFBFA0"/>
</g>
</g>
<defs>
<filter id="filter0_d_40_2" x="594" y="86" width="1062" height="775.258" filterUnits="userSpaceOnUse" color-interpolation-filters="sRGB">
<feFlood flood-opacity="0" result="BackgroundImageFix"/>
<feColorMatrix in="SourceAlpha" type="matrix" values="0 0 0 0 0 0 0 0 0 0 0 0 0 0 0 0 0 0 127 0" result="hardAlpha"/>
<feOffset dy="4"/>
<feGaussianBlur stdDeviation="2"/>
<feComposite in2="hardAlpha" operator="out"/>
<feColorMatrix type="matrix" values="0 0 0 0 0 0 0 0 0 0 0 0 0 0 0 0 0 0 0.25 0"/>
<feBlend mode="normal" in2="BackgroundImageFix" result="effect1_dropShadow_40_2"/>
<feBlend mode="normal" in="SourceGraphic" in2="effect1_dropShadow_40_2" result="shape"/>
</filter>
<linearGradient id="paint0_linear_40_2" x1="1153.21" y1="424.001" x2="1153.21" y2="977.369" gradientUnits="userSpaceOnUse">
<stop offset="0.264427" stop-color="#CEDFF6"/>
<stop offset="0.79328" stop-color="#A1D4F2"/>
</linearGradient>
<linearGradient id="paint1_linear_40_2" x1="263.279" y1="1465.51" x2="263.279" y2="-59.1452" gradientUnits="userSpaceOnUse">
<stop stop-color="#5494BA"/>
<stop offset="1" stop-color="white"/>
</linearGradient>
<linearGradient id="paint2_linear_40_2" x1="13.7785" y1="1443" x2="13.7785" y2="-387.167" gradientUnits="userSpaceOnUse">
<stop stop-color="#145174"/>
<stop offset="1" stop-color="#2698DA"/>
</linearGradient>
<linearGradient id="paint3_linear_40_2" x1="997.529" y1="1455.12" x2="997.529" y2="621.552" gradientUnits="userSpaceOnUse">
<stop stop-color="#145174"/>
<stop offset="1" stop-color="#2698DA"/>
</linearGradient>
<linearGradient id="paint4_linear_40_2" x1="1189.53" y1="1442.82" x2="1189.53" y2="442.213" gradientUnits="userSpaceOnUse">
<stop stop-color="#145174"/>
<stop offset="1" stop-color="#2698DA"/>
</linearGradient>
<linearGradient id="paint5_linear_40_2" x1="1216.78" y1="1658.18" x2="1216.78" y2="257.186" gradientUnits="userSpaceOnUse">
<stop stop-color="#5494BA"/>
<stop offset="1" stop-color="white"/>
</linearGradient>
<linearGradient id="paint6_linear_40_2" x1="1444.23" y1="1637.5" x2="1444.23" y2="-44.2315" gradientUnits="userSpaceOnUse">
<stop stop-color="#145174"/>
<stop offset="1" stop-color="#2698DA"/>
</linearGradient>
<linearGradient id="paint7_linear_40_2" x1="808" y1="2977" x2="808" y2="3809.5" gradientUnits="userSpaceOnUse">
<stop stop-color="#AED195"/>
<stop offset="0.26391" stop-color="#8CAB80"/>
<stop offset="0.479954" stop-color="#708B6F"/>
<stop offset="0.768013" stop-color="#445B55"/>
<stop offset="1" stop-color="#2C4252"/>
</linearGradient>
<linearGradient id="paint8_linear_40_2" x1="982.528" y1="1124.37" x2="-560.947" y2="354.902" gradientUnits="userSpaceOnUse">
<stop stop-color="#FFE0E0"/>
<stop offset="0.947128" stop-color="white" stop-opacity="0.1"/>
</linearGradient>
<clipPath id="clip0_40_2">
<rect width="1440" height="8557" fill="white" transform="translate(0 -4955)"/>
</clipPath>
</defs>
</svg>
