<svg width="92" height="90" viewBox="0 0 92 90" fill="none" xmlns="http://www.w3.org/2000/svg">
<path d="M76.8674 61.2095C56.6593 62.477 -7.49696 62.5804 8.20622 48.1063C49.3314 10.2001 82.4791 36.2564 79.7823 49.9906C65.0902 47.5174 70.3769 56.6666 76.8674 61.2095Z" fill="#D985A0"/>
<path d="M35.2523 48.6036C24.3481 51.5253 11.8801 58.4115 10.3084 52.5459C8.73672 46.6803 18.0068 38.3641 35.6202 32.3828C59.6235 25.9918 70.9552 32.2093 72.5269 38.0749C74.0986 43.9404 46.1565 45.6818 35.2523 48.6036Z" fill="url(#paint0_linear_875_2994)" fill-opacity="0.3"/>
<path d="M7.03883 50.699C26.375 38.6277 48.6749 35.7893 51.91 38.8039C31.1672 38.8513 11.3189 56.263 7.03883 50.699Z" fill="url(#paint1_linear_875_2994)"/>
<path d="M7.70056 51.6272C27.9493 42.824 49.5664 44.0096 52.166 47.6868C32.4643 43.9315 10.8931 58.104 7.70056 51.6272Z" fill="url(#paint2_linear_875_2994)"/>
<defs>
<linearGradient id="paint0_linear_875_2994" x1="70.838" y1="31.772" x2="9.16962" y2="48.2961" gradientUnits="userSpaceOnUse">
<stop stop-color="#D985A0" stop-opacity="0"/>
<stop offset="1" stop-color="#FFB9CF"/>
</linearGradient>
<linearGradient id="paint1_linear_875_2994" x1="13.717" y1="48.3891" x2="42.8671" y2="42.6026" gradientUnits="userSpaceOnUse">
<stop offset="0.283658" stop-color="#FFDFE9"/>
<stop offset="1" stop-color="#FFA4C1" stop-opacity="0.02"/>
</linearGradient>
<linearGradient id="paint2_linear_875_2994" x1="14.4028" y1="50.4888" x2="42.9767" y2="49.6285" gradientUnits="userSpaceOnUse">
<stop offset="0.283658" stop-color="#FFDFE9"/>
<stop offset="1" stop-color="#FFA4C1" stop-opacity="0.02"/>
</linearGradient>
</defs>
</svg>
