<svg width="449" height="318" viewBox="0 0 449 318" fill="none" xmlns="http://www.w3.org/2000/svg">
<path d="M245.046 131.72C127.441 147.203 29.843 187.696 0.604105 272.849C-2.57179 282.098 5.48713 303.979 55.9838 317.51C86.9487 317.51 149.474 294.882 206.64 317.51C257.256 316.121 376.59 307.218 449 282.721C418.035 187.1 411.485 237.716 376.947 157.922C370.397 149.188 334.846 131.72 245.046 131.72Z" fill="#A5A5A5"/>
<mask id="mask0_1191_130" style="mask-type:alpha" maskUnits="userSpaceOnUse" x="0" y="131" width="449" height="187">
<path d="M245.046 131.72C127.441 147.203 29.843 187.696 0.604105 272.849C-2.57179 282.098 5.48713 303.979 55.9838 317.51C86.9487 317.51 149.474 294.882 206.64 317.51C257.256 316.121 376.59 307.218 449 282.721C418.035 187.1 411.485 237.716 376.947 157.922C370.397 149.188 334.846 131.72 245.046 131.72Z" fill="#A5A5A5"/>
</mask>
<g mask="url(#mask0_1191_130)">
<path d="M215.853 262.882C412.08 176.977 400.41 284.093 493.039 262.882C431.754 283.672 393.594 338.352 129.573 325.251C-13.9402 318.13 -14.5689 283.672 3.16614 262.882V240.693C9.73576 248.089 38.3132 262.882 100.066 262.882C130.709 256.085 196.766 246.57 215.853 262.882Z" fill="#7A7575"/>
<path d="M235.698 185.083C250.517 183.559 288.199 170.587 320.377 130.886L165.838 93.0144H61.4008L0.00872803 213.813C24.745 218.819 86.3318 225.828 134.789 213.813C147.02 204.236 184.326 185.083 235.698 185.083Z" fill="#D5849E"/>
<path d="M251.5 175.964C265.873 172.048 270.882 140.032 296.167 95.6223L137.524 83.4177L34.4804 100.422L-6.42385 229.605C18.7974 230.517 80.7036 227.404 126.558 207.66C137.067 196.219 200.814 184.328 251.5 175.964Z" fill="#AED195"/>
</g>
<path d="M363.903 205.165C363.903 211.084 313.468 205.165 276.963 205.165C260.885 214.097 244.211 196.828 193 208.738C193 202.818 240.458 178.964 276.963 178.964C321.028 186.109 363.903 199.245 363.903 205.165Z" fill="#939393"/>
<path fill-rule="evenodd" clip-rule="evenodd" d="M263.008 192.544C263.008 192.544 270.076 193.911 271.614 192.711C271.614 192.711 279.465 157.309 285.583 134.973C287.926 130.62 288.687 122.892 284.84 119.795C277.911 114.059 267.392 116.686 260.782 122.947L263.008 192.544Z" fill="#939393"/>
<path fill-rule="evenodd" clip-rule="evenodd" d="M245.828 191.932C245.828 191.932 257.576 194.153 259.113 192.953C259.113 192.953 246.216 178.513 247.864 163.316C248.758 155.075 260.791 146.993 262.941 139.143C265.283 134.792 273.951 122.501 270.107 119.405C266.269 116.227 254.5 114.334 248.067 120.43C243.704 124.626 237.144 128.119 237.217 128.454C239.285 139.204 230.044 158.192 230.7 161.997C233.3 177.083 245.828 191.932 245.828 191.932Z" fill="#D2D2D2"/>
<path fill-rule="evenodd" clip-rule="evenodd" d="M299.764 120.255C299.764 120.255 289.463 127.992 300.957 136.206C305.406 139.386 314.561 158.791 315.882 164.945C318.475 177.019 308.561 195.606 308.561 195.606C311.109 196.46 317.561 197.406 320.298 196.957C320.298 196.957 325.899 181.388 330.196 171.77C335.587 159.949 324.059 148.596 329.435 136.768C332.184 130.718 339.767 103.791 322.918 98.872C306.063 94.0351 299.119 104.884 299.764 120.255Z" fill="#939393"/>
<path fill-rule="evenodd" clip-rule="evenodd" d="M315.481 121.322C315.481 121.322 312.298 139.929 323.808 148.151C328.264 151.333 330.301 159.889 331.624 166.048C334.221 178.132 324.294 196.733 324.294 196.733C326.846 197.589 333.307 198.535 336.048 198.086C336.048 198.086 341.657 182.505 345.959 172.879C351.357 161.049 339.812 149.687 345.195 137.849C347.948 131.795 355.541 104.846 338.667 99.9221C321.788 95.0804 314.834 105.938 315.481 121.322Z" fill="#D2D2D2"/>
<path fill-rule="evenodd" clip-rule="evenodd" d="M344.767 106.644C353.35 103.988 357.546 117.254 352.669 135.244C347.542 154.154 354.515 167.946 358.135 172.686C362.117 177.898 379.271 185.587 379.271 185.587C371.91 180.047 370.215 170.325 370.215 170.325C371.841 175.552 382.259 175.459 382.259 175.459C376.485 173.74 368.308 152.069 369.897 139.565C371.878 122.822 376.393 107.074 371.322 97.5999C366.25 88.1261 361.226 87.5688 355.399 88.8883C350.27 90.05 344.569 100.322 340.8 102.003L344.767 106.644Z" fill="#D5849E"/>
<path fill-rule="evenodd" clip-rule="evenodd" d="M239.731 36.7171C239.731 36.7171 241.117 30.8318 233.651 24.2665C229.012 20.1258 228.947 14.2341 227.023 15.4528C225.098 16.6715 222.22 34.0054 231.078 38.6804C236.302 41.3944 238.804 41.5865 239.731 36.7171Z" fill="#939393"/>
<path fill-rule="evenodd" clip-rule="evenodd" d="M238.941 61.3149C244.759 72.487 238.33 117.925 243.274 125.887C248.315 133.856 288.796 107.606 281.078 85.6347C273.36 63.6637 254.323 41.7711 254.323 41.7711C248.045 37.603 240.648 50.915 238.941 61.3149Z" fill="#D2D2D2"/>
<path fill-rule="evenodd" clip-rule="evenodd" d="M219.413 45.9857C217.603 51.0897 200.307 64.0314 204.275 72.2008C209.05 82.1656 209.398 80.8918 219.948 77.7306C241.499 74.1431 255.428 62.6966 256.327 51.5149C257.226 40.3333 249.341 30.5522 238.751 29.7386C228.161 28.9251 223.301 34.9245 219.413 45.9857Z" fill="#D2D2D2"/>
<path fill-rule="evenodd" clip-rule="evenodd" d="M208.35 70.2768C209.192 69.6187 208.261 67.2586 206.579 68.5748C205.009 69.8997 206.79 71.4819 208.35 70.2768Z" fill="#939393"/>
<path fill-rule="evenodd" clip-rule="evenodd" d="M236.71 126.658C239.957 147.923 269.804 149.806 291.977 142.447C301.281 139.368 312.565 146.43 333.359 144.866C345.59 144.12 355.168 128.25 349.898 111.3C344.629 94.3512 329.304 87.317 315.518 93.6344C299.031 101.22 280.89 89.9372 275.288 85.8185C270.144 82.0512 251.035 75.5073 245.601 85.3116C245.601 85.3116 233.847 116.638 236.71 126.658Z" fill="#D2D2D2"/>
<path fill-rule="evenodd" clip-rule="evenodd" d="M232.757 24.3231C232.757 24.3231 221.222 23.2351 214.831 32.6386C208.44 42.0422 203.183 40.2249 203.183 40.2249C203.183 40.2249 210.334 43.8031 213.647 39.8171C213.647 39.8171 212.838 46.8225 207.881 52.1978C202.923 57.5731 201.121 57.7762 201.121 57.7762C201.121 57.7762 225.713 52.4385 228.825 39.3677C231.706 27.2713 237.574 29.9434 237.574 29.9434C237.574 29.9434 238.893 25.6022 232.757 24.3231Z" fill="#D5849E"/>
<path fill-rule="evenodd" clip-rule="evenodd" d="M249.857 34.3644C249.857 34.3644 256.557 46.135 260.438 53.7137C264.319 61.2924 257.575 84.7235 253.185 89.9537C253.185 89.9537 269.681 85.3107 270.414 80.6561C270.414 80.6561 271.108 96.7725 275.111 102.647C279.113 108.522 276.552 116.562 271.823 120.909C271.823 120.909 288.189 116.5 285.81 104.754C285.81 104.754 296.899 113.302 300.177 113.373C300.177 113.373 294.639 104.737 294.937 100.542C295.935 96.9722 299.332 95.239 303.8 96.3659C305.155 96.7077 298.203 94.8407 294.631 89.1122C291.058 83.3837 292.962 69.7236 284.126 58.7115C275.291 47.6994 255.527 28.0905 249.857 34.3644Z" fill="#D5849E"/>
<path fill-rule="evenodd" clip-rule="evenodd" d="M229.479 31.0794C232.592 29.9794 230.524 24.3237 226.869 24.1304C226.869 24.1304 227.393 21.7018 222.954 19.3726C222.954 19.3726 222.255 14.2376 219.378 13.7693C219.378 13.7693 219.91 10.2407 215.713 8.75419C215.382 5.65913 209.563 2.28319 207.399 0.160005C208.073 2.3628 209.024 9.07142 211.55 9.48254C211.55 9.48254 210.446 11.9139 214.437 14.7727C214.437 14.7727 212.613 17.4846 217.052 19.8138C217.052 19.8138 215.619 21.593 220.451 26.1956C220.451 26.1956 220.133 31.9684 224.028 31.7989C227.801 31.208 229.089 31.2169 229.479 31.0794Z" fill="#FFFCEF"/>
<path d="M223.922 58.4643C224.127 59.1601 223.084 60.9224 221.322 61.4822C219.56 62.0421 217.747 61.1875 217.542 60.4916C217.337 59.7957 219.094 60.4578 220.856 59.898C222.618 59.3381 223.717 57.7684 223.922 58.4643Z" fill="#292929"/>
<path fill-rule="evenodd" clip-rule="evenodd" d="M250.639 36.9025C250.639 36.9025 252.022 30.9974 244.596 24.4157C239.982 20.2646 239.921 14.3541 238.005 15.5779C236.089 16.8017 233.215 34.1929 242.027 38.8774C247.225 41.5968 249.618 41.7807 250.639 36.9025Z" fill="#D2D2D2"/>
<ellipse cx="239.987" cy="229.975" rx="10.1231" ry="4.76383" fill="#AED195"/>
<ellipse cx="175.675" cy="239.502" rx="10.1231" ry="4.76383" fill="#D5849E"/>
<ellipse cx="94.6899" cy="253.794" rx="10.1231" ry="4.76383" fill="#D5849E"/>
<ellipse cx="388.857" cy="215.683" rx="10.1231" ry="4.76383" fill="#AED195"/>
<ellipse cx="398.384" cy="227.593" rx="10.1231" ry="4.76383" transform="rotate(19.3866 398.384 227.593)" fill="#AED195"/>
<path d="M260.519 254.815C261.569 257.228 250.459 257.241 239.602 261.963C228.745 266.684 219.092 268.555 218.043 266.143C216.994 263.73 224.945 257.947 235.803 253.225C246.66 248.504 259.47 252.402 260.519 254.815Z" fill="#AED195"/>
<path d="M185.798 246.648C185.798 249.279 176.2 251.412 164.361 251.412C152.522 251.412 141.733 254.043 141.733 251.412C141.733 248.781 152.522 241.884 164.361 241.884C176.2 241.884 185.798 244.017 185.798 246.648Z" fill="#AED195"/>
<ellipse cx="264.997" cy="229.975" rx="8.93219" ry="4.76383" fill="#D5849E"/>
<ellipse cx="85.1623" cy="249.03" rx="8.93219" ry="4.76383" fill="#AED195"/>
<ellipse cx="273.929" cy="225.211" rx="8.33671" ry="4.76383" fill="#AED195"/>
</svg>
