<svg width="373" height="75" viewBox="0 0 373 75" fill="none" xmlns="http://www.w3.org/2000/svg">
<path d="M77.1232 46.7855C77.2814 45.2203 77.5382 45.3324 82.0033 48.1919C83.7215 49.2923 85.4856 50.3783 85.9235 50.6053C85.9235 50.6053 86.4345 50.9277 86.7198 51.018C87.0644 51.1271 87.4333 51.1652 87.7951 51.1646C89.5693 51.1603 90.9527 49.6746 91.0435 49.5749C91.4707 49.1675 91.8579 48.7685 92.0953 47.9756C92.4373 46.9606 92.091 46.0079 91.75 45.0506C91.1527 43.5414 89.741 40.6137 89.741 40.6137L87.6016 36.1665L89.0733 34.8131C91.6964 32.4009 95.9952 28.6425 96.9486 27.9278C97.4598 27.5446 97.8024 27.0984 97.8781 26.9769C97.8781 26.9769 97.9328 26.8815 97.9296 26.8295C97.9278 26.7899 97.9167 26.7309 97.8781 26.7225C97.8379 26.714 97.5632 26.8216 97.5632 26.8216C97.39 26.8762 94.7438 27.9879 91.6827 29.2923C85.1267 32.0857 86.0134 31.9173 85.3114 30.5026C85.3114 30.5026 84.9622 29.7094 84.7352 29.3415C84.4768 28.9226 84.1948 28.5101 83.8471 28.1605C83.3885 27.6993 82.8555 27.306 82.2927 26.9773C82.0513 26.8362 81.522 26.6451 81.522 26.6451C80.9751 26.3968 80.5277 26.1746 80.5277 26.1516C80.5277 26.1285 80.7616 25.4229 81.0476 24.5838L81.5674 23.058H80.282C69.3774 23.058 60.3568 31.9815 59.865 43.2552L59.7693 45.4505L60.0573 47.3876C60.2157 48.453 60.499 49.8744 60.6868 50.5464C60.758 50.8009 60.8143 51.0158 60.855 51.1926C60.8722 51.2673 60.8868 51.3352 60.8984 51.3965C60.9377 51.6027 61.1536 52.1421 61.1081 52.077C61.0624 52.0121 60.9297 51.8301 60.8429 51.705C60.7114 51.5156 60.5842 51.3233 60.4554 51.1321C60.0633 50.5497 59.6264 49.9942 59.2827 49.3824C58.9417 48.7756 58.6622 48.1348 58.4063 47.488C58.0137 46.4959 57.6569 45.4852 57.399 44.4505C57.0859 43.1946 56.8489 41.9132 56.7485 40.6232C56.6304 39.1077 56.6537 37.5758 56.8078 36.0636C56.9325 34.8403 57.1871 33.6287 57.505 32.4403C57.7601 31.4871 58.0653 30.5414 58.4721 29.6415C59.243 27.9362 60.0802 26.2247 61.2452 24.7558C63.0703 22.4547 65.2515 20.368 67.7221 18.7661C69.7608 17.4443 72.0725 16.4983 74.4305 15.8939C76.7812 15.2914 79.2535 15.0807 81.6791 15.1852C83.7077 15.2728 85.7531 15.6237 87.6668 16.2973C90.3722 17.2496 92.9782 18.6128 95.2375 20.3695C97.1322 21.8427 98.741 23.696 100.097 25.6693C101.219 27.3022 102.06 29.1286 102.742 30.9854C103.238 32.334 103.568 33.747 103.775 35.1676C104.005 36.7447 104.064 38.3507 104 39.9429C103.954 41.0653 103.795 42.1847 103.569 43.2855C103.336 44.428 103.058 45.5725 102.617 46.6532C101.902 48.4073 100.961 50.0774 99.8956 51.6468C99.1313 52.7722 98.241 53.8176 97.2833 54.7866C96.3591 55.7215 95.3363 56.5618 94.2793 57.3461C93.6348 57.8244 92.9993 58.3492 92.2526 58.6485C90.7953 59.2326 89.537 59.1743 87.5554 59.059C86.3335 58.9882 84.4385 58.4584 83.059 57.7267C81.8647 57.0932 80.8069 56.1794 79.9301 55.1554C79.0267 54.1004 78.2765 52.8777 77.8164 51.5709C77.2808 50.0495 76.9884 48.12 77.1232 46.7855Z" fill="white"/>
<path d="M192.355 57.0312C187.311 57.0312 182.751 55.9529 178.677 53.7962C174.651 51.6396 171.473 48.6625 169.145 44.8649C166.865 41.0204 165.726 36.7306 165.726 31.9953C165.726 27.2601 166.865 22.9937 169.145 19.1961C171.473 15.3516 174.675 12.3511 178.749 10.1944C182.824 8.03778 187.383 6.95945 192.428 6.95945C196.211 6.95945 199.704 7.56894 202.905 8.78792C206.106 10.0069 208.823 11.7885 211.054 14.1327L207.634 17.438C203.657 13.5466 198.637 11.6009 192.573 11.6009C188.547 11.6009 184.885 12.4917 181.587 14.2733C178.289 16.0549 175.693 18.4928 173.802 21.5872C171.959 24.6815 171.037 28.1509 171.037 31.9953C171.037 35.8398 171.959 39.3092 173.802 42.4035C175.693 45.4978 178.289 47.9358 181.587 49.7174C184.885 51.4989 188.547 52.3897 192.573 52.3897C198.685 52.3897 203.705 50.4206 207.634 46.4824L211.054 49.7877C208.823 52.1319 206.082 53.9369 202.832 55.2027C199.631 56.4217 196.139 57.0312 192.355 57.0312Z" fill="white"/>
<path d="M242.654 56.9609C238.967 56.9609 235.645 56.1639 232.686 54.5698C229.727 52.9289 227.399 50.6785 225.701 47.8186C224.003 44.9587 223.155 41.7237 223.155 38.1137C223.155 34.5036 224.003 31.2686 225.701 28.4087C227.399 25.5488 229.727 23.3219 232.686 21.7278C235.645 20.1338 238.967 19.3367 242.654 19.3367C246.34 19.3367 249.663 20.1338 252.622 21.7278C255.58 23.3219 257.885 25.5488 259.534 28.4087C261.231 31.2686 262.08 34.5036 262.08 38.1137C262.08 41.7237 261.231 44.9587 259.534 47.8186C257.885 50.6785 255.58 52.9289 252.622 54.5698C249.663 56.1639 246.34 56.9609 242.654 56.9609ZM242.654 52.5304C245.37 52.5304 247.795 51.9443 249.93 50.7722C252.112 49.5533 253.81 47.842 255.023 45.6385C256.235 43.4349 256.842 40.9267 256.842 38.1137C256.842 35.3006 256.235 32.7924 255.023 30.5888C253.81 28.3853 252.112 26.6975 249.93 25.5254C247.795 24.3064 245.37 23.6969 242.654 23.6969C239.937 23.6969 237.488 24.3064 235.305 25.5254C233.171 26.6975 231.473 28.3853 230.212 30.5888C228.999 32.7924 228.393 35.3006 228.393 38.1137C228.393 40.9267 228.999 43.4349 230.212 45.6385C231.473 47.842 233.171 49.5533 235.305 50.7722C237.488 51.9443 239.937 52.5304 242.654 52.5304Z" fill="white"/>
<path d="M314.827 4.42773V56.6093H309.879V49.2954C308.327 51.7802 306.265 53.679 303.695 54.9918C301.172 56.3045 298.31 56.9609 295.109 56.9609C291.52 56.9609 288.27 56.1639 285.359 54.5698C282.449 52.9758 280.169 50.7488 278.52 47.8889C276.871 45.029 276.046 41.7706 276.046 38.1137C276.046 34.4567 276.871 31.1983 278.52 28.3384C280.169 25.4785 282.449 23.275 285.359 21.7278C288.27 20.1338 291.52 19.3367 295.109 19.3367C298.213 19.3367 301.002 19.9697 303.476 21.2355C305.999 22.4545 308.06 24.2595 309.661 26.6506V4.42773H314.827ZM295.546 52.5304C298.213 52.5304 300.614 51.9443 302.749 50.7722C304.931 49.5533 306.629 47.842 307.842 45.6385C309.103 43.4349 309.733 40.9267 309.733 38.1137C309.733 35.3006 309.103 32.7924 307.842 30.5888C306.629 28.3853 304.931 26.6975 302.749 25.5254C300.614 24.3064 298.213 23.6969 295.546 23.6969C292.829 23.6969 290.38 24.3064 288.197 25.5254C286.063 26.6975 284.365 28.3853 283.104 30.5888C281.891 32.7924 281.285 35.3006 281.285 38.1137C281.285 40.9267 281.891 43.4349 283.104 45.6385C284.365 47.842 286.063 49.5533 288.197 50.7722C290.38 51.9443 292.829 52.5304 295.546 52.5304Z" fill="white"/>
<path fill-rule="evenodd" clip-rule="evenodd" d="M305.08 0H319.407V61.0367H305.298V59.1749C302.183 60.6789 298.755 61.3884 295.109 61.3884C290.788 61.3884 286.75 60.4205 283.101 58.4218C279.45 56.4221 276.572 53.6041 274.519 50.0444C272.447 46.4511 271.466 42.435 271.466 38.1135C271.466 33.792 272.447 29.776 274.519 26.1827C276.573 22.6203 279.459 19.8172 283.126 17.8618C286.769 15.8724 290.798 14.909 295.109 14.909C298.667 14.909 302.02 15.599 305.08 17.0559V0ZM300.471 46.9305C301.886 46.1373 302.98 45.0446 303.797 43.5591L303.815 43.527L303.833 43.4951C304.677 42.0217 305.153 40.2662 305.153 38.1135C305.153 35.9608 304.677 34.2054 303.833 32.7319L303.815 32.7001L303.797 32.668C302.985 31.1915 301.907 30.1382 300.524 29.3957L300.471 29.3671L300.418 29.3371C299.043 28.5519 297.458 28.1244 295.546 28.1244C293.569 28.1244 291.921 28.5591 290.489 29.359L290.474 29.367L290.46 29.3749C289.114 30.1141 288.007 31.181 287.131 32.7C286.324 34.1792 285.866 35.9479 285.866 38.1135C285.866 40.2792 286.324 42.0478 287.131 43.5271C288.003 45.0405 289.114 46.1412 290.475 46.9302C291.906 47.6872 293.562 48.1026 295.546 48.1026C297.484 48.1026 299.089 47.6862 300.471 46.9305ZM176.549 6.31086C181.355 3.76697 186.682 2.53172 192.428 2.53172C196.729 2.53172 200.797 3.22637 204.584 4.66831L192.428 5.38053M204.584 4.66831C208.401 6.12158 211.704 8.27596 214.425 11.1348L217.4 14.2603L207.615 23.7185L204.376 20.5496C201.325 17.5646 197.509 16.0284 192.573 16.0284C189.277 16.0284 186.392 16.7497 183.821 18.1382C181.226 19.5401 179.23 21.4194 177.759 23.8179C176.355 26.1837 175.618 28.8743 175.618 31.9952C175.618 35.1162 176.355 37.8068 177.759 40.1726C179.23 42.5711 181.226 44.4503 183.821 45.8522C186.392 47.2407 189.277 47.962 192.573 47.962C197.551 47.962 201.345 46.4079 204.337 43.4089L207.575 40.1632L217.4 49.6598L214.425 52.7853C211.704 55.644 208.385 57.8134 204.544 59.3093L204.528 59.3158L204.511 59.3221C200.724 60.764 196.656 61.4587 192.355 61.4587C186.609 61.4587 181.282 60.2234 176.476 57.6796L176.456 57.6688C171.724 55.1341 167.951 51.6017 165.204 47.122L165.187 47.0944L165.171 47.0665C162.466 42.5058 161.145 37.4481 161.145 31.9952C161.145 26.5428 162.466 21.4992 165.183 16.9738L165.192 16.9592C167.943 12.4167 171.753 8.84956 176.549 6.31086M230.456 17.8602C234.156 15.8669 238.257 14.909 242.654 14.909C247.05 14.909 251.152 15.8669 254.852 17.8602C258.546 19.8503 261.458 22.662 263.521 26.2291C265.644 29.816 266.661 33.8153 266.661 38.1135C266.661 42.4118 265.644 46.4111 263.521 49.998C261.465 53.5541 258.568 56.3766 254.901 58.4101L254.877 58.4237L254.852 58.4371C251.152 60.4305 247.05 61.3884 242.654 61.3884C238.257 61.3884 234.156 60.4305 230.456 58.4371L230.431 58.4237L230.406 58.4101C226.743 56.3783 223.83 53.563 221.728 50.0219C219.595 46.4289 218.574 42.4213 218.574 38.1135C218.574 33.8057 219.595 29.7981 221.728 26.2051C223.836 22.6531 226.765 19.8486 230.456 17.8602ZM242.654 28.1244C240.678 28.1244 239.029 28.5591 237.597 29.359L237.582 29.367L237.568 29.3749C236.222 30.1141 235.115 31.1809 234.239 32.6997C233.432 34.179 232.974 35.9478 232.974 38.1135C232.974 40.2793 233.432 42.048 234.239 43.5273C235.112 45.0407 236.222 46.1412 237.583 46.9302C239.014 47.6872 240.67 48.1026 242.654 48.1026C244.656 48.1026 246.282 47.6794 247.652 46.9303C249.067 46.1372 250.161 45.0445 250.978 43.5591C251.796 42.0734 252.261 40.2948 252.261 38.1135C252.261 35.9323 251.796 34.1537 250.978 32.668C250.166 31.1915 249.088 30.1382 247.705 29.3957L247.652 29.3671L247.599 29.3371C246.237 28.5592 244.631 28.1244 242.654 28.1244Z" fill="white"/>
<path d="M349.865 15.7626C347.785 15.7635 345.702 16.0135 343.644 16.514C339.746 17.4608 336.084 19.5104 333.235 22.3407C329.541 26.0096 327.44 30.3673 326.737 35.8138C326.538 37.3827 326.531 40.4512 326.737 42.0671C327.583 48.921 331.249 54.7434 337.076 58.4882C340.246 60.5248 344.058 61.7513 348.669 62.2183C348.877 62.246 350.201 62.2444 351.61 62.2166C353.614 62.1889 354.442 62.1473 355.407 62.0045C358.185 61.5844 360.508 60.8774 362.857 59.7399C365.839 58.2945 367.758 56.7395 370.546 53.5053C370.546 53.4637 370.546 53.4636 370.603 53.4359L358.066 47.063C356.869 47.9086 355.873 48.3454 354.314 48.7015C353.261 48.9427 350.174 49.0204 349.094 48.8263C346.871 48.4409 345.227 47.7047 343.835 46.4733C343.256 45.9604 342.546 45.1523 342.546 45.0048C342.546 44.9494 346.131 44.9215 351.371 44.9215C354.47 44.9215 356.747 44.9493 358.323 44.9632L361.62 44.8661L367.982 44.9492H369.344L372.715 44.9215L372.773 44.6249C372.887 43.9332 373.042 38.7463 372.989 37.5538C372.765 32.5416 371.146 28.1199 368.111 24.2119C367.22 23.0641 365.681 21.5184 364.542 20.6252C362.131 18.7362 358.993 17.2043 356.074 16.4918C354.033 15.9941 351.957 15.7458 349.878 15.7472L349.865 15.7626ZM349.922 28.9512C351.94 28.9512 353.414 29.3282 354.749 30.171C355.49 30.6396 356.447 31.4575 356.905 32.0173L357.197 32.375H349.929C345.237 32.375 342.661 32.3334 342.661 32.2918C342.661 32.1296 344.117 30.7754 344.701 30.3942C346.293 29.3545 347.748 28.9469 349.922 28.9512Z" fill="white"/>
<path fill-rule="evenodd" clip-rule="evenodd" d="M0.634 15.1595H16.0673L27.4927 40.0909L38.9182 15.1595H54.0534L32.0496 62.7902C30.338 66.6088 28.1361 69.8546 25.1925 71.9546C22.2667 74.0419 18.8314 74.9999 15.1238 74.9999C12.7908 74.9999 10.5348 74.6424 8.39271 73.8894C6.18538 73.1136 4.22593 71.9262 2.57201 70.3276L0 67.8416L7.37218 56.3973L11.4506 60.3393C12.5416 61.3939 13.7089 61.8557 15.1966 61.8557C16.0396 61.8557 16.4738 61.651 16.7735 61.4193L16.8076 61.393L16.8422 61.3673C17.2579 61.0581 18.0345 60.2055 18.958 58.2611L19.7793 56.5008L0.634 15.1595Z" fill="white"/>
<path fill-rule="evenodd" clip-rule="evenodd" d="M106.638 14.9255H120.964V40.3097C120.964 43.5188 121.781 45.2023 122.682 46.1156C123.581 47.0269 125.077 47.7675 127.88 47.7675C130.911 47.7675 132.795 46.9249 134.091 45.6288C135.403 44.2727 136.323 42.1747 136.323 38.7626V14.9255H150.649V60.7711H136.541V59.3113C133.717 60.5453 130.633 61.1227 127.37 61.1227C121.501 61.1227 116.314 59.5306 112.356 55.8967L112.328 55.8706L112.3 55.8441C108.295 52.0386 106.638 46.7741 106.638 40.802V14.9255Z" fill="white"/>
</svg>
